<svg width="845" height="264" viewBox="0 0 845 264" fill="none" xmlns="http://www.w3.org/2000/svg">
<path d="M409.9 181.059C395.5 179.859 381.1 178.659 366.5 177.459C369.2 173.359 371.8 169.359 374.4 165.359C374.3 165.259 374.2 165.259 374.2 165.159C370.3 167.759 366.3 170.359 362.2 173.059C361 158.459 359.8 144.059 358.5 129.759C358.4 129.759 358.3 129.759 358.2 129.759C357 144.159 355.8 158.459 354.5 173.059C350.3 170.359 346.4 167.759 342.4 165.159C342.3 165.259 342.3 165.259 342.2 165.359C344.8 169.359 347.4 173.259 350.1 177.359C335.5 178.559 321 179.759 306.6 181.059C306.6 181.159 306.6 181.259 306.6 181.359C321 182.559 335.4 183.759 350.1 185.059C347.4 189.159 344.8 193.159 342.2 197.159C342.3 197.259 342.4 197.259 342.4 197.359C346.4 194.759 350.3 192.159 354.4 189.459C355.6 204.059 356.8 218.459 358.1 232.759C358.2 232.759 358.3 232.759 358.4 232.759C359.6 218.359 360.8 204.059 362 189.459C366.2 192.159 370.1 194.759 374 197.359L374.2 197.159C371.6 193.259 369 189.259 366.3 185.159C380.9 183.959 395.3 182.759 409.7 181.559V181.059H409.9ZM358.4 186.159C355.6 186.159 353.4 183.959 353.4 181.159C353.4 178.359 355.6 176.159 358.4 176.159C361.2 176.159 363.4 178.359 363.4 181.159C363.4 183.959 361.3 186.159 358.4 186.159Z" fill="#0032A0"/>
<path d="M354.1 211.259C341.3 209.959 329.6 198.559 328.3 185.459C329.4 185.559 330.3 185.659 331.3 185.659C332.1 185.659 332.4 185.959 332.5 186.759C333.8 192.959 337 197.959 341.9 201.859C345.1 204.459 348.7 206.159 352.8 206.959C353.5 207.159 353.9 207.359 353.9 208.159C353.9 209.259 354.1 210.259 354.1 211.259Z" fill="#0032A0"/>
<path d="M354.2 151.059C354.1 152.259 354.1 153.459 353.9 154.459C353.8 154.759 353.3 155.159 352.9 155.259C347.9 156.359 343.5 158.759 339.9 162.359C336.2 166.059 333.8 170.359 332.7 175.459C332.5 176.359 332.1 176.659 331.2 176.659C330.3 176.659 329.5 176.759 328.6 176.859C328.6 176.859 328.5 176.859 328.5 176.759C329.5 164.359 340.7 152.459 354.2 151.059Z" fill="#0032A0"/>
<path d="M388.5 176.859C387.3 176.759 386 176.659 384.8 176.459C384.6 176.459 384.3 175.859 384.2 175.559C383.1 170.359 380.6 165.859 376.8 162.159C373.2 158.659 369 156.259 364 155.259C363.1 155.059 362.7 154.659 362.8 153.759C362.8 152.859 362.7 151.959 362.6 150.959C375 152.259 387.1 163.259 388.5 176.859Z" fill="#0032A0"/>
<path d="M388.6 185.459C387.8 191.359 385.5 196.459 381.7 200.959C376.7 206.759 370.4 210.259 362.7 211.459C362.8 210.159 362.8 208.959 363 207.859C363.1 207.559 363.6 207.159 364 207.059C369.1 205.959 373.5 203.459 377.2 199.759C380.9 196.059 383.2 191.659 384.3 186.559C384.4 185.859 384.7 185.659 385.4 185.559C386.4 185.659 387.4 185.559 388.6 185.459Z" fill="#0032A0"/>
<path d="M362 181.159C362 183.059 360.4 184.759 358.5 184.759C356.6 184.759 354.9 183.159 354.9 181.259C354.9 180.759 355 180.259 355.2 179.859C355.3 179.659 355.4 179.459 355.5 179.259C356.1 178.359 357.2 177.659 358.4 177.659C359.4 177.659 360.3 178.059 360.9 178.659C361 178.759 361.1 178.859 361.1 178.859C361.7 179.459 362 180.259 362 181.159Z" fill="#0032A0"/>
<path d="M240.9 222.859H243.8V262.959H240.9V256.259C239.7 258.559 238 260.259 235.9 261.559C233.7 262.859 231.3 263.459 228.6 263.459C224.5 263.459 221 262.059 218.1 259.159C215.2 256.259 213.8 252.759 213.8 248.559C213.8 244.359 215.2 240.859 218.1 237.959C221 235.059 224.5 233.659 228.6 233.659C231.3 233.659 233.7 234.359 235.9 235.559C238.1 236.859 239.7 238.659 240.9 240.859V222.859ZM220.1 257.359C222.5 259.759 225.3 260.959 228.7 260.959C232.1 260.959 235 259.759 237.3 257.359C239.7 254.959 240.8 252.059 240.8 248.659C240.8 245.259 239.6 242.359 237.3 239.959C234.9 237.559 232.1 236.359 228.7 236.359C225.3 236.359 222.4 237.559 220.1 239.959C217.7 242.359 216.6 245.259 216.6 248.659C216.6 252.059 217.8 254.959 220.1 257.359Z" fill="#0032A0"/>
<path d="M265.5 233.759C269.7 233.759 273.1 235.259 275.7 238.259C278.3 241.259 279.6 244.759 279.6 248.859C279.6 249.059 279.6 249.259 279.6 249.559C279.6 249.859 279.6 250.059 279.6 250.259H253.6C253.9 253.459 255.2 256.059 257.5 258.059C259.8 260.059 262.5 261.059 265.8 261.059C268.1 261.059 270.1 260.559 271.8 259.659C273.5 258.659 274.8 257.459 275.7 255.859L278.2 257.359C277 259.359 275.3 260.959 273.2 262.059C271 263.259 268.5 263.759 265.7 263.759C261.3 263.759 257.7 262.359 254.9 259.559C252.1 256.759 250.7 253.159 250.7 248.859C250.7 244.559 252.1 241.059 254.9 238.159C257.6 235.159 261.1 233.759 265.5 233.759ZM265.5 236.459C262.3 236.459 259.5 237.459 257.4 239.459C255.3 241.459 254 244.059 253.7 247.359H276.7C276.4 243.959 275.2 241.259 273.1 239.359C270.9 237.459 268.4 236.459 265.5 236.459Z" fill="#0032A0"/>
<path d="M286.3 263.059V221.159H289.2V263.059H286.3Z" fill="#0032A0"/>
<path d="M344 233.759C347.1 233.759 349.7 234.759 351.6 236.659C353.5 238.559 354.5 241.359 354.5 244.859V263.059H351.6V244.859C351.6 242.159 350.9 240.159 349.5 238.659C348.1 237.159 346.3 236.459 344 236.459C341.4 236.459 339.4 237.359 337.8 239.059C336.2 240.859 335.4 243.459 335.4 246.959V262.959H332.5V244.759C332.5 242.059 331.8 240.059 330.5 238.559C329.2 237.059 327.4 236.359 325.1 236.359C322.6 236.359 320.5 237.259 318.8 239.059C317.1 240.859 316.2 243.459 316.2 246.959V262.959H313.3V234.259H316.2V239.159C318.2 235.459 321.3 233.559 325.4 233.559C327.5 233.559 329.3 234.059 330.9 235.059C332.5 236.059 333.6 237.559 334.3 239.359C335.3 237.459 336.6 235.959 338.3 234.959C340.1 234.259 342 233.759 344 233.759Z" fill="#0032A0"/>
<path d="M375.4 233.759C379.6 233.759 383 235.259 385.6 238.259C388.2 241.259 389.5 244.759 389.5 248.859C389.5 249.059 389.5 249.259 389.5 249.559C389.5 249.859 389.5 250.059 389.5 250.259H363.5C363.8 253.459 365.1 256.059 367.4 258.059C369.7 260.059 372.4 261.059 375.7 261.059C378 261.059 380 260.559 381.7 259.659C383.4 258.659 384.7 257.459 385.6 255.859L388.1 257.359C386.9 259.359 385.2 260.959 383.1 262.059C380.9 263.259 378.4 263.759 375.6 263.759C371.2 263.759 367.6 262.359 364.8 259.559C362 256.759 360.6 253.159 360.6 248.859C360.6 244.559 362 241.059 364.8 238.159C367.5 235.159 371 233.759 375.4 233.759ZM375.4 236.459C372.2 236.459 369.4 237.459 367.3 239.459C365.2 241.459 363.9 244.059 363.6 247.359H386.6C386.3 243.959 385.1 241.259 383 239.359C380.8 237.459 378.3 236.459 375.4 236.459Z" fill="#0032A0"/>
<path d="M397.1 241.759C397.1 243.159 397.7 244.259 398.9 245.059C400.1 245.859 401.5 246.459 403.2 246.959C404.9 247.359 406.6 247.859 408.3 248.259C410 248.759 411.5 249.559 412.6 250.759C413.8 251.959 414.4 253.559 414.4 255.559C414.4 257.959 413.5 259.859 411.6 261.359C409.7 262.859 407.2 263.659 404.2 263.659C401.4 263.659 399.1 263.059 397.2 261.959C395.3 260.759 394 259.259 393.3 257.359L395.8 255.959C396.3 257.559 397.3 258.759 398.8 259.659C400.3 260.559 402.1 260.959 404.2 260.959C406.3 260.959 408.1 260.459 409.5 259.559C410.9 258.659 411.6 257.259 411.6 255.559C411.6 254.159 411 253.059 409.8 252.159C408.6 251.359 407.2 250.659 405.5 250.259C403.8 249.859 402.1 249.359 400.4 248.859C398.7 248.359 397.2 247.559 396 246.459C394.8 245.359 394.2 243.759 394.2 241.859C394.2 239.559 395.1 237.659 396.9 236.059C398.7 234.459 401.1 233.659 403.9 233.659C406.2 233.659 408.2 234.159 409.9 235.159C411.6 236.159 412.9 237.559 413.7 239.359L411.3 240.759C410.7 239.359 409.8 238.259 408.4 237.559C407.1 236.859 405.6 236.459 403.9 236.459C402 236.459 400.3 236.959 399 237.859C397.7 238.859 397.1 240.159 397.1 241.759Z" fill="#0032A0"/>
<path d="M31.3 135.459C42.1 135.459 51.1 139.259 58.4 146.859C65.6 154.459 69.3 163.759 69.3 174.859C69.3 185.959 65.7 195.259 58.4 202.859C51.2 210.459 42.1 214.259 31.3 214.259H0V135.459H31.3ZM31.3 199.359C38.1 199.359 43.7 197.059 47.9 192.559C52.2 188.059 54.3 182.159 54.3 174.859C54.3 167.559 52.2 161.659 47.9 157.159C43.6 152.659 38.1 150.359 31.3 150.359H15.5V199.359H31.3Z" fill="#0032A0"/>
<path d="M91.8 191.959C93.7 199.059 99 202.559 107.7 202.559C113.2 202.559 117.4 200.659 120.3 196.959L132 203.659C126.4 211.659 118.3 215.659 107.5 215.659C98.2 215.659 90.7 212.859 85.1 207.259C79.5 201.659 76.7 194.559 76.7 185.959C76.7 177.459 79.5 170.459 85 164.759C90.5 159.059 97.7 156.259 106.4 156.259C114.6 156.259 121.5 159.159 126.8 164.759C132.2 170.459 134.8 177.559 134.8 185.859C134.8 187.759 134.6 189.759 134.2 191.859H91.8V191.959ZM91.6 180.759H120.3C119.5 176.959 117.8 174.059 115.2 172.259C112.6 170.359 109.7 169.459 106.4 169.459C102.5 169.459 99.3 170.459 96.7 172.459C94.1 174.359 92.4 177.159 91.6 180.759Z" fill="#0032A0"/>
<path d="M156 173.859C156 175.359 157 176.559 159 177.559C161 178.459 163.4 179.359 166.3 180.059C169.1 180.759 172 181.659 174.8 182.759C177.6 183.859 180.1 185.659 182.1 188.259C184.1 190.859 185.1 193.959 185.1 197.859C185.1 203.659 182.9 208.059 178.6 211.159C174.3 214.259 168.9 215.859 162.5 215.859C151 215.859 143.1 211.359 138.9 202.459L151.5 195.359C153.1 200.259 156.8 202.659 162.5 202.659C167.7 202.659 170.3 201.059 170.3 197.859C170.3 196.359 169.3 195.159 167.3 194.159C165.3 193.259 162.9 192.359 160 191.659C157.1 190.959 154.3 189.959 151.5 188.859C148.6 187.759 146.2 185.959 144.2 183.559C142.2 181.159 141.2 178.059 141.2 174.359C141.2 168.859 143.2 164.459 147.3 161.259C151.4 158.059 156.5 156.459 162.5 156.459C167.1 156.459 171.2 157.459 175 159.559C178.7 161.659 181.7 164.559 183.9 168.359L171.5 175.059C169.7 171.259 166.7 169.359 162.5 169.359C160.6 169.359 159.1 169.759 157.8 170.559C156.6 171.359 156 172.459 156 173.859Z" fill="#0032A0"/>
<path d="M224.9 171.859H212.2V195.259C212.2 197.259 212.7 198.659 213.7 199.559C214.7 200.459 216.1 200.959 218 201.059C219.9 201.159 222.2 201.159 225 200.959V214.159C215 215.259 208 214.359 203.9 211.359C199.8 208.359 197.8 202.959 197.8 195.259V171.859H188V157.959H197.8V146.559L212.3 142.159V157.859H225V171.859H224.9Z" fill="#0032A0"/>
<path d="M242.3 151.159C239.9 151.159 237.8 150.259 236.1 148.559C234.3 146.759 233.5 144.759 233.5 142.359C233.5 139.959 234.4 137.859 236.1 136.059C237.9 134.259 239.9 133.359 242.3 133.359C244.8 133.359 246.9 134.259 248.7 136.059C250.5 137.859 251.3 139.959 251.3 142.359C251.3 144.759 250.4 146.859 248.7 148.559C246.9 150.259 244.8 151.159 242.3 151.159ZM235.1 214.159V157.959H249.6V214.159H235.1Z" fill="#0032A0"/>
<path d="M315.4 183.459C313.2 183.259 311 183.059 308.9 182.959L306.7 182.759C305.9 182.659 305.3 182.059 305.3 181.259C305.3 181.159 305.3 181.059 305.3 180.959C305.3 180.159 305.9 179.559 306.7 179.459C306.7 179.459 310.3 179.159 315.4 178.759C315.3 171.859 313.3 166.459 309.4 162.459C305.4 158.359 300.3 156.259 294.2 156.259C286.6 156.259 281 158.859 277.4 164.159V157.859H262.9V214.059H277.4V183.759C277.4 179.159 278.5 175.659 280.8 173.259C283 170.959 286 169.759 289.8 169.759C293.2 169.759 295.9 170.759 297.9 172.759C299.9 174.759 300.9 177.659 300.9 181.359V214.059H315.4V183.459Z" fill="#0032A0"/>
<rect x="438.4" y="133.759" width="8.75916" height="130" fill="#0032A0"/>
<path d="M508.131 153.654C505.526 144.797 497.016 139.934 497.016 139.934C491.98 136.809 476.697 133.856 473.745 141.324C472.703 143.755 472.703 157.648 472.008 175.536C471.661 183.004 471.314 190.124 471.314 197.592C471.314 201.412 470.966 204.886 471.314 207.317C471.314 208.012 471.314 208.533 471.661 209.054C471.661 209.227 471.661 209.401 471.835 209.575C472.703 211.311 474.613 212.353 476.697 212.353C479.65 212.353 482.255 209.922 482.255 206.796C482.255 204.886 482.255 202.107 482.255 196.897C482.255 191.687 482.255 185.782 482.255 185.782C497.537 186.13 513.688 171.889 508.131 153.48V153.654ZM482.081 143.408C489.201 143.408 499.621 148.097 502.052 157.475C505.352 170.152 493.716 181.093 482.081 181.093V143.408ZM600.868 207.838C600.521 209.748 598.958 211.138 597.048 211.138C595.137 211.138 594.095 210.269 593.574 208.88C591.838 204.886 575.166 163.206 575.339 160.774C574.645 169.284 573.256 199.676 573.082 207.491C573.082 207.838 573.082 208.359 573.082 208.706C573.082 209.227 573.082 209.748 572.734 210.269C572.734 210.617 572.387 210.964 572.214 211.138C571.519 211.832 570.651 212.18 569.609 212.18C567.698 212.18 566.135 210.617 566.135 208.706C566.135 206.796 566.135 208.706 566.135 208.533C566.135 208.359 566.135 208.185 566.135 207.838C566.483 192.903 567.698 155.912 568.045 147.923C568.045 147.923 568.046 147.055 568.393 146.186C568.74 143.755 570.824 142.018 573.429 142.018C576.034 142.018 576.381 142.713 577.25 143.755C577.25 143.755 577.423 143.929 577.597 144.102C578.292 145.144 577.944 144.623 578.465 145.665C579.855 147.576 595.658 180.051 595.485 182.309C597.221 169.458 599.653 141.671 600.347 139.066C600.347 139.066 600.347 139.066 600.347 138.893C600.695 137.503 601.737 136.461 603.3 136.461C604.863 136.461 606.252 137.851 606.252 139.413C606.252 140.629 602.084 199.676 601.389 207.491L600.868 207.838ZM770.887 207.143C770.887 203.149 772.103 163.727 771.061 148.27C770.887 145.318 768.63 140.629 763.767 138.893C758.904 137.156 754.389 137.677 750.047 139.413C739.106 143.581 736.675 158.517 735.807 169.979C735.807 171.194 735.459 173.278 735.459 173.278C735.459 173.278 730.423 173.452 729.555 173.452C727.992 173.452 726.602 174.841 726.602 176.578C726.602 178.315 727.992 179.704 729.729 179.704C730.597 179.704 734.765 179.704 734.765 179.704C734.765 179.704 733.202 198.46 733.202 201.065C733.202 203.67 735.286 205.928 738.064 205.928C740.843 205.928 742.58 204.017 742.753 201.586C742.753 199.676 744.49 179.357 744.49 179.357C744.49 179.357 756.299 178.836 760.815 178.662L760.294 207.491C760.294 210.443 762.725 212.874 765.677 212.874C768.63 212.874 770.714 210.79 771.061 208.185C771.061 208.012 771.061 207.838 771.061 207.491L770.887 207.143ZM744.837 173.278C744.837 173.278 745.532 157.822 747.269 153.133C747.269 153.133 751.263 141.15 758.557 144.276C761.857 145.665 761.683 149.486 761.683 149.486C761.683 155.738 761.162 173.105 761.162 173.105H744.837V173.278ZM522.198 150.702C519.245 156.78 517.335 171.368 517.335 171.368C517.335 171.368 515.425 171.368 514.383 171.368C512.646 171.368 511.083 172.757 511.083 174.668C511.083 176.578 512.299 177.62 513.862 177.967C514.383 177.967 515.251 177.967 516.119 177.967C515.425 185.088 514.383 193.597 513.862 200.718C513.514 204.017 513.167 206.275 513.341 207.838C513.341 207.838 513.341 207.838 513.341 208.012C513.341 208.359 513.341 208.706 513.341 209.054C513.341 209.575 513.688 209.922 513.862 210.269C514.556 211.485 515.946 212.353 517.509 212.353C519.072 212.353 520.461 211.485 521.329 210.269C521.329 210.269 521.503 209.922 521.677 209.748C521.677 209.575 521.677 209.227 521.85 209.054C521.85 209.054 521.85 208.88 521.85 208.706C522.719 203.323 524.282 177.099 524.282 177.099L543.211 176.057C543.211 176.057 542.343 192.903 541.996 201.065C541.996 201.065 541.996 201.239 541.996 201.412C541.996 201.933 541.996 202.628 542.343 203.149C543.038 205.233 545.122 206.796 547.379 206.796C549.637 206.796 552.763 204.365 552.763 201.586C553.284 201.065 554.673 156.954 553.805 150.875C551.547 136.114 531.228 131.772 522.198 150.875V150.702ZM524.803 171.021C525.324 160.948 528.276 153.48 530.013 150.354C531.576 147.402 532.965 145.665 535.396 144.797C538.175 143.581 544.08 143.755 544.253 148.965C544.253 151.57 543.906 161.469 543.385 169.805C537.307 170.152 524.629 171.021 524.629 171.021H524.803ZM720.351 205.407C720.003 208.185 717.572 210.269 714.793 210.269C712.015 210.269 709.062 207.664 709.062 204.538C709.062 201.412 709.062 204.017 709.062 203.67C710.452 190.992 715.662 146.534 712.015 146.707C709.757 146.707 702.637 171.542 692.911 196.55C692.217 198.807 689.959 200.544 687.354 200.544C684.749 200.544 682.491 198.807 681.797 196.376C681.797 196.376 681.797 196.029 681.797 195.855C681.276 193.771 674.503 153.654 673.287 152.091C672.592 151.396 672.071 152.091 671.898 152.612C671.029 157.127 669.814 199.502 669.64 203.844V204.017C669.466 205.928 667.903 207.491 665.819 207.491C663.735 207.491 661.999 205.754 661.999 203.67C661.999 198.634 664.083 150.354 664.604 147.055C665.125 143.408 670.335 141.845 675.197 143.408C675.545 143.408 675.718 143.581 676.066 143.755C677.281 144.276 678.323 144.797 679.192 145.665C679.192 145.665 679.192 145.665 679.365 145.665C679.365 145.665 679.713 146.013 679.886 146.013C681.102 147.228 681.797 148.618 682.318 149.66C682.491 150.181 682.839 150.875 682.839 151.57C683.881 155.043 689.264 179.704 690.654 186.303C694.127 178.141 694.822 175.536 699.684 162.164C704.373 149.139 706.805 142.713 709.062 139.934C709.236 139.587 709.583 139.414 709.757 139.066C710.625 138.198 711.494 137.851 712.536 137.851C712.883 137.851 713.057 137.851 713.404 137.851C713.751 137.851 714.099 137.851 714.446 137.851C715.662 138.024 717.225 138.545 719.135 138.893C719.309 138.893 719.482 138.893 719.656 138.893C721.566 139.24 723.129 140.629 723.824 142.539C723.998 143.06 724.171 143.581 724.171 144.102C724.171 147.576 724.171 153.48 724.171 157.127C723.65 168.589 721.74 192.903 720.698 204.538L720.351 205.407ZM651.405 149.66C649.842 142.539 643.069 137.851 635.775 138.372C621.187 139.413 618.235 158.69 616.325 174.32C616.325 174.32 613.199 174.32 612.157 174.32C610.246 174.32 608.683 175.883 608.683 177.794C608.683 179.704 610.246 181.267 612.157 181.267C612.851 181.267 615.804 181.093 615.804 181.093C615.109 188.214 613.199 201.412 612.851 205.754C612.851 206.101 612.851 206.449 612.851 206.796C612.851 209.401 614.935 211.311 617.367 211.311C619.798 211.311 620.666 210.269 621.361 208.88C621.708 208.359 621.882 207.838 621.882 207.143C622.403 201.412 624.313 180.399 624.313 180.399L640.117 180.051C640.117 187.519 639.422 202.802 639.422 204.886C639.422 207.491 641.68 209.575 644.285 209.575C646.89 209.575 648.627 208.012 649.148 205.754C649.148 205.754 649.148 205.754 649.148 205.58C649.495 203.323 652.968 157.127 651.405 149.486V149.66ZM640.291 174.494H624.834C624.834 174.494 626.224 144.797 635.081 144.623C637.859 144.623 640.812 146.36 640.812 149.833C640.812 158.69 640.291 174.494 640.291 174.494Z" fill="#0032A0"/>
<path d="M772.798 4.82284C773.84 8.29616 774.535 11.9431 775.23 15.4165C775.924 19.0634 776.445 22.5368 776.793 26.1837C777.314 29.8307 777.661 33.4777 777.835 37.1247C778.182 40.7717 778.356 44.4187 778.356 48.2393C778.356 49.2813 777.487 50.1496 776.445 50.1496C775.751 50.1496 775.056 49.8023 774.709 49.1077C772.972 45.808 771.583 42.3347 770.193 39.035C768.804 35.5617 767.415 32.2621 766.199 28.7887C764.983 25.3154 763.768 21.8421 762.726 18.3688C761.684 14.8955 760.642 11.4221 760.121 7.77516C759.426 4.30184 761.857 0.828521 765.331 0.133857C768.63 -0.560807 771.93 1.52318 772.798 4.64917V4.82284Z" fill="#EA2229"/>
<path d="M836.88 39.9034C833.928 41.9874 830.629 43.7241 827.503 45.4607C824.377 47.1974 821.077 48.7604 817.777 50.3234C814.478 51.8864 811.178 53.2757 807.705 54.665C804.231 56.0544 800.932 57.4437 797.285 58.6593C796.243 59.0067 795.201 58.4857 794.853 57.4437C794.68 56.749 794.853 56.0544 795.374 55.5334C797.979 52.9284 800.758 50.497 803.537 48.0657C806.315 45.6344 809.094 43.3767 812.046 41.1191C814.999 38.8614 817.777 36.7774 820.903 34.6934C823.856 32.6095 826.982 30.6991 830.108 28.9625C833.233 27.2258 837.228 28.4415 838.964 31.5675C840.527 34.5198 839.659 38.1668 836.88 40.0771V39.9034Z" fill="#EA2229"/>
<path d="M823.335 111.627C820.556 109.369 817.777 106.938 815.172 104.333C812.567 101.728 809.962 99.1228 807.531 96.5178C805.1 93.9129 802.668 91.1342 800.237 88.3555C797.806 85.5769 795.548 82.7982 793.29 79.6723C792.596 78.8039 792.769 77.5883 793.638 77.0673C794.159 76.5463 795.027 76.5463 795.722 77.0673C799.021 78.8039 802.147 80.7142 805.273 82.6246C808.399 84.5349 811.525 86.6189 814.478 88.5292C817.43 90.6132 820.382 92.6972 823.335 94.9549C826.287 97.2125 829.066 99.4702 831.671 101.901C834.276 104.333 834.449 108.501 831.844 111.106C829.587 113.537 825.766 113.711 823.161 111.8L823.335 111.627Z" fill="#EA2229"/>
<path d="M750.742 120.657C751.958 117.184 753.521 113.884 755.084 110.758C756.647 107.459 758.384 104.333 760.294 101.207C762.031 98.0809 763.941 94.9549 765.851 91.8289C767.762 88.7029 769.846 85.5769 771.93 82.6246C772.624 81.7563 773.666 81.5826 774.535 82.2773C775.229 82.7983 775.403 83.4929 775.229 84.1876C774.534 87.8346 773.84 91.4816 772.971 94.9549C772.103 98.4282 771.061 102.075 770.019 105.549C768.977 109.022 767.935 112.495 766.72 115.968C765.504 119.442 764.288 122.741 762.725 126.041C761.162 129.341 757.342 130.73 754.042 129.167C750.916 127.778 749.7 124.131 750.742 121.005V120.657Z" fill="#EA2229"/>
<path d="M719.83 54.6645C723.477 54.6645 727.124 55.1855 730.597 55.7065C734.244 56.2275 737.717 56.9222 741.364 57.6168C745.011 58.3115 748.485 59.1798 752.132 60.0482C755.605 60.9165 759.252 61.7848 762.725 63.0005C763.767 63.3478 764.288 64.3898 763.941 65.4318C763.767 66.1265 763.073 66.6475 762.378 66.6475C758.731 67.1685 755.084 67.5158 751.437 67.6895C747.79 67.8631 744.143 68.0368 740.496 68.2105C736.849 68.2105 733.202 68.2105 729.555 68.2105C725.908 68.2105 722.261 67.8631 718.788 67.5158C715.141 66.9948 712.709 63.6951 713.23 60.2218C713.751 56.9222 716.704 54.4908 720.003 54.6645H719.83Z" fill="#EA2229"/>
<path d="M798.5 21.4947C797.805 24.447 796.937 27.2257 795.895 30.0043C794.853 32.783 793.811 35.5616 792.769 38.3403C791.553 41.1189 790.511 43.8976 789.122 46.6762C787.906 49.4549 786.517 52.0599 785.127 54.8385C784.78 55.5332 783.738 55.8805 783.043 55.5332C782.522 55.1859 782.175 54.6649 782.175 54.1439C782.175 51.0179 782.696 48.0656 783.043 45.1132C783.391 42.1609 783.738 39.2086 784.259 36.2563C784.78 33.304 785.301 30.3516 785.822 27.3993C786.517 24.447 787.211 21.6683 788.08 18.716C788.948 15.9374 792.074 14.3744 794.853 15.2427C797.458 16.111 799.021 18.8897 798.326 21.4947H798.5Z" fill="#EA2229"/>
<path d="M828.891 69.9474C825.939 70.2947 822.987 70.2947 820.035 70.121C817.082 70.121 814.13 69.9474 811.004 69.6001C808.052 69.4264 805.099 69.0791 801.973 68.7317C799.021 68.3844 796.069 68.0371 792.943 67.3424C792.074 67.3424 791.553 66.3004 791.727 65.4321C791.727 64.9111 792.248 64.3901 792.769 64.2164C795.721 63.3481 798.674 62.8271 801.626 62.1324C804.578 61.6114 807.531 61.0904 810.483 60.5694C813.435 60.0484 816.388 59.7011 819.34 59.3538C822.292 59.0064 825.244 58.8328 828.197 58.8328C831.149 58.8328 833.58 61.2641 833.58 64.2164C833.58 66.9951 831.323 69.2527 828.718 69.4264L828.891 69.9474Z" fill="#EA2229"/>
<path d="M792.074 113.711C790.858 110.932 789.99 108.154 789.122 105.375C788.253 102.596 787.559 99.644 786.864 96.6916C786.169 93.7393 785.475 90.787 784.954 87.8347C784.433 84.8824 783.738 81.93 783.391 78.804C783.391 77.9357 783.912 77.241 784.78 77.0674C785.475 77.0674 785.996 77.2411 786.343 77.762C788.08 80.367 789.469 82.972 791.032 85.577C792.421 88.182 793.811 90.787 795.2 93.5656C796.589 96.1706 797.805 98.9493 799.021 101.728C800.236 104.507 801.278 107.285 802.147 110.064C803.015 112.843 801.452 115.969 798.673 116.837C796.068 117.705 793.29 116.316 792.074 113.885V113.711Z" fill="#EA2229"/>
<path d="M739.106 92.1762C741.364 90.2659 743.795 88.5292 746.227 86.7926C748.658 85.0559 751.263 83.4929 753.694 81.9299C756.299 80.3669 758.904 78.8039 761.509 77.4146C764.114 76.0253 766.719 74.4623 769.498 73.2466C770.366 72.8993 771.234 73.2466 771.582 73.9413C771.929 74.4623 771.582 75.1569 771.408 75.5043C769.498 77.9356 767.414 80.1932 765.33 82.2772C763.246 84.5349 761.162 86.6189 759.078 88.7029C756.994 90.7869 754.736 92.8709 752.479 94.7812C750.221 96.6915 747.963 98.6018 745.532 100.338C743.101 102.075 739.801 101.554 738.064 99.1228C736.501 96.8652 736.849 93.7392 738.933 92.0025L739.106 92.1762Z" fill="#EA2229"/>
<path d="M743.274 35.0406C745.879 36.6035 748.31 38.3402 750.568 40.0769C752.999 41.8135 755.257 43.7238 757.515 45.8078C759.772 47.7182 762.03 49.8022 764.287 51.7125C766.545 53.7965 768.629 55.8805 770.713 58.1381C771.234 58.8328 771.234 59.7011 770.713 60.3958C770.192 60.7431 769.671 60.9168 769.15 60.7431C766.371 59.7011 763.593 58.4855 760.814 57.0961C758.035 55.8805 755.431 54.4911 752.826 53.1018C750.221 51.7125 747.616 50.3232 745.011 48.7602C742.406 47.1972 739.974 45.6342 737.543 43.8975C735.112 42.1609 734.764 38.8612 736.501 36.4299C738.238 34.1722 741.19 33.6512 743.621 35.0406H743.274Z" fill="#EA2229"/>
<path d="M821.945 17.5002C820.556 19.4105 819.166 21.3208 817.603 23.2312C816.04 25.1415 814.478 26.8781 812.741 28.6148C811.178 30.3515 809.441 32.0881 807.704 33.8248C805.968 35.5614 804.231 37.1244 802.321 38.6874C801.8 39.2084 800.932 39.0348 800.584 38.6874C800.237 38.3401 800.237 37.8191 800.41 37.2981C801.452 35.0404 802.495 32.9565 803.537 30.6988C804.579 28.6148 805.794 26.5308 807.01 24.4468C808.226 22.3628 809.441 20.2788 810.83 18.3685C812.22 16.4582 813.435 14.3742 814.998 12.6375C816.561 10.7272 819.166 10.5536 821.077 12.1165C822.813 13.5059 823.161 15.9372 821.945 17.8475V17.5002Z" fill="#EA2229"/>
<path d="M839.659 90.4401C837.402 89.7455 835.144 88.8771 832.886 88.0088C830.629 87.1405 828.545 86.0985 826.287 85.0565C824.203 84.0145 821.945 82.9725 819.861 81.9305C817.777 80.8885 815.52 79.6728 813.436 78.4572C812.915 78.1098 812.741 77.2415 813.088 76.7205C813.262 76.3732 813.783 76.0258 814.304 76.1995C816.735 76.3732 819.167 76.8942 821.424 77.2415C823.856 77.5888 826.113 78.1098 828.545 78.6308C830.976 79.1518 833.234 79.6728 835.491 80.3675C837.749 81.0622 840.007 81.7568 842.264 82.6252C844.522 83.4935 845.564 85.9248 844.695 88.1825C843.827 90.2665 841.569 91.3085 839.485 90.7875L839.659 90.4401Z" fill="#EA2229"/>
<path d="M775.576 129.688C775.576 127.257 775.576 124.999 775.75 122.568C775.924 120.137 776.097 117.879 776.445 115.448C776.792 113.016 777.139 110.759 777.487 108.327C777.834 105.896 778.355 103.638 778.876 101.207C778.876 100.512 779.744 100.165 780.439 100.339C780.96 100.339 781.307 100.86 781.307 101.207C781.828 103.638 782.176 106.07 782.523 108.327C782.87 110.759 783.218 113.19 783.391 115.448C783.565 117.879 783.912 120.137 783.912 122.568C783.912 124.999 783.912 127.257 783.912 129.688C783.912 132.12 781.655 133.856 779.397 133.683C777.139 133.683 775.403 131.772 775.403 129.515L775.576 129.688Z" fill="#EA2229"/>
<path d="M718.44 80.7146C720.698 79.8463 722.955 79.3253 725.387 78.6306C727.644 78.1096 730.076 77.5886 732.333 77.0676C734.765 76.5466 737.022 76.1993 739.454 75.852C741.885 75.5046 744.316 75.1573 746.748 74.9836C747.442 74.9836 747.963 75.5046 748.137 76.1993C748.137 76.7203 747.963 77.0676 747.442 77.415C745.358 78.6306 743.101 79.6726 741.017 80.8883C738.933 81.9303 736.675 82.9723 734.417 83.8406C732.16 84.8826 730.076 85.7509 727.818 86.6193C725.56 87.4876 723.303 88.1823 721.045 88.8769C718.787 89.3979 716.356 88.0086 715.835 85.7509C715.314 83.6669 716.53 81.4093 718.44 80.7146Z" fill="#EA2229"/>
<path d="M747.443 11.4218C748.832 13.3321 750.221 15.2425 751.437 17.3265C752.653 19.4104 753.868 21.4944 755.084 23.5784C756.3 25.6624 757.342 27.7464 758.384 30.0041C759.426 32.2617 760.468 34.3457 761.336 36.6034C761.683 37.298 761.336 37.9927 760.641 38.1664C760.12 38.34 759.599 38.1664 759.252 37.9927C757.515 36.4297 755.779 34.693 754.042 32.9564C752.305 31.2197 750.742 29.4831 749.179 27.5727C747.616 25.8361 746.053 23.9258 744.49 22.0154C742.927 20.1051 741.538 18.1948 740.322 16.2845C739.107 14.2005 739.628 11.5955 741.712 10.3798C743.622 9.16415 746.053 9.68515 747.443 11.4218Z" fill="#EA2229"/>
<path d="M636.296 236.146C637.165 235.799 638.207 235.278 638.901 234.757C639.249 234.583 639.596 234.41 639.944 234.062C639.944 234.062 640.291 233.889 640.465 233.715C640.812 233.541 640.986 233.368 641.333 233.194C641.854 232.847 642.375 232.499 642.722 232.152C643.243 231.805 643.764 231.284 644.285 230.936C644.806 230.589 645.327 229.894 645.848 229.547C645.848 229.547 646.022 229.373 646.195 229.2C647.064 228.331 648.106 227.289 648.974 226.421C649.148 226.247 649.321 226.074 649.321 225.726V225.379C649.321 225.379 649.321 225.032 649.148 225.032C648.627 224.684 648.106 224.511 647.411 224.511C647.237 224.511 646.89 224.511 646.716 224.511C646.022 224.511 645.327 224.511 644.633 224.511C643.938 224.511 643.069 224.511 642.375 224.858C642.201 224.858 642.027 224.858 641.854 224.858C641.506 224.858 640.985 225.032 640.638 225.205C640.117 225.553 639.596 225.726 638.901 226.074C638.901 226.074 638.554 226.074 638.38 226.421C637.165 227.289 635.949 228.158 634.907 229.2C634.56 229.547 634.386 229.894 634.213 230.415C634.213 230.936 634.039 231.457 633.691 231.978C633.691 231.978 633.691 232.326 633.691 232.499C633.691 232.673 633.344 233.715 633.344 234.062C633.344 234.236 633.344 234.583 633.344 234.757C633.344 234.757 633.344 234.757 633.344 234.931C633.344 234.931 633.344 234.931 633.518 234.931C634.213 234.931 634.907 235.104 635.602 235.452C635.602 235.452 635.776 235.452 635.949 235.452L636.296 236.146ZM626.05 253.339C626.05 252.297 626.05 251.429 626.05 250.387C626.05 249.518 626.224 248.65 626.398 247.608C626.745 246.566 627.092 245.524 627.266 244.482C627.266 244.135 627.613 243.961 627.613 243.614C627.787 242.919 628.134 242.225 628.308 241.356C628.308 240.835 628.482 240.488 628.655 239.967C628.655 239.446 628.829 239.099 629.003 238.751C629.003 238.404 629.003 238.23 629.35 237.883C629.35 237.883 629.35 237.883 629.35 237.709C629.35 237.362 629.871 235.278 629.871 235.104C629.871 234.583 630.045 234.062 630.218 233.541C630.218 233.194 629.697 232.847 629.35 232.673C629.35 232.673 629.35 232.673 629.35 232.499C629.35 232.499 629.35 232.499 629.35 232.326V231.978C629.35 231.631 629.697 231.457 629.697 231.11C630.045 230.936 629.697 230.415 630.218 230.242C630.566 229.547 631.26 228.852 631.608 228.158C631.608 228.158 631.608 227.81 631.781 227.637C631.781 227.289 631.781 227.116 631.955 226.768C631.955 226.421 632.129 225.9 632.476 225.553C632.476 225.553 632.476 225.553 632.476 225.379C632.476 225.205 632.476 225.379 632.65 225.379C633.171 225.379 633.518 225.379 634.039 225.379C634.213 225.379 634.56 225.379 634.734 225.379C635.081 225.032 635.428 224.684 635.949 224.684C635.949 224.684 635.949 224.337 636.123 224.337C636.47 224.163 636.818 223.816 637.339 223.642C638.033 223.469 638.554 223.121 639.075 222.774C640.117 222.253 641.159 221.906 642.201 221.558C643.069 221.558 643.764 221.211 644.633 221.211C645.501 221.211 646.195 221.211 647.064 221.211C647.758 221.211 648.28 221.211 648.974 221.558C649.495 221.558 650.19 221.906 650.537 222.253C650.537 222.253 650.884 222.253 650.884 222.427C651.405 222.6 651.753 222.948 652.1 223.469C652.447 223.816 652.621 224.511 652.968 224.858C653.142 225.205 653.316 225.726 653.316 226.074C653.316 226.595 653.316 227.116 653.316 227.637C653.316 228.158 653.142 228.679 652.795 229.026C652.621 229.2 652.447 229.547 652.274 229.721C651.926 230.242 651.405 230.589 651.232 231.11C651.232 231.11 651.058 231.284 650.884 231.457L648.974 233.368C648.974 233.368 648.8 233.541 648.627 233.715C648.279 234.062 647.758 234.236 647.585 234.583C647.237 234.931 646.89 235.104 646.543 235.452C646.543 235.452 646.369 235.452 646.195 235.625C646.195 235.625 646.022 235.625 645.848 235.799C645.674 236.146 645.327 236.494 644.806 236.667C644.806 236.667 644.632 236.667 644.459 236.841C643.938 237.362 643.243 237.709 642.549 238.23C642.375 238.23 642.201 238.404 642.028 238.578C641.507 238.925 640.986 239.272 640.465 239.62C640.465 239.62 640.117 239.793 639.944 239.967C639.944 239.967 639.943 240.314 640.117 240.314C640.812 240.835 641.506 241.53 642.201 242.225C643.417 243.44 644.806 244.656 646.195 245.871C646.369 245.871 646.543 246.219 646.89 246.392L648.974 247.782C649.495 248.129 650.016 248.476 650.711 248.65C651.753 249.171 652.795 249.518 654.01 249.866C654.531 250.039 655.226 250.213 655.921 250.387C656.442 250.387 656.963 250.734 657.484 250.734C657.657 250.734 657.831 250.734 658.005 251.081C658.005 251.081 658.178 251.255 658.178 251.429C658.178 251.429 658.178 251.602 658.178 251.776C658.178 252.123 658.178 252.644 658.005 252.992C658.005 253.339 658.005 253.86 657.831 254.207C657.831 254.381 657.831 254.728 657.657 254.902C657.657 255.076 657.484 255.249 657.31 255.423C657.136 255.423 656.963 255.423 656.789 255.423C655.921 255.423 655.052 255.249 654.184 254.902C653.316 254.902 652.447 254.381 651.405 254.207C650.884 253.86 650.19 253.686 649.669 253.339C648.974 253.165 648.453 252.818 647.932 252.471C647.932 252.471 647.932 252.471 647.758 252.471C646.89 252.297 646.369 251.776 645.674 251.255C645.501 251.081 645.327 250.908 644.98 250.908C644.98 250.908 644.806 250.908 644.633 250.908C644.285 250.734 644.112 250.387 643.764 250.213C643.417 250.039 643.243 249.692 642.896 249.518C641.854 248.65 640.812 247.782 639.77 246.74C639.075 246.045 638.381 245.351 637.686 244.656C636.991 243.961 636.297 243.267 635.602 242.572C635.602 242.572 635.428 242.398 635.255 242.398C635.255 242.398 634.907 242.398 634.734 242.398C634.56 242.398 634.213 242.398 634.039 242.398C633.344 242.572 632.65 242.398 632.129 242.398C631.955 242.398 631.608 242.398 631.608 242.746C631.434 243.614 631.26 244.309 631.26 245.177C631.26 246.045 631.26 246.914 630.913 247.782C630.392 249.345 630.218 250.908 630.045 252.644C630.045 252.992 630.045 253.513 630.045 253.86C630.045 254.034 630.045 254.207 629.871 254.381C629.871 254.381 629.871 254.381 629.697 254.555C629.697 254.555 629.524 254.555 629.35 254.555C629.176 254.555 628.829 254.555 628.655 254.555C628.308 254.381 627.787 254.555 627.266 254.555C627.092 254.555 626.745 254.555 626.571 254.555C626.398 254.555 626.05 254.381 625.877 254.207L626.05 253.339Z" fill="#0032A0"/>
<path d="M621.709 229.026C621.014 229.026 620.493 229.373 619.972 229.72C619.277 230.068 618.583 230.415 618.235 230.936C617.367 231.457 616.672 232.152 615.978 233.02C615.283 233.715 614.936 234.409 614.588 235.278C614.415 235.799 614.241 236.32 613.894 236.841C613.546 237.362 613.373 238.056 613.199 238.577C612.852 239.272 612.852 240.14 612.678 241.009C612.331 242.572 611.983 244.134 611.636 245.697C611.289 247.26 611.115 248.997 611.115 250.56C611.115 250.907 611.115 251.081 611.636 251.255C611.983 251.255 612.157 251.255 612.504 251.081C612.852 250.907 613.199 250.734 613.546 250.386C614.762 249.171 615.804 247.955 616.846 246.739C617.367 246.045 617.714 245.524 618.235 244.829C618.756 243.961 619.277 243.093 619.798 242.224C620.146 241.53 620.319 241.009 620.667 240.314C620.84 239.793 621.014 239.446 621.188 238.925C621.188 238.577 621.361 238.23 621.535 238.056C621.709 237.535 621.882 237.014 621.882 236.493C621.882 235.625 622.056 234.757 622.23 233.715C622.23 233.02 622.23 232.325 622.23 231.457C622.23 230.762 622.23 230.241 621.882 229.547L621.709 229.026ZM607.468 252.297C607.468 252.297 607.294 252.123 607.294 251.949C607.294 251.949 607.294 251.776 607.294 251.602C607.294 251.428 607.294 251.081 607.294 250.907C607.294 250.907 606.947 250.56 606.947 250.386C606.947 250.213 606.947 249.865 606.947 249.692C606.947 249.344 606.947 248.997 606.947 248.65C606.947 247.955 606.947 247.26 607.121 246.739C607.468 244.308 607.989 242.051 608.684 239.619C608.684 239.272 608.684 238.925 608.857 238.577C608.857 238.404 608.857 238.056 608.857 237.883C608.857 237.362 608.857 236.841 608.857 236.32V235.972C608.857 235.278 609.205 234.757 609.205 234.062C609.205 234.062 609.205 234.062 609.205 233.888C609.552 232.846 610.073 231.804 610.768 230.936C610.768 230.936 610.768 230.762 610.941 230.762C611.636 230.068 612.331 229.373 612.852 228.678C613.025 228.331 613.373 228.157 613.72 227.984C614.588 227.463 615.283 226.942 615.978 226.247C615.978 226.247 616.151 226.073 616.325 226.073C616.846 225.9 617.367 225.379 617.888 225.205C617.888 225.205 618.235 225.205 618.235 225.031C618.583 224.684 619.104 224.51 619.625 224.51C619.972 224.51 620.319 224.51 620.667 224.51C621.014 224.51 621.361 224.51 621.709 224.51C621.882 224.51 622.23 224.51 622.403 224.51C622.751 224.51 622.924 224.51 623.098 224.684C623.272 224.858 623.619 224.684 623.966 225.031C624.14 225.205 624.314 225.552 624.661 225.726C624.835 225.9 625.008 226.073 625.182 226.421C625.529 226.768 625.703 227.115 625.703 227.636C626.05 227.984 626.224 228.505 626.05 229.026C626.224 230.068 626.224 231.11 626.05 232.152C626.05 233.02 626.05 233.888 625.877 234.93C625.877 235.625 625.877 236.32 625.529 236.841C625.529 237.883 625.008 238.751 624.835 239.619C624.661 240.314 624.314 241.182 623.966 241.877C623.966 241.877 623.793 242.224 623.793 242.398C623.793 242.745 623.619 242.919 623.445 243.266C623.445 243.44 623.098 243.787 622.924 243.961C622.751 244.482 622.403 244.829 622.23 245.35C622.056 245.871 621.709 246.219 621.361 246.739C620.84 247.26 620.493 247.955 620.146 248.476C619.625 249.344 619.104 250.039 618.409 250.734C618.062 251.081 617.888 251.428 617.541 251.776C617.541 251.776 617.541 251.949 617.367 251.949C616.846 252.297 616.499 252.818 615.978 253.165C615.63 253.339 615.283 253.686 614.936 253.86C614.241 254.207 613.72 254.554 613.025 254.902C612.852 254.902 612.678 254.902 612.331 255.075C611.636 255.075 611.115 255.075 610.42 255.075C610.247 255.075 609.899 255.075 609.726 255.075C609.378 255.075 609.031 255.075 608.684 254.728C608.51 254.554 608.163 254.381 607.989 254.033C607.989 253.86 607.642 253.512 607.468 253.339V252.644C607.468 252.47 607.468 252.47 607.121 252.297H607.468Z" fill="#0032A0"/>
<path d="M687.355 221.906C687.355 221.906 687.529 221.906 687.702 221.906C687.702 221.906 687.702 222.253 688.05 222.253H688.397C688.397 222.253 688.571 222.427 688.744 222.6C689.092 222.948 689.439 223.642 689.613 224.163C689.613 224.511 689.786 224.858 689.96 225.205C689.96 225.553 689.96 225.9 689.96 226.247C689.96 226.942 690.134 227.637 690.307 228.331C690.307 228.679 690.307 229.2 690.307 229.721C690.481 231.11 690.307 232.152 690.655 233.194C690.655 233.368 690.655 233.541 690.655 233.715C690.655 234.062 690.655 234.41 690.655 234.757C690.655 235.104 690.828 235.452 690.655 235.625C690.828 236.146 690.655 236.667 690.655 237.188C690.655 237.536 690.655 237.709 690.655 238.057C690.655 238.751 690.655 239.272 690.828 239.967C690.828 241.183 690.828 242.572 691.002 243.788C691.002 244.135 691.002 244.482 691.349 244.656C691.349 244.309 691.523 244.135 691.697 243.788C692.218 242.572 692.565 241.356 693.086 240.141C693.607 239.099 693.781 238.057 694.128 237.015C694.649 235.799 695.17 234.41 695.691 233.194C696.038 232.326 696.386 231.284 696.907 230.415C697.428 229.373 697.775 228.331 698.296 227.289C698.817 226.247 699.512 225.205 700.38 224.337C700.727 223.99 701.075 223.816 701.422 223.469C701.769 223.121 701.943 222.774 702.29 222.6C702.29 222.6 702.29 222.6 702.464 222.6C702.811 222.427 703.159 222.079 703.506 221.906C703.506 221.732 703.853 221.558 704.027 221.558C704.201 221.558 704.548 221.558 704.722 221.558C704.895 221.558 705.069 221.558 705.243 221.558C705.59 221.385 705.937 221.558 706.285 221.558C706.285 221.732 706.632 221.906 706.806 222.079C707.327 222.427 707.848 222.948 708.021 223.642C708.369 224.163 708.369 224.858 708.369 225.379C708.369 225.9 708.369 226.595 708.369 227.116C708.369 228.331 708.369 229.373 708.369 230.589C708.369 231.11 708.369 231.805 708.369 232.326C708.369 232.326 708.369 232.326 708.369 232.499C708.195 233.368 708.369 234.236 708.021 234.931C708.021 235.973 707.674 237.015 707.5 238.057C707.5 238.404 707.5 238.751 707.5 239.099C707.5 241.009 707.5 242.746 707.327 244.656C707.327 246.393 707.327 248.303 707.327 250.213C707.327 250.213 707.327 250.561 707.327 250.734C707.327 251.95 707.674 252.992 707.848 254.208C707.848 254.555 707.848 254.729 707.848 255.076C708.195 256.292 708.716 257.681 709.411 258.897C709.411 259.07 709.584 259.244 709.758 259.418C709.932 259.765 710.105 259.939 710.279 260.286C710.279 260.633 710.453 260.807 710.626 260.981C710.626 260.981 710.626 261.154 710.974 261.328C710.974 261.675 710.626 261.849 710.453 262.023C710.279 262.196 710.105 262.37 709.932 262.544C709.932 262.544 709.758 262.891 709.758 263.065C709.063 263.065 708.542 263.586 707.848 263.759C707.848 263.759 707.848 263.759 707.674 263.759C707.5 263.759 707.153 263.586 706.979 263.412C706.458 262.891 705.764 262.544 705.416 262.023C705.416 262.023 705.416 261.849 705.069 261.675C704.722 261.328 704.548 260.981 704.374 260.46C704.027 259.244 703.68 258.202 703.332 256.986C703.332 256.813 703.159 256.465 703.159 256.292C702.811 254.902 702.638 253.513 702.464 252.124C702.464 251.429 702.464 250.734 702.464 250.04C702.464 249.519 702.464 249.171 702.464 248.65C702.464 247.956 702.464 247.435 702.464 246.74C702.464 245.524 702.464 244.309 702.464 243.093C702.464 242.746 702.464 242.572 702.464 242.225C702.464 241.356 702.638 240.488 702.464 239.793V239.446C702.464 239.272 702.464 239.099 702.464 238.925C702.464 238.404 702.464 237.883 702.464 237.362C702.464 236.841 702.464 236.494 702.464 235.973C702.464 234.583 702.638 233.368 702.811 231.978C702.811 231.11 702.811 230.242 702.985 229.373C702.985 229.373 702.985 229.373 702.811 229.026C702.29 229.721 701.943 230.242 701.596 230.936C701.248 231.457 700.901 232.152 700.727 232.673C700.38 233.194 700.206 233.889 700.033 234.41C700.033 234.757 699.859 235.104 699.685 235.278C699.512 235.973 699.164 236.667 698.991 237.362C698.991 237.362 698.991 237.362 698.991 237.536C698.817 238.404 698.296 239.272 697.949 240.141C697.601 241.009 697.428 241.877 697.08 242.746C697.08 242.919 696.907 243.267 696.733 243.44C696.733 243.788 696.386 244.135 696.386 244.482C696.386 244.83 696.038 245.003 696.038 245.351C695.691 246.219 695.517 247.087 695.17 247.782C694.996 248.477 694.649 248.998 694.475 249.692C694.302 250.213 694.128 250.734 693.781 251.255C693.781 251.603 693.781 251.776 693.433 252.124C693.26 252.297 693.086 252.645 692.739 252.818C692.739 252.818 692.565 253.166 692.391 253.339C692.391 253.339 692.044 253.687 691.87 253.687C691.523 253.687 691.176 253.687 690.828 253.86C690.481 253.86 690.134 253.86 689.786 253.86C689.613 253.86 689.613 253.86 689.613 253.513C689.613 253.166 689.613 253.166 689.265 253.166C689.265 253.166 689.265 253.166 689.092 253.166C689.092 253.166 688.918 253.166 688.744 253.166C688.571 253.166 688.571 253.166 688.397 253.166C688.397 253.166 688.223 252.992 688.05 252.818C687.702 252.645 687.355 252.297 687.181 251.95C686.66 250.908 686.313 249.866 686.139 248.824C686.139 247.435 685.966 246.219 685.792 244.83C685.792 244.83 685.792 244.83 685.792 244.656C685.792 243.961 685.792 243.267 685.792 242.398C685.792 241.183 685.792 239.967 685.618 238.751C685.618 237.362 685.445 235.973 685.271 234.583C685.271 233.715 685.097 232.847 685.097 232.152C685.097 231.805 685.097 231.631 684.924 231.284C684.576 231.805 684.576 232.326 684.403 232.673C684.055 234.062 683.708 235.278 683.361 236.667C683.013 237.883 682.666 239.099 682.319 240.314C681.971 241.704 681.45 243.267 681.103 244.656C680.582 246.219 680.061 247.608 679.714 249.171C679.714 249.692 679.54 250.387 679.54 250.908C679.54 251.429 679.54 251.776 679.54 252.124C679.54 252.297 679.54 252.471 679.54 252.818C679.54 252.818 679.54 252.818 679.54 252.992C679.54 253.687 679.54 254.208 679.193 254.729C679.193 254.902 679.019 255.076 678.845 255.25C678.845 255.25 678.672 255.25 678.498 255.423C678.498 255.423 678.324 255.423 678.151 255.423C677.977 255.423 677.63 255.423 677.456 255.423C677.282 255.423 677.109 255.423 676.935 255.423C676.414 255.076 675.893 254.729 675.372 254.555C675.198 254.208 675.025 253.86 675.025 253.687C675.025 253.166 675.025 252.645 675.025 252.124C675.025 251.776 675.025 251.429 675.025 251.082C675.025 250.734 675.025 250.561 675.025 250.213C675.025 249.866 675.025 249.519 675.198 249.171C675.372 248.477 675.372 247.782 675.719 247.087C675.719 246.219 676.067 245.524 676.24 244.83C676.24 244.135 676.588 243.44 676.935 242.746C677.456 241.183 677.803 239.446 678.324 237.709C678.498 236.667 678.845 235.799 679.019 234.931C679.366 234.062 679.54 233.194 679.714 232.326C679.714 231.457 680.061 230.763 680.408 229.894C680.408 229.373 680.756 229.026 680.756 228.505C681.103 227.289 681.624 226.074 682.145 225.032C682.145 225.032 682.145 224.858 682.145 224.684C682.145 224.684 682.145 224.511 682.145 224.337C682.145 224.337 682.145 224.163 682.319 223.99C682.319 223.99 682.492 223.99 682.492 223.816C682.492 223.469 682.84 223.295 683.013 223.121C683.361 223.121 685.966 222.774 685.966 222.774L687.355 221.906Z" fill="#0032A0"/>
<path d="M605.558 226.421C605.558 226.595 605.384 226.942 605.211 227.116C604.342 227.984 603.3 229.026 602.432 229.894C602.432 229.894 602.259 230.068 602.085 230.242C601.564 230.589 601.043 231.11 600.522 231.631C600.001 231.978 599.48 232.499 598.959 232.847C598.438 233.194 597.917 233.541 597.569 233.889C597.222 234.062 597.048 234.236 596.701 234.41C596.701 234.41 596.354 234.583 596.18 234.757C595.833 234.931 595.486 235.104 595.138 235.278C594.27 235.799 593.402 236.32 592.533 236.667C592.533 236.667 592.36 236.667 592.186 236.667C591.491 236.32 590.97 236.146 590.102 236.146C590.102 236.146 590.102 236.146 589.928 236.146C589.928 236.146 589.928 236.146 589.928 235.973C589.928 235.799 589.928 235.452 589.928 235.278C589.928 234.931 590.275 233.889 590.275 233.715C590.275 233.541 590.275 233.368 590.275 233.194C590.449 232.673 590.623 232.152 590.797 231.631C590.797 231.11 591.144 230.763 591.491 230.415C592.533 229.373 593.749 228.505 594.964 227.637C594.964 227.637 595.312 227.463 595.485 227.289C596.006 226.942 596.527 226.768 597.222 226.421C597.569 226.247 597.917 226.074 598.438 226.074C598.611 226.074 598.785 226.074 598.959 226.074C599.653 225.9 600.348 225.726 601.217 225.726C601.911 225.726 602.606 225.726 603.3 225.726C603.474 225.726 603.821 225.726 603.995 225.726C604.516 225.726 605.211 225.9 605.732 226.247C605.732 226.247 605.905 226.421 605.905 226.595V226.942L605.558 226.421ZM609.9 224.337C609.552 223.99 609.379 223.469 609.031 222.948C608.684 222.6 608.337 222.253 607.816 221.906C607.816 221.906 607.468 221.906 607.468 221.732C606.947 221.385 606.426 221.211 605.905 221.037C605.384 220.864 604.69 220.69 603.995 220.69C603.127 220.69 602.432 220.69 601.564 220.69C600.695 220.69 600.001 221.037 599.132 221.037C598.091 221.385 597.049 221.732 596.007 222.253C595.486 222.6 594.791 222.948 594.27 223.121C593.923 223.295 593.402 223.469 593.054 223.816C593.054 223.816 593.054 223.99 592.88 224.163C592.359 224.163 592.012 224.684 591.665 224.858C591.491 224.858 591.144 225.032 590.97 224.858C590.449 224.858 590.102 224.858 589.581 224.858C589.581 224.858 589.407 224.858 589.234 224.858C589.234 224.858 589.234 224.858 589.234 225.032C589.06 225.379 588.886 225.9 588.713 226.247C588.713 226.595 588.712 226.768 588.539 227.116C588.539 227.289 588.539 227.463 588.365 227.637C588.018 228.331 587.323 229.026 586.976 229.721C586.629 229.721 586.629 230.415 586.455 230.589C586.455 230.936 586.281 231.284 586.108 231.457V231.805C586.108 231.805 586.108 231.805 586.108 231.978C586.108 231.978 586.108 231.978 586.108 232.152C586.455 232.499 586.802 232.673 586.976 233.02C586.976 233.541 586.802 234.062 586.629 234.583C586.629 234.931 585.934 236.841 586.108 237.188C586.108 237.188 586.108 237.188 586.108 237.362C585.934 237.536 585.76 237.883 585.76 238.23C585.76 238.578 585.587 239.099 585.413 239.446C585.413 239.793 585.239 240.314 585.065 240.835C584.892 241.53 584.545 242.225 584.371 243.093C584.371 243.44 584.024 243.614 584.024 243.961C583.676 245.003 583.329 246.045 583.155 247.087C582.982 247.955 582.808 248.824 582.808 249.866C582.808 250.908 582.808 251.776 582.808 252.818C582.982 252.992 583.155 253.165 583.503 253.165C583.676 253.165 584.024 253.165 584.197 253.165C584.718 253.165 585.066 252.992 585.587 253.165C585.76 253.165 586.108 253.165 586.281 253.165C586.281 253.165 586.455 253.165 586.629 253.165C586.629 253.165 586.802 253.165 586.802 252.992C586.802 252.992 586.976 252.644 586.976 252.471C586.976 252.123 586.976 251.602 586.976 251.255C586.976 249.692 587.323 247.955 587.844 246.393C588.192 245.524 588.192 244.656 588.192 243.788C588.192 242.919 588.191 242.051 588.539 241.356C588.539 241.183 588.886 241.009 589.06 241.009C589.755 241.183 590.449 241.183 590.97 241.009C591.144 241.009 591.491 241.009 591.665 241.009C593.749 240.488 595.659 239.62 597.396 238.404C597.917 238.057 598.438 237.709 598.959 237.362C599.132 237.362 599.306 237.188 599.48 237.015C600.175 236.494 600.869 236.32 601.39 235.625C601.39 235.625 601.564 235.452 601.737 235.452C602.085 235.278 602.432 234.931 602.779 234.583C602.779 234.583 602.953 234.41 603.127 234.41C603.127 234.41 603.474 234.41 603.474 234.236C603.648 233.889 604.169 233.715 604.516 233.368C604.863 233.02 605.211 232.673 605.558 232.499C605.558 232.499 605.732 232.326 605.905 232.152L607.816 230.242C607.816 230.242 608.163 230.068 608.163 229.894C608.337 229.373 608.858 229.026 609.205 228.505C609.205 228.158 609.552 227.984 609.726 227.81C610.073 227.463 610.247 226.942 610.247 226.421C610.247 225.9 610.247 225.379 610.247 224.858C610.247 224.337 610.247 223.99 609.9 223.642V224.337Z" fill="#0032A0"/>
<path d="M569.609 245.871C569.609 245.871 569.261 245.871 569.088 245.871C569.088 245.871 569.609 246.392 569.782 246.566C569.782 246.566 569.782 246.74 569.782 246.913C569.782 246.913 569.782 247.087 569.782 247.261C569.782 247.261 569.435 247.608 569.261 247.608C569.261 247.955 569.261 248.303 569.261 248.65C569.088 248.65 568.914 248.65 568.74 248.65C568.567 248.65 568.393 248.823 568.219 248.997C567.872 248.997 567.525 248.997 567.177 248.997C566.83 248.997 566.483 249.171 566.135 249.344C566.135 249.344 565.962 249.344 565.788 249.344C564.746 249.344 563.53 249.692 562.488 249.692C561.446 249.692 561.967 249.692 561.62 249.692C560.578 249.692 559.536 249.865 558.668 250.039C558.668 250.039 558.32 250.039 558.147 250.039C557.105 250.386 556.063 250.386 555.021 250.734C553.979 250.907 553.11 251.081 552.068 251.428C551.547 251.428 551.2 251.602 550.679 251.776C550.158 251.776 549.463 251.949 548.942 252.123H548.595C547.727 252.123 547.032 252.47 546.164 252.644C545.816 252.644 545.469 252.644 545.122 252.818C544.774 252.818 544.427 252.818 544.08 252.818C544.08 252.818 543.732 252.818 543.559 252.818C543.038 252.818 542.517 252.818 542.169 252.818C541.822 252.818 541.475 252.818 541.127 252.818C540.78 252.818 540.433 252.644 540.085 252.644C539.391 252.297 538.522 252.123 538.001 251.602C537.828 251.081 537.307 250.734 537.133 250.039V249.692C537.133 249.692 537.133 249.518 537.133 249.344C536.786 248.997 536.786 248.65 536.786 248.302V247.955V247.608C536.786 247.087 536.786 246.566 537.133 246.045V245.697C537.133 245.176 537.307 244.829 537.48 244.308C537.654 243.961 537.828 243.44 538.001 243.093C538.349 242.398 538.696 241.53 539.217 240.661C539.564 240.14 539.738 239.619 540.085 238.925C540.085 238.577 540.433 238.056 540.78 237.709C540.78 237.709 540.78 237.709 540.78 237.362C541.301 236.146 541.822 235.104 542.517 233.888C542.864 233.194 546.164 227.463 546.337 227.115C546.685 226.421 547.032 225.9 547.379 225.205C547.379 225.205 547.379 225.031 547.553 224.858C547.553 224.858 547.727 224.858 547.9 224.858C548.074 224.858 548.248 224.684 548.248 224.51L548.942 224.858H549.29C549.29 224.858 549.637 224.858 549.811 224.858C549.811 224.858 549.984 224.858 550.158 225.031C550.158 225.205 550.505 225.379 550.679 225.552C550.853 225.552 551.026 225.726 551.2 225.9C551.2 225.9 551.2 226.073 551.026 226.247C551.374 226.247 551.721 226.247 552.068 226.247C552.589 226.247 553.284 226.247 553.805 226.247C554.673 226.247 555.542 226.421 556.236 226.768C556.41 226.768 556.757 226.942 556.757 227.289C556.757 227.289 556.931 227.463 557.105 227.636C557.105 227.636 557.105 227.636 557.105 227.81C557.105 227.984 557.105 227.81 557.105 227.984C557.452 228.331 557.278 228.331 557.105 228.505C557.105 228.505 556.931 228.505 556.757 228.678C556.41 228.678 556.584 228.852 556.757 229.026C556.757 229.026 556.757 229.026 556.584 229.199C556.584 229.199 556.584 229.199 556.584 229.373C556.41 229.373 556.236 229.547 555.889 229.547C555.889 229.547 555.542 229.72 555.542 229.894C555.542 229.894 555.368 230.068 555.194 230.068C555.194 230.068 555.021 230.068 554.847 230.068C554.847 230.068 554.673 230.068 554.5 230.068C553.631 229.72 552.763 229.894 551.895 230.068C550.679 230.068 549.463 230.241 548.248 230.415C548.248 230.415 548.074 230.415 547.9 230.415C547.9 230.415 547.727 230.415 547.553 230.415C547.553 230.415 547.553 230.415 547.379 230.589C547.206 230.936 547.032 231.283 546.858 231.631C546.511 232.325 546.164 233.02 545.816 233.715C545.469 234.583 545.122 235.278 544.601 236.146C545.469 236.146 546.337 235.799 547.032 235.625C547.9 235.278 548.942 235.104 549.811 234.93C550.679 234.93 551.374 234.583 552.242 234.409C553.284 234.236 554.326 233.888 555.368 233.715C555.889 233.715 556.236 233.715 556.757 233.715C557.105 233.715 557.452 233.715 557.799 233.888C557.799 233.888 557.973 234.062 558.147 234.236C558.147 234.236 557.973 234.583 558.147 234.757C558.147 234.93 557.973 235.278 558.147 235.451C558.147 235.451 558.147 235.451 558.147 235.625C558.147 235.625 558.147 235.625 558.147 235.799C558.147 235.972 558.147 236.32 558.147 236.493C558.147 236.493 558.147 236.841 558.147 237.014C558.147 237.014 557.973 237.362 557.799 237.362C557.278 237.709 556.757 237.709 556.063 237.883C555.889 237.883 555.542 237.883 555.368 237.883C554.326 238.23 553.284 238.404 552.242 238.577C551.2 238.577 550.332 238.925 549.29 239.098C548.595 239.098 547.9 239.446 547.032 239.619C545.99 239.793 544.774 239.967 543.732 240.314C543.385 240.314 543.038 240.314 542.69 240.314C542.517 240.314 542.343 240.314 542.169 240.314C542.169 240.314 541.822 240.488 541.822 240.661C541.648 241.182 541.475 241.703 541.127 242.224C540.78 243.093 540.433 243.787 540.259 244.656C540.085 245.177 539.912 245.871 539.738 246.392C539.738 246.566 539.738 246.74 540.085 246.913C540.085 246.913 540.085 246.913 540.259 246.913C541.127 246.913 541.822 246.913 542.69 246.913C543.732 246.913 544.601 246.392 545.469 246.392C545.816 246.392 546.164 246.392 546.511 246.218C547.032 246.218 547.727 246.045 548.248 245.871C548.769 245.871 549.29 245.697 549.811 245.35C550.679 245.176 551.721 244.829 552.589 244.656C552.589 244.656 552.937 244.656 553.11 244.656C554.152 244.308 555.194 244.135 556.236 244.135C556.757 244.135 557.278 244.134 557.973 243.961C558.494 243.961 559.015 243.961 559.71 243.787C560.231 243.787 560.752 243.787 561.446 243.787C561.967 243.787 562.662 243.787 563.183 243.787C563.357 243.787 563.53 243.787 563.704 243.787C564.399 243.787 565.093 243.787 565.788 243.787C566.309 243.787 566.83 243.787 567.351 243.787H567.698C568.046 243.961 568.393 244.308 568.393 244.308L569.609 245.871Z" fill="#0032A0"/>
<path d="M504.832 224.51C504.832 224.51 504.832 224.51 505.005 224.684C505.179 224.684 505.179 224.684 505.005 225.031C504.832 225.205 504.832 225.205 505.005 225.552C505.005 225.552 505.005 225.552 505.179 225.726V226.073C505.179 226.247 505.179 226.594 505.179 226.768C505.179 227.115 505.179 227.463 504.832 227.636C504.484 227.984 504.311 228.331 503.963 228.852C503.79 229.199 503.616 229.373 503.442 229.72C502.4 231.11 501.358 232.499 500.49 233.888C499.795 234.757 499.274 235.799 498.58 236.667C498.58 236.667 498.406 237.014 498.232 237.188C498.232 237.535 497.885 237.709 497.711 238.056C497.19 238.577 496.843 239.098 496.496 239.793C496.148 240.14 496.148 240.488 495.801 241.009C495.801 241.009 495.627 241.356 495.454 241.53C494.933 242.398 494.412 243.093 493.891 243.961C493.37 244.829 492.849 245.698 492.328 246.566C491.98 246.913 491.807 247.434 491.633 247.782C491.459 248.129 491.112 248.476 490.938 248.824C490.417 249.692 489.723 250.387 489.202 251.429C488.681 252.123 488.333 252.644 487.812 253.165C487.465 253.513 486.597 254.034 486.249 254.034H484.86C484.513 254.034 483.992 254.034 483.818 254.034C483.818 254.034 482.429 253.513 482.429 253.165C482.429 252.471 482.081 252.471 481.908 251.602C481.908 250.387 481.908 249.171 481.908 247.955C481.908 247.261 481.908 246.74 481.908 246.045C481.908 245.524 481.908 244.829 481.908 244.308C481.908 243.787 481.908 243.093 481.908 242.572C482.081 241.356 481.908 240.314 482.081 239.272C482.081 239.098 482.081 238.751 482.081 238.577C482.081 237.883 482.255 237.014 482.429 236.32C482.429 234.93 482.776 233.715 482.95 232.325C482.95 231.457 483.297 230.589 483.471 229.894C483.471 229.894 483.471 229.72 483.471 229.547C483.471 229.373 483.471 229.373 483.992 229.373C484.165 229.373 484.339 229.373 484.339 229.026C484.339 229.026 484.339 229.026 484.339 228.852C484.339 228.852 484.513 228.678 484.686 228.852C484.86 229.026 485.207 228.852 485.381 229.026C485.555 229.026 485.902 229.026 486.076 229.026C486.423 229.026 486.77 229.026 487.118 229.199C487.118 229.199 487.465 229.373 487.465 229.547C487.465 229.547 487.465 229.72 487.465 229.894L486.77 234.93C486.77 234.93 486.77 234.93 486.77 235.104C486.597 236.493 486.423 237.883 486.423 239.272C486.423 239.619 486.423 239.967 486.423 240.314C486.423 241.53 486.423 242.572 486.423 243.787C486.423 244.482 486.423 245.35 486.423 246.045C486.423 246.045 486.423 246.045 486.597 246.045C486.597 246.045 486.597 246.045 486.597 245.871C487.291 244.656 487.812 243.614 488.507 242.398C488.507 242.398 488.507 242.224 488.681 242.051C489.028 241.53 489.375 241.009 489.723 240.488C490.07 239.967 490.417 239.446 490.591 238.925C490.938 238.23 491.633 237.535 491.98 236.841C491.98 236.493 492.328 236.32 492.501 235.972C493.022 235.451 493.37 234.93 493.543 234.409C493.891 233.715 494.412 233.02 494.933 232.325C495.106 231.978 495.454 231.631 495.627 231.283C495.627 231.11 495.801 230.936 495.975 230.762C496.148 230.589 496.322 230.241 496.496 230.068C496.843 229.373 497.538 228.678 497.885 227.984C498.059 227.636 498.406 227.289 498.58 226.942C499.274 226.073 499.969 225.379 500.664 224.51C500.664 224.51 501.011 224.163 501.185 223.989C501.532 223.642 501.879 223.468 502.4 223.295C502.748 223.295 502.921 223.295 503.095 223.468C503.095 223.468 503.269 223.642 503.442 223.816C503.79 223.989 504.137 224.337 504.484 224.51H504.832Z" fill="#0032A0"/>
<path d="M540.086 223.295C540.086 223.295 540.26 223.989 540.433 223.989C540.607 223.989 540.954 223.989 541.128 224.337C541.128 224.337 541.128 224.337 541.302 224.51V224.858C541.302 225.031 541.302 225.379 541.302 225.552C541.302 225.9 541.302 226.247 540.954 226.421C540.607 226.768 540.433 227.289 540.086 227.636C539.912 227.984 539.739 228.157 539.565 228.505C538.523 229.894 537.655 231.457 536.786 232.846C536.265 233.888 535.571 234.757 534.876 235.799C534.876 235.799 534.702 236.146 534.529 236.32C534.529 236.667 534.181 236.841 534.008 237.188C533.487 237.709 533.313 238.404 532.792 238.925C532.445 239.272 532.445 239.793 532.097 240.14C532.097 240.14 532.097 240.488 531.75 240.661C531.229 241.53 530.708 242.398 530.187 243.266C529.666 244.135 529.319 245.177 528.798 246.045C528.45 246.392 528.277 246.913 528.103 247.261C527.929 247.608 527.756 247.955 527.408 248.476C526.887 249.345 526.193 250.213 525.845 251.081C525.498 251.776 524.977 252.297 524.456 252.992L523.414 254.034C523.067 254.034 522.893 254.034 522.546 254.034C522.025 254.034 521.677 254.034 521.156 254.034C520.983 254.034 520.635 254.034 520.462 254.034C520.462 254.034 520.288 254.034 520.114 254.034C520.114 254.034 519.941 254.034 519.767 254.034C519.42 253.86 519.072 253.513 518.899 253.165C518.725 252.818 518.551 252.297 518.551 251.95C518.551 250.734 518.378 249.518 518.551 248.303C518.551 247.608 518.551 247.087 518.551 246.392C518.551 245.871 518.551 245.177 518.551 244.656V242.919C518.551 242.919 518.551 242.919 518.551 242.745C518.551 241.703 518.551 240.661 518.551 239.619C518.551 239.446 518.551 239.098 518.551 238.925C518.551 238.23 518.725 237.362 518.725 236.667C518.725 235.278 518.725 233.888 519.072 232.673C519.072 231.804 519.246 229.72 519.42 229.547C519.42 229.373 519.42 228.505 519.767 228.505C520.114 228.505 520.114 227.463 520.114 227.463C520.288 227.463 520.462 227.463 520.462 227.115C520.462 227.115 521.156 226.421 521.504 226.768C521.677 226.768 521.851 226.421 522.893 226.421C523.24 226.421 523.588 226.768 523.935 226.768C523.935 226.768 524.456 226.247 524.282 228.505C524.282 228.505 523.067 235.104 523.067 235.278C523.067 235.278 523.067 235.278 523.067 235.451C523.067 236.841 522.893 238.23 522.893 239.793C522.893 240.14 522.893 240.488 522.893 240.835C522.893 242.051 522.893 243.093 522.893 244.308C522.893 245.003 522.893 245.871 522.893 246.566C522.893 246.566 522.893 246.566 523.067 246.566C523.067 246.566 523.24 246.566 523.414 246.566L523.761 246.219C524.282 245.003 524.282 245.003 524.803 243.787C524.803 243.787 525.151 242.572 525.324 242.398C525.672 241.877 526.019 241.356 526.193 240.835C526.54 240.314 526.714 239.793 527.061 239.272C527.408 238.577 527.929 237.883 528.277 237.014C528.277 236.667 528.624 236.493 528.798 236.146C529.145 235.625 529.492 235.104 529.84 234.583C530.187 233.888 530.708 233.02 531.055 232.325C531.229 231.978 531.576 231.631 531.75 231.283C531.75 231.11 531.924 230.936 532.097 230.762C532.097 230.589 532.445 230.241 532.618 230.068C532.966 229.373 533.487 228.678 533.834 227.81C534.008 227.463 534.181 227.115 534.529 226.768C535.223 225.9 535.918 225.031 536.613 224.337C536.613 224.337 536.96 223.989 537.134 223.816C537.481 223.468 537.134 223.816 537.655 223.468C538.002 223.468 538.176 223.121 538.349 223.468C538.349 223.468 539.218 223.642 539.391 223.816C539.391 223.816 539.391 223.816 539.565 223.816C539.565 223.816 539.565 223.816 539.565 223.989L540.086 223.295Z" fill="#0032A0"/>
<path d="M713.23 252.297C713.23 252.297 713.23 252.297 712.883 252.297C712.709 252.297 712.709 252.297 712.883 251.95C712.883 251.776 713.057 251.776 712.883 251.429C712.883 251.429 712.883 251.429 712.709 251.255V250.908C712.709 250.734 712.709 250.387 712.709 250.213C712.709 249.866 712.709 249.519 713.057 249.345C713.404 248.998 713.578 248.477 713.751 248.129C713.925 247.782 714.099 247.608 714.272 247.261C715.314 245.872 716.009 244.309 716.877 242.746C717.398 241.704 717.919 240.662 718.614 239.793C718.614 239.793 718.788 239.446 718.961 239.272C718.961 238.925 719.309 238.751 719.482 238.404C720.003 237.883 720.177 237.188 720.698 236.667C720.872 236.32 721.045 235.799 721.219 235.452C721.219 235.452 721.219 235.104 721.393 234.931C721.914 234.062 722.435 233.194 722.782 232.326C723.303 231.457 723.65 230.415 724.171 229.547C724.345 229.2 724.692 228.679 724.866 228.331C725.04 227.984 725.213 227.463 725.561 227.116C726.082 226.247 726.603 225.379 727.124 224.511C727.471 223.816 727.992 223.295 728.339 222.6C728.687 222.253 729.034 221.906 729.208 221.558C729.555 221.558 729.729 221.558 730.076 221.558C730.597 221.558 730.944 221.558 731.465 221.558C731.639 221.558 731.986 221.558 732.16 221.558C732.16 221.558 732.334 221.558 732.507 221.558C732.681 221.558 732.681 221.558 732.855 221.558C733.202 221.732 733.549 222.079 733.897 222.427C734.244 222.774 734.244 223.295 734.244 223.642C734.244 224.858 734.591 226.074 734.418 227.289C734.418 227.984 734.418 228.505 734.418 229.2C734.418 229.721 734.418 230.415 734.418 230.936C734.418 231.457 734.418 232.152 734.418 232.673C734.418 232.673 734.418 232.673 734.418 232.847C734.418 233.889 734.418 234.931 734.418 235.973C734.418 236.146 734.418 236.494 734.418 236.667C734.418 237.362 734.418 238.23 734.418 238.925C734.418 240.314 734.418 241.704 734.244 242.919C734.244 243.788 733.897 248.477 733.723 249.345C733.723 249.345 733.376 250.213 733.376 250.387C733.376 250.561 733.376 250.734 733.028 250.734H732.681H732.334H731.986C731.813 250.561 731.465 250.561 731.292 250.387C731.118 250.387 731.292 250.387 730.944 250.387C730.597 250.387 730.25 250.04 729.902 250.04H729.729C729.729 250.04 729.729 250.04 729.729 249.866C729.729 249.692 730.076 247.435 730.076 245.698C730.076 245.698 730.423 240.662 730.423 240.488C730.423 238.925 730.423 237.362 730.423 235.973V234.931C730.423 233.715 730.423 232.673 730.25 231.457C730.25 230.763 730.25 229.894 730.076 229.2C730.076 229.2 730.076 229.2 729.902 229.2C729.902 229.2 729.902 229.2 729.902 229.373C729.381 230.589 728.86 231.805 728.339 233.02C728.339 233.02 728.339 233.368 728.166 233.368C727.818 233.889 727.471 234.41 727.297 234.931C727.124 235.452 726.776 235.973 726.429 236.494C726.082 237.188 725.561 237.883 725.213 238.751C725.213 239.099 724.866 239.272 724.692 239.62C724.345 240.141 723.998 240.662 723.824 241.183C723.477 241.877 723.129 242.746 722.608 243.44C722.435 243.788 722.261 244.135 722.087 244.482C722.087 244.656 721.914 244.83 721.74 245.003C721.74 245.177 721.393 245.524 721.219 245.698C720.872 246.393 720.351 247.087 720.003 247.956C719.83 248.303 719.656 248.65 719.309 248.998C718.614 249.866 718.093 250.734 717.398 251.603C717.398 251.776 717.051 251.95 717.051 252.124C716.704 252.471 716.356 252.818 716.009 252.818C715.662 252.818 715.488 252.818 715.314 252.645C715.314 252.645 715.141 252.471 714.967 252.471C714.62 252.471 714.272 252.124 713.925 251.95L713.23 252.297Z" fill="#0032A0"/>
<path d="M508.305 252.471C508.305 252.645 508.305 252.992 508.305 252.992C508.131 252.992 507.957 253.339 507.957 253.687C507.61 253.687 507.436 253.513 507.089 253.513C507.089 253.513 507.089 253.513 507.089 253.339C507.089 253.339 507.089 253.339 507.089 253.166C507.089 253.166 506.915 253.166 506.742 253.166C506.742 253.166 506.568 253.166 506.394 253.166C506.394 253.166 506.221 253.166 506.047 253.339C506.047 253.339 505.873 253.339 505.7 253.339C505.7 253.339 505.7 253.166 505.526 253.166C505.526 253.166 505.179 253.166 505.179 253.339C505.179 253.166 505.005 252.818 505.179 252.471C505.179 252.297 505.179 252.124 505.179 251.776C505.179 251.429 504.658 250.908 505.005 250.561C505.005 250.04 505.005 249.692 505.005 249.171C505.179 247.435 505.526 245.698 506.047 243.961C506.394 242.572 506.915 241.183 507.263 239.793C507.957 238.23 508.305 236.667 508.652 234.931C508.826 234.41 508.999 233.889 509.173 233.194C509.173 232.499 509.52 231.978 509.52 231.457C509.52 230.936 509.868 230.242 509.868 229.721C509.868 229.2 510.041 228.505 510.215 227.984C510.215 227.116 510.562 226.421 510.736 225.553C510.736 225.553 510.736 225.379 510.91 225.206C511.257 225.206 511.604 224.858 511.952 224.858C511.952 224.858 512.125 224.858 512.299 224.858C512.473 224.858 512.473 224.858 512.646 224.858C512.994 224.858 513.167 225.032 513.515 225.032C513.862 225.032 514.036 225.206 514.209 225.553C514.209 225.726 514.209 225.9 514.557 225.9C514.557 226.247 514.557 226.421 514.557 226.768C514.557 227.116 514.557 227.637 514.557 227.984C514.557 228.158 514.557 228.505 514.557 228.679C514.557 229.547 514.383 230.242 514.209 231.11C514.209 231.978 513.862 232.673 513.688 233.541C513.341 235.104 512.994 236.494 512.473 238.057C512.473 238.404 512.473 238.751 512.299 239.099C511.952 240.141 511.604 241.356 511.257 242.398C511.083 242.919 510.91 243.44 510.91 243.961C510.91 244.309 510.91 244.656 510.562 244.83C510.562 244.83 510.562 245.177 510.562 245.351C510.562 245.698 510.562 245.872 510.562 246.219C510.389 247.087 510.215 248.129 510.041 248.998C510.041 249.692 509.868 250.387 509.694 250.908C509.694 251.082 509.694 251.255 509.694 251.429C509.694 251.603 509.694 251.95 509.694 252.124C509.694 252.297 509.347 252.471 509.173 252.471H508.305Z" fill="#0032A0"/>
<path d="M573.255 215.133L573.082 215.306L573.255 215.133Z" fill="#0032A0"/>
<path d="M733.376 239.446C733.376 238.925 733.376 238.231 733.203 237.71C732.682 237.71 731.987 237.71 731.466 237.71C730.945 237.71 730.25 237.71 729.729 237.71C727.993 237.883 726.256 237.883 724.519 237.883C723.13 237.883 721.567 237.883 720.178 237.883H719.483V238.231C719.657 238.752 719.657 239.273 719.483 239.967C719.483 240.488 719.483 241.183 719.483 241.704C719.483 242.051 719.483 242.225 719.309 242.572C719.483 242.572 719.657 242.572 719.83 242.572C719.83 242.572 720.178 242.572 720.351 242.572C720.699 242.572 721.046 242.572 721.393 242.572C721.914 242.572 722.435 242.572 723.13 242.572C724.345 242.572 725.561 242.572 726.777 242.572C727.124 242.572 727.472 242.572 727.819 242.572C729.382 242.572 730.945 242.572 732.508 242.225H733.897C733.897 241.183 733.55 240.488 733.55 239.62L733.376 239.446Z" fill="#0032A0"/>
<path d="M759.773 234.41C759.426 234.062 759.252 233.541 758.905 233.02C758.558 232.673 758.21 232.326 757.689 231.978C757.689 231.978 757.342 231.978 757.342 231.805C756.821 231.457 756.3 231.284 755.779 231.11C755.258 230.936 754.563 230.763 753.869 230.763C753 230.763 752.132 230.763 751.437 230.763C750.569 230.763 749.874 231.11 749.006 231.11C747.964 231.284 746.922 231.631 745.88 232.152C745.359 232.499 744.838 232.673 744.317 232.847C745.533 233.368 747.096 235.104 747.443 234.931C747.79 234.931 748.138 234.931 748.485 234.931C749.18 234.757 750.048 234.583 750.743 234.583C751.437 234.583 752.132 234.583 752.827 234.583C753 234.583 753.348 234.583 753.521 234.583C754.042 234.583 754.737 234.931 755.084 235.278C755.084 235.278 755.258 235.452 755.258 235.625V235.973C755.258 236.146 755.084 236.494 754.737 236.667L751.958 239.272C751.958 239.272 751.785 239.446 751.611 239.62C750.916 239.967 750.569 240.488 749.874 240.835C749.353 241.183 748.832 241.704 748.311 242.051C747.79 242.398 747.269 242.746 746.748 243.093L745.88 243.614C745.88 243.614 745.533 243.788 745.359 243.961C745.012 244.135 744.664 244.309 744.317 244.482C743.449 245.003 742.58 245.524 741.538 245.698C739.802 246.045 739.454 245.872 739.454 246.045C739.454 246.045 738.933 246.566 738.76 246.74C738.586 247.087 738.412 247.261 738.412 247.608C738.412 248.129 738.412 248.824 738.412 248.998C737.891 249.519 738.412 249.171 738.412 249.692C738.412 250.387 738.065 250.213 738.412 250.908C738.412 250.908 738.412 251.255 738.412 251.429C738.76 251.429 739.281 251.429 739.628 251.429C739.802 251.429 740.149 251.429 740.323 251.429C743.275 250.734 745.88 248.998 746.054 248.998C746.575 248.65 747.096 248.303 747.617 247.956C747.79 247.956 747.964 247.782 748.138 247.608C748.832 247.261 749.527 246.914 750.048 246.393C750.048 246.393 750.222 246.219 750.395 246.219C750.743 246.045 751.09 245.698 751.437 245.351C751.437 245.351 751.611 245.177 751.785 245.177C751.785 245.177 752.132 245.177 752.132 245.003C752.479 244.656 752.827 244.482 753.174 244.135C753.521 243.788 753.869 243.614 754.39 243.267C754.39 243.267 754.563 243.093 754.737 242.919L756.647 241.183C756.647 241.183 756.995 241.183 756.995 240.835C757.342 240.314 757.863 239.967 758.037 239.446C758.037 239.272 758.384 238.925 758.558 238.751C758.905 238.404 759.079 237.883 759.079 237.362C759.079 236.841 759.079 236.32 759.079 235.799C759.079 235.452 759.079 234.931 758.905 234.583L759.773 234.41Z" fill="#0032A0"/>
<path d="M749.006 233.889C749.006 233.368 750.916 231.11 749.701 231.11C748.659 231.11 745.88 231.11 745.359 231.11C745.012 231.11 744.838 231.11 744.664 230.936C744.664 230.936 744.491 230.763 744.317 230.589V230.242C744.317 229.721 744.838 229.2 745.185 228.679C745.359 228.679 745.533 228.331 745.706 228.331C746.227 227.81 746.748 227.463 747.443 227.116C747.964 226.595 748.659 226.421 749.353 226.074C749.527 226.074 749.701 226.074 749.874 225.9C750.222 225.726 750.569 225.553 751.09 225.553C751.785 225.553 752.306 225.379 753 225.205C753.174 225.205 753.348 225.205 753.521 225.205C753.521 225.205 753.695 225.205 753.869 225.205C753.869 225.205 754.042 225.205 754.042 225.032C754.042 225.032 754.39 224.684 754.39 224.511C754.39 224.163 754.042 223.469 754.042 223.121C754.042 222.774 754.042 222.774 753.695 222.427C753.521 222.079 753.348 221.906 753.348 222.079C753.348 222.079 753.174 222.079 753 222.079C752.479 222.079 752.132 222.079 751.611 222.253C750.916 222.427 750.222 222.6 749.701 222.6C748.659 222.774 747.443 223.121 746.575 223.642C745.88 224.163 745.185 224.337 744.491 224.858C743.796 225.379 743.101 225.726 742.58 226.247C742.059 226.595 741.712 227.116 741.365 227.637C741.017 228.158 740.67 228.679 740.496 229.2C740.496 229.2 740.496 229.547 740.323 229.547C740.149 230.068 739.975 230.589 739.975 231.11C739.975 231.631 740.149 232.152 739.975 232.673C739.975 233.02 740.323 233.541 740.496 233.889C740.844 234.236 741.191 234.236 741.712 234.757C742.059 235.104 742.233 235.278 742.754 235.452C743.101 235.452 743.449 235.625 743.796 235.799C744.491 235.973 745.185 236.146 745.88 236.146C746.748 236.146 747.79 236.146 748.659 235.973C750.395 235.625 749.006 235.625 749.006 234.757V233.889Z" fill="#0032A0"/>
<path d="M738.413 214.091C738.413 214.091 738.413 213.917 738.413 213.744C738.413 213.744 738.413 213.223 738.239 213.049H738.066C738.066 213.049 738.066 212.875 738.066 212.702C737.718 212.528 737.024 212.007 736.85 211.833C736.85 211.833 736.85 211.486 736.85 211.312C736.85 211.312 736.329 211.312 736.329 210.965C736.329 210.791 736.329 210.965 736.329 210.791C735.461 210.965 734.592 211.139 733.898 211.486C732.161 212.007 730.424 212.528 728.861 213.396C728.514 213.57 727.993 213.744 727.646 214.091C727.125 214.091 726.951 214.612 726.604 214.959C726.604 214.959 726.256 215.133 726.083 215.307C725.735 215.307 725.562 215.654 725.388 215.828C725.388 215.828 725.388 215.828 725.562 215.828C725.735 215.828 725.909 215.828 725.909 216.001C725.909 216.175 725.909 216.175 725.909 216.349C725.909 216.522 725.909 216.696 725.909 216.696C725.909 216.696 726.083 216.696 726.256 216.696C726.256 216.696 726.256 216.696 726.43 216.87C726.43 216.87 726.43 217.043 726.43 217.217C726.43 217.217 726.43 217.217 726.256 217.217H726.083C726.083 217.564 726.083 217.738 726.256 218.085C726.43 218.085 726.777 218.085 726.951 218.085C727.298 218.259 727.298 218.085 727.472 218.085C727.646 218.085 727.819 218.259 728.167 218.259C728.34 218.259 728.688 218.259 728.861 218.085C728.861 218.085 729.209 218.085 729.382 217.912C730.077 217.738 730.598 217.391 731.293 217.217C732.161 216.87 733.029 216.522 734.071 216.175C734.419 216.175 734.592 216.001 734.94 215.828C734.94 215.828 735.287 215.828 735.461 215.654C735.808 215.654 736.155 215.654 736.502 215.48C737.023 215.307 737.545 215.133 738.066 214.959C738.587 214.959 738.239 214.959 738.934 214.612L739.281 214.265C739.281 214.265 739.281 214.091 739.281 213.917L738.413 214.091Z" fill="#0032A0"/>
</svg>
