<svg width="845" height="265" viewBox="0 0 845 265" fill="none" xmlns="http://www.w3.org/2000/svg">
<path d="M409.9 182C395.5 180.8 381.1 179.6 366.5 178.4C369.2 174.3 371.8 170.3 374.4 166.3C374.3 166.2 374.2 166.2 374.2 166.1C370.3 168.7 366.3 171.3 362.2 174C361 159.4 359.8 145 358.5 130.7C358.4 130.7 358.3 130.7 358.2 130.7C357 145.1 355.8 159.4 354.5 174C350.3 171.3 346.4 168.7 342.4 166.1C342.3 166.2 342.3 166.2 342.2 166.3C344.8 170.3 347.4 174.2 350.1 178.3C335.5 179.5 321 180.7 306.6 182C306.6 182.1 306.6 182.2 306.6 182.3C321 183.5 335.4 184.7 350.1 186C347.4 190.1 344.8 194.1 342.2 198.1C342.3 198.2 342.4 198.2 342.4 198.3C346.4 195.7 350.3 193.1 354.4 190.4C355.6 205 356.8 219.4 358.1 233.7C358.2 233.7 358.3 233.7 358.4 233.7C359.6 219.3 360.8 205 362 190.4C366.2 193.1 370.1 195.7 374 198.3L374.2 198.1C371.6 194.2 369 190.2 366.3 186.1C380.9 184.9 395.3 183.7 409.7 182.5V182H409.9ZM358.4 187.1C355.6 187.1 353.4 184.9 353.4 182.1C353.4 179.3 355.6 177.1 358.4 177.1C361.2 177.1 363.4 179.3 363.4 182.1C363.4 184.9 361.3 187.1 358.4 187.1Z" fill="white"/>
<path d="M354.1 212.2C341.3 210.9 329.6 199.5 328.3 186.4C329.4 186.5 330.3 186.6 331.3 186.6C332.1 186.6 332.4 186.9 332.5 187.7C333.8 193.9 337 198.9 341.9 202.8C345.1 205.4 348.7 207.1 352.8 207.9C353.5 208.1 353.9 208.3 353.9 209.1C353.9 210.2 354.1 211.2 354.1 212.2Z" fill="white"/>
<path d="M354.2 152C354.1 153.2 354.1 154.4 353.9 155.4C353.8 155.7 353.3 156.1 352.9 156.2C347.9 157.3 343.5 159.7 339.9 163.3C336.2 167 333.8 171.3 332.7 176.4C332.5 177.3 332.1 177.6 331.2 177.6C330.3 177.6 329.5 177.7 328.6 177.8C328.6 177.8 328.5 177.8 328.5 177.7C329.5 165.3 340.7 153.4 354.2 152Z" fill="white"/>
<path d="M388.5 177.8C387.3 177.7 386 177.6 384.8 177.4C384.6 177.4 384.3 176.8 384.2 176.5C383.1 171.3 380.6 166.8 376.8 163.1C373.2 159.6 369 157.2 364 156.2C363.1 156 362.7 155.6 362.8 154.7C362.8 153.8 362.7 152.9 362.6 151.9C375 153.2 387.1 164.2 388.5 177.8Z" fill="white"/>
<path d="M388.6 186.4C387.8 192.3 385.5 197.4 381.7 201.9C376.7 207.7 370.4 211.2 362.7 212.4C362.8 211.1 362.8 209.9 363 208.8C363.1 208.5 363.6 208.1 364 208C369.1 206.9 373.5 204.4 377.2 200.7C380.9 197 383.2 192.6 384.3 187.5C384.4 186.8 384.7 186.6 385.4 186.5C386.4 186.6 387.4 186.5 388.6 186.4Z" fill="white"/>
<path d="M362 182.1C362 184 360.4 185.7 358.5 185.7C356.6 185.7 354.9 184.1 354.9 182.2C354.9 181.7 355 181.2 355.2 180.8C355.3 180.6 355.4 180.4 355.5 180.2C356.1 179.3 357.2 178.6 358.4 178.6C359.4 178.6 360.3 179 360.9 179.6C361 179.7 361.1 179.8 361.1 179.8C361.7 180.4 362 181.2 362 182.1Z" fill="white"/>
<path d="M240.9 223.801H243.8V263.901H240.9V257.201C239.7 259.501 238 261.201 235.9 262.501C233.7 263.801 231.3 264.401 228.6 264.401C224.5 264.401 221 263.001 218.1 260.101C215.2 257.201 213.8 253.701 213.8 249.501C213.8 245.301 215.2 241.801 218.1 238.901C221 236.001 224.5 234.601 228.6 234.601C231.3 234.601 233.7 235.301 235.9 236.501C238.1 237.801 239.7 239.601 240.9 241.801V223.801ZM220.1 258.301C222.5 260.701 225.3 261.901 228.7 261.901C232.1 261.901 235 260.701 237.3 258.301C239.7 255.901 240.8 253.001 240.8 249.601C240.8 246.201 239.6 243.301 237.3 240.901C234.9 238.501 232.1 237.301 228.7 237.301C225.3 237.301 222.4 238.501 220.1 240.901C217.7 243.301 216.6 246.201 216.6 249.601C216.6 253.001 217.8 255.901 220.1 258.301Z" fill="white"/>
<path d="M265.5 234.7C269.7 234.7 273.1 236.2 275.7 239.2C278.3 242.2 279.6 245.7 279.6 249.8C279.6 250 279.6 250.2 279.6 250.5C279.6 250.8 279.6 251 279.6 251.2H253.6C253.9 254.4 255.2 257 257.5 259C259.8 261 262.5 262 265.8 262C268.1 262 270.1 261.5 271.8 260.6C273.5 259.6 274.8 258.4 275.7 256.8L278.2 258.3C277 260.3 275.3 261.9 273.2 263C271 264.2 268.5 264.7 265.7 264.7C261.3 264.7 257.7 263.3 254.9 260.5C252.1 257.7 250.7 254.1 250.7 249.8C250.7 245.5 252.1 242 254.9 239.1C257.6 236.1 261.1 234.7 265.5 234.7ZM265.5 237.4C262.3 237.4 259.5 238.4 257.4 240.4C255.3 242.4 254 245 253.7 248.3H276.7C276.4 244.9 275.2 242.2 273.1 240.3C270.9 238.4 268.4 237.4 265.5 237.4Z" fill="white"/>
<path d="M286.3 264.001V222.101H289.2V264.001H286.3Z" fill="white"/>
<path d="M344 234.7C347.1 234.7 349.7 235.7 351.6 237.6C353.5 239.5 354.5 242.3 354.5 245.8V264H351.6V245.8C351.6 243.1 350.9 241.1 349.5 239.6C348.1 238.1 346.3 237.4 344 237.4C341.4 237.4 339.4 238.3 337.8 240C336.2 241.8 335.4 244.4 335.4 247.9V263.9H332.5V245.7C332.5 243 331.8 241 330.5 239.5C329.2 238 327.4 237.3 325.1 237.3C322.6 237.3 320.5 238.2 318.8 240C317.1 241.8 316.2 244.4 316.2 247.9V263.9H313.3V235.2H316.2V240.1C318.2 236.4 321.3 234.5 325.4 234.5C327.5 234.5 329.3 235 330.9 236C332.5 237 333.6 238.5 334.3 240.3C335.3 238.4 336.6 236.9 338.3 235.9C340.1 235.2 342 234.7 344 234.7Z" fill="white"/>
<path d="M375.4 234.7C379.6 234.7 383 236.2 385.6 239.2C388.2 242.2 389.5 245.7 389.5 249.8C389.5 250 389.5 250.2 389.5 250.5C389.5 250.8 389.5 251 389.5 251.2H363.5C363.8 254.4 365.1 257 367.4 259C369.7 261 372.4 262 375.7 262C378 262 380 261.5 381.7 260.6C383.4 259.6 384.7 258.4 385.6 256.8L388.1 258.3C386.9 260.3 385.2 261.9 383.1 263C380.9 264.2 378.4 264.7 375.6 264.7C371.2 264.7 367.6 263.3 364.8 260.5C362 257.7 360.6 254.1 360.6 249.8C360.6 245.5 362 242 364.8 239.1C367.5 236.1 371 234.7 375.4 234.7ZM375.4 237.4C372.2 237.4 369.4 238.4 367.3 240.4C365.2 242.4 363.9 245 363.6 248.3H386.6C386.3 244.9 385.1 242.2 383 240.3C380.8 238.4 378.3 237.4 375.4 237.4Z" fill="white"/>
<path d="M397.1 242.701C397.1 244.101 397.7 245.201 398.9 246.001C400.1 246.801 401.5 247.401 403.2 247.901C404.9 248.301 406.6 248.801 408.3 249.201C410 249.701 411.5 250.501 412.6 251.701C413.8 252.901 414.4 254.501 414.4 256.501C414.4 258.901 413.5 260.801 411.6 262.301C409.7 263.801 407.2 264.601 404.2 264.601C401.4 264.601 399.1 264.001 397.2 262.901C395.3 261.701 394 260.201 393.3 258.301L395.8 256.901C396.3 258.501 397.3 259.701 398.8 260.601C400.3 261.501 402.1 261.901 404.2 261.901C406.3 261.901 408.1 261.401 409.5 260.501C410.9 259.601 411.6 258.201 411.6 256.501C411.6 255.101 411 254.001 409.8 253.101C408.6 252.301 407.2 251.601 405.5 251.201C403.8 250.801 402.1 250.301 400.4 249.801C398.7 249.301 397.2 248.501 396 247.401C394.8 246.301 394.2 244.701 394.2 242.801C394.2 240.501 395.1 238.601 396.9 237.001C398.7 235.401 401.1 234.601 403.9 234.601C406.2 234.601 408.2 235.101 409.9 236.101C411.6 237.101 412.9 238.501 413.7 240.301L411.3 241.701C410.7 240.301 409.8 239.201 408.4 238.501C407.1 237.801 405.6 237.401 403.9 237.401C402 237.401 400.3 237.901 399 238.801C397.7 239.801 397.1 241.101 397.1 242.701Z" fill="white"/>
<path d="M31.3 136.401C42.1 136.401 51.1 140.201 58.4 147.801C65.6 155.401 69.3 164.701 69.3 175.801C69.3 186.901 65.7 196.201 58.4 203.801C51.2 211.401 42.1 215.201 31.3 215.201H0V136.401H31.3ZM31.3 200.301C38.1 200.301 43.7 198.001 47.9 193.501C52.2 189.001 54.3 183.101 54.3 175.801C54.3 168.501 52.2 162.601 47.9 158.101C43.6 153.601 38.1 151.301 31.3 151.301H15.5V200.301H31.3Z" fill="white"/>
<path d="M91.8 192.9C93.7 200 99 203.5 107.7 203.5C113.2 203.5 117.4 201.6 120.3 197.9L132 204.6C126.4 212.6 118.3 216.6 107.5 216.6C98.2 216.6 90.7 213.8 85.1 208.2C79.5 202.6 76.7 195.5 76.7 186.9C76.7 178.4 79.5 171.4 85 165.7C90.5 160 97.7 157.2 106.4 157.2C114.6 157.2 121.5 160.1 126.8 165.7C132.2 171.4 134.8 178.5 134.8 186.8C134.8 188.7 134.6 190.7 134.2 192.8H91.8V192.9ZM91.6 181.7H120.3C119.5 177.9 117.8 175 115.2 173.2C112.6 171.3 109.7 170.4 106.4 170.4C102.5 170.4 99.3 171.4 96.7 173.4C94.1 175.3 92.4 178.1 91.6 181.7Z" fill="white"/>
<path d="M156 174.801C156 176.301 157 177.501 159 178.501C161 179.401 163.4 180.301 166.3 181.001C169.1 181.701 172 182.601 174.8 183.701C177.6 184.801 180.1 186.601 182.1 189.201C184.1 191.801 185.1 194.901 185.1 198.801C185.1 204.601 182.9 209.001 178.6 212.101C174.3 215.201 168.9 216.801 162.5 216.801C151 216.801 143.1 212.301 138.9 203.401L151.5 196.301C153.1 201.201 156.8 203.601 162.5 203.601C167.7 203.601 170.3 202.001 170.3 198.801C170.3 197.301 169.3 196.101 167.3 195.101C165.3 194.201 162.9 193.301 160 192.601C157.1 191.901 154.3 190.901 151.5 189.801C148.6 188.701 146.2 186.901 144.2 184.501C142.2 182.101 141.2 179.001 141.2 175.301C141.2 169.801 143.2 165.401 147.3 162.201C151.4 159.001 156.5 157.401 162.5 157.401C167.1 157.401 171.2 158.401 175 160.501C178.7 162.601 181.7 165.501 183.9 169.301L171.5 176.001C169.7 172.201 166.7 170.301 162.5 170.301C160.6 170.301 159.1 170.701 157.8 171.501C156.6 172.301 156 173.401 156 174.801Z" fill="white"/>
<path d="M224.9 172.801H212.2V196.201C212.2 198.201 212.7 199.601 213.7 200.501C214.7 201.401 216.1 201.901 218 202.001C219.9 202.101 222.2 202.101 225 201.901V215.101C215 216.201 208 215.301 203.9 212.301C199.8 209.301 197.8 203.901 197.8 196.201V172.801H188V158.901H197.8V147.501L212.3 143.101V158.801H225V172.801H224.9Z" fill="white"/>
<path d="M242.3 152.101C239.9 152.101 237.8 151.201 236.1 149.501C234.3 147.701 233.5 145.701 233.5 143.301C233.5 140.901 234.4 138.801 236.1 137.001C237.9 135.201 239.9 134.301 242.3 134.301C244.8 134.301 246.9 135.201 248.7 137.001C250.5 138.801 251.3 140.901 251.3 143.301C251.3 145.701 250.4 147.801 248.7 149.501C246.9 151.201 244.8 152.101 242.3 152.101ZM235.1 215.101V158.901H249.6V215.101H235.1Z" fill="white"/>
<path d="M315.4 184.4C313.2 184.2 311 184 308.9 183.9L306.7 183.7C305.9 183.6 305.3 183 305.3 182.2C305.3 182.1 305.3 182 305.3 181.9C305.3 181.1 305.9 180.5 306.7 180.4C306.7 180.4 310.3 180.1 315.4 179.7C315.3 172.8 313.3 167.4 309.4 163.4C305.4 159.3 300.3 157.2 294.2 157.2C286.6 157.2 281 159.8 277.4 165.1V158.8H262.9V215H277.4V184.7C277.4 180.1 278.5 176.6 280.8 174.2C283 171.9 286 170.7 289.8 170.7C293.2 170.7 295.9 171.7 297.9 173.7C299.9 175.7 300.9 178.6 300.9 182.3V215H315.4V184.4Z" fill="white"/>
<rect x="438.4" y="134.7" width="8.75916" height="130" fill="white"/>
<path d="M508.131 154.596C505.526 145.739 497.016 140.876 497.016 140.876C491.98 137.75 476.697 134.798 473.745 142.265C472.703 144.697 472.703 158.59 472.008 176.477C471.661 183.945 471.314 191.065 471.314 198.533C471.314 202.354 470.966 205.827 471.314 208.258C471.314 208.953 471.314 209.474 471.661 209.995C471.661 210.169 471.661 210.342 471.835 210.516C472.703 212.253 474.613 213.295 476.697 213.295C479.65 213.295 482.255 210.863 482.255 207.737C482.255 205.827 482.255 203.048 482.255 197.838C482.255 192.628 482.255 186.724 482.255 186.724C497.537 187.071 513.688 172.83 508.131 154.422V154.596ZM482.081 144.349C489.201 144.349 499.621 149.038 502.052 158.416C505.352 171.094 493.716 182.035 482.081 182.035V144.349ZM600.868 208.779C600.521 210.69 598.958 212.079 597.048 212.079C595.137 212.079 594.095 211.211 593.574 209.821C591.838 205.827 575.166 164.147 575.339 161.716C574.645 170.225 573.256 200.617 573.082 208.432C573.082 208.779 573.082 209.3 573.082 209.648C573.082 210.169 573.082 210.69 572.734 211.211C572.734 211.558 572.387 211.905 572.214 212.079C571.519 212.774 570.651 213.121 569.609 213.121C567.698 213.121 566.135 211.558 566.135 209.648C566.135 207.737 566.135 209.648 566.135 209.474C566.135 209.3 566.135 209.127 566.135 208.779C566.483 193.844 567.698 156.853 568.045 148.865C568.045 148.865 568.046 147.996 568.393 147.128C568.74 144.697 570.824 142.96 573.429 142.96C576.034 142.96 576.381 143.655 577.25 144.697C577.25 144.697 577.423 144.87 577.597 145.044C578.292 146.086 577.944 145.565 578.465 146.607C579.855 148.517 595.658 180.993 595.485 183.25C597.221 170.399 599.653 142.613 600.347 140.008C600.347 140.008 600.347 140.008 600.347 139.834C600.695 138.445 601.737 137.403 603.3 137.403C604.863 137.403 606.252 138.792 606.252 140.355C606.252 141.571 602.084 200.617 601.389 208.432L600.868 208.779ZM770.887 208.085C770.887 204.09 772.103 164.668 771.061 149.212C770.887 146.26 768.63 141.571 763.767 139.834C758.904 138.097 754.389 138.618 750.047 140.355C739.106 144.523 736.675 159.458 735.807 170.92C735.807 172.136 735.459 174.22 735.459 174.22C735.459 174.22 730.423 174.393 729.555 174.393C727.992 174.393 726.602 175.783 726.602 177.519C726.602 179.256 727.992 180.645 729.729 180.645C730.597 180.645 734.765 180.645 734.765 180.645C734.765 180.645 733.202 199.401 733.202 202.006C733.202 204.611 735.286 206.869 738.064 206.869C740.843 206.869 742.58 204.959 742.753 202.527C742.753 200.617 744.49 180.298 744.49 180.298C744.49 180.298 756.299 179.777 760.815 179.603L760.294 208.432C760.294 211.384 762.725 213.816 765.677 213.816C768.63 213.816 770.714 211.732 771.061 209.127C771.061 208.953 771.061 208.779 771.061 208.432L770.887 208.085ZM744.837 174.22C744.837 174.22 745.532 158.763 747.269 154.075C747.269 154.075 751.263 142.092 758.557 145.218C761.857 146.607 761.683 150.428 761.683 150.428C761.683 156.68 761.162 174.046 761.162 174.046H744.837V174.22ZM522.198 151.643C519.245 157.721 517.335 172.309 517.335 172.309C517.335 172.309 515.425 172.309 514.383 172.309C512.646 172.309 511.083 173.699 511.083 175.609C511.083 177.519 512.299 178.561 513.862 178.909C514.383 178.909 515.251 178.909 516.119 178.909C515.425 186.029 514.383 194.539 513.862 201.659C513.514 204.959 513.167 207.216 513.341 208.779C513.341 208.779 513.341 208.779 513.341 208.953C513.341 209.3 513.341 209.648 513.341 209.995C513.341 210.516 513.688 210.863 513.862 211.211C514.556 212.426 515.946 213.295 517.509 213.295C519.072 213.295 520.461 212.426 521.329 211.211C521.329 211.211 521.503 210.863 521.677 210.69C521.677 210.516 521.677 210.169 521.85 209.995C521.85 209.995 521.85 209.821 521.85 209.648C522.719 204.264 524.282 178.04 524.282 178.04L543.211 176.998C543.211 176.998 542.343 193.844 541.996 202.006C541.996 202.006 541.996 202.18 541.996 202.354C541.996 202.875 541.996 203.569 542.343 204.09C543.038 206.174 545.122 207.737 547.379 207.737C549.637 207.737 552.763 205.306 552.763 202.527C553.284 202.006 554.673 157.895 553.805 151.817C551.547 137.055 531.228 132.714 522.198 151.817V151.643ZM524.803 171.962C525.324 161.889 528.276 154.422 530.013 151.296C531.576 148.344 532.965 146.607 535.396 145.739C538.175 144.523 544.08 144.697 544.253 149.907C544.253 152.512 543.906 162.41 543.385 170.746C537.307 171.094 524.629 171.962 524.629 171.962H524.803ZM720.351 206.348C720.003 209.127 717.572 211.211 714.793 211.211C712.015 211.211 709.062 208.606 709.062 205.48C709.062 202.354 709.062 204.959 709.062 204.611C710.452 191.934 715.662 147.475 712.015 147.649C709.757 147.649 702.637 172.483 692.911 197.491C692.217 199.749 689.959 201.485 687.354 201.485C684.749 201.485 682.491 199.749 681.797 197.317C681.797 197.317 681.797 196.97 681.797 196.796C681.276 194.712 674.503 154.596 673.287 153.033C672.592 152.338 672.071 153.033 671.898 153.554C671.029 158.069 669.814 200.443 669.64 204.785V204.959C669.466 206.869 667.903 208.432 665.819 208.432C663.735 208.432 661.999 206.695 661.999 204.611C661.999 199.575 664.083 151.296 664.604 147.996C665.125 144.349 670.335 142.786 675.197 144.349C675.545 144.349 675.718 144.523 676.066 144.697C677.281 145.218 678.323 145.739 679.192 146.607C679.192 146.607 679.192 146.607 679.365 146.607C679.365 146.607 679.713 146.954 679.886 146.954C681.102 148.17 681.797 149.559 682.318 150.601C682.491 151.122 682.839 151.817 682.839 152.512C683.881 155.985 689.264 180.645 690.654 187.245C694.127 179.082 694.822 176.477 699.684 163.105C704.373 150.08 706.805 143.655 709.062 140.876C709.236 140.529 709.583 140.355 709.757 140.008C710.625 139.139 711.494 138.792 712.536 138.792C712.883 138.792 713.057 138.792 713.404 138.792C713.751 138.792 714.099 138.792 714.446 138.792C715.662 138.966 717.225 139.487 719.135 139.834C719.309 139.834 719.482 139.834 719.656 139.834C721.566 140.181 723.129 141.571 723.824 143.481C723.998 144.002 724.171 144.523 724.171 145.044C724.171 148.517 724.171 154.422 724.171 158.069C723.65 169.531 721.74 193.844 720.698 205.48L720.351 206.348ZM651.405 150.601C649.842 143.481 643.069 138.792 635.775 139.313C621.187 140.355 618.235 159.632 616.325 175.262C616.325 175.262 613.199 175.262 612.157 175.262C610.246 175.262 608.683 176.825 608.683 178.735C608.683 180.645 610.246 182.208 612.157 182.208C612.851 182.208 615.804 182.035 615.804 182.035C615.109 189.155 613.199 202.354 612.851 206.695C612.851 207.043 612.851 207.39 612.851 207.737C612.851 210.342 614.935 212.253 617.367 212.253C619.798 212.253 620.666 211.211 621.361 209.821C621.708 209.3 621.882 208.779 621.882 208.085C622.403 202.354 624.313 181.34 624.313 181.34L640.117 180.993C640.117 188.46 639.422 203.743 639.422 205.827C639.422 208.432 641.68 210.516 644.285 210.516C646.89 210.516 648.627 208.953 649.148 206.695C649.148 206.695 649.148 206.695 649.148 206.522C649.495 204.264 652.968 158.069 651.405 150.428V150.601ZM640.291 175.435H624.834C624.834 175.435 626.224 145.739 635.081 145.565C637.859 145.565 640.812 147.302 640.812 150.775C640.812 159.632 640.291 175.435 640.291 175.435Z" fill="white"/>
<path d="M772.798 5.76424C773.84 9.23756 774.535 12.8845 775.23 16.3579C775.924 20.0049 776.445 23.4782 776.793 27.1252C777.314 30.7721 777.661 34.4191 777.835 38.0661C778.182 41.7131 778.356 45.3601 778.356 49.1807C778.356 50.2227 777.487 51.0911 776.445 51.0911C775.751 51.0911 775.056 50.7437 774.709 50.0491C772.972 46.7494 771.583 43.2761 770.193 39.9764C768.804 36.5031 767.415 33.2035 766.199 29.7301C764.983 26.2568 763.768 22.7835 762.726 19.3102C761.684 15.8369 760.642 12.3635 760.121 8.71656C759.426 5.24325 761.857 1.76993 765.331 1.07526C768.63 0.3806 771.93 2.46459 772.798 5.59058V5.76424Z" fill="#EA2229"/>
<path d="M836.881 40.8448C833.928 42.9288 830.629 44.6655 827.503 46.4021C824.377 48.1388 821.077 49.7018 817.777 51.2648C814.478 52.8278 811.178 54.2171 807.705 55.6064C804.231 56.9958 800.932 58.3851 797.285 59.6008C796.243 59.9481 795.201 59.4271 794.853 58.3851C794.68 57.6904 794.853 56.9958 795.374 56.4748C797.979 53.8698 800.758 51.4385 803.537 49.0071C806.315 46.5758 809.094 44.3182 812.046 42.0605C814.999 39.8028 817.777 37.7188 820.903 35.6349C823.856 33.5509 826.982 31.6405 830.108 29.9039C833.234 28.1672 837.228 29.3829 838.965 32.5089C840.528 35.4612 839.659 39.1082 836.881 41.0185V40.8448Z" fill="#EA2229"/>
<path d="M823.335 112.568C820.556 110.311 817.777 107.879 815.172 105.274C812.567 102.669 809.962 100.064 807.531 97.4593C805.1 94.8543 802.668 92.0756 800.237 89.297C797.806 86.5183 795.548 83.7396 793.29 80.6137C792.596 79.7453 792.769 78.5297 793.638 78.0087C794.159 77.4877 795.027 77.4877 795.722 78.0087C799.021 79.7453 802.147 81.6557 805.273 83.566C808.399 85.4763 811.525 87.5603 814.478 89.4706C817.43 91.5546 820.382 93.6386 823.335 95.8963C826.287 98.1539 829.066 100.412 831.671 102.843C834.276 105.274 834.449 109.442 831.844 112.047C829.587 114.479 825.766 114.652 823.161 112.742L823.335 112.568Z" fill="#EA2229"/>
<path d="M750.742 121.599C751.958 118.126 753.521 114.826 755.084 111.7C756.647 108.4 758.384 105.274 760.294 102.148C762.031 99.0223 763.941 95.8963 765.851 92.7703C767.762 89.6443 769.846 86.5183 771.93 83.566C772.624 82.6977 773.666 82.524 774.535 83.2187C775.229 83.7397 775.403 84.4343 775.229 85.129C774.534 88.776 773.84 92.423 772.971 95.8963C772.103 99.3696 771.061 103.017 770.019 106.49C768.977 109.963 767.935 113.437 766.72 116.91C765.504 120.383 764.288 123.683 762.725 126.982C761.162 130.282 757.342 131.671 754.042 130.108C750.916 128.719 749.7 125.072 750.742 121.946V121.599Z" fill="#EA2229"/>
<path d="M719.83 55.6059C723.477 55.6059 727.124 56.1269 730.597 56.6479C734.244 57.1689 737.717 57.8636 741.364 58.5582C745.011 59.2529 748.485 60.1212 752.132 60.9896C755.605 61.8579 759.252 62.7262 762.725 63.9419C763.767 64.2892 764.288 65.3312 763.941 66.3732C763.767 67.0679 763.073 67.5889 762.378 67.5889C758.731 68.1099 755.084 68.4572 751.437 68.6309C747.79 68.8045 744.143 68.9782 740.496 69.1519C736.849 69.1519 733.202 69.1519 729.555 69.1519C725.908 69.1519 722.261 68.8045 718.788 68.4572C715.141 67.9362 712.709 64.6365 713.23 61.1632C713.751 57.8636 716.704 55.4323 720.003 55.6059H719.83Z" fill="#EA2229"/>
<path d="M798.5 22.4361C797.805 25.3884 796.937 28.1671 795.895 30.9457C794.853 33.7244 793.811 36.503 792.769 39.2817C791.553 42.0603 790.511 44.839 789.122 47.6176C787.906 50.3963 786.517 53.0013 785.127 55.7799C784.78 56.4746 783.738 56.8219 783.043 56.4746C782.522 56.1273 782.175 55.6063 782.175 55.0853C782.175 51.9593 782.696 49.007 783.043 46.0546C783.391 43.1023 783.738 40.15 784.259 37.1977C784.78 34.2454 785.301 31.293 785.822 28.3407C786.517 25.3884 787.211 22.6098 788.08 19.6574C788.948 16.8788 792.074 15.3158 794.853 16.1841C797.458 17.0524 799.021 19.8311 798.326 22.4361H798.5Z" fill="#EA2229"/>
<path d="M828.892 70.8888C825.939 71.2361 822.987 71.2361 820.035 71.0625C817.082 71.0625 814.13 70.8888 811.004 70.5415C808.052 70.3678 805.099 70.0205 801.973 69.6731C799.021 69.3258 796.069 68.9785 792.943 68.2838C792.074 68.2838 791.553 67.2418 791.727 66.3735C791.727 65.8525 792.248 65.3315 792.769 65.1578C795.721 64.2895 798.674 63.7685 801.626 63.0738C804.578 62.5528 807.531 62.0318 810.483 61.5108C813.435 60.9898 816.388 60.6425 819.34 60.2952C822.292 59.9478 825.245 59.7742 828.197 59.7742C831.149 59.7742 833.581 62.2055 833.581 65.1578C833.581 67.9365 831.323 70.1941 828.718 70.3678L828.892 70.8888Z" fill="#EA2229"/>
<path d="M792.074 114.652C790.858 111.874 789.99 109.095 789.122 106.316C788.253 103.538 787.559 100.585 786.864 97.633C786.169 94.6807 785.475 91.7284 784.954 88.7761C784.433 85.8238 783.738 82.8714 783.391 79.7454C783.391 78.8771 783.912 78.1825 784.78 78.0088C785.475 78.0088 785.996 78.1825 786.343 78.7035C788.08 81.3084 789.469 83.9134 791.032 86.5184C792.421 89.1234 793.811 91.7284 795.2 94.5071C796.589 97.112 797.805 99.8907 799.021 102.669C800.236 105.448 801.278 108.227 802.147 111.005C803.015 113.784 801.452 116.91 798.673 117.778C796.068 118.647 793.29 117.257 792.074 114.826V114.652Z" fill="#EA2229"/>
<path d="M739.106 93.1176C741.364 91.2073 743.795 89.4706 746.227 87.734C748.658 85.9973 751.263 84.4343 753.694 82.8713C756.299 81.3083 758.904 79.7453 761.509 78.356C764.114 76.9667 766.719 75.4037 769.498 74.188C770.366 73.8407 771.235 74.188 771.582 74.8827C771.929 75.4037 771.582 76.0983 771.408 76.4457C769.498 78.877 767.414 81.1347 765.33 83.2186C763.246 85.4763 761.162 87.5603 759.078 89.6443C756.994 91.7283 754.736 93.8123 752.479 95.7226C750.221 97.6329 747.963 99.5432 745.532 101.28C743.101 103.017 739.801 102.496 738.064 100.064C736.501 97.8066 736.849 94.6806 738.933 92.9439L739.106 93.1176Z" fill="#EA2229"/>
<path d="M743.274 35.982C745.879 37.5449 748.31 39.2816 750.568 41.0183C752.999 42.7549 755.257 44.6653 757.515 46.7492C759.772 48.6596 762.03 50.7436 764.288 52.6539C766.545 54.7379 768.629 56.8219 770.713 59.0795C771.234 59.7742 771.234 60.6425 770.713 61.3372C770.192 61.6845 769.671 61.8582 769.15 61.6845C766.372 60.6425 763.593 59.4269 760.814 58.0375C758.036 56.8219 755.431 55.4325 752.826 54.0432C750.221 52.6539 747.616 51.2646 745.011 49.7016C742.406 48.1386 739.974 46.5756 737.543 44.8389C735.112 43.1023 734.764 39.8026 736.501 37.3713C738.238 35.1136 741.19 34.5926 743.621 35.982H743.274Z" fill="#EA2229"/>
<path d="M821.945 18.4416C820.556 20.3519 819.167 22.2622 817.604 24.1726C816.041 26.0829 814.478 27.8196 812.741 29.5562C811.178 31.2929 809.441 33.0295 807.705 34.7662C805.968 36.5028 804.231 38.0658 802.321 39.6288C801.8 40.1498 800.932 39.9762 800.584 39.6288C800.237 39.2815 800.237 38.7605 800.411 38.2395C801.453 35.9819 802.495 33.8979 803.537 31.6402C804.579 29.5562 805.794 27.4722 807.01 25.3882C808.226 23.3042 809.441 21.2202 810.831 19.3099C812.22 17.3996 813.436 15.3156 814.999 13.5789C816.562 11.6686 819.167 11.495 821.077 13.058C822.814 14.4473 823.161 16.8786 821.945 18.7889V18.4416Z" fill="#EA2229"/>
<path d="M839.659 91.3815C837.402 90.6869 835.144 89.8185 832.886 88.9502C830.629 88.0819 828.545 87.0399 826.287 85.9979C824.203 84.9559 821.945 83.9139 819.861 82.8719C817.777 81.8299 815.52 80.6142 813.436 79.3986C812.915 79.0512 812.741 78.1829 813.088 77.6619C813.262 77.3146 813.783 76.9673 814.304 77.1409C816.735 77.3146 819.167 77.8356 821.424 78.1829C823.856 78.5303 826.113 79.0512 828.545 79.5722C830.976 80.0932 833.234 80.6142 835.491 81.3089C837.749 82.0036 840.007 82.6982 842.264 83.5666C844.522 84.4349 845.564 86.8662 844.695 89.1239C843.827 91.2079 841.569 92.2499 839.485 91.7289L839.659 91.3815Z" fill="#EA2229"/>
<path d="M775.576 130.63C775.576 128.198 775.577 125.941 775.75 123.509C775.924 121.078 776.097 118.82 776.445 116.389C776.792 113.958 777.14 111.7 777.487 109.269C777.834 106.837 778.355 104.58 778.876 102.148C778.876 101.454 779.744 101.106 780.439 101.28C780.96 101.28 781.307 101.801 781.307 102.148C781.828 104.58 782.176 107.011 782.523 109.269C782.87 111.7 783.218 114.131 783.391 116.389C783.565 118.82 783.912 121.078 783.912 123.509C783.912 125.941 783.912 128.198 783.912 130.63C783.912 133.061 781.655 134.798 779.397 134.624C777.139 134.624 775.403 132.714 775.403 130.456L775.576 130.63Z" fill="#EA2229"/>
<path d="M718.44 81.656C720.698 80.7877 722.956 80.2667 725.387 79.572C727.645 79.051 730.076 78.53 732.333 78.009C734.765 77.488 737.022 77.1407 739.454 76.7934C741.885 76.446 744.316 76.0987 746.748 75.925C747.442 75.925 747.963 76.446 748.137 77.1407C748.137 77.6617 747.963 78.009 747.442 78.3564C745.358 79.572 743.101 80.614 741.017 81.8297C738.933 82.8717 736.675 83.9137 734.417 84.782C732.16 85.824 730.076 86.6923 727.818 87.5607C725.56 88.429 723.303 89.1237 721.045 89.8183C718.788 90.3393 716.356 88.95 715.835 86.6923C715.314 84.6083 716.53 82.3507 718.44 81.656Z" fill="#EA2229"/>
<path d="M747.443 12.3632C748.832 14.2735 750.221 16.1839 751.437 18.2679C752.653 20.3518 753.868 22.4358 755.084 24.5198C756.3 26.6038 757.342 28.6878 758.384 30.9455C759.426 33.2031 760.468 35.2871 761.336 37.5448C761.683 38.2394 761.336 38.9341 760.641 39.1078C760.12 39.2814 759.599 39.1078 759.252 38.9341C757.515 37.3711 755.779 35.6344 754.042 33.8978C752.305 32.1611 750.742 30.4245 749.179 28.5141C747.616 26.7775 746.053 24.8672 744.49 22.9568C742.927 21.0465 741.538 19.1362 740.322 17.2259C739.107 15.1419 739.628 12.5369 741.712 11.3212C743.622 10.1056 746.053 10.6266 747.443 12.3632Z" fill="#EA2229"/>
<path d="M636.297 237.088C637.165 236.74 638.207 236.219 638.902 235.698C639.249 235.525 639.596 235.351 639.944 235.004C639.944 235.004 640.291 234.83 640.465 234.656C640.812 234.483 640.986 234.309 641.333 234.135C641.854 233.788 642.375 233.441 642.722 233.093C643.243 232.746 643.764 232.225 644.285 231.878C644.806 231.53 645.327 230.836 645.848 230.488C645.848 230.488 646.022 230.315 646.196 230.141C647.064 229.273 648.106 228.231 648.974 227.362C649.148 227.189 649.321 227.015 649.321 226.668V226.32C649.321 226.32 649.322 225.973 649.148 225.973C648.627 225.626 648.106 225.452 647.411 225.452C647.238 225.452 646.89 225.452 646.716 225.452C646.022 225.452 645.327 225.452 644.633 225.452C643.938 225.452 643.07 225.452 642.375 225.799C642.201 225.799 642.028 225.799 641.854 225.799C641.507 225.799 640.986 225.973 640.638 226.147C640.117 226.494 639.596 226.668 638.902 227.015C638.902 227.015 638.554 227.015 638.381 227.362C637.165 228.231 635.949 229.099 634.907 230.141C634.56 230.488 634.386 230.836 634.213 231.357C634.213 231.878 634.039 232.399 633.692 232.92C633.692 232.92 633.692 233.267 633.692 233.441C633.692 233.614 633.344 234.656 633.344 235.004C633.344 235.177 633.344 235.525 633.344 235.698C633.344 235.698 633.344 235.698 633.344 235.872C633.344 235.872 633.344 235.872 633.518 235.872C634.213 235.872 634.907 236.046 635.602 236.393C635.602 236.393 635.776 236.393 635.949 236.393L636.297 237.088ZM626.05 254.281C626.05 253.239 626.05 252.37 626.05 251.328C626.05 250.46 626.224 249.592 626.398 248.55C626.745 247.508 627.092 246.466 627.266 245.424C627.266 245.076 627.613 244.903 627.613 244.555C627.787 243.861 628.134 243.166 628.308 242.298C628.308 241.777 628.482 241.429 628.655 240.908C628.655 240.387 628.829 240.04 629.003 239.693C629.003 239.345 629.003 239.172 629.35 238.824C629.35 238.824 629.35 238.824 629.35 238.651C629.35 238.303 629.871 236.219 629.871 236.046C629.871 235.525 630.045 235.004 630.218 234.483C630.218 234.135 629.697 233.788 629.35 233.614C629.35 233.614 629.35 233.614 629.35 233.441C629.35 233.441 629.35 233.441 629.35 233.267V232.92C629.35 232.572 629.697 232.399 629.697 232.051C630.045 231.878 629.697 231.357 630.218 231.183C630.566 230.488 631.26 229.794 631.608 229.099C631.608 229.099 631.608 228.752 631.781 228.578C631.781 228.231 631.781 228.057 631.955 227.71C631.955 227.362 632.129 226.841 632.476 226.494C632.476 226.494 632.476 226.494 632.476 226.32C632.476 226.147 632.476 226.32 632.65 226.32C633.171 226.32 633.518 226.32 634.039 226.32C634.213 226.32 634.56 226.32 634.734 226.32C635.081 225.973 635.428 225.626 635.949 225.626C635.949 225.626 635.949 225.278 636.123 225.278C636.47 225.105 636.818 224.757 637.339 224.584C638.033 224.41 638.554 224.063 639.075 223.715C640.117 223.194 641.159 222.847 642.201 222.5C643.07 222.5 643.764 222.152 644.633 222.152C645.501 222.152 646.196 222.152 647.064 222.152C647.759 222.152 648.28 222.152 648.974 222.5C649.495 222.5 650.19 222.847 650.537 223.194C650.537 223.194 650.885 223.194 650.885 223.368C651.406 223.542 651.753 223.889 652.1 224.41C652.448 224.757 652.621 225.452 652.969 225.799C653.142 226.147 653.316 226.668 653.316 227.015C653.316 227.536 653.316 228.057 653.316 228.578C653.316 229.099 653.142 229.62 652.795 229.967C652.621 230.141 652.447 230.488 652.274 230.662C651.926 231.183 651.406 231.53 651.232 232.051C651.232 232.051 651.058 232.225 650.885 232.399L648.974 234.309C648.974 234.309 648.801 234.483 648.627 234.656C648.28 235.004 647.758 235.177 647.585 235.525C647.237 235.872 646.89 236.046 646.543 236.393C646.543 236.393 646.369 236.393 646.196 236.567C646.196 236.567 646.022 236.567 645.848 236.74C645.675 237.088 645.327 237.435 644.806 237.609C644.806 237.609 644.633 237.609 644.459 237.782C643.938 238.303 643.243 238.651 642.549 239.172C642.375 239.172 642.201 239.345 642.028 239.519C641.507 239.866 640.986 240.214 640.465 240.561C640.465 240.561 640.117 240.735 639.944 240.908C639.944 240.908 639.944 241.256 640.117 241.256C640.812 241.777 641.507 242.471 642.201 243.166C643.417 244.382 644.806 245.597 646.196 246.813C646.369 246.813 646.543 247.16 646.89 247.334L648.974 248.723C649.495 249.071 650.016 249.418 650.711 249.592C651.753 250.113 652.795 250.46 654.01 250.807C654.531 250.981 655.226 251.155 655.921 251.328C656.442 251.328 656.963 251.676 657.484 251.676C657.657 251.676 657.831 251.676 658.005 252.023C658.005 252.023 658.179 252.197 658.179 252.37C658.179 252.37 658.179 252.544 658.179 252.718C658.179 253.065 658.178 253.586 658.005 253.933C658.005 254.281 658.005 254.802 657.831 255.149C657.831 255.323 657.831 255.67 657.658 255.844C657.658 256.017 657.484 256.191 657.31 256.365C657.137 256.365 656.963 256.365 656.789 256.365C655.921 256.365 655.053 256.191 654.184 255.844C653.316 255.844 652.447 255.323 651.405 255.149C650.884 254.802 650.19 254.628 649.669 254.281C648.974 254.107 648.453 253.76 647.932 253.412C647.932 253.412 647.932 253.412 647.759 253.412C646.89 253.239 646.369 252.718 645.675 252.197C645.501 252.023 645.327 251.849 644.98 251.849C644.98 251.849 644.806 251.849 644.633 251.849C644.285 251.676 644.112 251.328 643.764 251.155C643.417 250.981 643.243 250.634 642.896 250.46C641.854 249.592 640.812 248.723 639.77 247.681C639.075 246.987 638.381 246.292 637.686 245.597C636.991 244.903 636.297 244.208 635.602 243.513C635.602 243.513 635.428 243.34 635.255 243.34C635.255 243.34 634.907 243.34 634.734 243.34C634.56 243.34 634.213 243.34 634.039 243.34C633.344 243.513 632.65 243.34 632.129 243.34C631.955 243.34 631.608 243.34 631.608 243.687C631.434 244.555 631.26 245.25 631.26 246.118C631.26 246.987 631.26 247.855 630.913 248.723C630.392 250.286 630.218 251.849 630.045 253.586C630.045 253.933 630.045 254.454 630.045 254.802C630.045 254.975 630.045 255.149 629.871 255.323C629.871 255.323 629.871 255.323 629.697 255.496C629.697 255.496 629.524 255.496 629.35 255.496C629.176 255.496 628.829 255.496 628.655 255.496C628.308 255.323 627.787 255.496 627.266 255.496C627.092 255.496 626.745 255.496 626.571 255.496C626.398 255.496 626.05 255.323 625.877 255.149L626.05 254.281Z" fill="white"/>
<path d="M621.709 229.967C621.014 229.967 620.493 230.314 619.972 230.662C619.278 231.009 618.583 231.356 618.236 231.877C617.367 232.398 616.673 233.093 615.978 233.961C615.283 234.656 614.936 235.351 614.589 236.219C614.415 236.74 614.241 237.261 613.894 237.782C613.547 238.303 613.373 238.998 613.199 239.519C612.852 240.213 612.852 241.082 612.678 241.95C612.331 243.513 611.984 245.076 611.636 246.639C611.289 248.202 611.115 249.939 611.115 251.502C611.115 251.849 611.115 252.023 611.636 252.196C611.984 252.196 612.157 252.196 612.505 252.023C612.852 251.849 613.199 251.675 613.547 251.328C614.762 250.112 615.804 248.897 616.846 247.681C617.367 246.986 617.715 246.465 618.236 245.771C618.757 244.902 619.277 244.034 619.798 243.166C620.146 242.471 620.319 241.95 620.667 241.255C620.84 240.734 621.014 240.387 621.188 239.866C621.188 239.519 621.361 239.171 621.535 238.998C621.709 238.477 621.882 237.956 621.882 237.435C621.882 236.566 622.056 235.698 622.23 234.656C622.23 233.961 622.23 233.267 622.23 232.398C622.23 231.704 622.23 231.183 621.882 230.488L621.709 229.967ZM607.468 253.238C607.468 253.238 607.295 253.065 607.295 252.891C607.295 252.891 607.295 252.717 607.295 252.544C607.295 252.37 607.295 252.023 607.295 251.849C607.295 251.849 606.947 251.502 606.947 251.328C606.947 251.154 606.947 250.807 606.947 250.633C606.947 250.286 606.947 249.939 606.947 249.591C606.947 248.897 606.947 248.202 607.121 247.681C607.468 245.25 607.989 242.992 608.684 240.561C608.684 240.213 608.684 239.866 608.858 239.519C608.858 239.345 608.858 238.998 608.858 238.824C608.858 238.303 608.858 237.782 608.858 237.261V236.914C608.858 236.219 609.205 235.698 609.205 235.003C609.205 235.003 609.205 235.003 609.205 234.83C609.552 233.788 610.073 232.746 610.768 231.877C610.768 231.877 610.768 231.704 610.942 231.704C611.636 231.009 612.331 230.314 612.852 229.62C613.026 229.272 613.373 229.099 613.72 228.925C614.589 228.404 615.283 227.883 615.978 227.188C615.978 227.188 616.151 227.015 616.325 227.015C616.846 226.841 617.367 226.32 617.888 226.146C617.888 226.146 618.236 226.146 618.236 225.973C618.583 225.625 619.104 225.452 619.625 225.452C619.972 225.452 620.319 225.452 620.667 225.452C621.014 225.452 621.362 225.452 621.709 225.452C621.883 225.452 622.23 225.452 622.403 225.452C622.751 225.452 622.925 225.452 623.098 225.625C623.272 225.799 623.619 225.625 623.967 225.973C624.14 226.146 624.314 226.494 624.661 226.667C624.835 226.841 625.009 227.015 625.182 227.362C625.53 227.709 625.703 228.057 625.703 228.578C626.05 228.925 626.224 229.446 626.051 229.967C626.224 231.009 626.224 232.051 626.051 233.093C626.051 233.961 626.05 234.83 625.877 235.872C625.877 236.566 625.877 237.261 625.53 237.782C625.53 238.824 625.009 239.692 624.835 240.561C624.661 241.255 624.314 242.124 623.967 242.818C623.967 242.818 623.793 243.166 623.793 243.339C623.793 243.687 623.619 243.86 623.446 244.208C623.446 244.381 623.098 244.729 622.925 244.902C622.751 245.423 622.404 245.771 622.23 246.292C622.056 246.813 621.709 247.16 621.362 247.681C620.841 248.202 620.493 248.897 620.146 249.418C619.625 250.286 619.104 250.981 618.409 251.675C618.062 252.023 617.888 252.37 617.541 252.717C617.541 252.717 617.541 252.891 617.367 252.891C616.846 253.238 616.499 253.759 615.978 254.107C615.631 254.28 615.283 254.628 614.936 254.801C614.241 255.149 613.72 255.496 613.026 255.843C612.852 255.843 612.678 255.843 612.331 256.017C611.636 256.017 611.115 256.017 610.421 256.017C610.247 256.017 609.9 256.017 609.726 256.017C609.379 256.017 609.031 256.017 608.684 255.67C608.51 255.496 608.163 255.322 607.989 254.975C607.989 254.801 607.642 254.454 607.468 254.28V253.586C607.468 253.412 607.468 253.412 607.121 253.238H607.468Z" fill="white"/>
<path d="M687.355 222.847C687.355 222.847 687.529 222.847 687.702 222.847C687.702 222.847 687.703 223.194 688.05 223.194H688.397C688.397 223.194 688.571 223.368 688.744 223.542C689.092 223.889 689.439 224.584 689.613 225.105C689.613 225.452 689.786 225.799 689.96 226.147C689.96 226.494 689.96 226.841 689.96 227.189C689.96 227.883 690.134 228.578 690.307 229.273C690.307 229.62 690.307 230.141 690.307 230.662C690.481 232.051 690.308 233.093 690.655 234.135C690.655 234.309 690.655 234.483 690.655 234.656C690.655 235.004 690.655 235.351 690.655 235.698C690.655 236.046 690.829 236.393 690.655 236.567C690.829 237.088 690.655 237.609 690.655 238.13C690.655 238.477 690.655 238.651 690.655 238.998C690.655 239.693 690.655 240.214 690.828 240.908C690.828 242.124 690.828 243.513 691.002 244.729C691.002 245.076 691.002 245.424 691.349 245.597C691.349 245.25 691.523 245.076 691.697 244.729C692.218 243.513 692.565 242.298 693.086 241.082C693.607 240.04 693.781 238.998 694.128 237.956C694.649 236.74 695.17 235.351 695.691 234.135C696.038 233.267 696.386 232.225 696.907 231.357C697.428 230.315 697.775 229.273 698.296 228.231C698.817 227.189 699.512 226.147 700.38 225.278C700.727 224.931 701.075 224.757 701.422 224.41C701.769 224.063 701.943 223.715 702.29 223.542C702.29 223.542 702.29 223.542 702.464 223.542C702.811 223.368 703.159 223.021 703.506 222.847C703.506 222.673 703.853 222.5 704.027 222.5C704.201 222.5 704.548 222.5 704.722 222.5C704.895 222.5 705.069 222.5 705.243 222.5C705.59 222.326 705.937 222.5 706.285 222.5C706.285 222.673 706.632 222.847 706.806 223.021C707.327 223.368 707.848 223.889 708.021 224.584C708.369 225.105 708.369 225.799 708.369 226.32C708.369 226.841 708.369 227.536 708.369 228.057C708.369 229.273 708.369 230.315 708.369 231.53C708.369 232.051 708.369 232.746 708.369 233.267C708.369 233.267 708.369 233.267 708.369 233.441C708.195 234.309 708.369 235.177 708.021 235.872C708.021 236.914 707.674 237.956 707.5 238.998C707.5 239.345 707.5 239.693 707.5 240.04C707.5 241.95 707.5 243.687 707.327 245.597C707.327 247.334 707.327 249.244 707.327 251.155C707.327 251.155 707.327 251.502 707.327 251.676C707.327 252.891 707.674 253.933 707.848 255.149C707.848 255.496 707.848 255.67 707.848 256.017C708.195 257.233 708.716 258.622 709.411 259.838C709.411 260.012 709.584 260.185 709.758 260.359C709.932 260.706 710.105 260.88 710.279 261.227C710.279 261.575 710.453 261.748 710.626 261.922C710.626 261.922 710.626 262.096 710.974 262.269C710.974 262.617 710.626 262.79 710.453 262.964C710.279 263.138 710.105 263.311 709.932 263.485C709.932 263.485 709.758 263.832 709.758 264.006C709.063 264.006 708.542 264.527 707.848 264.701C707.848 264.701 707.848 264.701 707.674 264.701C707.5 264.701 707.153 264.527 706.979 264.353C706.458 263.832 705.764 263.485 705.416 262.964C705.416 262.964 705.416 262.79 705.069 262.617C704.722 262.269 704.548 261.922 704.374 261.401C704.027 260.185 703.68 259.143 703.332 257.928C703.332 257.754 703.159 257.407 703.159 257.233C702.811 255.844 702.638 254.454 702.464 253.065C702.464 252.37 702.464 251.676 702.464 250.981C702.464 250.46 702.464 250.113 702.464 249.592C702.464 248.897 702.464 248.376 702.464 247.681C702.464 246.466 702.464 245.25 702.464 244.034C702.464 243.687 702.464 243.513 702.464 243.166C702.464 242.298 702.638 241.429 702.464 240.735V240.387C702.464 240.214 702.464 240.04 702.464 239.866C702.464 239.345 702.464 238.824 702.464 238.303C702.464 237.782 702.464 237.435 702.464 236.914C702.464 235.525 702.638 234.309 702.811 232.92C702.811 232.051 702.811 231.183 702.985 230.315C702.985 230.315 702.985 230.315 702.811 229.967C702.29 230.662 701.943 231.183 701.596 231.878C701.248 232.399 700.901 233.093 700.727 233.614C700.38 234.135 700.206 234.83 700.033 235.351C700.033 235.698 699.859 236.046 699.685 236.219C699.512 236.914 699.164 237.609 698.991 238.303C698.991 238.303 698.991 238.303 698.991 238.477C698.817 239.345 698.296 240.214 697.949 241.082C697.601 241.95 697.428 242.819 697.08 243.687C697.08 243.861 696.907 244.208 696.733 244.382C696.733 244.729 696.386 245.076 696.386 245.424C696.386 245.771 696.038 245.945 696.038 246.292C695.691 247.16 695.517 248.029 695.17 248.723C694.996 249.418 694.649 249.939 694.475 250.634C694.302 251.155 694.128 251.676 693.781 252.197C693.781 252.544 693.781 252.718 693.433 253.065C693.26 253.239 693.086 253.586 692.739 253.76C692.739 253.76 692.565 254.107 692.391 254.281C692.391 254.281 692.044 254.628 691.87 254.628C691.523 254.628 691.176 254.628 690.828 254.802C690.481 254.802 690.134 254.802 689.787 254.802C689.613 254.802 689.613 254.802 689.613 254.454C689.613 254.107 689.613 254.107 689.265 254.107C689.265 254.107 689.265 254.107 689.092 254.107C689.092 254.107 688.918 254.107 688.744 254.107C688.571 254.107 688.571 254.107 688.397 254.107C688.397 254.107 688.224 253.933 688.05 253.76C687.703 253.586 687.355 253.239 687.182 252.891C686.661 251.849 686.313 250.807 686.139 249.765C686.139 248.376 685.966 247.16 685.792 245.771C685.792 245.771 685.792 245.771 685.792 245.597C685.792 244.903 685.792 244.208 685.792 243.34C685.792 242.124 685.792 240.908 685.618 239.693C685.618 238.303 685.445 236.914 685.271 235.525C685.271 234.656 685.098 233.788 685.098 233.093C685.098 232.746 685.097 232.572 684.924 232.225C684.576 232.746 684.576 233.267 684.403 233.614C684.055 235.004 683.708 236.219 683.361 237.609C683.014 238.824 682.666 240.04 682.319 241.256C681.971 242.645 681.451 244.208 681.103 245.597C680.582 247.16 680.061 248.55 679.714 250.113C679.714 250.634 679.54 251.328 679.54 251.849C679.54 252.37 679.54 252.718 679.54 253.065C679.54 253.239 679.54 253.412 679.54 253.76C679.54 253.76 679.54 253.76 679.54 253.933C679.54 254.628 679.54 255.149 679.193 255.67C679.193 255.844 679.019 256.017 678.845 256.191C678.845 256.191 678.672 256.191 678.498 256.365C678.498 256.365 678.325 256.365 678.151 256.365C677.977 256.365 677.63 256.365 677.456 256.365C677.282 256.365 677.109 256.365 676.935 256.365C676.414 256.017 675.893 255.67 675.372 255.496C675.198 255.149 675.025 254.802 675.025 254.628C675.025 254.107 675.025 253.586 675.025 253.065C675.025 252.718 675.025 252.37 675.025 252.023C675.025 251.676 675.025 251.502 675.025 251.155C675.025 250.807 675.025 250.46 675.199 250.113C675.372 249.418 675.372 248.723 675.72 248.029C675.72 247.16 676.067 246.466 676.24 245.771C676.24 245.076 676.588 244.382 676.935 243.687C677.456 242.124 677.803 240.387 678.324 238.651C678.498 237.609 678.846 236.74 679.019 235.872C679.367 235.004 679.54 234.135 679.714 233.267C679.714 232.399 680.061 231.704 680.409 230.836C680.409 230.315 680.756 229.967 680.756 229.446C681.103 228.231 681.624 227.015 682.145 225.973C682.145 225.973 682.145 225.799 682.145 225.626C682.145 225.626 682.145 225.452 682.145 225.278C682.145 225.278 682.145 225.105 682.319 224.931C682.319 224.931 682.493 224.931 682.493 224.757C682.493 224.41 682.84 224.236 683.013 224.063C683.361 224.063 685.966 223.715 685.966 223.715L687.355 222.847Z" fill="white"/>
<path d="M605.558 227.362C605.558 227.536 605.384 227.883 605.211 228.057C604.342 228.925 603.3 229.967 602.432 230.836C602.432 230.836 602.259 231.009 602.085 231.183C601.564 231.53 601.043 232.051 600.522 232.572C600.001 232.92 599.48 233.441 598.959 233.788C598.438 234.135 597.917 234.483 597.569 234.83C597.222 235.004 597.048 235.177 596.701 235.351C596.701 235.351 596.354 235.525 596.18 235.698C595.833 235.872 595.486 236.046 595.138 236.219C594.27 236.74 593.402 237.261 592.533 237.609C592.533 237.609 592.36 237.609 592.186 237.609C591.491 237.261 590.97 237.088 590.102 237.088C590.102 237.088 590.102 237.088 589.928 237.088C589.928 237.088 589.928 237.088 589.928 236.914C589.928 236.74 589.928 236.393 589.928 236.219C589.928 235.872 590.275 234.83 590.275 234.656C590.275 234.483 590.275 234.309 590.275 234.135C590.449 233.614 590.623 233.093 590.797 232.572C590.797 232.051 591.144 231.704 591.491 231.357C592.533 230.315 593.749 229.446 594.964 228.578C594.964 228.578 595.312 228.404 595.485 228.231C596.006 227.883 596.527 227.71 597.222 227.362C597.569 227.189 597.917 227.015 598.438 227.015C598.611 227.015 598.785 227.015 598.959 227.015C599.653 226.841 600.348 226.668 601.217 226.668C601.911 226.668 602.606 226.668 603.3 226.668C603.474 226.668 603.821 226.668 603.995 226.668C604.516 226.668 605.211 226.841 605.732 227.189C605.732 227.189 605.905 227.362 605.905 227.536V227.883L605.558 227.362ZM609.9 225.278C609.552 224.931 609.379 224.41 609.031 223.889C608.684 223.542 608.337 223.194 607.816 222.847C607.816 222.847 607.468 222.847 607.468 222.673C606.947 222.326 606.426 222.152 605.905 221.979C605.384 221.805 604.69 221.631 603.995 221.631C603.127 221.631 602.432 221.631 601.564 221.631C600.695 221.631 600.001 221.979 599.132 221.979C598.091 222.326 597.049 222.673 596.007 223.194C595.486 223.542 594.791 223.889 594.27 224.063C593.923 224.236 593.402 224.41 593.054 224.757C593.054 224.757 593.054 224.931 592.88 225.105C592.359 225.105 592.012 225.626 591.665 225.799C591.491 225.799 591.144 225.973 590.97 225.799C590.449 225.799 590.102 225.799 589.581 225.799C589.581 225.799 589.407 225.799 589.234 225.799C589.234 225.799 589.234 225.799 589.234 225.973C589.06 226.32 588.886 226.841 588.713 227.189C588.713 227.536 588.712 227.71 588.539 228.057C588.539 228.231 588.539 228.404 588.365 228.578C588.018 229.273 587.323 229.967 586.976 230.662C586.629 230.662 586.629 231.357 586.455 231.53C586.455 231.878 586.281 232.225 586.108 232.399V232.746C586.108 232.746 586.108 232.746 586.108 232.92C586.108 232.92 586.108 232.92 586.108 233.093C586.455 233.441 586.802 233.614 586.976 233.962C586.976 234.483 586.802 235.004 586.629 235.525C586.629 235.872 585.934 237.782 586.108 238.13C586.108 238.13 586.108 238.13 586.108 238.303C585.934 238.477 585.76 238.824 585.76 239.172C585.76 239.519 585.587 240.04 585.413 240.387C585.413 240.735 585.239 241.256 585.065 241.777C584.892 242.471 584.545 243.166 584.371 244.034C584.371 244.382 584.024 244.555 584.024 244.903C583.676 245.945 583.329 246.987 583.155 248.029C582.982 248.897 582.808 249.765 582.808 250.807C582.808 251.849 582.808 252.718 582.808 253.76C582.982 253.933 583.155 254.107 583.503 254.107C583.676 254.107 584.024 254.107 584.197 254.107C584.718 254.107 585.066 253.933 585.587 254.107C585.76 254.107 586.108 254.107 586.281 254.107C586.281 254.107 586.455 254.107 586.629 254.107C586.629 254.107 586.802 254.107 586.802 253.933C586.802 253.933 586.976 253.586 586.976 253.412C586.976 253.065 586.976 252.544 586.976 252.197C586.976 250.634 587.323 248.897 587.844 247.334C588.192 246.466 588.192 245.597 588.192 244.729C588.192 243.861 588.191 242.992 588.539 242.298C588.539 242.124 588.886 241.95 589.06 241.95C589.755 242.124 590.449 242.124 590.97 241.95C591.144 241.95 591.491 241.95 591.665 241.95C593.749 241.429 595.659 240.561 597.396 239.345C597.917 238.998 598.438 238.651 598.959 238.303C599.132 238.303 599.306 238.13 599.48 237.956C600.175 237.435 600.869 237.261 601.39 236.567C601.39 236.567 601.564 236.393 601.737 236.393C602.085 236.219 602.432 235.872 602.779 235.525C602.779 235.525 602.953 235.351 603.127 235.351C603.127 235.351 603.474 235.351 603.474 235.177C603.648 234.83 604.169 234.656 604.516 234.309C604.863 233.962 605.211 233.614 605.558 233.441C605.558 233.441 605.732 233.267 605.905 233.093L607.816 231.183C607.816 231.183 608.163 231.009 608.163 230.836C608.337 230.315 608.858 229.967 609.205 229.446C609.205 229.099 609.552 228.925 609.726 228.752C610.073 228.404 610.247 227.883 610.247 227.362C610.247 226.841 610.247 226.32 610.247 225.799C610.247 225.278 610.247 224.931 609.9 224.584V225.278Z" fill="white"/>
<path d="M569.609 246.813C569.609 246.813 569.261 246.813 569.088 246.813C569.088 246.813 569.609 247.334 569.782 247.507C569.782 247.507 569.782 247.681 569.782 247.855C569.782 247.855 569.782 248.028 569.782 248.202C569.782 248.202 569.435 248.549 569.261 248.549C569.261 248.897 569.261 249.244 569.261 249.591C569.088 249.591 568.914 249.591 568.74 249.591C568.567 249.591 568.393 249.765 568.219 249.939C567.872 249.939 567.525 249.939 567.177 249.939C566.83 249.939 566.483 250.112 566.135 250.286C566.135 250.286 565.962 250.286 565.788 250.286C564.746 250.286 563.53 250.633 562.488 250.633C561.446 250.633 561.967 250.633 561.62 250.633C560.578 250.633 559.536 250.807 558.668 250.981C558.668 250.981 558.32 250.981 558.147 250.981C557.105 251.328 556.063 251.328 555.021 251.675C553.979 251.849 553.11 252.023 552.068 252.37C551.547 252.37 551.2 252.544 550.679 252.717C550.158 252.717 549.464 252.891 548.943 253.065H548.595C547.727 253.065 547.032 253.412 546.164 253.586C545.817 253.586 545.469 253.586 545.122 253.759C544.775 253.759 544.427 253.759 544.08 253.759C544.08 253.759 543.733 253.759 543.559 253.759C543.038 253.759 542.517 253.759 542.17 253.759C541.822 253.759 541.475 253.759 541.128 253.759C540.78 253.759 540.433 253.586 540.086 253.586C539.391 253.238 538.523 253.065 538.002 252.544C537.828 252.023 537.307 251.675 537.133 250.981V250.633C537.133 250.633 537.133 250.46 537.133 250.286C536.786 249.939 536.786 249.591 536.786 249.244V248.897V248.549C536.786 248.028 536.786 247.507 537.133 246.986V246.639C537.133 246.118 537.307 245.771 537.481 245.25C537.654 244.902 537.828 244.381 538.002 244.034C538.349 243.339 538.696 242.471 539.217 241.603C539.565 241.082 539.738 240.561 540.086 239.866C540.086 239.519 540.433 238.998 540.78 238.65C540.78 238.65 540.78 238.65 540.78 238.303C541.301 237.087 541.822 236.045 542.517 234.83C542.864 234.135 546.164 228.404 546.338 228.057C546.685 227.362 547.032 226.841 547.38 226.146C547.38 226.146 547.38 225.973 547.553 225.799C547.553 225.799 547.727 225.799 547.901 225.799C548.074 225.799 548.248 225.625 548.248 225.452L548.943 225.799H549.29C549.29 225.799 549.637 225.799 549.811 225.799C549.811 225.799 549.985 225.799 550.158 225.973C550.158 226.146 550.505 226.32 550.679 226.494C550.853 226.494 551.026 226.667 551.2 226.841C551.2 226.841 551.2 227.015 551.027 227.188C551.374 227.188 551.721 227.188 552.068 227.188C552.589 227.188 553.284 227.188 553.805 227.188C554.673 227.188 555.542 227.362 556.236 227.709C556.41 227.709 556.757 227.883 556.757 228.23C556.757 228.23 556.931 228.404 557.105 228.578C557.105 228.578 557.105 228.578 557.105 228.751C557.105 228.925 557.105 228.751 557.105 228.925C557.452 229.272 557.278 229.272 557.105 229.446C557.105 229.446 556.931 229.446 556.757 229.62C556.41 229.62 556.584 229.793 556.757 229.967C556.757 229.967 556.758 229.967 556.584 230.141C556.584 230.141 556.584 230.141 556.584 230.314C556.41 230.314 556.236 230.488 555.889 230.488C555.889 230.488 555.542 230.662 555.542 230.835C555.542 230.835 555.368 231.009 555.195 231.009C555.195 231.009 555.021 231.009 554.847 231.009C554.847 231.009 554.674 231.009 554.5 231.009C553.632 230.662 552.763 230.835 551.895 231.009C550.679 231.009 549.464 231.183 548.248 231.356C548.248 231.356 548.074 231.356 547.901 231.356C547.901 231.356 547.727 231.356 547.553 231.356C547.553 231.356 547.553 231.356 547.38 231.53C547.206 231.877 547.032 232.225 546.858 232.572C546.511 233.267 546.164 233.961 545.817 234.656C545.469 235.524 545.122 236.219 544.601 237.087C545.469 237.087 546.338 236.74 547.032 236.566C547.901 236.219 548.943 236.045 549.811 235.872C550.679 235.872 551.374 235.524 552.242 235.351C553.284 235.177 554.326 234.83 555.368 234.656C555.889 234.656 556.236 234.656 556.757 234.656C557.105 234.656 557.452 234.656 557.8 234.83C557.8 234.83 557.973 235.003 558.147 235.177C558.147 235.177 557.973 235.524 558.147 235.698C558.147 235.872 557.973 236.219 558.147 236.393C558.147 236.393 558.147 236.393 558.147 236.566C558.147 236.566 558.147 236.566 558.147 236.74C558.147 236.914 558.147 237.261 558.147 237.435C558.147 237.435 558.147 237.782 558.147 237.956C558.147 237.956 557.973 238.303 557.8 238.303C557.279 238.65 556.758 238.65 556.063 238.824C555.889 238.824 555.542 238.824 555.368 238.824C554.326 239.171 553.284 239.345 552.242 239.519C551.2 239.519 550.332 239.866 549.29 240.04C548.595 240.04 547.901 240.387 547.032 240.561C545.99 240.734 544.775 240.908 543.733 241.255C543.385 241.255 543.038 241.255 542.691 241.255C542.517 241.255 542.343 241.255 542.17 241.255C542.17 241.255 541.822 241.429 541.822 241.603C541.649 242.124 541.475 242.645 541.128 243.166C540.78 244.034 540.433 244.729 540.259 245.597C540.086 246.118 539.912 246.813 539.738 247.334C539.738 247.507 539.738 247.681 540.086 247.855C540.086 247.855 540.086 247.855 540.259 247.855C541.128 247.855 541.822 247.855 542.691 247.855C543.733 247.855 544.601 247.334 545.469 247.334C545.817 247.334 546.164 247.334 546.511 247.16C547.032 247.16 547.727 246.986 548.248 246.813C548.769 246.813 549.29 246.639 549.811 246.292C550.679 246.118 551.721 245.771 552.59 245.597C552.59 245.597 552.937 245.597 553.111 245.597C554.153 245.25 555.194 245.076 556.236 245.076C556.757 245.076 557.278 245.076 557.973 244.902C558.494 244.902 559.015 244.902 559.71 244.729C560.231 244.729 560.752 244.729 561.446 244.729C561.967 244.729 562.662 244.729 563.183 244.729C563.357 244.729 563.53 244.729 563.704 244.729C564.399 244.729 565.093 244.729 565.788 244.729C566.309 244.729 566.83 244.729 567.351 244.729H567.698C568.046 244.902 568.393 245.25 568.393 245.25L569.609 246.813Z" fill="white"/>
<path d="M504.832 225.452C504.832 225.452 504.832 225.452 505.005 225.625C505.179 225.625 505.179 225.625 505.005 225.973C504.832 226.146 504.832 226.146 505.005 226.494C505.005 226.494 505.005 226.494 505.179 226.667V227.015C505.179 227.188 505.179 227.536 505.179 227.709C505.179 228.057 505.179 228.404 504.832 228.578C504.484 228.925 504.311 229.272 503.963 229.793C503.79 230.141 503.616 230.314 503.442 230.662C502.4 232.051 501.358 233.44 500.49 234.83C499.795 235.698 499.274 236.74 498.58 237.608C498.58 237.608 498.406 237.956 498.232 238.129C498.232 238.477 497.885 238.65 497.711 238.998C497.19 239.519 496.843 240.04 496.496 240.734C496.148 241.082 496.148 241.429 495.801 241.95C495.801 241.95 495.627 242.297 495.454 242.471C494.933 243.339 494.412 244.034 493.891 244.902C493.37 245.771 492.849 246.639 492.328 247.507C491.98 247.855 491.807 248.376 491.633 248.723C491.459 249.07 491.112 249.418 490.938 249.765C490.417 250.633 489.723 251.328 489.202 252.37C488.681 253.065 488.333 253.586 487.812 254.107C487.465 254.454 486.597 254.975 486.249 254.975H484.86C484.513 254.975 483.992 254.975 483.818 254.975C483.818 254.975 482.429 254.454 482.429 254.107C482.429 253.412 482.082 253.412 481.908 252.544C481.908 251.328 481.908 250.112 481.908 248.897C481.908 248.202 481.908 247.681 481.908 246.986C481.908 246.465 481.908 245.771 481.908 245.25C481.908 244.729 481.908 244.034 481.908 243.513C482.082 242.297 481.908 241.255 482.081 240.213C482.081 240.04 482.081 239.692 482.081 239.519C482.081 238.824 482.255 237.956 482.429 237.261C482.429 235.872 482.776 234.656 482.95 233.267C482.95 232.398 483.297 231.53 483.471 230.835C483.471 230.835 483.471 230.662 483.471 230.488C483.471 230.314 483.471 230.314 483.992 230.314C484.166 230.314 484.339 230.314 484.339 229.967C484.339 229.967 484.339 229.967 484.339 229.793C484.339 229.793 484.513 229.62 484.686 229.793C484.86 229.967 485.207 229.793 485.381 229.967C485.555 229.967 485.902 229.967 486.076 229.967C486.423 229.967 486.77 229.967 487.118 230.141C487.118 230.141 487.465 230.314 487.465 230.488C487.465 230.488 487.465 230.662 487.465 230.835L486.77 235.872C486.77 235.872 486.77 235.872 486.77 236.045C486.597 237.435 486.423 238.824 486.423 240.213C486.423 240.561 486.423 240.908 486.423 241.255C486.423 242.471 486.423 243.513 486.423 244.729C486.423 245.423 486.423 246.292 486.423 246.986C486.423 246.986 486.423 246.986 486.597 246.986C486.597 246.986 486.597 246.986 486.597 246.813C487.292 245.597 487.812 244.555 488.507 243.339C488.507 243.339 488.507 243.166 488.681 242.992C489.028 242.471 489.375 241.95 489.723 241.429C490.07 240.908 490.417 240.387 490.591 239.866C490.938 239.171 491.633 238.477 491.98 237.782C491.98 237.435 492.328 237.261 492.501 236.914C493.022 236.393 493.37 235.872 493.543 235.351C493.891 234.656 494.412 233.961 494.933 233.267C495.106 232.919 495.454 232.572 495.627 232.225C495.627 232.051 495.801 231.877 495.975 231.704C496.148 231.53 496.322 231.183 496.496 231.009C496.843 230.314 497.538 229.62 497.885 228.925C498.059 228.578 498.406 228.23 498.58 227.883C499.274 227.015 499.969 226.32 500.664 225.452C500.664 225.452 501.011 225.104 501.185 224.931C501.532 224.583 501.879 224.41 502.4 224.236C502.748 224.236 502.921 224.236 503.095 224.41C503.095 224.41 503.269 224.583 503.442 224.757C503.79 224.931 504.137 225.278 504.484 225.452H504.832Z" fill="white"/>
<path d="M540.086 224.236C540.086 224.236 540.26 224.931 540.433 224.931C540.607 224.931 540.954 224.931 541.128 225.278C541.128 225.278 541.128 225.278 541.302 225.452V225.799C541.302 225.973 541.302 226.32 541.302 226.494C541.302 226.841 541.302 227.188 540.954 227.362C540.607 227.709 540.433 228.23 540.086 228.578C539.912 228.925 539.739 229.099 539.565 229.446C538.523 230.835 537.655 232.398 536.786 233.788C536.265 234.83 535.571 235.698 534.876 236.74C534.876 236.74 534.702 237.087 534.529 237.261C534.529 237.608 534.181 237.782 534.008 238.129C533.487 238.65 533.313 239.345 532.792 239.866C532.445 240.213 532.445 240.734 532.097 241.082C532.097 241.082 532.097 241.429 531.75 241.603C531.229 242.471 530.708 243.339 530.187 244.208C529.666 245.076 529.319 246.118 528.798 246.986C528.45 247.334 528.277 247.855 528.103 248.202C527.929 248.549 527.756 248.897 527.408 249.418C526.887 250.286 526.193 251.154 525.845 252.023C525.498 252.717 524.977 253.238 524.456 253.933L523.414 254.975C523.067 254.975 522.893 254.975 522.546 254.975C522.025 254.975 521.677 254.975 521.156 254.975C520.983 254.975 520.635 254.975 520.462 254.975C520.462 254.975 520.288 254.975 520.114 254.975C520.114 254.975 519.941 254.975 519.767 254.975C519.42 254.801 519.072 254.454 518.899 254.107C518.725 253.759 518.551 253.238 518.551 252.891C518.551 251.675 518.378 250.46 518.551 249.244C518.551 248.549 518.551 248.028 518.551 247.334C518.551 246.813 518.551 246.118 518.551 245.597V243.86C518.551 243.86 518.551 243.86 518.551 243.687C518.551 242.645 518.551 241.603 518.551 240.561C518.551 240.387 518.551 240.04 518.551 239.866C518.551 239.171 518.725 238.303 518.725 237.608C518.725 236.219 518.725 234.83 519.072 233.614C519.072 232.746 519.246 230.662 519.42 230.488C519.42 230.314 519.42 229.446 519.767 229.446C520.114 229.446 520.114 228.404 520.114 228.404C520.288 228.404 520.462 228.404 520.462 228.057C520.462 228.057 521.156 227.362 521.504 227.709C521.677 227.709 521.851 227.362 522.893 227.362C523.24 227.362 523.588 227.709 523.935 227.709C523.935 227.709 524.456 227.188 524.282 229.446C524.282 229.446 523.067 236.045 523.067 236.219C523.067 236.219 523.067 236.219 523.067 236.393C523.067 237.782 522.893 239.171 522.893 240.734C522.893 241.082 522.893 241.429 522.893 241.776C522.893 242.992 522.893 244.034 522.893 245.25C522.893 245.944 522.893 246.813 522.893 247.507C522.893 247.507 522.893 247.507 523.067 247.507C523.067 247.507 523.24 247.507 523.414 247.507L523.761 247.16C524.282 245.944 524.282 245.944 524.803 244.729C524.803 244.729 525.151 243.513 525.324 243.339C525.672 242.818 526.019 242.297 526.193 241.776C526.54 241.255 526.714 240.734 527.061 240.213C527.408 239.519 527.929 238.824 528.277 237.956C528.277 237.608 528.624 237.435 528.798 237.087C529.145 236.566 529.492 236.045 529.84 235.524C530.187 234.83 530.708 233.961 531.055 233.267C531.229 232.919 531.576 232.572 531.75 232.225C531.75 232.051 531.924 231.877 532.097 231.704C532.097 231.53 532.445 231.183 532.618 231.009C532.966 230.314 533.487 229.62 533.834 228.751C534.008 228.404 534.181 228.057 534.529 227.709C535.223 226.841 535.918 225.973 536.613 225.278C536.613 225.278 536.96 224.931 537.134 224.757C537.481 224.41 537.134 224.757 537.655 224.41C538.002 224.41 538.176 224.062 538.349 224.41C538.349 224.41 539.218 224.583 539.391 224.757C539.391 224.757 539.391 224.757 539.565 224.757C539.565 224.757 539.565 224.757 539.565 224.931L540.086 224.236Z" fill="white"/>
<path d="M713.231 253.239C713.231 253.239 713.231 253.239 712.883 253.239C712.71 253.239 712.71 253.239 712.883 252.891C712.883 252.718 713.057 252.718 712.883 252.37C712.883 252.37 712.883 252.37 712.709 252.197V251.849C712.709 251.676 712.709 251.328 712.709 251.155C712.709 250.807 712.709 250.46 713.057 250.286C713.404 249.939 713.578 249.418 713.752 249.071C713.925 248.723 714.099 248.55 714.273 248.202C715.315 246.813 716.009 245.25 716.877 243.687C717.398 242.645 717.919 241.603 718.614 240.735C718.614 240.735 718.788 240.387 718.962 240.214C718.962 239.866 719.309 239.693 719.482 239.345C720.003 238.824 720.177 238.13 720.698 237.609C720.872 237.261 721.045 236.74 721.219 236.393C721.219 236.393 721.219 236.046 721.393 235.872C721.914 235.004 722.435 234.135 722.782 233.267C723.303 232.399 723.65 231.357 724.171 230.488C724.345 230.141 724.692 229.62 724.866 229.273C725.04 228.925 725.213 228.404 725.561 228.057C726.082 227.189 726.603 226.32 727.124 225.452C727.471 224.757 727.992 224.236 728.339 223.542C728.687 223.194 729.034 222.847 729.208 222.5C729.555 222.5 729.729 222.5 730.076 222.5C730.597 222.5 730.944 222.5 731.465 222.5C731.639 222.5 731.986 222.5 732.16 222.5C732.16 222.5 732.334 222.5 732.507 222.5C732.681 222.5 732.681 222.5 732.855 222.5C733.202 222.673 733.549 223.021 733.897 223.368C734.244 223.715 734.244 224.236 734.244 224.584C734.244 225.799 734.591 227.015 734.418 228.231C734.418 228.925 734.418 229.446 734.418 230.141C734.418 230.662 734.418 231.357 734.418 231.878C734.418 232.399 734.418 233.093 734.418 233.614C734.418 233.614 734.418 233.614 734.418 233.788C734.418 234.83 734.418 235.872 734.418 236.914C734.418 237.088 734.418 237.435 734.418 237.609C734.418 238.303 734.418 239.172 734.418 239.866C734.418 241.256 734.418 242.645 734.244 243.861C734.244 244.729 733.897 249.418 733.723 250.286C733.723 250.286 733.376 251.155 733.376 251.328C733.376 251.502 733.376 251.676 733.028 251.676H732.681H732.334H731.986C731.813 251.502 731.465 251.502 731.292 251.328C731.118 251.328 731.292 251.328 730.944 251.328C730.597 251.328 730.25 250.981 729.902 250.981H729.729C729.729 250.981 729.729 250.981 729.729 250.807C729.729 250.634 730.076 248.376 730.076 246.639C730.076 246.639 730.423 241.603 730.423 241.429C730.423 239.866 730.423 238.303 730.423 236.914V235.872C730.423 234.656 730.423 233.614 730.25 232.399C730.25 231.704 730.25 230.836 730.076 230.141C730.076 230.141 730.076 230.141 729.902 230.141C729.902 230.141 729.902 230.141 729.902 230.315C729.381 231.53 728.86 232.746 728.339 233.962C728.339 233.962 728.339 234.309 728.166 234.309C727.818 234.83 727.471 235.351 727.297 235.872C727.124 236.393 726.776 236.914 726.429 237.435C726.082 238.13 725.561 238.824 725.213 239.693C725.213 240.04 724.866 240.214 724.692 240.561C724.345 241.082 723.998 241.603 723.824 242.124C723.477 242.819 723.129 243.687 722.608 244.382C722.435 244.729 722.261 245.076 722.087 245.424C722.087 245.597 721.914 245.771 721.74 245.945C721.74 246.118 721.393 246.466 721.219 246.639C720.872 247.334 720.351 248.029 720.003 248.897C719.83 249.244 719.656 249.592 719.309 249.939C718.614 250.807 718.093 251.676 717.398 252.544C717.398 252.718 717.051 252.891 717.051 253.065C716.704 253.412 716.356 253.76 716.009 253.76C715.662 253.76 715.488 253.76 715.314 253.586C715.314 253.586 715.141 253.412 714.967 253.412C714.62 253.412 714.272 253.065 713.925 252.891L713.231 253.239Z" fill="white"/>
<path d="M508.305 253.412C508.305 253.586 508.305 253.933 508.305 253.933C508.131 253.933 507.957 254.281 507.957 254.628C507.61 254.628 507.436 254.454 507.089 254.454C507.089 254.454 507.089 254.454 507.089 254.281C507.089 254.281 507.089 254.281 507.089 254.107C507.089 254.107 506.915 254.107 506.742 254.107C506.742 254.107 506.568 254.107 506.394 254.107C506.394 254.107 506.221 254.107 506.047 254.281C506.047 254.281 505.874 254.281 505.7 254.281C505.7 254.281 505.7 254.107 505.526 254.107C505.526 254.107 505.179 254.107 505.179 254.281C505.179 254.107 505.005 253.76 505.179 253.412C505.179 253.239 505.179 253.065 505.179 252.718C505.179 252.37 504.658 251.849 505.005 251.502C505.005 250.981 505.005 250.634 505.005 250.113C505.179 248.376 505.526 246.639 506.047 244.903C506.394 243.513 506.915 242.124 507.263 240.735C507.957 239.172 508.305 237.609 508.652 235.872C508.826 235.351 509 234.83 509.173 234.136C509.173 233.441 509.52 232.92 509.52 232.399C509.52 231.878 509.868 231.183 509.868 230.662C509.868 230.141 510.041 229.447 510.215 228.926C510.215 228.057 510.562 227.363 510.736 226.494C510.736 226.494 510.736 226.321 510.91 226.147C511.257 226.147 511.604 225.8 511.952 225.8C511.952 225.8 512.125 225.8 512.299 225.8C512.473 225.8 512.473 225.8 512.646 225.8C512.994 225.8 513.167 225.973 513.515 225.973C513.862 225.973 514.036 226.147 514.209 226.494C514.209 226.668 514.209 226.842 514.557 226.842C514.557 227.189 514.557 227.363 514.557 227.71C514.557 228.057 514.557 228.578 514.557 228.926C514.557 229.099 514.557 229.447 514.557 229.62C514.557 230.489 514.383 231.183 514.209 232.052C514.209 232.92 513.862 233.615 513.688 234.483C513.341 236.046 512.994 237.435 512.473 238.998C512.473 239.346 512.473 239.693 512.299 240.04C511.952 241.082 511.604 242.298 511.257 243.34C511.083 243.861 510.91 244.382 510.91 244.903C510.91 245.25 510.91 245.597 510.562 245.771C510.562 245.771 510.562 246.118 510.562 246.292C510.562 246.639 510.562 246.813 510.562 247.16C510.389 248.029 510.215 249.071 510.041 249.939C510.041 250.634 509.868 251.328 509.694 251.849C509.694 252.023 509.694 252.197 509.694 252.37C509.694 252.544 509.694 252.891 509.694 253.065C509.694 253.239 509.347 253.412 509.173 253.412H508.305Z" fill="white"/>
<path d="M573.255 216.074L573.082 216.248L573.255 216.074Z" fill="white"/>
<path d="M733.376 240.388C733.376 239.867 733.376 239.172 733.203 238.651C732.682 238.651 731.987 238.651 731.466 238.651C730.945 238.651 730.25 238.651 729.729 238.651C727.993 238.825 726.256 238.825 724.519 238.825C723.13 238.825 721.567 238.825 720.178 238.825H719.483V239.172C719.657 239.693 719.657 240.214 719.483 240.909C719.483 241.43 719.483 242.124 719.483 242.645C719.483 242.993 719.483 243.166 719.309 243.514C719.483 243.514 719.657 243.514 719.83 243.514C719.83 243.514 720.178 243.514 720.351 243.514C720.699 243.514 721.046 243.514 721.393 243.514C721.914 243.514 722.435 243.514 723.13 243.514C724.346 243.514 725.561 243.514 726.777 243.514C727.124 243.514 727.472 243.514 727.819 243.514C729.382 243.514 730.945 243.514 732.508 243.166H733.897C733.897 242.124 733.55 241.43 733.55 240.561L733.376 240.388Z" fill="white"/>
<path d="M759.773 235.351C759.426 235.004 759.252 234.483 758.905 233.962C758.558 233.614 758.21 233.267 757.689 232.92C757.689 232.92 757.342 232.92 757.342 232.746C756.821 232.399 756.3 232.225 755.779 232.051C755.258 231.878 754.563 231.704 753.869 231.704C753 231.704 752.132 231.704 751.437 231.704C750.569 231.704 749.874 232.051 749.006 232.051C747.964 232.225 746.922 232.572 745.88 233.093C745.359 233.441 744.838 233.614 744.317 233.788C745.533 234.309 747.096 236.046 747.443 235.872C747.79 235.872 748.138 235.872 748.485 235.872C749.18 235.698 750.048 235.525 750.743 235.525C751.437 235.525 752.132 235.525 752.827 235.525C753 235.525 753.348 235.525 753.521 235.525C754.042 235.525 754.737 235.872 755.084 236.219C755.084 236.219 755.258 236.393 755.258 236.567V236.914C755.258 237.088 755.084 237.435 754.737 237.609L751.958 240.214C751.958 240.214 751.785 240.387 751.611 240.561C750.916 240.908 750.569 241.429 749.874 241.777C749.353 242.124 748.832 242.645 748.311 242.992C747.79 243.34 747.269 243.687 746.748 244.034L745.88 244.555C745.88 244.555 745.533 244.729 745.359 244.903C745.012 245.076 744.664 245.25 744.317 245.424C743.449 245.945 742.58 246.466 741.538 246.639C739.802 246.987 739.454 246.813 739.454 246.987C739.454 246.987 738.933 247.508 738.76 247.681C738.586 248.029 738.412 248.202 738.412 248.55C738.412 249.071 738.412 249.765 738.412 249.939C737.891 250.46 738.412 250.113 738.412 250.634C738.412 251.328 738.065 251.155 738.412 251.849C738.412 251.849 738.412 252.197 738.412 252.37C738.76 252.37 739.281 252.37 739.628 252.37C739.802 252.37 740.149 252.37 740.323 252.37C743.275 251.676 745.88 249.939 746.054 249.939C746.575 249.592 747.096 249.244 747.617 248.897C747.79 248.897 747.964 248.723 748.138 248.55C748.832 248.202 749.527 247.855 750.048 247.334C750.048 247.334 750.222 247.16 750.395 247.16C750.743 246.987 751.09 246.639 751.437 246.292C751.437 246.292 751.611 246.118 751.785 246.118C751.785 246.118 752.132 246.118 752.132 245.945C752.479 245.597 752.827 245.424 753.174 245.076C753.521 244.729 753.869 244.555 754.39 244.208C754.39 244.208 754.563 244.034 754.737 243.861L756.647 242.124C756.647 242.124 756.995 242.124 756.995 241.777C757.342 241.256 757.863 240.908 758.037 240.387C758.037 240.214 758.384 239.866 758.558 239.693C758.905 239.345 759.079 238.824 759.079 238.303C759.079 237.782 759.079 237.261 759.079 236.74C759.079 236.393 759.079 235.872 758.905 235.525L759.773 235.351Z" fill="white"/>
<path d="M749.006 234.83C749.006 234.309 750.916 232.051 749.701 232.051C748.659 232.051 745.88 232.051 745.359 232.051C745.012 232.051 744.838 232.051 744.664 231.878C744.664 231.878 744.491 231.704 744.317 231.53V231.183C744.317 230.662 744.838 230.141 745.185 229.62C745.359 229.62 745.533 229.273 745.706 229.273C746.227 228.752 746.748 228.404 747.443 228.057C747.964 227.536 748.659 227.362 749.353 227.015C749.527 227.015 749.701 227.015 749.874 226.841C750.222 226.668 750.569 226.494 751.09 226.494C751.785 226.494 752.306 226.32 753 226.147C753.174 226.147 753.348 226.147 753.521 226.147C753.521 226.147 753.695 226.147 753.869 226.147C753.869 226.147 754.042 226.147 754.042 225.973C754.042 225.973 754.39 225.626 754.39 225.452C754.39 225.105 754.042 224.41 754.042 224.063C754.042 223.715 754.042 223.715 753.695 223.368C753.521 223.021 753.348 222.847 753.348 223.021C753.348 223.021 753.174 223.021 753 223.021C752.479 223.021 752.132 223.021 751.611 223.194C750.916 223.368 750.222 223.542 749.701 223.542C748.659 223.715 747.443 224.063 746.575 224.584C745.88 225.105 745.185 225.278 744.491 225.799C743.796 226.32 743.101 226.668 742.58 227.189C742.059 227.536 741.712 228.057 741.365 228.578C741.017 229.099 740.67 229.62 740.496 230.141C740.496 230.141 740.496 230.488 740.323 230.488C740.149 231.009 739.975 231.53 739.975 232.051C739.975 232.572 740.149 233.093 739.975 233.614C739.975 233.962 740.323 234.483 740.496 234.83C740.844 235.177 741.191 235.177 741.712 235.698C742.059 236.046 742.233 236.219 742.754 236.393C743.101 236.393 743.449 236.567 743.796 236.74C744.491 236.914 745.185 237.088 745.88 237.088C746.748 237.088 747.79 237.088 748.659 236.914C750.395 236.567 749.006 236.567 749.006 235.698V234.83Z" fill="white"/>
<path d="M738.413 215.032C738.413 215.032 738.413 214.859 738.413 214.685C738.413 214.685 738.413 214.164 738.239 213.99H738.066C738.066 213.99 738.066 213.817 738.066 213.643C737.718 213.469 737.024 212.948 736.85 212.775C736.85 212.775 736.85 212.427 736.85 212.254C736.85 212.254 736.329 212.254 736.329 211.906C736.329 211.733 736.329 211.906 736.329 211.733C735.461 211.906 734.592 212.08 733.898 212.427C732.161 212.948 730.424 213.469 728.861 214.338C728.514 214.511 727.993 214.685 727.646 215.032C727.125 215.032 726.951 215.553 726.604 215.901C726.604 215.901 726.256 216.074 726.083 216.248C725.735 216.248 725.562 216.595 725.388 216.769C725.388 216.769 725.388 216.769 725.562 216.769C725.735 216.769 725.909 216.769 725.909 216.943C725.909 217.116 725.909 217.116 725.909 217.29C725.909 217.464 725.909 217.637 725.909 217.637C725.909 217.637 726.083 217.637 726.256 217.637C726.256 217.637 726.256 217.637 726.43 217.811C726.43 217.811 726.43 217.985 726.43 218.158C726.43 218.158 726.43 218.158 726.256 218.158H726.083C726.083 218.506 726.083 218.679 726.256 219.027C726.43 219.027 726.777 219.027 726.951 219.027C727.298 219.2 727.298 219.027 727.472 219.027C727.646 219.027 727.819 219.2 728.167 219.2C728.34 219.2 728.688 219.2 728.861 219.027C728.861 219.027 729.209 219.027 729.382 218.853C730.077 218.679 730.598 218.332 731.293 218.158C732.161 217.811 733.029 217.464 734.071 217.116C734.419 217.116 734.592 216.943 734.94 216.769C734.94 216.769 735.287 216.769 735.461 216.595C735.808 216.595 736.155 216.595 736.503 216.422C737.024 216.248 737.545 216.074 738.066 215.901C738.587 215.901 738.239 215.901 738.934 215.553L739.281 215.206C739.281 215.206 739.281 215.032 739.281 214.859L738.413 215.032Z" fill="white"/>
</svg>
