<svg width="845" height="264" viewBox="0 0 845 264" fill="none" xmlns="http://www.w3.org/2000/svg">
<path d="M251.3 222.96H254.2V263.06H251.3V256.36C250.1 258.66 248.4 260.36 246.3 261.66C244.1 262.96 241.7 263.56 239 263.56C234.9 263.56 231.4 262.16 228.5 259.26C225.6 256.36 224.2 252.86 224.2 248.66C224.2 244.46 225.6 240.96 228.5 238.06C231.4 235.16 234.9 233.76 239 233.76C241.7 233.76 244.1 234.46 246.3 235.66C248.5 236.96 250.1 238.76 251.3 240.96V222.96ZM230.5 257.36C232.9 259.76 235.7 260.96 239.1 260.96C242.5 260.96 245.4 259.76 247.7 257.36C250.1 254.96 251.2 252.06 251.2 248.66C251.2 245.26 250 242.36 247.7 239.96C245.3 237.56 242.5 236.36 239.1 236.36C235.7 236.36 232.8 237.56 230.5 239.96C228.1 242.36 227 245.26 227 248.66C227 252.06 228.2 255.06 230.5 257.36Z" fill="#0032A0"/>
<path d="M276.1 263.66C271.9 263.66 268.3 262.26 265.4 259.36C262.5 256.46 261 252.96 261 248.76C261 244.56 262.5 241.06 265.4 238.16C268.3 235.26 271.9 233.86 276.1 233.86C280.3 233.86 283.8 235.26 286.7 238.16C289.6 241.06 291.1 244.56 291.1 248.76C291.1 252.96 289.6 256.46 286.7 259.36C283.8 262.26 280.3 263.66 276.1 263.66ZM267.5 257.36C269.9 259.76 272.7 260.96 276.1 260.96C279.5 260.96 282.4 259.76 284.7 257.36C287 254.96 288.2 252.06 288.2 248.66C288.2 245.26 287 242.36 284.7 239.96C282.4 237.56 279.5 236.36 276.1 236.36C272.7 236.36 269.8 237.56 267.5 239.96C265.1 242.36 264 245.26 264 248.66C264 252.06 265.1 255.06 267.5 257.36Z" fill="#0032A0"/>
<path d="M343.9 233.76C347 233.76 349.6 234.76 351.5 236.66C353.4 238.56 354.4 241.36 354.4 244.86V263.06H351.5V244.86C351.5 242.16 350.8 240.16 349.4 238.66C348 237.16 346.2 236.46 343.9 236.46C341.3 236.46 339.3 237.36 337.7 239.06C336.1 240.86 335.3 243.46 335.3 246.96V262.96H332.4V244.76C332.4 242.06 331.7 240.06 330.4 238.56C329.1 237.06 327.3 236.36 325 236.36C322.5 236.36 320.4 237.26 318.7 239.06C317 240.86 316.1 243.46 316.1 246.96V262.96H313.2V234.26H316.1V239.16C318.1 235.46 321.2 233.56 325.3 233.56C327.4 233.56 329.2 234.06 330.8 235.06C332.4 236.06 333.5 237.56 334.2 239.36C335.2 237.46 336.5 235.96 338.2 234.96C340.1 234.26 342 233.76 343.9 233.76Z" fill="#0032A0"/>
<path d="M375.4 233.76C379.6 233.76 383 235.26 385.6 238.26C388.2 241.26 389.5 244.76 389.5 248.86C389.5 249.06 389.5 249.26 389.5 249.56C389.5 249.86 389.5 250.06 389.5 250.26H363.5C363.8 253.46 365.1 256.06 367.4 258.06C369.7 260.06 372.4 261.06 375.7 261.06C378 261.06 380 260.56 381.7 259.66C383.4 258.66 384.7 257.46 385.6 255.86L388.1 257.36C386.9 259.36 385.2 260.96 383.1 262.06C380.9 263.26 378.4 263.76 375.6 263.76C371.2 263.76 367.6 262.36 364.8 259.56C362 256.76 360.6 253.16 360.6 248.86C360.6 244.56 362 241.06 364.8 238.16C367.4 235.16 371 233.76 375.4 233.76ZM375.4 236.56C372.2 236.56 369.4 237.56 367.3 239.56C365.2 241.56 363.9 244.16 363.6 247.46H386.6C386.3 244.06 385.1 241.36 383 239.46C380.8 237.46 378.3 236.56 375.4 236.56ZM375 224.86L370.4 230.36H367.1L373.3 223.06L376.6 223.16L382.9 230.56L379.6 230.36L375 224.86Z" fill="#0032A0"/>
<path d="M397 241.86C397 243.26 397.6 244.36 398.8 245.16C400 245.96 401.4 246.56 403.1 247.06C404.8 247.46 406.5 247.96 408.2 248.36C409.9 248.86 411.4 249.66 412.5 250.86C413.7 252.06 414.3 253.66 414.3 255.66C414.3 258.06 413.4 259.96 411.5 261.46C409.6 262.96 407.1 263.76 404.1 263.76C401.3 263.76 399 263.16 397.1 262.06C395.2 260.86 393.9 259.36 393.2 257.46L395.7 256.06C396.2 257.66 397.2 258.86 398.7 259.76C400.2 260.66 402 261.06 404.1 261.06C406.2 261.06 408 260.56 409.4 259.66C410.8 258.76 411.5 257.36 411.5 255.66C411.5 254.26 410.9 253.16 409.7 252.26C408.5 251.46 407.1 250.76 405.4 250.36C403.7 249.96 402 249.46 400.3 248.96C398.6 248.46 397.1 247.66 395.9 246.56C394.7 245.46 394.1 243.86 394.1 241.96C394.1 239.66 395 237.76 396.8 236.16C398.6 234.56 401 233.76 403.8 233.76C406.1 233.76 408.1 234.26 409.8 235.26C411.5 236.26 412.8 237.66 413.6 239.46L411.2 240.86C410.6 239.46 409.7 238.36 408.3 237.66C407 236.96 405.5 236.56 403.8 236.56C401.9 236.56 400.2 237.06 398.9 237.96C397.7 238.96 397 240.26 397 241.86Z" fill="#0032A0"/>
<path d="M31.3 135.46C42.1 135.46 51.1 139.26 58.4 146.86C65.6 154.46 69.3 163.76 69.3 174.86C69.3 185.96 65.7 195.26 58.4 202.86C51.2 210.46 42.1 214.26 31.3 214.26H0V135.56H31.3V135.46ZM31.3 199.36C38.1 199.36 43.7 197.06 47.9 192.56C52.2 188.06 54.3 182.16 54.3 174.86C54.3 167.56 52.2 161.66 47.9 157.16C43.6 152.66 38.1 150.36 31.3 150.36H15.5V199.36H31.3Z" fill="#0032A0"/>
<path d="M91.8 192.06C93.7 199.16 99 202.66 107.7 202.66C113.2 202.66 117.4 200.76 120.3 197.06L132 203.76C126.4 211.76 118.3 215.76 107.5 215.76C98.2 215.76 90.7 212.96 85.1 207.36C79.5 201.76 76.7 194.66 76.7 186.06C76.7 177.56 79.5 170.56 85 164.86C90.5 159.16 97.7 156.36 106.4 156.36C114.6 156.36 121.5 159.26 126.8 164.86C132.2 170.56 134.8 177.66 134.8 185.96C134.8 187.86 134.6 189.86 134.2 191.96H91.8V192.06ZM91.6 180.76H120.3C119.5 176.96 117.8 174.06 115.2 172.26C112.6 170.36 109.7 169.46 106.4 169.46C102.5 169.46 99.3 170.46 96.7 172.46C94.1 174.36 92.4 177.16 91.6 180.76Z" fill="#0032A0"/>
<path d="M156 173.96C156 175.46 157 176.66 159 177.66C161 178.56 163.4 179.46 166.3 180.16C169.1 180.86 172 181.76 174.8 182.86C177.6 183.96 180.1 185.76 182.1 188.36C184.1 190.96 185.1 194.06 185.1 197.96C185.1 203.76 182.9 208.16 178.6 211.26C174.3 214.36 168.9 215.96 162.5 215.96C151 215.96 143.1 211.46 138.9 202.56L151.5 195.46C153.1 200.36 156.8 202.76 162.5 202.76C167.7 202.76 170.3 201.16 170.3 197.96C170.3 196.46 169.3 195.26 167.3 194.26C165.3 193.36 162.9 192.46 160 191.76C157.1 191.06 154.3 190.06 151.5 188.96C148.6 187.86 146.2 186.06 144.2 183.66C142.2 181.26 141.2 178.16 141.2 174.46C141.2 168.96 143.2 164.56 147.3 161.36C151.4 158.16 156.5 156.56 162.5 156.56C167.1 156.56 171.2 157.56 175 159.66C178.7 161.76 181.7 164.66 183.9 168.46L171.5 175.16C169.7 171.36 166.7 169.46 162.5 169.46C160.6 169.46 159.1 169.86 157.8 170.66C156.6 171.36 156 172.46 156 173.96Z" fill="#0032A0"/>
<path d="M224.9 171.86H212.2V195.26C212.2 197.26 212.7 198.66 213.7 199.56C214.7 200.46 216.1 200.96 218 201.06C219.9 201.16 222.2 201.16 225 200.96V214.16C215 215.26 208 214.36 203.9 211.36C199.8 208.36 197.8 202.96 197.8 195.26V171.86H188V157.96H197.8V146.56L212.3 142.16V157.86H225V171.86H224.9Z" fill="#0032A0"/>
<path d="M242.3 151.16C239.9 151.16 237.8 150.26 236.1 148.56C234.3 146.76 233.5 144.76 233.5 142.36C233.5 139.96 234.4 137.86 236.1 136.06C237.9 134.26 239.9 133.36 242.3 133.36C244.8 133.36 246.9 134.26 248.7 136.06C250.5 137.86 251.3 139.96 251.3 142.36C251.3 144.76 250.4 146.86 248.7 148.56C246.9 150.36 244.8 151.16 242.3 151.16ZM235.1 214.16V157.96H249.6V214.16H235.1Z" fill="#0032A0"/>
<path d="M409.9 181.06C395.5 179.86 381.1 178.66 366.5 177.46C369.2 173.36 371.8 169.36 374.4 165.36C374.3 165.26 374.2 165.26 374.2 165.16C370.3 167.76 366.3 170.36 362.2 173.06C361 158.46 359.8 144.06 358.5 129.76C358.4 129.76 358.3 129.76 358.2 129.76C357 144.16 355.8 158.46 354.5 173.06C350.3 170.36 346.4 167.76 342.4 165.16C342.3 165.26 342.3 165.26 342.2 165.36C344.8 169.36 347.4 173.26 350.1 177.36C335.5 178.56 321 179.76 306.6 181.06C306.6 181.16 306.6 181.26 306.6 181.36C321 182.56 335.4 183.76 350.1 185.06C347.4 189.16 344.8 193.16 342.2 197.16C342.3 197.26 342.4 197.26 342.4 197.36C346.4 194.76 350.3 192.16 354.4 189.46C355.6 204.06 356.8 218.46 358.1 232.76C358.2 232.76 358.3 232.76 358.4 232.76C359.6 218.36 360.8 204.06 362 189.46C366.2 192.16 370.1 194.76 374 197.36L374.2 197.16C371.6 193.26 369 189.26 366.3 185.16C380.9 183.96 395.3 182.76 409.7 181.56V181.06H409.9ZM358.4 186.16C355.6 186.16 353.4 183.96 353.4 181.16C353.4 178.36 355.6 176.16 358.4 176.16C361.2 176.16 363.4 178.36 363.4 181.16C363.4 184.06 361.3 186.16 358.4 186.16Z" fill="#0032A0"/>
<path d="M354.1 211.26C341.3 209.96 329.6 198.56 328.3 185.46C329.4 185.56 330.3 185.66 331.3 185.66C332.1 185.66 332.4 185.96 332.5 186.76C333.8 192.96 337 197.96 341.9 201.86C345.1 204.46 348.7 206.16 352.8 206.96C353.5 207.16 353.9 207.36 353.9 208.16C353.9 209.26 354.1 210.26 354.1 211.26Z" fill="white"/>
<path d="M354.2 151.06C354.1 152.26 354.1 153.46 353.9 154.46C353.8 154.76 353.3 155.16 352.9 155.26C347.9 156.36 343.5 158.76 339.9 162.36C336.2 166.06 333.8 170.36 332.7 175.46C332.5 176.36 332.1 176.66 331.2 176.66C330.3 176.66 329.5 176.76 328.6 176.86C328.6 176.86 328.5 176.86 328.5 176.76C329.5 164.36 340.7 152.56 354.2 151.06Z" fill="white"/>
<path d="M388.5 176.96C387.3 176.86 386 176.76 384.8 176.56C384.6 176.56 384.3 175.96 384.2 175.66C383.1 170.46 380.6 165.96 376.8 162.26C373.2 158.76 369 156.36 364 155.36C363.1 155.16 362.7 154.76 362.8 153.86C362.8 152.96 362.7 152.06 362.6 151.06C375 152.26 387.1 163.26 388.5 176.96Z" fill="white"/>
<path d="M388.6 185.46C387.8 191.36 385.5 196.46 381.7 200.96C376.7 206.76 370.4 210.26 362.7 211.46C362.8 210.16 362.8 208.96 363 207.86C363.1 207.56 363.6 207.16 364 207.06C369.1 205.96 373.5 203.46 377.2 199.76C380.9 196.06 383.2 191.66 384.3 186.56C384.4 185.86 384.7 185.66 385.4 185.56C386.4 185.66 387.4 185.56 388.6 185.46Z" fill="white"/>
<path d="M362 181.16C362 183.06 360.4 184.76 358.5 184.76C356.6 184.76 354.9 183.16 354.9 181.26C354.9 180.76 355 180.26 355.2 179.86C355.3 179.66 355.4 179.46 355.5 179.26C356.1 178.36 357.2 177.66 358.4 177.66C359.4 177.66 360.3 178.06 360.9 178.66C361 178.76 361.1 178.86 361.1 178.86C361.7 179.56 362 180.36 362 181.16Z" fill="white"/>
<path d="M315.4 183.56C313.2 183.36 311 183.16 308.9 183.06L306.7 182.86C305.9 182.76 305.3 182.16 305.3 181.36C305.3 181.26 305.3 181.16 305.3 181.06C305.3 180.26 305.9 179.66 306.7 179.56C306.7 179.56 310.3 179.26 315.4 178.86C315.3 171.96 313.3 166.56 309.4 162.56C305.4 158.46 300.3 156.36 294.2 156.36C286.6 156.36 281 158.96 277.4 164.26V157.96H262.9V214.16H277.4V183.76C277.4 179.16 278.5 175.66 280.8 173.26C283 170.96 286 169.76 289.8 169.76C293.2 169.76 295.9 170.76 297.9 172.76C299.9 174.76 300.9 177.66 300.9 181.36V214.06H315.4V183.56Z" fill="#0032A0"/>
<rect x="438.3" y="133.76" width="8.75916" height="130" fill="#0032A0"/>
<path d="M507.976 153.19C505.303 144.279 496.912 139.518 496.912 139.518C491.867 136.334 476.643 133.41 473.638 140.981C472.525 143.467 472.541 157.228 471.915 175.067C471.615 182.516 471.298 189.698 471.217 197.09C471.168 200.981 470.908 204.377 471.184 206.725C471.225 207.342 471.355 207.935 471.582 208.479C471.647 208.65 471.729 208.812 471.81 208.959C471.818 208.975 471.826 208.983 471.834 208.999C471.834 208.999 471.834 208.999 471.834 209.007C472.76 210.705 474.564 211.859 476.627 211.859C479.641 211.859 482.086 209.413 482.086 206.4V206.391C482.208 204.572 482.005 201.68 482.005 196.521C482.005 195.652 482.078 185.49 482.078 185.49C497.375 185.79 513.492 171.533 507.976 153.19ZM482.013 142.89C489.121 143.012 499.438 147.488 501.859 156.903C505.124 169.632 493.5 180.445 482.013 180.526C482.078 180.453 482.013 142.89 482.013 142.89ZM600.43 207.163C600.43 207.179 600.414 207.204 600.405 207.22C600.129 209.105 598.513 210.559 596.555 210.559C595.003 210.559 593.671 209.649 593.037 208.333C593.029 208.317 593.013 208.309 593.005 208.292C592.989 208.26 592.972 208.219 592.956 208.179C592.948 208.162 592.948 208.154 592.94 208.146C591.258 204.19 574.508 162.532 574.678 160.209C574.061 168.666 572.566 198.95 572.509 206.887C572.509 207.318 572.485 207.691 572.452 208.032C572.452 208.081 572.469 208.122 572.469 208.171C572.469 208.715 572.331 209.218 572.111 209.682C571.957 210.071 571.762 210.356 571.534 210.526C570.901 211.217 569.999 211.647 568.992 211.647C567.075 211.647 565.515 210.088 565.515 208.171C565.515 208.089 565.531 208.016 565.539 207.943C565.523 207.732 565.515 207.513 565.523 207.253C565.824 192.386 567.115 155.4 567.44 147.52C567.44 147.52 567.473 146.7 567.724 145.733C568.131 143.353 570.194 141.541 572.688 141.541C574.231 141.541 575.596 142.248 576.522 143.337C576.636 143.434 576.734 143.548 576.807 143.662C576.823 143.694 576.839 143.702 576.855 143.735C576.872 143.767 576.896 143.791 576.912 143.824C577.562 144.831 577.286 144.344 577.855 145.384C579.268 147.252 595.068 179.624 594.752 181.98C596.449 169.226 598.968 141.411 599.52 138.917C599.536 138.852 599.561 138.787 599.577 138.722C599.845 137.382 601.031 136.367 602.453 136.367C604.069 136.367 605.385 137.683 605.385 139.299C605.361 140.534 601.202 199.405 600.43 207.163ZM770.196 206.505C770.196 202.443 771.471 163.199 770.423 147.788C770.22 144.839 768.084 140.225 763.128 138.454C758.335 136.74 753.843 137.244 749.375 138.909C738.433 143.044 736.109 157.918 735.118 169.397C734.972 170.615 734.753 172.663 734.753 172.663C734.753 172.663 729.773 172.841 728.912 172.858C728.871 172.858 728.822 172.858 728.806 172.858C728.774 172.858 728.749 172.874 728.725 172.874C727.133 172.971 725.865 174.287 725.865 175.912C725.865 177.602 727.23 178.966 728.92 178.966C728.928 178.966 728.936 178.966 728.944 178.966C728.952 178.966 728.952 178.966 728.96 178.966C729.838 178.966 733.965 178.934 733.965 178.934C733.965 178.934 732.454 197.724 732.454 200.283C732.454 200.291 732.454 200.299 732.462 200.307C732.462 200.323 732.454 200.331 732.454 200.348C732.454 202.98 734.59 205.116 737.222 205.116C739.7 205.116 741.714 203.215 741.95 200.802C741.958 200.754 741.983 200.705 741.983 200.656C742.137 198.804 743.729 178.495 743.729 178.495C743.729 178.495 755.525 177.927 759.976 177.788L759.416 206.473C759.416 206.489 759.416 206.505 759.416 206.521C759.416 206.53 759.416 206.538 759.416 206.546V206.603C759.456 209.552 761.853 211.924 764.81 211.924C767.539 211.924 769.781 209.901 770.147 207.269C770.155 207.236 770.155 207.204 770.163 207.171C770.179 206.944 770.196 206.725 770.196 206.505ZM744.143 172.663C744.143 172.663 744.866 157.22 746.515 152.524C746.475 152.362 750.537 140.583 757.832 143.759C761.146 145.205 761.024 149.031 761.024 149.031C760.878 155.278 760.447 172.589 760.447 172.589L744.143 172.663ZM522.054 150.152C519.186 156.139 517.245 170.737 517.245 170.737C517.245 170.737 515.287 170.835 514.345 170.859C512.533 170.859 511.063 172.329 511.063 174.141C511.063 175.782 512.273 177.131 513.841 177.374C514.442 177.496 515.181 177.512 516.091 177.39C515.482 184.523 514.361 192.98 513.752 200.071C513.467 203.329 513.134 205.603 513.167 207.244C513.167 207.309 513.15 207.366 513.15 207.431C513.15 207.805 513.216 208.171 513.305 208.52C513.402 208.983 513.565 209.381 513.817 209.722C514.588 210.965 515.953 211.802 517.521 211.802C519.121 211.802 520.502 210.933 521.266 209.649C521.372 209.495 521.461 209.324 521.542 209.137C521.632 208.926 521.713 208.69 521.762 208.439C521.786 208.333 521.802 208.219 521.818 208.106C522.623 202.801 524.166 176.57 524.166 176.57L542.996 175.481C542.996 175.481 542.054 192.346 541.818 200.38C541.818 200.38 541.818 200.38 541.818 200.388C541.81 200.478 541.794 200.567 541.794 200.664C541.794 201.257 541.916 201.818 542.087 202.346C542.095 202.37 542.103 202.395 542.111 202.419C542.842 204.531 544.824 206.05 547.18 206.05C550.113 206.05 552.485 203.703 552.558 200.794C553.013 200.193 554.524 156.31 553.614 150.242C551.388 135.432 531.12 131.208 522.054 150.152ZM524.54 170.453C525.043 160.331 528.008 152.971 529.771 149.787C531.38 146.878 532.696 145.189 535.206 144.157C537.992 143.02 543.801 143.142 544.061 148.365C544.182 150.883 543.76 160.9 543.273 169.202C537.196 169.592 524.54 170.453 524.54 170.453ZM719.643 204.84C719.635 204.881 719.635 204.929 719.627 204.97C719.627 204.994 719.618 205.027 719.618 205.059C719.618 205.067 719.61 205.075 719.61 205.084C719.237 207.862 716.865 210.015 713.989 210.015C710.853 210.015 708.311 207.472 708.311 204.336C708.311 204.036 708.343 203.743 708.384 203.459C708.384 203.451 708.384 203.443 708.384 203.434C709.724 190.778 714.988 146.505 711.276 146.659C709.042 146.748 701.974 171.395 692.201 196.432C691.47 198.763 689.293 200.461 686.718 200.461C684.119 200.461 681.917 198.731 681.218 196.359C681.153 196.196 681.097 196.026 681.048 195.823C680.601 193.792 673.818 153.662 672.534 152.118C671.893 151.338 671.3 152.029 671.194 152.573C670.414 157.017 669.033 199.324 668.928 203.686C668.928 203.703 668.936 203.719 668.936 203.735C668.936 203.759 668.928 203.784 668.928 203.816C668.928 203.922 668.928 203.995 668.928 204.028C668.928 204.06 668.903 204.084 668.903 204.117C668.708 206.042 667.108 207.553 665.126 207.553C663.022 207.553 661.316 205.847 661.316 203.743C661.316 203.735 661.316 203.719 661.316 203.711C661.316 203.703 661.316 203.694 661.316 203.686C661.405 198.609 663.412 150.477 663.842 147.187C664.313 143.588 669.594 142.061 674.387 143.588C674.671 143.67 674.947 143.767 675.223 143.873C675.239 143.881 675.248 143.881 675.264 143.889C676.409 144.344 677.465 144.986 678.391 145.774C678.424 145.798 678.456 145.822 678.489 145.847C678.554 145.904 678.603 145.96 678.668 146.017C678.814 146.155 678.96 146.294 679.106 146.44C680.382 147.715 681.072 148.966 681.478 150.038C681.722 150.64 681.917 151.273 682.055 151.923C683.054 155.473 688.432 179.957 689.805 186.554C693.249 178.463 693.956 175.782 698.773 162.427C703.461 149.421 705.906 143.052 708.181 140.176C708.408 139.868 708.668 139.583 708.952 139.332C709.846 138.495 710.748 138.138 711.787 138.081C712.088 138.048 712.388 138.032 712.705 138.048C713.055 138.072 713.388 138.129 713.704 138.219C714.972 138.438 716.466 138.844 718.311 139.242C718.506 139.283 718.692 139.34 718.887 139.397C720.821 139.778 722.364 141.168 722.99 142.963C723.168 143.434 723.274 143.938 723.282 144.474C723.282 144.506 723.282 144.531 723.282 144.563C723.282 144.579 723.282 144.596 723.282 144.62C723.225 148.129 723.225 154.051 723.168 157.593C722.689 168.991 720.756 193.313 719.643 204.84ZM650.942 149.21C649.415 142.053 642.632 137.512 635.272 137.999C620.747 138.974 617.83 158.243 615.93 173.849C615.93 173.849 612.826 173.808 611.689 173.8H611.681H611.673C611.657 173.8 611.64 173.8 611.632 173.8C611.624 173.8 611.616 173.808 611.608 173.808C609.731 173.849 608.22 175.376 608.22 177.269C608.22 179.153 609.731 180.689 611.608 180.729C611.624 180.729 611.64 180.737 611.657 180.737C611.665 180.737 611.673 180.737 611.681 180.737C611.681 180.737 611.681 180.737 611.689 180.737H611.697C612.306 180.729 615.296 180.542 615.296 180.542C614.654 187.585 612.737 200.778 612.38 205.173C612.306 205.49 612.266 205.823 612.266 206.156C612.266 208.682 614.313 210.738 616.847 210.738C618.602 210.738 620.113 209.738 620.877 208.284C621.186 207.789 621.397 207.228 621.462 206.603C622.038 200.876 623.826 179.868 623.826 179.868L639.618 179.535C639.593 186.984 638.976 202.208 638.976 204.344C638.976 204.401 639 204.45 639.009 204.507C639.147 207.09 641.275 209.154 643.891 209.154C646.214 209.154 648.156 207.529 648.659 205.36C648.676 205.295 648.716 205.238 648.724 205.173C649.074 202.963 652.567 156.854 650.942 149.21ZM639.756 173.865L624.346 173.767C624.346 173.767 625.783 144.319 634.614 144.084C637.368 144.011 640.349 145.895 640.349 149.194C640.349 157.975 639.756 173.865 639.756 173.865Z" fill="#1D3E90"/>
<path d="M771.942 4.69216C772.949 8.16903 773.664 11.7109 774.306 15.2771C774.932 18.8434 775.443 22.4421 775.866 26.0489C776.296 29.6639 776.678 33.287 776.962 36.9345C777.239 40.5819 777.474 44.2457 777.507 47.95C777.515 48.998 776.67 49.859 775.622 49.8672C774.875 49.8753 774.217 49.4447 773.9 48.8111C772.251 45.4886 770.813 42.1173 769.408 38.7379C768.018 35.3504 766.711 31.9466 765.468 28.5266C764.217 25.1066 763.047 21.6703 761.991 18.2097C760.959 14.741 759.984 11.256 759.318 7.69785C758.652 4.17224 760.975 0.776599 764.501 0.110469C767.807 -0.50692 771.016 1.52398 771.942 4.69216Z" fill="#E6282C"/>
<path d="M835.899 39.5989C832.901 41.6298 829.749 43.3927 826.557 45.1067C823.356 46.7964 820.09 48.3886 816.784 49.9077C813.478 51.4349 810.147 52.9053 806.76 54.3026C803.372 55.6836 799.96 57.0402 796.443 58.21C795.444 58.5431 794.371 57.9988 794.038 57.0077C793.803 56.2928 794.014 55.5373 794.517 55.0499C797.174 52.4585 799.936 50.0539 802.722 47.6737C805.517 45.3098 808.352 43.019 811.219 40.785C814.087 38.5429 816.995 36.3739 819.968 34.3024C822.95 32.2471 825.972 30.2569 829.148 28.5266C832.3 26.8125 836.24 27.9742 837.962 31.118C839.571 34.0668 838.628 37.7387 835.899 39.5989Z" fill="#E6282C"/>
<path d="M822.357 111.192C819.505 108.966 816.857 106.504 814.249 103.994C811.658 101.468 809.14 98.852 806.678 96.1712C804.209 93.4986 801.788 90.7772 799.416 87.9827C797.06 85.1801 794.72 82.3612 792.527 79.3718C791.902 78.5269 792.088 77.3327 792.933 76.7154C793.543 76.2686 794.322 76.2361 794.948 76.5691C798.23 78.2994 801.366 80.1922 804.485 82.1094C807.596 84.0428 810.643 86.033 813.656 88.0802C816.67 90.1192 819.627 92.2232 822.511 94.4166C825.379 96.6262 828.206 98.8845 830.83 101.37C833.429 103.84 833.543 107.95 831.073 110.55C828.75 112.987 824.964 113.214 822.357 111.192Z" fill="#E6282C"/>
<path d="M750.065 120.331C751.308 116.935 752.835 113.653 754.42 110.396C756.028 107.146 757.742 103.954 759.529 100.785C761.316 97.6172 763.16 94.4734 765.086 91.3621C767.027 88.2589 768.993 85.1638 771.162 82.1581C771.78 81.3052 772.966 81.1102 773.819 81.7276C774.428 82.1662 774.696 82.9055 774.582 83.596C773.949 87.2516 773.112 90.8178 772.243 94.3759C771.365 97.9259 770.399 101.443 769.383 104.937C768.368 108.43 767.279 111.898 766.085 115.31C764.866 118.722 763.591 122.102 762.023 125.367C760.472 128.6 756.597 129.965 753.364 128.422C750.325 126.959 748.944 123.426 750.065 120.331Z" fill="#E6282C"/>
<path d="M719.139 54.3515C722.754 54.4896 726.345 54.9283 729.927 55.4401C733.51 55.9681 737.084 56.618 740.65 57.3491C744.216 58.0721 747.775 58.8601 751.325 59.7375C754.875 60.631 758.425 61.549 761.95 62.6863C762.949 63.0112 763.502 64.0835 763.177 65.0827C762.949 65.7976 762.332 66.285 761.633 66.3825C757.961 66.9024 754.306 67.203 750.658 67.4792C747.011 67.731 743.363 67.9016 739.732 68.0072C736.093 68.1209 732.462 68.1453 728.847 68.0559C725.232 67.9422 721.617 67.7716 718.026 67.2842C714.468 66.8049 711.974 63.5393 712.453 59.9811C712.908 56.6342 715.849 54.2378 719.139 54.3515Z" fill="#E6282C"/>
<path d="M797.702 21.248C797.044 24.1481 796.134 26.9751 795.175 29.7859C794.201 32.5966 793.136 35.383 791.999 38.145C790.87 40.9151 789.692 43.6609 788.441 46.3985C787.182 49.128 785.898 51.8494 784.436 54.522C784.022 55.2775 783.071 55.5618 782.316 55.1475C781.772 54.8551 781.479 54.2783 781.504 53.7015C781.642 50.6552 781.958 47.6658 782.3 44.6763C782.649 41.695 783.071 38.7299 783.543 35.7729C784.006 32.8241 784.542 29.8833 785.167 26.9832C785.809 24.0831 786.499 21.1912 787.442 18.3723C788.368 15.5778 791.39 14.0668 794.184 14.9929C796.808 15.8702 798.303 18.6079 797.702 21.248Z" fill="#E6282C"/>
<path d="M827.978 69.6399C825.021 69.8999 822.048 69.908 819.075 69.8674C816.102 69.8024 813.128 69.648 810.147 69.4206C807.166 69.1931 804.184 68.9251 801.203 68.5757C798.222 68.2183 795.232 67.8283 792.235 67.2678C791.39 67.1053 790.829 66.293 790.992 65.4481C791.106 64.8389 791.56 64.384 792.113 64.2296C795.054 63.4254 797.994 62.808 800.943 62.2069C803.892 61.622 806.841 61.1102 809.79 60.6553C812.739 60.1922 815.696 59.7941 818.652 59.4936C821.609 59.2093 824.574 58.9818 827.548 59.0062C830.497 59.0306 832.861 61.4351 832.836 64.384C832.82 67.1378 830.667 69.3962 827.978 69.6399Z" fill="#E6282C"/>
<path d="M791.236 113.328C790.074 110.591 789.156 107.772 788.287 104.928C787.434 102.077 786.67 99.2013 785.972 96.2931C785.265 93.393 784.615 90.4685 784.022 87.5196C783.445 84.5708 782.893 81.6057 782.511 78.5837C782.405 77.7308 783.006 76.9428 783.859 76.8372C784.469 76.756 785.045 77.0484 785.362 77.5358C787.028 80.0866 788.53 82.6943 790.001 85.3182C791.463 87.9421 792.86 90.5903 794.201 93.263C795.549 95.9275 796.841 98.6164 798.035 101.338C799.213 104.067 800.342 106.813 801.236 109.648C802.121 112.459 800.553 115.448 797.743 116.334C795.11 117.162 792.3 115.822 791.236 113.328Z" fill="#E6282C"/>
<path d="M738.368 91.8091C740.618 89.8675 743.014 88.121 745.451 86.415C747.896 84.7253 750.407 83.1088 752.957 81.5572C755.5 79.9974 758.083 78.4702 760.707 77.0079C763.339 75.5538 765.987 74.116 768.741 72.8244C769.521 72.4588 770.455 72.7918 770.821 73.5717C771.081 74.1322 770.984 74.7659 770.626 75.2127C768.709 77.5847 766.686 79.8106 764.647 82.0202C762.6 84.2217 760.504 86.3582 758.384 88.4622C756.264 90.5662 754.103 92.6214 751.877 94.5954C749.643 96.5613 747.377 98.4785 744.956 100.193C742.551 101.899 739.22 101.33 737.523 98.9253C735.914 96.6751 736.329 93.5881 738.368 91.8091Z" fill="#E6282C"/>
<path d="M742.584 34.8873C745.126 36.4308 747.523 38.1773 749.895 39.9726C752.259 41.7842 754.558 43.6688 756.832 45.6185C759.099 47.56 761.349 49.5421 763.551 51.5893C765.744 53.6445 767.921 55.7242 770.001 57.95C770.586 58.5837 770.553 59.5666 769.928 60.1596C769.481 60.582 768.839 60.6795 768.303 60.4764C765.46 59.3879 762.714 58.145 759.984 56.8858C757.263 55.6105 754.582 54.2782 751.926 52.9053C749.269 51.5324 746.654 50.1108 744.087 48.5998C741.536 47.0807 739.009 45.5129 736.629 43.7338C734.265 41.971 733.786 38.6322 735.541 36.2683C737.198 34.0424 740.268 33.49 742.584 34.8873Z" fill="#E6282C"/>
<path d="M821.13 17.3162C819.806 19.2902 818.319 21.1505 816.792 22.9864C815.257 24.8061 813.665 26.5852 812.024 28.3317C810.383 30.0783 808.717 31.8005 807.003 33.4902C805.281 35.1717 803.535 36.8371 801.682 38.4212C801.154 38.868 800.366 38.803 799.92 38.2831C799.603 37.9094 799.538 37.3976 799.725 36.967C800.699 34.7331 801.796 32.5803 802.901 30.4438C804.022 28.3155 805.184 26.2115 806.378 24.14C807.572 22.0685 808.807 20.0213 810.107 18.0229C811.414 16.0327 812.763 14.0749 814.274 12.2309C815.769 10.4031 818.466 10.135 820.285 11.6378C821.999 13.0351 822.332 15.5046 821.13 17.3162Z" fill="#E6282C"/>
<path d="M838.669 90.1764C836.378 89.5265 834.152 88.6816 831.943 87.7962C829.733 86.8945 827.556 85.9278 825.387 84.9042C823.218 83.8806 821.065 82.8246 818.937 81.7116C816.808 80.5906 814.68 79.4452 812.609 78.1617C812.024 77.7961 811.837 77.0325 812.202 76.4395C812.462 76.017 812.934 75.8058 813.388 75.8546C815.817 76.0983 818.198 76.4719 820.578 76.87C822.95 77.2762 825.306 77.7392 827.645 78.2429C829.985 78.7384 832.308 79.2908 834.615 79.9163C836.914 80.55 839.189 81.2323 841.407 82.1016C843.6 82.9627 844.688 85.4403 843.827 87.6418C843.007 89.6889 840.757 90.7613 838.669 90.1764Z" fill="#E6282C"/>
<path d="M774.728 129.275C774.647 126.895 774.761 124.523 774.932 122.142C775.11 119.77 775.362 117.39 775.671 115.018C775.98 112.646 776.321 110.274 776.727 107.894C777.141 105.522 777.58 103.15 778.157 100.777C778.319 100.103 779.002 99.697 779.668 99.8595C780.147 99.9732 780.496 100.355 780.594 100.81C781.114 103.198 781.479 105.578 781.837 107.959C782.178 110.339 782.462 112.727 782.706 115.107C782.95 117.488 783.144 119.868 783.258 122.248C783.356 124.628 783.413 127.008 783.266 129.38C783.12 131.736 781.097 133.532 778.742 133.385C776.532 133.255 774.81 131.444 774.728 129.275Z" fill="#E6282C"/>
<path d="M717.864 80.4606C720.106 79.6483 722.397 79.0309 724.712 78.4541C727.027 77.8936 729.367 77.4062 731.722 76.9675C734.078 76.5288 736.442 76.1227 738.822 75.7815C741.211 75.4484 743.599 75.1316 746.036 74.9529C746.727 74.9041 747.328 75.424 747.377 76.1064C747.409 76.6019 747.157 77.0487 746.759 77.2762C744.647 78.5028 742.494 79.5914 740.333 80.6556C738.173 81.7117 735.995 82.719 733.802 83.6775C731.609 84.6442 729.407 85.5622 727.173 86.3989C724.939 87.2275 722.697 88.0155 720.39 88.6085C718.107 89.1934 715.776 87.8206 715.191 85.5297C714.631 83.4014 715.825 81.208 717.864 80.4606Z" fill="#E6282C"/>
<path d="M746.816 11.3373C748.278 13.2139 749.57 15.2122 750.829 17.235C752.08 19.2659 753.258 21.3374 754.403 23.4495C755.549 25.5535 756.654 27.6819 757.718 29.8427C758.774 32.0117 759.805 34.1888 760.723 36.4472C760.983 37.089 760.675 37.8201 760.033 38.08C759.578 38.2668 759.074 38.1612 758.725 37.8525C756.914 36.2197 755.216 34.5057 753.534 32.7835C751.861 31.0532 750.236 29.2822 748.644 27.495C747.052 25.7079 745.5 23.8882 744.013 22.0279C742.535 20.1595 741.097 18.2586 739.83 16.2521C738.571 14.2537 739.164 11.6216 741.154 10.3544C743.03 9.16832 745.476 9.63138 746.816 11.3373Z" fill="#E6282C"/>
<path d="M573.403 224.881H573.443L573.419 224.921L573.403 224.881Z" fill="#1D3E90"/>
<path d="M551.55 219.909C551.599 219.909 551.648 219.909 551.689 219.909V219.901C551.64 219.901 551.591 219.893 551.542 219.893L551.55 219.909Z" fill="#1D3E90"/>
<path d="M550.356 219.828C550.34 219.828 550.324 219.836 550.308 219.836C550.299 219.787 550.316 219.787 550.348 219.844L550.356 219.828Z" fill="#1D3E90"/>
<path d="M619.236 236.717V236.741L619.252 236.733L619.236 236.717Z" fill="#1D3E90"/>
<path d="M674.053 244.264L674.029 244.288L674.045 244.247L674.053 244.264Z" fill="white"/>
<path d="M591.526 224.865L591.494 224.897L591.51 224.881C591.51 224.873 591.526 224.865 591.526 224.865Z" fill="#1D3E90"/>
<path d="M680.26 226.367C680.309 226.335 680.357 226.335 680.398 226.376L680.406 226.359C680.357 226.359 680.3 226.351 680.252 226.351L680.26 226.367Z" fill="white"/>
<path d="M551.542 219.893C551.591 219.893 551.64 219.893 551.689 219.901C551.648 219.901 551.599 219.901 551.542 219.893Z" fill="#1D3E90"/>
<path d="M562.802 237.358L562.81 237.375L562.802 237.358Z" fill="#1D3E90"/>
<path d="M680.26 226.351C680.309 226.351 680.357 226.351 680.414 226.359C680.357 226.4 680.309 226.4 680.26 226.351Z" fill="white"/>
<path d="M640.438 223.744C640.544 223.768 640.682 223.776 640.731 223.849C640.836 223.987 640.885 224.174 641.121 224.174C641.267 224.199 641.405 224.255 641.527 224.328C641.649 224.402 641.754 224.507 641.827 224.629C642.225 225.051 642.485 225.571 642.583 226.124C642.688 226.457 642.77 226.798 642.827 227.139C642.843 227.448 642.883 227.765 642.948 228.065C643.022 228.723 643.103 229.389 643.16 230.047C643.2 230.462 643.208 230.884 643.225 231.307C643.225 231.38 643.225 231.445 643.225 231.518C643.371 232.566 643.306 233.614 643.379 234.662C643.387 234.832 643.387 235.011 643.379 235.182C643.338 235.49 643.33 235.807 643.338 236.124C643.371 236.433 643.55 236.725 643.452 237.042C643.655 237.521 643.517 238.009 643.533 238.504C643.533 238.78 643.558 239.056 643.598 239.333C643.671 239.926 643.688 240.519 643.704 241.12C643.745 242.338 643.769 243.565 643.818 244.792C643.785 245.109 643.858 245.425 644.045 245.693C644.078 245.693 644.118 245.677 644.135 245.661C644.273 245.377 644.403 245.092 644.533 244.8C645.052 243.638 645.524 242.46 646.084 241.323C646.555 240.381 646.864 239.398 647.319 238.431C647.879 237.253 648.399 236.051 648.944 234.865C649.358 233.971 649.748 233.053 650.211 232.184C650.723 231.217 651.186 230.218 651.795 229.292C652.42 228.293 653.135 227.35 653.931 226.465C654.265 226.181 654.606 225.913 654.963 225.661C655.264 225.401 655.516 225.092 655.8 224.816C655.865 224.775 655.93 224.751 656.003 224.727C656.369 224.548 656.702 224.32 657.002 224.06C657.173 223.898 657.376 223.768 657.603 223.687C657.831 223.605 658.074 223.573 658.318 223.589C658.505 223.605 658.692 223.581 658.854 223.508C659.22 223.329 659.594 223.508 659.959 223.435C660 223.435 660.032 223.443 660.065 223.459C660.097 223.476 660.122 223.5 660.146 223.524C660.26 223.776 660.528 223.849 660.731 223.979C661.267 224.361 661.689 224.857 661.958 225.433C662.209 225.978 662.323 226.562 662.299 227.155C662.299 227.716 662.347 228.277 662.38 228.837C662.421 229.917 662.396 231.006 662.315 232.086L662.209 233.768C662.218 233.841 662.218 233.906 662.209 233.979C661.998 234.767 661.974 235.588 661.827 236.368C661.641 237.367 661.421 238.358 661.226 239.357C661.153 239.698 661.105 240.048 661.072 240.397C660.926 242.143 660.804 243.89 660.633 245.628C660.463 247.375 660.52 249.122 660.471 250.868C660.471 251.006 660.471 251.152 660.487 251.291C660.593 252.403 660.698 253.516 660.796 254.629C660.82 254.905 660.861 255.182 660.934 255.458C661.267 256.717 661.722 257.944 662.282 259.122C662.372 259.317 662.477 259.495 662.599 259.674C662.778 259.942 662.989 260.186 663.152 260.462C663.314 260.738 663.379 260.966 663.493 261.217C663.566 261.339 663.655 261.453 663.753 261.559V261.542C663.631 261.794 663.468 262.022 663.274 262.233C663.062 262.395 662.957 262.615 662.77 262.785C662.656 262.915 662.575 263.07 662.518 263.224C661.86 263.362 661.283 263.752 660.536 263.76C660.487 263.736 660.381 263.695 660.292 263.646C660.048 263.549 659.829 263.419 659.626 263.265C659.179 262.753 658.505 262.444 658.148 261.851C658.074 261.729 657.985 261.616 657.879 261.51C657.53 261.185 657.295 260.771 657.189 260.316C656.88 259.203 656.523 258.098 656.271 256.977C656.222 256.741 656.1 256.514 656.044 256.286C655.767 254.987 655.564 253.671 655.442 252.347C655.402 251.68 655.361 251.022 655.353 250.364C655.345 249.942 655.377 249.528 655.442 249.113C655.54 248.529 655.564 247.936 655.515 247.343C655.459 246.189 655.507 245.035 655.67 243.89C655.727 243.614 655.759 243.338 655.775 243.061C655.775 242.257 656.019 241.453 655.979 240.657C655.987 240.519 656.019 240.381 656.06 240.242C656.092 240.072 656.133 239.901 656.149 239.731C656.198 239.243 656.222 238.764 656.287 238.268C656.352 237.773 656.425 237.367 656.499 236.92C656.726 235.636 656.84 234.345 656.97 233.061C657.059 232.233 657.173 231.396 657.278 230.559C657.278 230.486 657.181 230.397 657.1 230.291C656.596 230.868 656.149 231.493 655.775 232.151C655.434 232.696 655.109 233.248 654.801 233.809C654.492 234.369 654.248 234.881 653.98 235.417C653.842 235.701 653.728 236.002 653.598 236.286C653.314 236.928 653.03 237.57 652.745 238.212C652.705 238.268 652.68 238.333 652.656 238.398C652.412 239.284 651.925 240.088 651.584 240.933C651.243 241.778 650.893 242.566 650.552 243.378C650.455 243.606 650.341 243.825 650.227 244.044C650.04 244.345 649.902 244.67 649.813 245.011C649.748 245.336 649.407 245.523 649.447 245.872C649.025 246.62 648.838 247.448 648.497 248.22C648.237 248.805 648.001 249.39 647.733 249.975C647.506 250.454 647.262 250.941 646.986 251.38C646.84 251.624 646.823 251.916 646.669 252.135C646.474 252.347 646.255 252.533 646.019 252.704C645.889 252.826 645.792 252.98 645.678 253.11C645.564 253.232 645.337 253.395 645.215 253.508C644.841 253.573 644.508 253.614 644.183 253.687C643.85 253.752 643.509 253.736 643.184 253.646C643.005 253.606 642.965 253.541 642.973 253.256C642.981 252.972 642.9 252.907 642.648 252.972C642.607 252.988 642.558 253.005 642.518 253.005C642.469 253.005 642.429 252.996 642.388 252.98C642.347 252.964 642.307 252.931 642.282 252.899C642.258 252.866 642.234 252.826 642.225 252.785C642.201 252.72 642.152 252.663 642.095 252.623C642.03 252.582 641.957 252.566 641.884 252.566C641.779 252.59 641.665 252.582 641.559 252.55C641.454 252.517 641.356 252.46 641.291 252.379C641.202 252.265 641.088 252.168 640.95 252.111C640.544 251.924 640.227 251.599 640.073 251.209C639.561 250.275 639.277 249.243 639.236 248.195C639.155 246.936 639.138 245.677 638.976 244.426C638.968 244.353 638.968 244.288 638.976 244.215C639.017 243.516 639 242.818 638.944 242.119C638.911 240.965 638.895 239.812 638.854 238.658C638.814 237.326 638.716 235.994 638.732 234.67C638.732 233.866 638.602 233.061 638.61 232.257C638.635 231.981 638.562 231.697 638.415 231.453C638.115 231.867 637.912 232.338 637.822 232.826C637.408 234.109 637.002 235.368 636.539 236.628C636.125 237.749 635.792 238.902 635.41 240.039C634.955 241.412 634.5 242.777 633.964 244.126C633.371 245.531 632.859 246.953 632.428 248.407C632.258 248.943 632.152 249.495 632.112 250.056C632.055 250.47 632.095 250.892 632.233 251.299C632.323 251.494 632.339 251.713 632.274 251.916C632.25 251.981 632.242 252.054 632.25 252.119C632.363 252.761 632.047 253.273 631.779 253.809C631.673 253.988 631.527 254.15 631.356 254.288C631.267 254.377 631.161 254.451 631.031 254.491C630.909 254.532 630.771 254.54 630.641 254.524C630.398 254.483 630.146 254.597 629.894 254.451C629.715 254.345 629.553 254.524 629.358 254.556C628.911 254.207 628.407 253.931 627.855 253.752C627.676 253.476 627.587 253.159 627.603 252.834C627.636 252.347 627.652 251.867 627.684 251.372C627.709 251.047 627.757 250.73 627.774 250.429C627.79 250.153 627.855 249.877 627.961 249.617C628.099 249.292 628.147 248.943 628.261 248.602C628.489 247.936 628.521 247.221 628.878 246.587C628.911 245.84 629.301 245.182 629.488 244.475C629.683 243.801 629.918 243.134 630.194 242.485C630.796 240.933 631.226 239.333 631.714 237.757C632.006 236.847 632.266 235.937 632.607 235.043C632.924 234.223 633.192 233.378 633.403 232.533C633.606 231.753 633.858 230.982 634.151 230.226C634.305 229.796 634.451 229.357 634.581 228.918C634.939 227.781 635.475 226.701 636.165 225.701C636.222 225.612 636.328 225.523 636.32 225.441C636.311 225.32 636.344 225.198 636.401 225.084C636.458 224.97 636.547 224.881 636.661 224.816C636.742 224.751 636.848 224.662 636.864 224.572C636.913 224.247 637.181 224.109 637.441 223.979C637.692 223.849 640.365 223.727 640.438 223.744Z" fill="#1D3E90"/>
<path d="M565.377 250.844C565.304 251.039 565.515 251.274 565.182 251.396C564.922 251.485 564.889 251.778 564.743 251.973C564.483 251.851 564.207 251.754 563.923 251.68C563.809 251.656 563.801 251.567 563.89 251.437C563.931 251.38 563.996 251.331 564.012 251.266C564.02 251.234 564.02 251.201 564.012 251.177C564.004 251.144 563.988 251.12 563.963 251.096C563.882 251.022 563.784 250.966 563.671 250.941C563.557 250.917 563.443 250.925 563.338 250.966C563.24 251.014 563.151 251.071 563.061 251.136C562.907 251.226 562.858 251.217 562.72 250.998C562.663 250.909 562.631 250.795 562.493 250.811C562.355 250.827 562.192 250.811 562.103 250.957C562.07 251.006 562.014 251.079 561.957 251.079C561.924 251.071 561.892 251.063 561.867 251.047C561.843 251.031 561.819 251.006 561.802 250.974C561.672 250.714 561.648 250.429 561.729 250.153C561.81 249.958 561.835 249.739 561.81 249.536C561.762 249.138 561.404 248.748 561.713 248.325C561.762 247.911 561.786 247.489 561.851 247.074C562.135 245.417 562.582 243.784 563.191 242.192C563.655 240.909 564.264 239.649 564.719 238.358C565.425 236.887 566.018 235.376 566.49 233.833C566.668 233.297 566.944 232.801 567.074 232.249C567.204 231.697 567.44 231.112 567.619 230.535C567.797 229.958 567.96 229.463 568.106 228.926C568.244 228.39 568.374 227.83 568.52 227.294C568.732 226.514 568.951 225.734 569.211 224.962C569.252 224.84 569.39 224.743 569.479 224.637C569.869 224.637 570.17 224.361 570.535 224.312C570.624 224.28 570.714 224.263 570.811 224.272C570.909 224.272 570.998 224.296 571.079 224.337C571.331 224.491 571.624 224.58 571.924 224.58C572.265 224.613 572.42 224.84 572.582 225.084C572.533 225.303 572.672 225.376 572.85 225.458C572.891 225.49 572.932 225.523 572.956 225.571C572.98 225.612 572.997 225.661 573.005 225.718C573.062 225.994 573.062 226.27 573.005 226.546C572.875 226.92 572.94 227.326 572.769 227.667C572.672 227.895 572.607 228.13 572.582 228.374C572.436 229.129 572.282 229.885 572.095 230.64C571.908 231.396 571.689 232.135 571.477 232.891C571.071 234.312 570.535 235.693 570.015 237.066C569.901 237.359 569.836 237.667 569.731 237.968C569.365 239.032 568.984 240.088 568.529 241.128C568.326 241.615 568.155 242.119 568.009 242.623C567.952 242.931 567.83 243.232 567.668 243.5C567.578 243.654 567.529 243.825 567.521 243.996C567.489 244.272 567.44 244.548 567.359 244.816C567.091 245.693 566.88 246.579 566.725 247.481C566.636 248.106 566.457 248.715 566.319 249.325C566.262 249.495 566.222 249.666 566.197 249.836C566.197 250.064 566.124 250.283 565.978 250.462C565.815 250.657 565.604 250.787 565.377 250.844Z" fill="#1D3E90"/>
<path d="M694.175 250.925C694.11 251.128 694.346 251.355 694.013 251.485C693.761 251.591 693.753 251.883 693.615 252.086C693.347 251.981 693.062 251.9 692.778 251.843C692.664 251.826 692.656 251.737 692.729 251.599C692.762 251.534 692.827 251.485 692.843 251.42C692.851 251.388 692.843 251.355 692.835 251.331C692.827 251.307 692.811 251.274 692.786 251.25C692.705 251.177 692.599 251.128 692.486 251.112C692.372 251.095 692.258 251.112 692.153 251.16C692.063 251.217 691.974 251.274 691.885 251.347C691.73 251.445 691.69 251.436 691.543 251.233C691.478 251.144 691.438 251.038 691.308 251.063C691.178 251.087 691.015 251.079 690.926 251.233C690.902 251.282 690.837 251.355 690.788 251.363C690.755 251.363 690.723 251.347 690.69 251.331C690.658 251.315 690.642 251.29 690.617 251.266C690.471 251.014 690.422 250.73 690.487 250.454C690.552 250.25 690.569 250.039 690.528 249.828C690.455 249.43 690.073 249.073 690.349 248.626C690.374 248.203 690.374 247.781 690.406 247.367C690.585 245.693 690.934 244.036 691.438 242.419C691.82 241.095 692.34 239.82 692.713 238.504C693.331 237.001 693.818 235.458 694.184 233.882C694.37 233.354 694.533 232.817 694.663 232.273C694.752 231.688 694.955 231.12 695.093 230.535C695.232 229.958 695.361 229.438 695.475 228.886C695.589 228.333 695.67 227.781 695.784 227.228C695.946 226.44 696.117 225.652 696.304 224.864C696.328 224.743 696.466 224.637 696.547 224.523C696.937 224.491 697.214 224.198 697.579 224.133C697.669 224.101 697.758 224.076 697.855 224.076C697.953 224.076 698.042 224.093 698.132 224.133C698.392 224.271 698.692 224.344 698.985 224.336C699.326 224.336 699.505 224.572 699.675 224.799C699.643 225.019 699.781 225.092 699.968 225.157C700.016 225.181 700.057 225.222 700.081 225.262C700.114 225.303 700.13 225.352 700.138 225.401C700.203 225.669 700.219 225.945 700.187 226.221C700.081 226.603 700.187 227.001 700.024 227.358C699.951 227.594 699.902 227.829 699.886 228.073C699.789 228.837 699.683 229.6 699.545 230.364C699.35 231.436 699.407 231.095 699.074 232.639C698.757 234.076 698.318 235.49 697.88 236.903C697.79 237.204 697.742 237.521 697.652 237.821C697.36 238.902 697.043 239.974 696.653 241.038C696.474 241.534 696.361 242.054 696.223 242.566C696.182 242.874 696.084 243.183 695.93 243.459C695.849 243.614 695.808 243.792 695.816 243.963C695.8 244.239 695.768 244.515 695.703 244.791C695.5 245.677 695.345 246.579 695.24 247.488C695.191 248.13 695.053 248.739 694.947 249.357C694.898 249.527 694.866 249.698 694.858 249.877C694.882 250.104 694.817 250.324 694.687 250.519C694.598 250.713 694.411 250.852 694.175 250.925Z" fill="#1D3E90"/>
<path d="M664.565 254.386C664.484 254.312 664.386 254.264 664.273 254.256C664.005 254.207 664.005 254.199 664.11 254.02C664.265 253.76 664.265 253.76 664.045 253.606C663.956 253.541 663.858 253.484 663.769 253.427C663.769 253.289 663.745 253.151 663.712 253.021C663.623 252.826 663.615 252.607 663.672 252.403C663.769 252.103 663.672 251.762 663.867 251.477C664.11 251.079 664.33 250.665 664.557 250.251C664.711 249.966 664.825 249.666 665.004 249.39C665.922 247.96 666.58 246.416 667.319 244.889C667.815 243.89 668.253 242.875 668.846 241.924C668.952 241.778 669.033 241.615 669.082 241.445C669.155 241.136 669.301 240.844 669.512 240.584C669.919 240.023 670.162 239.381 670.544 238.805C670.772 238.447 670.828 238.009 671.032 237.627C671.113 237.464 671.161 237.302 671.251 237.131C671.706 236.278 672.112 235.409 672.461 234.515C672.859 233.597 673.176 232.655 673.558 231.737C673.777 231.331 673.98 230.909 674.143 230.478C674.289 230.08 674.468 229.69 674.679 229.316C675.101 228.407 675.67 227.562 675.946 226.603C676.287 225.937 676.677 225.279 677.092 224.653C677.376 224.272 677.652 223.89 677.945 223.492C678.213 223.37 678.513 223.329 678.806 223.386C679.277 223.411 679.74 223.394 680.203 223.337C680.455 223.402 680.715 223.402 680.967 223.337C681.072 223.297 681.186 223.281 681.308 223.289C681.422 223.297 681.535 223.329 681.633 223.386C682.047 223.557 682.413 223.817 682.697 224.15C682.981 224.483 683.168 224.873 683.249 225.287C683.477 226.416 683.794 227.537 683.826 228.699C683.875 229.292 683.964 229.885 684.078 230.47C684.159 231.022 684.24 231.575 684.314 232.135C684.387 232.696 684.468 233.248 684.541 233.801C684.557 233.866 684.573 233.939 684.582 234.012C684.582 234.995 684.842 235.937 684.882 236.936C684.923 237.18 684.931 237.424 684.931 237.667C684.833 238.407 684.98 239.138 685.012 239.869C685.077 241.152 685.175 242.46 685.207 243.752C685.207 244.572 685.085 250.007 685.093 249.975C685.069 250.08 685.11 250.836 685.093 250.941C685.045 251.128 685.061 251.234 684.752 251.266C684.712 251.266 684.435 251.591 684.411 251.591C684.2 251.615 684.07 251.331 684.07 251.591C684.07 251.656 683.729 251.526 683.729 251.591C683.729 251.656 683.42 251.632 683.387 251.591C683.152 251.388 683.274 251.697 683.046 251.591C682.819 251.672 682.705 251.916 681.99 251.266C681.763 251.234 681.527 251.234 681.3 251.266C681.162 251.291 680.959 250.519 680.959 250.299C680.959 250.194 681.048 241.908 681.048 241.753C681.048 241.68 681.048 241.615 681.048 241.542C681.048 240.178 680.959 238.813 680.788 237.456C680.739 237.131 680.731 236.814 680.699 236.514C680.585 235.433 680.406 234.361 680.146 233.297C679.967 232.582 679.878 231.851 679.74 231.128C679.74 231.095 679.683 231.055 679.667 231.055C679.594 231.063 679.529 231.079 679.464 231.112C679.439 231.136 679.415 231.16 679.399 231.193C679.366 231.258 679.334 231.323 679.309 231.388C678.863 232.59 678.416 233.784 677.961 234.987C677.912 235.117 677.847 235.247 677.79 235.376C677.53 235.929 677.222 236.465 677.01 237.026C676.799 237.586 676.556 238.074 676.352 238.61C676.06 239.381 675.605 240.08 675.321 240.86C675.215 241.16 675.061 241.453 674.858 241.713C674.492 242.2 674.216 242.745 674.029 243.321C673.729 244.085 673.387 244.84 672.997 245.572C672.819 245.929 672.632 246.27 672.486 246.636C672.404 246.831 672.291 247.018 672.193 247.204C672.047 247.456 671.909 247.708 671.787 247.968C671.495 248.732 671.023 249.43 670.723 250.202C670.569 250.568 670.365 250.909 670.13 251.234C669.553 252.111 668.96 252.972 668.367 253.849C668.245 254.028 668.091 254.191 667.985 254.377C667.75 254.751 667.384 255.035 666.954 255.182C666.677 255.287 666.426 255.312 666.239 255.068C666.149 254.962 666.011 254.881 665.865 254.857C665.402 254.751 664.971 254.597 664.565 254.386Z" fill="#1D3E90"/>
<path d="M590.6 253.37C590.511 253.24 590.397 253.126 590.259 253.045C590.007 252.964 590.129 252.883 590.259 252.72C590.446 252.485 589.739 252.647 589.569 252.46C589.496 252.387 589.414 252.314 589.325 252.241C589.341 252.103 589.341 251.965 589.325 251.835C589.268 251.632 589.292 251.412 589.382 251.217C589.52 250.933 589.496 250.6 589.707 250.332C589.999 249.975 590.275 249.601 590.552 249.227C590.747 248.967 590.893 248.691 591.112 248.447C592.217 247.164 593.094 245.734 594.037 244.353C594.662 243.443 595.247 242.501 595.97 241.648C596.092 241.518 596.197 241.364 596.262 241.201C596.384 240.909 596.571 240.641 596.807 240.413C597.278 239.918 597.619 239.325 598.058 238.805C598.326 238.48 598.456 238.057 598.708 237.708C598.813 237.562 598.886 237.383 598.992 237.253C599.561 236.481 600.089 235.677 600.56 234.849C601.08 234.004 601.526 233.118 602.046 232.273C602.323 231.9 602.574 231.518 602.802 231.12C603.005 230.746 603.232 230.389 603.492 230.056C604.029 229.227 604.711 228.471 605.133 227.562C605.564 226.952 606.035 226.359 606.539 225.807C606.88 225.482 607.197 225.141 607.546 224.783C607.822 224.702 608.123 224.71 608.391 224.808C608.846 224.897 609.301 224.946 609.764 224.962C609.991 225.06 610.251 225.1 610.503 225.076C610.609 225.051 610.722 225.051 610.836 225.076C610.95 225.1 611.047 225.149 611.137 225.214C611.518 225.441 611.827 225.758 612.047 226.124C612.266 226.489 612.388 226.904 612.396 227.326C612.445 228.48 612.575 229.625 612.42 230.779C612.38 231.372 612.371 231.965 612.396 232.558C612.396 233.118 612.379 233.679 612.371 234.239C612.363 234.8 612.347 235.36 612.331 235.921C612.339 235.994 612.339 236.059 612.331 236.132C612.168 237.099 612.282 238.09 612.168 239.056C612.168 239.3 612.144 239.544 612.103 239.788C611.949 240.511 611.868 241.234 611.843 241.973C611.705 243.256 611.6 244.54 611.429 245.831C611.348 246.636 611.185 247.424 610.925 248.195C610.893 248.293 610.836 248.39 610.795 248.488C610.714 248.667 610.527 249.503 610.211 249.487C609.878 249.609 609.528 249.723 609.179 249.812C608.488 250.137 608.358 249.95 608.147 249.812C607.936 249.674 607.676 249.845 607.457 249.812C607.319 249.812 607.189 249.788 607.067 249.731C606.945 249.674 606.847 249.593 606.766 249.487C606.612 249.52 607.603 243.419 607.619 243.256C607.619 243.183 607.644 243.118 607.652 243.045C607.863 241.697 607.985 240.34 608.033 238.975C608.033 238.65 608.082 238.333 608.098 238.033C608.163 236.952 608.147 235.864 608.058 234.784C607.993 234.052 608.017 233.313 608.001 232.582C608.001 232.55 607.96 232.501 607.936 232.501C607.871 232.501 607.798 232.517 607.733 232.533C607.7 232.533 607.676 232.582 607.66 232.606C607.619 232.663 607.579 232.72 607.546 232.785C606.929 233.906 606.311 235.019 605.694 236.14C605.629 236.262 605.548 236.384 605.466 236.506C605.125 237.009 604.752 237.497 604.467 238.025C604.175 238.553 603.858 238.991 603.59 239.487C603.184 240.202 602.648 240.836 602.258 241.55C602.111 241.835 601.916 242.095 601.681 242.322C601.25 242.761 600.901 243.264 600.649 243.801C600.243 244.507 599.788 245.198 599.301 245.856C599.081 246.181 598.846 246.498 598.643 246.823C598.529 247.001 598.407 247.18 598.269 247.343C598.09 247.562 597.92 247.797 597.765 248.041C597.359 248.748 596.799 249.373 596.392 250.088C596.181 250.421 595.937 250.73 595.661 251.014C594.971 251.794 594.264 252.566 593.557 253.338C593.411 253.5 593.492 253.492 593.354 253.663C593.07 254.02 592.119 254.248 591.981 253.988C591.908 253.849 591.437 253.728 591.291 253.663C591.015 253.573 590.682 253.484 590.6 253.37Z" fill="#1D3E90"/>
<path d="M683.452 242.403C683.339 241.851 683.233 241.29 683.135 240.73C682.567 240.795 681.998 240.835 681.438 240.957C680.877 241.079 680.244 241.047 679.651 241.12C677.945 241.363 676.23 241.493 674.508 241.501C673.054 241.656 671.592 241.656 670.138 241.802L669.529 241.867C669.561 241.973 669.594 242.078 669.618 242.192C669.821 242.704 669.886 243.256 669.821 243.8C669.854 244.369 669.845 244.946 669.797 245.515C669.764 245.791 669.707 246.067 669.634 246.335C669.821 246.294 670.008 246.254 670.187 246.189C670.357 246.116 670.544 246.091 670.731 246.108C671.064 246.14 671.405 246.116 671.73 246.043C672.291 245.969 672.843 245.88 673.404 245.864C674.598 245.823 675.784 245.709 676.978 245.571C677.319 245.531 677.644 245.466 677.977 245.433C679.545 245.303 681.113 245.181 682.664 244.938L683.972 244.735C683.794 243.947 683.615 243.175 683.452 242.403Z" fill="#1D3E90"/>
<path d="M611.193 242.314C611.193 241.745 611.177 241.185 611.177 240.616C610.609 240.575 610.032 240.559 609.455 240.575C608.846 240.608 608.261 240.478 607.668 240.462C605.946 240.437 604.232 240.299 602.526 240.039C601.063 239.966 599.626 239.739 598.163 239.657L597.554 239.625C597.554 239.731 597.578 239.844 597.578 239.95C597.684 240.486 597.652 241.038 597.489 241.558C597.424 242.127 597.31 242.688 597.164 243.248C597.083 243.516 596.985 243.776 596.864 244.036C597.05 244.028 597.245 244.012 597.432 243.979C597.611 243.93 597.806 243.93 597.985 243.979C598.31 244.06 598.651 244.093 598.984 244.069C599.544 244.085 600.113 244.085 600.665 244.15C601.86 244.296 603.046 244.369 604.24 244.418C604.581 244.418 604.93 244.418 605.247 244.442C606.815 244.556 608.383 244.678 609.959 244.678H611.283C611.242 243.89 611.21 243.102 611.193 242.314Z" fill="#1D3E90"/>
<path d="M723.258 236.66C722.917 236.237 722.843 235.693 722.567 235.238C722.332 234.799 721.982 234.426 721.552 234.15C721.422 234.085 721.3 234.003 721.186 233.906C720.748 233.524 720.236 233.224 719.683 233.012C719.139 232.696 718.522 232.501 717.888 232.444C717.076 232.297 716.255 232.2 715.435 232.159C714.614 232.135 713.794 232.265 712.973 232.159C711.852 232.249 710.747 232.468 709.683 232.801C709.155 232.988 708.619 233.159 708.075 233.297C709.204 233.938 710.577 235.734 710.967 235.75C711.308 235.823 711.649 235.872 711.998 235.904C712.754 235.791 713.526 235.791 714.273 235.904C714.988 235.921 715.695 236.018 716.385 236.189C716.605 236.237 716.824 236.278 717.043 236.302C717.636 236.416 718.172 236.7 718.587 237.115C718.684 237.22 718.749 237.35 718.765 237.488C718.782 237.627 718.741 237.765 718.668 237.886C718.538 238.098 718.367 238.284 718.156 238.431L715.004 240.616C714.891 240.705 714.769 240.787 714.631 240.86C713.981 241.128 713.453 241.583 712.811 241.883C712.177 242.184 711.657 242.525 711.056 242.826C710.528 243.094 709.976 243.313 709.44 243.549L708.522 243.947C708.351 244.02 708.18 244.085 708.002 244.15C707.62 244.288 707.23 244.418 706.856 244.564C705.971 245.003 705.004 245.287 704.005 245.409C702.315 245.514 701.844 245.319 701.917 245.547C701.974 245.718 701.275 245.904 701.145 246.099C700.926 246.327 700.764 246.603 700.674 246.904C700.552 247.391 700.674 248.041 700.455 248.187C699.854 248.585 700.479 248.431 700.341 248.829C700.114 249.503 699.919 249.333 700.276 249.966C700.341 250.088 700.276 250.242 700.138 250.397C700.561 250.502 700.991 250.535 701.422 250.502C701.649 250.502 701.869 250.559 702.112 250.535C704.216 250.315 706.271 249.771 708.18 248.926C708.765 248.699 709.342 248.447 709.903 248.171C710.106 248.073 710.325 248.016 710.528 247.927C711.235 247.602 712.007 247.415 712.64 246.944C712.762 246.863 712.892 246.798 713.038 246.757C713.469 246.627 713.859 246.4 714.159 246.091C714.273 246.002 714.411 245.937 714.549 245.896C714.687 245.839 714.89 245.848 714.964 245.75C715.272 245.425 715.752 245.368 716.109 245.108C716.466 244.848 716.946 244.645 717.368 244.418C717.498 244.345 717.62 244.272 717.742 244.19L719.943 242.728C720.065 242.647 720.236 242.606 720.309 242.501C720.65 242.029 721.211 241.769 721.576 241.323C721.747 241.095 721.95 240.884 722.169 240.697C722.567 240.372 722.835 239.934 722.933 239.446C723.071 238.934 723.177 238.423 723.323 237.919C723.436 237.497 723.404 237.066 723.258 236.66Z" fill="#1D3E90"/>
<path d="M712.583 234.848C712.681 234.288 714.882 232.436 713.648 232.249C712.616 232.095 709.781 231.753 709.334 231.648C709.082 231.583 708.847 231.477 708.643 231.323C708.522 231.242 708.432 231.12 708.392 230.99C708.351 230.86 708.351 230.714 708.408 230.584C708.619 230.064 709.001 229.609 709.505 229.3C709.7 229.194 709.886 229.081 710.065 228.959C710.634 228.561 711.251 228.22 711.901 227.951C712.551 227.61 713.266 227.358 713.997 227.229C714.184 227.196 714.362 227.139 714.533 227.066C714.915 226.928 715.321 226.847 715.735 226.83C716.369 226.774 717.003 226.749 717.636 226.717C717.823 226.709 718.01 226.709 718.197 226.717C718.31 226.725 718.432 226.709 718.538 226.66C718.644 226.611 718.741 226.546 718.806 226.457C718.895 226.351 719.237 226.132 719.269 225.969C719.326 225.644 719.09 224.97 719.147 224.645C719.204 224.328 719.204 224.32 718.985 223.906C718.83 223.614 718.757 223.394 718.644 223.451C718.522 223.378 718.384 223.321 718.237 223.289C717.791 223.272 717.336 223.289 716.889 223.337C716.223 223.427 715.548 223.475 714.882 223.484C713.761 223.557 712.648 223.752 711.576 224.068C710.853 224.45 710.041 224.621 709.293 224.93C708.546 225.263 707.831 225.636 707.141 226.067C706.572 226.343 706.085 226.741 705.711 227.229C705.28 227.627 704.931 228.081 704.679 228.593C704.614 228.723 704.533 228.837 704.444 228.951C704.159 229.357 703.989 229.828 703.948 230.315C703.875 230.835 704.037 231.363 703.883 231.875C703.924 232.289 704.078 232.696 704.322 233.045C704.663 233.467 705.012 233.549 705.353 233.971C705.695 234.393 705.727 234.613 706.263 234.759C706.596 234.889 706.921 235.043 707.23 235.23C707.847 235.547 708.522 235.758 709.212 235.856C710.13 235.986 711.056 236.018 711.982 235.945C713.729 235.839 712.461 235.539 712.583 234.848Z" fill="#1D3E90"/>
<path d="M563.817 221.046C563.882 221.128 563.971 221.193 564.085 221.217C564.337 221.298 564.337 221.306 564.215 221.469C564.036 221.713 564.036 221.713 564.215 221.891C564.296 221.964 564.378 222.029 564.459 222.103C564.443 222.241 564.443 222.379 564.459 222.509C564.516 222.712 564.499 222.931 564.418 223.126C564.28 223.419 564.329 223.752 564.11 224.02C563.825 224.385 563.557 224.767 563.289 225.141C563.102 225.401 562.948 225.685 562.753 225.937C561.672 227.245 560.836 228.683 559.918 230.08C559.308 231.006 558.748 231.956 558.049 232.826C557.927 232.956 557.83 233.11 557.765 233.272C557.651 233.573 557.473 233.841 557.237 234.068C556.774 234.572 556.457 235.173 556.027 235.701C555.758 236.026 555.645 236.457 555.401 236.806C555.304 236.952 555.23 237.131 555.125 237.269C554.572 238.057 554.069 238.869 553.614 239.706C553.11 240.567 552.68 241.453 552.184 242.314C551.916 242.688 551.672 243.086 551.453 243.484C551.258 243.857 551.022 244.223 550.763 244.564C550.243 245.409 549.577 246.173 549.178 247.091C548.756 247.708 548.293 248.309 547.806 248.878C547.481 249.203 546.555 249.804 546.278 249.731L544.905 249.771C544.564 249.771 543.987 249.649 543.874 249.682C543.76 249.714 542.468 249.203 542.46 248.878C542.436 248.236 542.095 248.236 541.932 247.472C541.859 246.327 541.697 245.181 541.818 244.02C541.851 243.427 541.851 242.834 541.818 242.233C541.818 241.672 541.818 241.112 541.818 240.551C541.818 239.991 541.818 239.43 541.818 238.869C541.81 238.796 541.81 238.731 541.818 238.658C541.957 237.692 541.818 236.7 541.908 235.734C541.908 235.49 541.924 235.246 541.965 235.003C542.103 234.28 542.168 233.549 542.176 232.817C542.29 231.534 542.363 230.242 542.517 228.959C542.574 228.155 542.72 227.358 542.964 226.587C542.996 226.489 543.053 226.392 543.086 226.294C543.159 226.116 543.216 226.091 543.533 226.091C543.573 226.091 543.606 226.107 543.646 226.107C543.857 226.107 543.922 226.034 543.955 225.782C543.947 225.717 543.947 225.652 543.955 225.587C543.979 225.506 544.182 225.393 544.215 225.433C544.418 225.669 544.735 225.482 544.954 225.612C545.173 225.742 545.393 225.661 545.612 225.693C545.929 225.782 546.254 225.831 546.579 225.847C546.717 225.847 546.904 226.018 546.888 226.229C546.888 226.335 546.839 226.424 546.936 226.514C547.034 226.603 546.392 231.298 546.376 231.453C546.376 231.526 546.351 231.591 546.351 231.664C546.173 233.021 546.075 234.377 546.059 235.742C546.059 236.067 546.027 236.384 546.018 236.684C545.978 237.765 546.018 238.853 546.132 239.934C546.213 240.665 546.205 241.404 546.238 242.135C546.238 242.151 546.246 242.168 546.262 242.184C546.27 242.2 546.286 242.208 546.303 242.216C546.368 242.216 546.433 242.2 546.498 242.184C546.53 242.168 546.554 242.143 546.571 242.111C546.611 242.054 546.652 241.989 546.684 241.924L548.464 238.536C548.529 238.415 548.602 238.285 548.683 238.171C549.008 237.659 549.373 237.172 549.65 236.635C549.926 236.099 550.235 235.669 550.494 235.157C550.876 234.434 551.404 233.792 551.778 233.061C551.916 232.777 552.111 232.509 552.339 232.281C552.761 231.834 553.102 231.323 553.354 230.778C553.744 230.064 554.174 229.365 554.654 228.699C554.873 228.374 555.1 228.057 555.287 227.708C555.393 227.521 555.523 227.35 555.629 227.18C555.807 226.952 555.97 226.717 556.116 226.473C556.506 225.75 557.05 225.116 557.44 224.401C557.643 224.06 557.879 223.743 558.147 223.459C558.837 222.663 559.52 221.883 560.21 221.095C560.348 220.933 560.527 220.77 560.649 220.616C560.925 220.275 561.315 220.047 561.762 219.958C562.046 219.885 562.29 219.893 562.452 220.161C562.525 220.283 562.647 220.372 562.794 220.413C563.159 220.592 563.5 220.803 563.817 221.046Z" fill="#1D3E90"/>
<path d="M597.489 222.761C597.554 222.85 597.749 223.354 597.863 223.402C598.098 223.459 598.31 223.565 598.488 223.727C598.57 223.8 598.651 223.865 598.74 223.938C598.724 224.077 598.724 224.215 598.74 224.345C598.805 224.548 598.789 224.767 598.708 224.962C598.578 225.246 598.618 225.579 598.415 225.856C598.131 226.221 597.871 226.611 597.603 226.985C597.424 227.245 597.262 227.537 597.067 227.781C596.011 229.097 595.182 230.551 594.28 231.956C593.687 232.891 593.135 233.841 592.444 234.718C592.323 234.848 592.225 235.003 592.16 235.165C592.046 235.466 591.868 235.734 591.64 235.969C591.185 236.481 590.868 237.082 590.446 237.618C590.178 237.943 590.072 238.374 589.837 238.731C589.739 238.878 589.674 239.056 589.569 239.194C589.024 239.982 588.529 240.803 588.082 241.648C587.587 242.509 587.172 243.402 586.685 244.272C586.417 244.653 586.181 245.043 585.962 245.458C585.775 245.831 585.556 246.197 585.304 246.538C584.792 247.391 584.134 248.163 583.752 249.081C583.338 249.706 582.891 250.307 582.404 250.884L581.429 251.94C581.153 252.03 580.86 252.03 580.584 251.94C580.129 251.867 579.666 251.827 579.211 251.827C578.976 251.737 578.724 251.705 578.472 251.737C578.366 251.77 578.253 251.77 578.139 251.745C578.025 251.721 577.928 251.68 577.838 251.615C577.456 251.396 577.132 251.087 576.904 250.73C576.677 250.364 576.538 249.958 576.514 249.536C576.425 248.39 576.254 247.245 576.368 246.083C576.392 245.49 576.384 244.889 576.335 244.296C576.335 243.736 576.311 243.175 576.311 242.614C576.303 242.054 576.311 241.493 576.287 240.933C576.287 240.86 576.262 240.795 576.287 240.722C576.425 239.755 576.287 238.764 576.352 237.789C576.344 237.545 576.36 237.302 576.4 237.058C576.53 236.335 576.587 235.604 576.587 234.865C576.685 233.581 576.742 232.281 576.872 230.99C576.953 230.194 577.123 228.098 577.164 228C577.237 227.813 577.197 227.034 577.505 227.034C577.546 227.034 577.814 226.067 577.846 226.067C578.058 226.067 578.163 226.002 578.188 225.742C578.188 225.677 578.967 225.051 579.219 225.417C579.431 225.539 579.56 225.092 580.592 225.092C580.917 225.133 581.283 225.441 581.624 225.417C581.778 225.279 582.184 224.946 581.965 227.025C581.965 227.131 580.755 233.281 580.747 233.451C580.747 233.524 580.722 233.589 580.722 233.662C580.56 235.019 580.478 236.384 580.478 237.74C580.478 238.065 580.454 238.382 580.454 238.683C580.43 239.763 580.478 240.852 580.6 241.932C580.69 242.663 580.69 243.402 580.73 244.134C580.73 244.166 580.771 244.215 580.795 244.215C580.86 244.215 580.933 244.199 580.998 244.174C581.104 244.15 581.201 244.109 581.291 244.069C581.331 244.004 581.608 243.809 581.632 243.744C582.217 242.606 582.079 242.631 582.664 241.493C582.729 241.372 583.062 240.259 583.135 240.137C583.452 239.625 583.825 239.129 584.085 238.593C584.345 238.057 584.654 237.61 584.914 237.107C585.296 236.376 585.816 235.734 586.173 235.003C586.311 234.718 586.498 234.45 586.725 234.215C587.14 233.768 587.481 233.256 587.716 232.704C588.098 231.981 588.529 231.282 588.992 230.608C589.203 230.283 589.431 229.966 589.617 229.617C589.723 229.43 589.837 229.259 589.959 229.081C590.129 228.853 590.292 228.618 590.438 228.374C590.82 227.651 591.356 227.017 591.738 226.286C591.933 225.945 592.16 225.62 592.428 225.319C593.094 224.515 593.777 223.711 594.451 222.939C594.589 222.777 594.76 222.614 594.89 222.46C595.158 222.086 594.955 222.322 595.393 222.208C595.678 222.135 595.929 221.916 596.084 222.176C596.157 222.314 596.986 222.403 597.115 222.46C597.4 222.566 597.392 222.655 597.489 222.761Z" fill="#1D3E90"/>
</svg>
