<svg width="1031" height="264" viewBox="0 0 1031 264" fill="none" xmlns="http://www.w3.org/2000/svg">
<path d="M279.1 263.66C274.9 263.66 271.3 262.26 268.4 259.36C265.5 256.46 264 252.96 264 248.76C264 244.56 265.5 241.06 268.4 238.16C271.3 235.26 274.9 233.86 279.1 233.86C283.3 233.86 286.8 235.26 289.7 238.16C292.6 241.06 294.1 244.56 294.1 248.76C294.1 252.96 292.6 256.46 289.7 259.36C286.8 262.26 283.3 263.66 279.1 263.66ZM270.5 257.36C272.9 259.76 275.7 260.96 279.1 260.96C282.5 260.96 285.4 259.76 287.7 257.36C290 254.96 291.2 252.06 291.2 248.66C291.2 245.26 290 242.36 287.7 239.96C285.4 237.56 282.5 236.36 279.1 236.36C275.7 236.36 272.8 237.56 270.5 239.96C268.1 242.36 267 245.26 267 248.66C267 252.06 268.1 254.96 270.5 257.36Z" fill="#0032A0"/>
<path d="M313.4 225.06C307.7 224.56 304.9 227.16 304.9 232.86V234.36H313.4V237.16H304.9V263.06H302V237.16H297V234.36H301.9V232.86C301.9 229.26 302.9 226.56 304.9 224.66C306.9 222.76 309.7 222.06 313.4 222.26V225.06Z" fill="#0032A0"/>
<path d="M347.8 237.16H339.3V255.86C339.3 257.46 339.6 258.66 340.2 259.46C340.8 260.16 341.7 260.56 343 260.66C344.3 260.76 345.9 260.66 347.8 260.56V263.16C343.9 263.76 341.1 263.46 339.2 262.36C337.3 261.26 336.4 259.16 336.4 255.96V237.36H330V234.56H336.3V227.36L339.2 226.46V234.46H347.7V237.16H347.8Z" fill="#0032A0"/>
<path d="M367.8 233.76C371.2 233.76 373.9 234.76 375.9 236.86C377.9 238.96 378.9 241.76 378.9 245.16V262.96H376V245.16C376 242.46 375.3 240.36 373.8 238.76C372.3 237.16 370.3 236.36 367.6 236.36C364.7 236.36 362.2 237.36 360.4 239.26C358.5 241.16 357.6 244.06 357.6 247.76V262.86H354.7V222.76H357.6V239.86C359.6 235.76 363 233.76 367.8 233.76Z" fill="#0032A0"/>
<path d="M399.9 233.76C404.1 233.76 407.5 235.26 410.1 238.26C412.7 241.26 414 244.76 414 248.86C414 249.06 414 249.26 414 249.56C414 249.86 414 250.06 414 250.26H388C388.3 253.46 389.6 256.06 391.9 258.06C394.1 260.06 396.9 261.06 400.2 261.06C402.5 261.06 404.5 260.56 406.2 259.66C407.9 258.66 409.2 257.46 410.1 255.86L412.6 257.36C411.4 259.36 409.7 260.96 407.6 262.06C405.4 263.26 402.9 263.76 400.1 263.76C395.7 263.76 392.1 262.36 389.3 259.56C386.5 256.76 385.1 253.16 385.1 248.86C385.1 244.56 386.5 241.06 389.3 238.16C392 235.16 395.5 233.76 399.9 233.76ZM399.9 236.56C396.7 236.56 393.9 237.56 391.8 239.56C389.7 241.56 388.4 244.16 388.1 247.46H411.1C410.8 244.06 409.6 241.36 407.5 239.46C405.3 237.46 402.8 236.56 399.9 236.56Z" fill="#0032A0"/>
<path d="M466.7 233.76C469.8 233.76 472.4 234.76 474.3 236.66C476.2 238.56 477.2 241.36 477.2 244.86V263.06H474.3V244.86C474.3 242.16 473.6 240.16 472.2 238.66C470.8 237.16 469 236.46 466.7 236.46C464.1 236.46 462.1 237.36 460.5 239.06C458.9 240.76 458.1 243.46 458.1 246.96V262.96H455.2V244.86C455.2 242.16 454.5 240.16 453.2 238.66C451.9 237.16 450.1 236.46 447.8 236.46C445.3 236.46 443.2 237.36 441.5 239.16C439.8 240.96 438.9 243.56 438.9 247.06V263.06H436V234.36H438.9V239.26C440.9 235.56 444 233.66 448.1 233.66C450.2 233.66 452 234.16 453.6 235.16C455.2 236.16 456.3 237.66 457 239.46C458 237.56 459.3 236.06 461 235.06C462.7 234.06 464.7 233.76 466.7 233.76Z" fill="#0032A0"/>
<path d="M498.3 263.66C494.1 263.66 490.5 262.26 487.6 259.36C484.7 256.46 483.2 252.96 483.2 248.76C483.2 244.56 484.7 241.06 487.6 238.16C490.5 235.26 494.1 233.86 498.3 233.86C502.5 233.86 506 235.26 508.9 238.16C511.8 241.06 513.3 244.56 513.3 248.76C513.3 252.96 511.8 256.46 508.9 259.36C506 262.26 502.5 263.66 498.3 263.66ZM489.7 257.36C492 259.76 494.9 260.96 498.3 260.96C501.7 260.96 504.6 259.76 506.9 257.36C509.2 254.96 510.4 252.06 510.4 248.66C510.4 245.26 509.2 242.36 506.9 239.96C504.6 237.56 501.7 236.36 498.3 236.36C494.9 236.36 492 237.56 489.7 239.96C487.3 242.36 486.2 245.26 486.2 248.66C486.2 252.06 487.3 254.96 489.7 257.36Z" fill="#0032A0"/>
<path d="M533.4 233.76C536.8 233.76 539.5 234.76 541.5 236.86C543.5 238.96 544.5 241.76 544.5 245.16V262.96H541.6V245.16C541.6 242.46 540.9 240.36 539.4 238.76C537.9 237.16 535.9 236.36 533.2 236.36C530.3 236.36 527.8 237.36 526 239.26C524.1 241.16 523.2 244.06 523.2 247.76V262.86H520.3V234.16H523.2V239.56C525.2 235.76 528.6 233.76 533.4 233.76Z" fill="#0032A0"/>
<path d="M567.2 237.16H558.7V255.86C558.7 257.46 559 258.66 559.6 259.46C560.2 260.16 561.1 260.56 562.4 260.66C563.7 260.76 565.3 260.66 567.2 260.56V263.16C563.3 263.76 560.5 263.46 558.6 262.36C556.7 261.26 555.8 259.16 555.8 255.96V237.36H549.5V234.56H555.8V227.36L558.7 226.46V234.46H567.2V237.16Z" fill="#0032A0"/>
<path d="M587.2 233.76C590.6 233.76 593.3 234.76 595.3 236.86C597.3 238.96 598.3 241.76 598.3 245.16V262.96H595.4V245.16C595.4 242.46 594.7 240.36 593.2 238.76C591.7 237.16 589.7 236.36 587 236.36C584.1 236.36 581.6 237.36 579.8 239.26C577.9 241.16 577 244.06 577 247.76V262.86H574.1V222.76H577V239.86C579 235.76 582.5 233.76 587.2 233.76Z" fill="#0032A0"/>
<path d="M69.2 174.86C69.2 197.06 53 214.26 31.3 214.26H0V135.46H31.3C53 135.46 69.2 152.66 69.2 174.86ZM54.3 174.86C54.3 160.36 44.8 150.36 31.2 150.36H15.5V199.46H31.3C44.9 199.36 54.3 189.36 54.3 174.86Z" fill="#0032A0"/>
<path d="M107.7 202.66C113.3 202.66 117.8 200.26 120.3 197.06L132 203.86C126.7 211.56 118.3 215.86 107.5 215.86C88.6 215.86 76.7 202.96 76.7 186.16C76.7 169.36 88.7 156.46 106.4 156.46C123.1 156.46 134.9 169.66 134.9 186.16C134.9 188.26 134.7 190.26 134.3 192.16H91.8C93.8 199.46 100 202.66 107.7 202.66ZM120.3 180.76C118.5 172.66 112.4 169.36 106.3 169.36C98.5 169.36 93.2 173.56 91.6 180.76H120.3Z" fill="#0032A0"/>
<path d="M185.1 197.76C185.1 209.96 174.5 215.76 162.5 215.76C151.2 215.76 142.9 211.06 138.9 202.36L151.5 195.26C153.1 199.86 156.9 202.56 162.5 202.56C167.1 202.56 170.3 200.96 170.3 197.76C170.3 189.56 141.3 194.06 141.3 174.26C141.3 162.76 151.1 156.36 162.7 156.36C171.8 156.36 179.7 160.56 184.1 168.26L171.7 175.06C170 171.46 166.9 169.36 162.7 169.36C159.1 169.36 156.2 170.96 156.2 173.96C156.1 182.26 185.1 177.06 185.1 197.76Z" fill="#0032A0"/>
<path d="M212.2 171.86V195.26C212.2 201.36 216.6 201.46 224.9 200.96V214.16C204.5 216.46 197.7 210.46 197.7 195.26V171.86H187.9V157.86H197.7V146.46L212.2 142.06V157.86H224.9V171.86H212.2Z" fill="#0032A0"/>
<path d="M233.5 142.26C233.5 137.46 237.6 133.26 242.4 133.26C247.4 133.26 251.4 137.46 251.4 142.26C251.4 147.06 247.3 151.16 242.4 151.16C237.5 151.16 233.5 147.16 233.5 142.26ZM235.2 157.96H249.7V214.26H235.2V157.96Z" fill="#0032A0"/>
<path d="M315.5 179.66V214.16H301V181.46C301 173.76 296.4 169.86 289.9 169.86C282.8 169.86 277.5 174.06 277.5 183.86V214.26H263V157.96H277.5V164.26C280.9 159.16 286.7 156.36 294.3 156.36C306.2 156.36 315.5 164.66 315.5 179.66Z" fill="#0032A0"/>
<path d="M385.2 157.96V214.26H370.7V207.66C366.6 212.76 360.6 215.86 352.4 215.86C337.4 215.86 325.1 202.96 325.1 186.16C325.1 169.36 337.5 156.46 352.4 156.46C360.6 156.46 366.7 159.66 370.7 164.66V158.06H385.2V157.96ZM370.7 186.06C370.7 176.56 364.1 170.16 355.1 170.16C346.2 170.16 339.6 176.56 339.6 186.06C339.6 195.56 346.2 201.96 355.1 201.96C364 201.96 370.7 195.56 370.7 186.06Z" fill="#0032A0"/>
<path d="M417.8 171.86V195.26C417.8 201.36 422.2 201.46 430.5 200.96V214.16C410.1 216.46 403.3 210.46 403.3 195.26V171.86H393.5V157.86H403.3V146.46L417.8 142.06V157.86H430.5V171.86H417.8Z" fill="#0032A0"/>
<path d="M549.8 181.06C535.4 179.86 521 178.66 506.4 177.46C509.1 173.36 511.7 169.36 514.3 165.36C514.2 165.26 514.1 165.26 514.1 165.16C510.2 167.76 506.2 170.36 502.1 173.06C500.9 158.46 499.7 144.06 498.4 129.76C498.3 129.76 498.2 129.76 498.1 129.76C496.9 144.16 495.7 158.46 494.4 173.06C490.2 170.36 486.3 167.76 482.3 165.16C482.2 165.26 482.2 165.26 482.1 165.36C484.7 169.36 487.3 173.26 490 177.36C475.4 178.56 460.9 179.76 446.5 181.06C446.5 181.16 446.5 181.26 446.5 181.36C460.9 182.56 475.3 183.76 490 185.06C487.3 189.16 484.7 193.16 482.1 197.16C482.2 197.26 482.3 197.26 482.3 197.36C486.3 194.76 490.2 192.16 494.3 189.46C495.5 204.06 496.7 218.46 498 232.76C498.1 232.76 498.2 232.76 498.3 232.76C499.5 218.36 500.7 204.06 501.9 189.46C506.1 192.16 510 194.76 513.9 197.36L514.1 197.16C511.5 193.26 508.9 189.26 506.2 185.16C520.8 183.96 535.2 182.76 549.6 181.56V181.06H549.8ZM498.2 186.16C495.4 186.16 493.2 183.96 493.2 181.16C493.2 178.36 495.4 176.16 498.2 176.16C501 176.16 503.2 178.36 503.2 181.16C503.3 183.96 501.1 186.16 498.2 186.16Z" fill="#0032A0"/>
<path d="M494 211.26C481.2 209.96 469.5 198.56 468.2 185.46C469.3 185.56 470.2 185.66 471.2 185.66C472 185.66 472.3 185.96 472.4 186.76C473.7 192.96 476.9 197.96 481.8 201.86C485 204.46 488.6 206.16 492.7 206.96C493.4 207.16 493.8 207.36 493.8 208.16C493.8 209.26 493.9 210.26 494 211.26Z" fill="white"/>
<path d="M494 151.06C493.9 152.26 493.9 153.46 493.7 154.46C493.6 154.76 493.1 155.16 492.7 155.26C487.7 156.36 483.3 158.76 479.7 162.36C476 166.06 473.6 170.36 472.5 175.46C472.3 176.36 471.9 176.66 471 176.66C470.1 176.66 469.3 176.76 468.4 176.86C468.4 176.86 468.3 176.86 468.3 176.76C469.4 164.36 480.6 152.56 494 151.06Z" fill="white"/>
<path d="M528.4 176.86C527.2 176.76 525.9 176.66 524.7 176.46C524.5 176.46 524.2 175.86 524.1 175.56C523 170.36 520.5 165.86 516.7 162.16C513.1 158.66 508.9 156.26 503.9 155.26C503 155.06 502.6 154.66 502.7 153.76C502.7 152.86 502.6 151.96 502.5 150.96C514.9 152.26 526.9 163.26 528.4 176.86Z" fill="white"/>
<path d="M528.5 185.46C527.7 191.36 525.4 196.46 521.6 200.96C516.6 206.76 510.3 210.26 502.6 211.46C502.7 210.16 502.7 208.96 502.9 207.86C503 207.56 503.5 207.16 503.9 207.06C509 205.96 513.4 203.46 517.1 199.76C520.8 196.06 523.1 191.66 524.2 186.56C524.3 185.86 524.6 185.66 525.3 185.56C526.3 185.66 527.3 185.56 528.5 185.46Z" fill="white"/>
<path d="M501.9 181.16C501.9 183.06 500.3 184.76 498.4 184.76C496.5 184.76 494.8 183.16 494.8 181.26C494.8 180.76 494.9 180.26 495.1 179.86C495.2 179.66 495.3 179.46 495.4 179.26C496 178.36 497.1 177.66 498.3 177.66C499.3 177.66 500.2 178.06 500.8 178.66C500.9 178.76 501 178.86 501 178.86C501.5 179.46 501.8 180.26 501.9 181.16Z" fill="white"/>
<path d="M572.7 156.36C565.2 156.36 559.3 159.16 555.9 164.26V157.96H541.4V178.86C544.2 179.06 547 179.36 549.8 179.56C550.6 179.66 551.2 180.26 551.2 181.06V181.36C551.2 182.16 550.6 182.76 549.8 182.86L541.4 183.56V214.26H556V183.86C556 174.06 561.3 169.86 568.4 169.86C574.9 169.86 579.5 173.76 579.5 181.46V214.16H594V179.66C594 164.66 584.7 156.36 572.7 156.36Z" fill="#0032A0"/>
<path d="M448 151.16C453 151.16 457 147.06 457 142.26C457 137.46 452.9 133.26 448 133.26C443.2 133.26 439.1 137.46 439.1 142.26C439.1 147.06 443.1 151.16 448 151.16Z" fill="#0032A0"/>
<path d="M448.7 182.96L446.5 182.76C445.7 182.66 445.1 182.06 445.1 181.26C445.1 181.16 445.1 181.06 445.1 180.96C445.1 180.16 445.7 179.56 446.5 179.46C446.5 179.46 450.1 179.16 455.2 178.76V157.86H440.7V214.16H455.2V183.46C453.1 183.36 450.9 183.16 448.7 182.96Z" fill="#0032A0"/>
<rect x="622.3" y="133.76" width="8.75916" height="130" fill="#0032A0"/>
<path d="M692.228 154.234C689.537 145.262 681.088 140.469 681.088 140.469C676.009 137.263 660.681 134.318 657.655 141.941C656.535 144.444 656.551 158.299 655.921 176.261C655.619 183.761 655.3 190.991 655.218 198.434C655.169 202.352 654.907 205.771 655.185 208.134C655.226 208.756 655.357 209.353 655.586 209.901C655.651 210.073 655.733 210.236 655.815 210.384C655.823 210.4 655.831 210.408 655.84 210.424C655.84 210.424 655.84 210.424 655.84 210.433C656.772 212.142 658.588 213.303 660.665 213.303C663.7 213.303 666.161 210.842 666.161 207.807V207.799C666.284 205.967 666.08 203.055 666.08 197.861C666.08 196.986 666.153 186.754 666.153 186.754C681.546 187.065 697.782 172.711 692.228 154.234ZM666.088 143.872C673.245 143.994 683.632 148.501 686.069 157.98C689.357 170.797 677.653 181.683 666.088 181.765C666.153 181.691 666.088 143.872 666.088 143.872ZM785.306 208.584C785.306 208.601 785.289 208.625 785.281 208.641C784.995 210.539 783.375 212.003 781.404 212.003C779.842 212.003 778.501 211.087 777.863 209.762C777.854 209.746 777.838 209.737 777.83 209.721C777.814 209.688 777.797 209.647 777.781 209.607C777.773 209.59 777.773 209.582 777.764 209.574C776.071 205.591 759.206 163.649 759.378 161.309C758.756 169.824 757.251 200.315 757.194 208.306C757.194 208.74 757.17 209.116 757.137 209.459C757.137 209.508 757.153 209.549 757.153 209.598C757.153 210.146 757.014 210.653 756.793 211.12C756.638 211.512 756.442 211.799 756.213 211.97C755.575 212.666 754.667 213.099 753.653 213.099C751.722 213.099 750.152 211.529 750.152 209.598C750.152 209.517 750.168 209.443 750.177 209.369C750.16 209.157 750.152 208.936 750.16 208.674C750.463 193.707 751.763 156.467 752.091 148.534C752.091 148.534 752.123 147.708 752.377 146.734C752.786 144.338 754.863 142.514 757.374 142.514C758.928 142.514 760.302 143.225 761.235 144.321C761.349 144.42 761.447 144.534 761.521 144.649C761.537 144.681 761.554 144.69 761.57 144.722C761.586 144.755 761.611 144.779 761.627 144.812C762.282 145.826 762.003 145.336 762.576 146.383C763.999 148.264 779.907 180.857 779.588 183.229C781.298 170.388 783.833 142.383 784.39 139.872C784.406 139.807 784.43 139.741 784.447 139.676C784.717 138.326 785.911 137.304 787.342 137.304C788.97 137.304 790.295 138.629 790.295 140.256C790.278 141.492 786.091 200.773 785.306 208.584ZM956.231 207.922C956.231 203.832 957.515 164.319 956.46 148.804C956.256 145.835 954.105 141.189 949.115 139.406C944.29 137.68 939.767 138.187 935.268 139.864C924.251 144.027 921.912 159.003 920.914 170.56C920.767 171.787 920.546 173.848 920.546 173.848C920.546 173.848 915.532 174.028 914.665 174.044C914.624 174.044 914.575 174.044 914.559 174.044C914.526 174.044 914.502 174.06 914.477 174.06C912.874 174.159 911.598 175.484 911.598 177.119C911.598 178.821 912.972 180.195 914.673 180.195C914.682 180.195 914.69 180.195 914.698 180.195C914.706 180.195 914.706 180.195 914.714 180.195C915.598 180.195 919.753 180.162 919.753 180.162C919.753 180.162 918.231 199.08 918.231 201.657C918.231 201.665 918.231 201.673 918.239 201.681C918.239 201.697 918.231 201.706 918.231 201.722C918.231 204.372 920.382 206.523 923.032 206.523C925.527 206.523 927.555 204.609 927.793 202.18C927.801 202.131 927.825 202.082 927.825 202.033C927.981 200.168 929.584 179.72 929.584 179.72C929.584 179.72 941.46 179.148 945.942 179.009L945.378 207.889C945.378 207.905 945.378 207.922 945.378 207.938C945.378 207.946 945.378 207.954 945.378 207.963V208.02C945.418 210.989 947.831 213.377 950.808 213.377C953.557 213.377 955.814 211.341 956.182 208.69C956.19 208.658 956.19 208.625 956.198 208.592C956.215 208.363 956.231 208.143 956.231 207.922ZM930.009 173.84C930.009 173.84 930.737 158.291 932.397 153.564C932.356 153.4 936.446 141.541 943.791 144.739C947.128 146.194 947.005 150.047 947.005 150.047C946.858 156.336 946.424 173.766 946.424 173.766L930.009 173.84ZM706.394 151.176C703.507 157.203 701.552 171.901 701.552 171.901C701.552 171.901 699.581 171.999 698.632 172.024C696.808 172.024 695.328 173.504 695.328 175.328C695.328 176.98 696.547 178.338 698.125 178.583C698.73 178.706 699.475 178.723 700.391 178.6C699.777 185.781 698.649 194.295 698.035 201.436C697.749 204.715 697.414 207.006 697.446 208.658C697.446 208.723 697.43 208.78 697.43 208.846C697.43 209.222 697.495 209.59 697.585 209.942C697.684 210.408 697.847 210.809 698.101 211.152C698.878 212.404 700.252 213.246 701.83 213.246C703.442 213.246 704.832 212.371 705.601 211.079C705.707 210.923 705.797 210.752 705.879 210.563C705.969 210.351 706.051 210.114 706.1 209.86C706.124 209.754 706.141 209.639 706.157 209.525C706.967 204.184 708.521 177.774 708.521 177.774L727.48 176.678C727.48 176.678 726.531 193.657 726.294 201.746C726.294 201.746 726.294 201.747 726.294 201.755C726.286 201.845 726.269 201.935 726.269 202.033C726.269 202.63 726.392 203.194 726.564 203.726C726.572 203.75 726.58 203.775 726.588 203.799C727.324 205.926 729.32 207.455 731.692 207.455C734.645 207.455 737.033 205.092 737.106 202.164C737.564 201.558 739.086 157.375 738.17 151.265C735.937 136.363 715.53 132.102 706.394 151.176ZM708.905 171.623C709.412 161.432 712.398 154.022 714.172 150.816C715.792 147.888 717.117 146.186 719.644 145.148C722.45 144.002 728.298 144.125 728.559 149.384C728.682 151.92 728.257 162.005 727.766 170.364C721.648 170.756 708.905 171.623 708.905 171.623ZM905.333 206.245C905.325 206.286 905.325 206.335 905.317 206.376C905.317 206.4 905.308 206.433 905.308 206.466C905.308 206.474 905.3 206.482 905.3 206.499C904.924 209.296 902.536 211.463 899.632 211.463C896.475 211.463 893.915 208.903 893.915 205.746C893.915 205.443 893.948 205.149 893.989 204.863C893.989 204.855 893.989 204.846 893.989 204.838C895.338 192.095 900.638 147.519 896.9 147.675C894.651 147.765 887.535 172.58 877.696 197.788C876.96 200.135 874.768 201.845 872.175 201.845C869.558 201.845 867.341 200.103 866.638 197.714C866.572 197.551 866.515 197.379 866.466 197.174C866.016 195.13 859.187 154.725 857.895 153.171C857.248 152.386 856.651 153.081 856.545 153.629C855.76 158.103 854.369 200.7 854.263 205.092C854.263 205.108 854.271 205.124 854.271 205.141C854.271 205.165 854.263 205.19 854.263 205.223C854.263 205.329 854.263 205.403 854.263 205.435C854.263 205.468 854.238 205.492 854.238 205.525C854.042 207.464 852.431 208.985 850.435 208.985C848.317 208.985 846.599 207.267 846.599 205.149C846.599 205.141 846.599 205.124 846.599 205.116C846.599 205.108 846.599 205.1 846.599 205.092C846.689 199.98 848.709 151.519 849.143 148.207C849.617 144.583 854.934 143.046 859.759 144.583C860.046 144.665 860.324 144.763 860.602 144.869C860.618 144.878 860.626 144.878 860.643 144.886C861.796 145.344 862.859 145.99 863.792 146.783C863.824 146.808 863.857 146.832 863.89 146.857C863.955 146.914 864.004 146.971 864.07 147.029C864.217 147.168 864.364 147.307 864.511 147.454C865.795 148.738 866.491 149.998 866.9 151.077C867.145 151.683 867.341 152.321 867.48 152.975C868.486 156.549 873.901 181.201 875.283 187.842C878.743 179.696 879.463 176.997 884.313 163.55C889.032 150.456 891.494 144.043 893.784 141.148C894.013 140.837 894.275 140.551 894.561 140.297C895.461 139.455 896.369 139.095 897.416 139.038C897.718 139.005 898.021 138.989 898.34 139.005C898.692 139.03 899.027 139.087 899.346 139.177C900.622 139.398 902.127 139.807 903.983 140.207C904.18 140.248 904.368 140.306 904.564 140.363C906.511 140.747 908.065 142.146 908.695 143.953C908.874 144.428 908.981 144.935 908.989 145.475C908.989 145.507 908.989 145.532 908.989 145.565C908.989 145.581 908.989 145.597 908.989 145.622C908.932 149.155 908.932 155.118 908.874 158.684C908.408 170.151 906.462 194.639 905.333 206.245ZM836.171 150.235C834.633 143.029 827.804 138.457 820.394 138.948C805.77 139.929 802.833 159.33 800.919 175.042C800.919 175.042 797.795 175.001 796.65 174.993H796.642H796.634C796.617 174.993 796.601 174.993 796.593 174.993C796.584 174.993 796.576 175.001 796.568 175.001C794.679 175.042 793.157 176.58 793.157 178.485C793.157 180.383 794.679 181.929 796.568 181.97C796.584 181.97 796.601 181.978 796.617 181.978C796.625 181.978 796.634 181.978 796.642 181.978C796.642 181.978 796.642 181.978 796.65 181.978H796.658C797.272 181.97 800.281 181.781 800.281 181.781C799.635 188.873 797.705 202.155 797.345 206.58C797.271 206.899 797.231 207.235 797.231 207.57C797.231 210.114 799.292 212.183 801.844 212.183C803.61 212.183 805.132 211.177 805.9 209.713C806.211 209.214 806.424 208.65 806.489 208.02C807.07 202.254 808.869 181.103 808.869 181.103L824.769 180.767C824.745 188.267 824.123 203.595 824.123 205.746C824.123 205.803 824.148 205.852 824.156 205.91C824.295 208.511 826.438 210.588 829.072 210.588C831.411 210.588 833.366 208.952 833.873 206.768C833.889 206.703 833.93 206.646 833.938 206.58C834.29 204.356 837.807 157.923 836.171 150.235ZM824.908 175.058L809.393 174.96C809.393 174.96 810.84 145.311 819.731 145.074C822.504 145 825.506 146.898 825.506 150.219C825.506 159.06 824.908 175.058 824.908 175.058Z" fill="#1D3E90"/>
<path d="M957.998 4.72162C959.012 8.22224 959.732 11.7883 960.378 15.3789C961.008 18.9695 961.523 22.5928 961.948 26.2243C962.382 29.864 962.766 33.5118 963.052 37.1842C963.33 40.8566 963.568 44.5454 963.6 48.275C963.609 49.3301 962.758 50.1971 961.703 50.2053C960.95 50.2134 960.288 49.7799 959.969 49.142C958.309 45.7967 956.861 42.4024 955.446 39C954.047 35.5893 952.73 32.1623 951.479 28.7189C950.219 25.2755 949.042 21.8158 947.978 18.3315C946.94 14.8391 945.958 11.3303 945.288 7.74786C944.617 4.19815 946.956 0.779312 950.506 0.108631C953.835 -0.504797 957.057 1.53997 957.998 4.72162Z" fill="#E6282C"/>
<path d="M1022.39 39.8751C1019.37 41.9198 1016.2 43.6947 1012.99 45.4205C1009.76 47.1217 1006.47 48.7248 1003.15 50.2543C999.817 51.7919 996.464 53.2723 993.053 54.6791C989.642 56.0696 986.207 57.4355 982.666 58.6133C981.66 58.9486 980.58 58.4006 980.245 57.4028C980.008 56.683 980.22 55.9224 980.727 55.4316C983.402 52.8225 986.183 50.4015 988.988 48.005C991.802 45.6249 994.656 43.3185 997.543 41.0692C1000.43 38.8118 1003.36 36.628 1006.35 34.5424C1009.35 32.4731 1012.4 30.4692 1015.59 28.7271C1018.77 27.0013 1022.73 28.1709 1024.47 31.3362C1026.09 34.3052 1025.13 38.0021 1022.39 39.8751Z" fill="#E6282C"/>
<path d="M1008.76 111.957C1005.89 109.716 1003.22 107.238 1000.59 104.71C997.985 102.167 995.45 99.5331 992.971 96.834C990.485 94.1431 988.048 91.4031 985.659 88.5896C983.287 85.7678 980.932 82.9297 978.723 79.9198C978.094 79.0691 978.282 77.8668 979.132 77.2452C979.746 76.7954 980.531 76.7627 981.161 77.098C984.465 78.8401 987.622 80.7458 990.763 82.6761C993.896 84.6227 996.963 86.6266 999.997 88.6877C1003.03 90.7406 1006.01 92.859 1008.91 95.0674C1011.8 97.2921 1014.65 99.5658 1017.29 102.069C1019.9 104.555 1020.01 108.694 1017.53 111.311C1015.19 113.765 1011.37 113.994 1008.76 111.957Z" fill="#E6282C"/>
<path d="M935.972 121.15C937.223 117.731 938.761 114.427 940.356 111.147C941.975 107.876 943.701 104.661 945.5 101.472C947.3 98.2817 949.156 95.1164 951.095 91.9838C953.049 88.8595 955.029 85.7432 957.212 82.717C957.834 81.8582 959.028 81.6619 959.887 82.2835C960.5 82.7252 960.77 83.4695 960.656 84.1647C960.018 87.8453 959.176 91.4359 958.3 95.0183C957.417 98.5925 956.444 102.134 955.421 105.651C954.399 109.168 953.303 112.66 952.101 116.096C950.874 119.531 949.59 122.933 948.011 126.221C946.449 129.477 942.548 130.851 939.292 129.297C936.233 127.833 934.843 124.275 935.972 121.15Z" fill="#E6282C"/>
<path d="M904.834 54.7283C908.474 54.8673 912.089 55.309 915.696 55.8243C919.303 56.3559 922.902 57.0102 926.492 57.7463C930.083 58.4743 933.665 59.2676 937.239 60.151C940.814 61.0507 944.388 61.9749 947.938 63.12C948.944 63.4471 949.5 64.5268 949.173 65.5328C948.944 66.2525 948.322 66.7433 947.619 66.8414C943.922 67.3649 940.241 67.6675 936.569 67.9456C932.896 68.1992 929.224 68.3709 925.568 68.4772C921.904 68.5917 918.248 68.6163 914.608 68.5263C910.968 68.4118 907.329 68.24 903.714 67.7493C900.131 67.2667 897.628 63.9788 898.103 60.3964C898.561 57.0266 901.513 54.6138 904.834 54.7283Z" fill="#E6282C"/>
<path d="M983.934 21.3986C983.271 24.3185 982.355 27.1648 981.39 29.9947C980.408 32.8247 979.337 35.6301 978.192 38.411C977.055 41.2 975.869 43.9645 974.609 46.7209C973.342 49.469 972.049 52.209 970.577 54.8999C970.16 55.6606 969.203 55.9468 968.442 55.5297C967.894 55.2353 967.6 54.6546 967.624 54.0738C967.764 51.0067 968.083 47.9968 968.426 44.9869C968.778 41.9852 969.203 38.9999 969.677 36.0227C970.144 33.0537 970.683 30.0929 971.313 27.173C971.959 24.2531 972.655 21.3413 973.603 18.5032C974.536 15.6896 977.578 14.1683 980.392 15.1007C983.034 15.984 984.531 18.7404 983.934 21.3986Z" fill="#E6282C"/>
<path d="M1014.41 70.1211C1011.43 70.3829 1008.44 70.391 1005.44 70.3501C1002.45 70.2847 999.457 70.1293 996.456 69.9003C993.454 69.6713 990.452 69.4014 987.451 69.0497C984.449 68.6898 981.439 68.2972 978.421 67.7329C977.57 67.5693 977.006 66.7514 977.169 65.8926C977.284 65.2791 977.742 64.8211 978.298 64.6657C981.259 63.856 984.22 63.2344 987.189 62.6291C990.158 62.0402 993.127 61.525 996.096 61.0669C999.065 60.6007 1002.04 60.2 1005.02 59.8973C1008 59.6111 1010.98 59.3821 1013.98 59.4066C1016.94 59.4311 1019.32 61.8521 1019.3 64.8211C1019.28 67.602 1017.12 69.8758 1014.41 70.1211Z" fill="#E6282C"/>
<path d="M977.423 114.108C976.253 111.352 975.329 108.514 974.454 105.651C973.595 102.78 972.826 99.8847 972.123 96.9566C971.411 94.0367 970.757 91.0922 970.16 88.1233C969.579 85.1543 969.023 82.1689 968.639 79.1263C968.532 78.2675 969.138 77.4742 969.996 77.3678C970.61 77.286 971.191 77.5805 971.51 78.0712C973.186 80.6394 974.699 83.2649 976.18 85.9067C977.652 88.5486 979.059 91.2149 980.408 93.9058C981.766 96.5886 983.067 99.2958 984.269 102.036C985.455 104.784 986.592 107.548 987.491 110.403C988.383 113.233 986.804 116.243 983.974 117.134C981.324 117.969 978.494 116.611 977.423 114.108Z" fill="#E6282C"/>
<path d="M924.194 92.4417C926.459 90.4869 928.872 88.7284 931.326 87.0108C933.788 85.3096 936.315 83.682 938.883 82.1198C941.443 80.5494 944.044 79.0117 946.686 77.5395C949.336 76.0755 952.003 74.6278 954.775 73.3273C955.56 72.9593 956.501 73.2946 956.869 74.0798C957.131 74.6441 957.033 75.2821 956.673 75.732C954.743 78.1202 952.706 80.3613 950.653 82.586C948.592 84.8025 946.482 86.9536 944.347 89.072C942.212 91.1903 940.037 93.2596 937.796 95.2471C935.546 97.2265 933.264 99.1567 930.827 100.883C928.406 102.6 925.053 102.028 923.343 99.6066C921.716 97.341 922.141 94.2329 924.194 92.4417Z" fill="#E6282C"/>
<path d="M928.439 35.1313C930.999 36.6853 933.412 38.4438 935.8 40.2514C938.18 42.0753 940.495 43.9728 942.785 45.9358C945.067 47.8906 947.332 49.8863 949.549 51.9474C951.757 54.0167 953.949 56.1105 956.043 58.3516C956.632 58.9895 956.599 59.9792 955.969 60.5763C955.519 61.0016 954.873 61.0997 954.333 60.8953C951.471 59.7993 948.706 58.5479 945.958 57.2801C943.218 55.996 940.519 54.6546 937.845 53.2724C935.17 51.8901 932.536 50.4588 929.952 48.9375C927.384 47.408 924.84 45.8295 922.443 44.0383C920.063 42.2634 919.581 38.9018 921.347 36.5217C923.016 34.2807 926.1 33.7245 928.439 35.1313Z" fill="#E6282C"/>
<path d="M1007.51 17.432C1006.18 19.4195 1004.68 21.2925 1003.15 23.1409C1001.6 24.973 999.997 26.7642 998.345 28.5227C996.693 30.2812 995.016 32.0152 993.29 33.7164C991.556 35.4095 989.798 37.0862 987.933 38.6811C987.401 39.131 986.608 39.0655 986.158 38.5421C985.839 38.1658 985.774 37.6506 985.962 37.2171C986.943 34.9678 988.048 32.8004 989.16 30.6493C990.289 28.5064 991.458 26.388 992.661 24.3024C993.863 22.2167 995.106 20.1556 996.415 18.1435C997.732 16.1397 999.089 14.1685 1000.61 12.3119C1002.12 10.4716 1004.83 10.2017 1006.66 11.7148C1008.4 13.1298 1008.72 15.6162 1007.51 17.432Z" fill="#E6282C"/>
<path d="M1025.17 90.7979C1022.87 90.1436 1020.62 89.293 1018.4 88.4015C1016.18 87.4936 1013.98 86.5203 1011.8 85.4897C1009.62 84.4592 1007.45 83.3959 1005.31 82.2754C1003.16 81.1467 1001.02 79.9934 998.934 78.7011C998.345 78.3331 998.157 77.5642 998.525 76.9672C998.787 76.5419 999.261 76.3292 999.719 76.3783C1002.16 76.6237 1004.56 76.9999 1006.96 77.4007C1009.35 77.8096 1011.72 78.2758 1014.07 78.7829C1016.43 79.2818 1018.77 79.838 1021.09 80.4678C1023.41 81.1058 1025.7 81.7928 1027.93 82.668C1030.14 83.5349 1031.23 86.0296 1030.37 88.2461C1029.55 90.3072 1027.27 91.3868 1025.17 90.7979Z" fill="#E6282C"/>
<path d="M960.803 130.164C960.721 127.767 960.836 125.379 961.008 122.982C961.188 120.594 961.441 118.198 961.752 115.809C962.063 113.421 962.406 111.025 962.815 108.636C963.232 106.248 963.674 103.86 964.255 101.471C964.418 100.793 965.105 100.384 965.776 100.547C966.259 100.662 966.61 101.046 966.708 101.504C967.232 103.909 967.6 106.305 967.96 108.702C968.303 111.098 968.59 113.503 968.835 115.899C969.08 118.296 969.277 120.692 969.391 123.089C969.489 125.485 969.547 127.882 969.399 130.27C969.252 132.642 967.216 134.449 964.844 134.302C962.611 134.171 960.885 132.347 960.803 130.164Z" fill="#E6282C"/>
<path d="M903.55 81.0159C905.807 80.198 908.114 79.5763 910.445 78.9956C912.776 78.4313 915.131 77.9406 917.503 77.4989C919.875 77.0572 922.255 76.6564 924.652 76.3047C927.056 75.9694 929.461 75.6504 931.915 75.4705C932.61 75.4214 933.215 75.9449 933.264 76.6319C933.297 77.1308 933.044 77.5807 932.643 77.8097C930.516 79.0447 928.349 80.1407 926.173 81.2122C923.997 82.2754 921.805 83.2896 919.597 84.2548C917.389 85.2281 915.172 86.1523 912.923 86.9947C910.674 87.829 908.416 88.6224 906.094 89.2194C903.795 89.8083 901.448 88.4261 900.859 86.1196C900.286 83.9767 901.497 81.7683 903.55 81.0159Z" fill="#E6282C"/>
<path d="M932.7 11.4202C934.172 13.3096 935.473 15.3216 936.74 17.3582C938 19.403 939.186 21.4886 940.339 23.6152C941.492 25.7336 942.605 27.8765 943.676 30.0521C944.74 32.2359 945.778 34.4279 946.702 36.7017C946.964 37.3478 946.653 38.0839 946.007 38.3456C945.549 38.5338 945.042 38.4274 944.69 38.1166C942.867 36.4726 941.157 34.7469 939.464 33.0129C937.779 31.2708 936.143 29.4877 934.54 27.6883C932.937 25.889 931.375 24.0569 929.878 22.1839C928.39 20.3027 926.942 18.3888 925.666 16.3686C924.398 14.3565 924.995 11.7065 926.999 10.4306C928.88 9.22826 931.35 9.70264 932.7 11.4202Z" fill="#E6282C"/>
<path d="M849.814 225.179C849.904 225.204 850.026 225.212 850.075 225.278C850.173 225.408 850.214 225.572 850.427 225.597C850.713 225.621 850.885 225.817 851.065 226.038C851.409 226.472 851.662 226.922 851.744 227.478C851.785 227.805 851.965 228.132 851.948 228.459C851.94 228.77 852.022 229.056 852.055 229.359C852.12 229.997 852.186 230.627 852.235 231.265C852.267 231.665 852.276 232.074 852.292 232.475C852.292 232.541 852.284 232.614 852.292 232.68C852.415 233.686 852.357 234.7 852.415 235.706C852.423 235.869 852.423 236.041 852.415 236.205C852.398 236.507 852.341 236.81 852.374 237.113C852.406 237.407 852.562 237.685 852.472 237.996C852.652 238.454 852.521 238.928 852.537 239.403C852.545 239.673 852.562 239.934 852.586 240.204C852.652 240.769 852.66 241.341 852.676 241.914C852.709 243.091 852.717 244.269 852.75 245.447C852.758 245.741 852.75 246.06 852.946 246.314C852.979 246.306 853.02 246.306 853.02 246.281C853.142 246.003 853.273 245.733 853.388 245.455C853.862 244.343 854.288 243.206 854.803 242.118C855.228 241.21 855.514 240.253 855.923 239.345C856.439 238.217 856.905 237.064 857.404 235.927C857.78 235.068 858.132 234.185 858.557 233.35C859.023 232.418 859.44 231.461 859.997 230.578C860.585 229.637 861.174 228.696 861.927 227.87C862.205 227.559 862.557 227.363 862.851 227.101C863.121 226.856 863.35 226.553 863.603 226.292C863.644 226.243 863.726 226.234 863.783 226.202C864.111 226.022 864.413 225.826 864.683 225.564C865.01 225.245 865.403 225.081 865.869 225.122C866.033 225.13 866.213 225.122 866.352 225.049C866.679 224.877 867.014 225.049 867.341 224.983C867.39 224.975 867.489 225.024 867.505 225.073C867.603 225.318 867.848 225.376 868.028 225.515C868.503 225.891 868.879 226.341 869.124 226.922C869.353 227.461 869.46 227.993 869.443 228.574C869.435 229.114 869.484 229.653 869.509 230.185C869.558 231.232 869.492 232.271 869.435 233.318C869.402 233.857 869.37 234.389 869.337 234.929C869.329 234.994 869.337 235.068 869.321 235.125C869.124 235.878 869.1 236.663 868.969 237.415C868.797 238.38 868.593 239.337 868.413 240.294C868.347 240.621 868.298 240.957 868.274 241.292C868.126 242.969 868.012 244.645 867.848 246.322C867.685 247.999 867.726 249.684 867.677 251.36C867.677 251.491 867.677 251.63 867.693 251.769C867.775 252.841 867.873 253.912 867.947 254.984C867.971 255.254 868.004 255.515 868.069 255.777C868.364 256.996 868.756 258.165 869.263 259.311C869.345 259.499 869.435 259.679 869.55 259.85C869.705 260.104 869.901 260.341 870.04 260.603C870.171 260.832 870.245 261.094 870.359 261.331C870.417 261.453 870.507 261.552 870.588 261.658L870.572 261.642C870.433 261.862 870.335 262.14 870.139 262.296C869.95 262.451 869.852 262.664 869.68 262.827C869.566 262.926 869.525 263.106 869.452 263.253C868.863 263.384 868.339 263.752 867.668 263.76C867.628 263.735 867.538 263.703 867.448 263.654C867.243 263.531 866.998 263.449 866.859 263.277C866.458 262.787 865.853 262.484 865.534 261.903C865.468 261.789 865.395 261.674 865.297 261.576C864.969 261.257 864.798 260.856 864.691 260.423C864.421 259.351 864.111 258.288 863.882 257.2C863.832 256.971 863.726 256.759 863.677 256.53C863.497 255.736 863.203 253.618 863.162 252.735C863.129 252.097 863.096 251.467 863.096 250.821C863.096 250.42 863.113 250.011 863.186 249.618C863.293 249.054 863.293 248.49 863.26 247.917C863.195 246.805 863.285 245.692 863.424 244.596C863.456 244.327 863.522 244.057 863.522 243.795C863.53 243.018 863.751 242.265 863.718 241.488C863.71 241.358 863.767 241.227 863.792 241.096C863.824 240.932 863.857 240.769 863.873 240.605C863.922 240.139 863.947 239.664 864.004 239.198C864.053 238.765 864.135 238.331 864.201 237.898C864.405 236.671 864.511 235.436 864.642 234.193C864.732 233.391 864.839 232.59 864.928 231.788C864.937 231.714 864.838 231.633 864.773 231.526C864.274 232.082 863.931 232.704 863.571 233.309C863.26 233.833 862.966 234.356 862.687 234.896C862.426 235.403 862.18 235.927 861.943 236.442C861.812 236.72 861.714 236.998 861.591 237.276C861.33 237.898 861.076 238.519 860.814 239.141C860.79 239.198 860.749 239.264 860.724 239.321C860.495 240.172 860.062 240.94 859.751 241.75C859.449 242.535 859.138 243.32 858.827 244.098C858.737 244.318 858.631 244.523 858.532 244.744C858.385 245.046 858.213 245.333 858.156 245.668C858.099 245.962 857.788 246.159 857.829 246.502C857.445 247.214 857.273 248.015 856.962 248.76C856.725 249.316 856.512 249.888 856.267 250.444C856.062 250.902 855.842 251.36 855.588 251.794C855.457 252.031 855.433 252.309 855.294 252.522C855.146 252.743 854.901 252.882 854.713 253.07C854.59 253.184 854.508 253.332 854.386 253.454C854.247 253.602 854.091 253.732 853.969 253.839C853.633 253.896 853.331 253.937 853.036 254.01C852.725 254.084 852.431 254.035 852.136 253.961C851.973 253.921 851.932 253.855 851.94 253.585C851.948 253.34 851.875 253.25 851.654 253.307C851.433 253.364 851.343 253.299 851.27 253.119C851.212 252.988 851.098 252.89 850.959 252.906C850.738 252.931 850.566 252.898 850.419 252.718C850.329 252.62 850.231 252.506 850.116 252.456C849.699 252.293 849.519 251.949 849.323 251.581C848.84 250.673 848.644 249.684 848.587 248.678C848.513 247.467 848.513 246.257 848.366 245.046C848.358 244.981 848.341 244.915 848.358 244.85C848.423 244.179 848.358 243.509 848.333 242.83C848.309 241.717 848.301 240.605 848.276 239.493C848.243 238.209 848.17 236.933 848.186 235.657C848.194 234.88 848.08 234.111 848.088 233.334C848.088 233.089 848.08 232.819 847.916 232.565C847.581 232.966 847.507 233.448 847.376 233.882C847 235.109 846.624 236.327 846.207 237.538C845.83 238.618 845.52 239.722 845.176 240.818C844.759 242.135 844.342 243.451 843.851 244.744C843.336 246.101 842.821 247.451 842.453 248.858C842.313 249.381 842.183 249.896 842.158 250.444C842.142 250.845 842.109 251.254 842.264 251.639C842.338 251.827 842.362 252.023 842.297 252.227C842.273 252.293 842.264 252.358 842.273 252.424C842.371 253.029 842.084 253.536 841.839 254.043C841.757 254.215 841.602 254.37 841.463 254.501C841.291 254.665 841.095 254.771 840.825 254.722C840.604 254.681 840.375 254.788 840.154 254.648C839.991 254.542 839.843 254.714 839.672 254.747C839.238 254.436 838.829 254.092 838.322 253.961C838.158 253.667 838.077 253.389 838.101 253.078C838.134 252.612 838.15 252.138 838.183 251.671C838.208 251.369 838.257 251.066 838.273 250.763C838.281 250.485 838.347 250.24 838.445 249.986C838.567 249.676 838.616 249.332 838.723 249.013C838.927 248.375 838.96 247.688 839.287 247.083C839.32 246.363 839.672 245.733 839.843 245.054C840.007 244.4 840.261 243.77 840.49 243.141C841.038 241.652 841.422 240.114 841.88 238.601C842.142 237.734 842.387 236.851 842.69 236C842.976 235.207 843.229 234.405 843.418 233.587C843.589 232.827 843.843 232.099 844.097 231.371C844.236 230.954 844.375 230.537 844.489 230.12C844.792 228.999 845.323 227.993 845.929 227.02C845.978 226.938 846.076 226.856 846.068 226.774C846.043 226.504 846.19 226.333 846.378 226.169C846.452 226.104 846.55 226.022 846.558 225.94C846.607 225.621 846.845 225.49 847.082 225.368C847.294 225.302 849.756 225.163 849.814 225.179Z" fill="#1D3E90"/>
<path d="M801.647 250.861C801.688 249.954 801.68 249.038 801.778 248.138C801.868 247.304 802.007 246.469 802.253 245.66C802.555 244.694 802.923 243.754 803.226 242.789C803.316 242.502 803.504 242.249 803.61 241.963C803.856 241.3 804.093 240.638 804.314 239.967C804.453 239.55 804.559 239.133 804.682 238.716C804.788 238.331 804.894 237.939 805.009 237.554C805.082 237.301 805.107 237.023 805.32 236.818C805.352 236.785 805.344 236.695 805.344 236.63C805.32 236.286 805.9 234.495 805.966 234.233C806.08 233.775 806.178 233.309 806.277 232.868C806.187 232.467 805.843 232.27 805.606 232.001C805.516 231.894 805.475 231.772 805.541 231.624C805.598 231.502 805.614 231.363 805.679 231.248C805.827 230.986 805.99 230.733 806.039 230.43C806.309 230.226 806.203 229.76 806.579 229.629C806.988 228.974 807.512 228.402 807.904 227.731C807.986 227.592 808.051 227.428 808.101 227.273C808.182 227.02 808.248 226.75 808.313 226.496C808.42 226.103 808.575 225.727 808.763 225.376C808.853 225.212 808.992 225.114 809.164 225.106C809.565 225.097 809.965 225.073 810.358 225.13C810.612 225.163 810.8 225.155 811.012 225.016C811.38 224.787 811.683 224.435 812.149 224.402C812.223 224.296 812.288 224.149 812.395 224.091C812.738 223.887 813.098 223.682 813.466 223.543C814.038 223.331 814.578 223.077 815.11 222.791C816.01 222.317 816.999 222.088 817.981 221.842C818.725 221.85 819.445 221.638 820.181 221.572C820.917 221.507 821.661 221.556 822.406 221.589C823.248 221.621 823.256 221.638 824.074 221.94C824.581 222.128 825.097 222.284 825.522 222.644C825.62 222.726 825.751 222.775 825.874 222.84C826.307 223.045 826.61 223.38 826.904 223.772C827.207 224.181 827.321 224.697 827.681 225.057C827.82 225.433 827.935 225.817 827.877 226.234C827.812 226.733 827.763 227.24 827.697 227.739C827.64 228.214 827.501 228.647 827.158 229.007C826.978 229.203 826.831 229.432 826.7 229.67C826.422 230.136 825.955 230.447 825.702 230.929C825.645 231.035 825.497 231.101 825.399 231.191C824.802 231.731 824.205 232.279 823.6 232.818C823.502 232.908 823.395 232.99 823.289 233.08C822.937 233.342 822.561 233.571 822.242 233.874C821.948 234.152 821.531 234.25 821.285 234.593C821.22 234.691 821.048 234.708 820.933 234.773C820.819 234.839 820.672 234.896 820.606 235.002C820.369 235.354 820.034 235.567 819.674 235.755C819.551 235.82 819.437 235.886 819.339 235.976C818.831 236.491 818.161 236.753 817.564 237.137C817.392 237.243 817.204 237.317 817.04 237.431C816.566 237.759 816.083 238.053 815.584 238.339C815.445 238.421 815.314 238.527 815.167 238.634C815.233 238.781 815.249 238.945 815.339 239.018C816.034 239.566 816.59 240.253 817.155 240.908C818.218 242.134 819.388 243.239 820.533 244.367C820.696 244.531 820.901 244.662 821.089 244.801C821.719 245.251 822.348 245.7 822.978 246.159C823.444 246.494 823.943 246.764 824.45 247.042C825.375 247.541 826.356 247.901 827.313 248.301C827.837 248.522 828.385 248.702 828.949 248.809C829.448 248.907 829.914 249.103 830.405 249.226C830.609 249.283 830.765 249.397 830.92 249.536C831.108 249.7 831.214 249.904 831.174 250.158C831.108 250.559 831.026 250.951 830.945 251.352C830.871 251.712 830.765 252.072 830.707 252.44C830.675 252.677 830.577 252.882 830.47 253.094C830.274 253.487 829.988 253.601 829.562 253.52C828.769 253.381 827.959 253.291 827.207 252.972C826.364 252.865 825.636 252.375 824.81 252.219C824.303 251.949 823.796 251.696 823.297 251.409C822.766 251.115 822.201 250.886 821.727 250.493C821.678 250.452 821.62 250.412 821.555 250.395C820.835 250.15 820.287 249.643 819.723 249.16C819.551 249.005 819.379 248.841 819.118 248.809C819.028 248.8 818.921 248.735 818.864 248.661C818.651 248.4 818.349 248.236 818.104 248.007C817.85 247.786 817.621 247.541 817.367 247.32C816.427 246.502 815.568 245.602 814.701 244.711C814.088 244.089 813.507 243.435 812.918 242.789C812.305 242.118 811.691 241.456 811.078 240.785C810.881 240.564 810.636 240.49 810.35 240.523C810.153 240.548 809.941 240.523 809.745 240.556C809.139 240.662 808.542 240.679 807.97 240.409C807.814 240.335 807.528 240.507 807.479 240.679C807.25 241.423 807.054 242.167 807.045 242.952C807.037 243.762 806.923 244.564 806.653 245.332C806.138 246.772 805.859 248.252 805.72 249.774C805.688 250.142 805.614 250.51 805.524 250.861C805.483 251.017 805.385 251.172 805.287 251.295C805.156 251.459 804.943 251.581 804.755 251.516C804.518 251.434 804.305 251.409 804.085 251.508C803.7 251.303 803.283 251.434 802.891 251.434C802.383 251.401 801.983 251.238 801.647 250.861ZM811.47 235.436C812.313 235.158 813.139 234.781 813.916 234.323C814.235 234.135 814.57 233.98 814.889 233.808C815.036 233.726 815.184 233.645 815.323 233.563C815.584 233.407 815.838 233.244 816.1 233.088C816.558 232.802 817.024 232.532 817.466 232.221C817.964 231.878 818.414 231.469 818.921 231.134C819.453 230.782 819.878 230.291 820.426 229.964C820.541 229.899 820.631 229.792 820.729 229.702C821.58 228.893 822.438 228.091 823.297 227.281C823.469 227.118 823.6 226.921 823.698 226.701C823.804 226.447 823.747 226.136 823.534 225.973C823.101 225.629 822.626 225.392 822.07 225.359C821.874 225.343 821.661 225.359 821.465 225.318C820.827 225.187 820.189 225.253 819.551 225.269C818.881 225.294 818.21 225.335 817.564 225.58C817.408 225.637 817.237 225.662 817.073 225.678C816.697 225.711 816.361 225.866 816.018 226.005C815.494 226.226 814.987 226.488 814.472 226.733C814.317 226.807 814.161 226.872 814.022 226.962C812.877 227.682 811.83 228.516 810.816 229.408C810.472 229.71 810.243 230.087 810.17 230.52C810.08 231.027 809.884 231.485 809.679 231.943C809.605 232.107 809.605 232.262 809.573 232.426C809.54 232.614 809.237 233.489 809.205 233.808C809.188 234.004 809.164 234.209 809.147 234.413C809.139 234.536 809.262 234.667 809.393 234.691C810.301 234.863 810.472 234.921 811.168 235.297C811.258 235.346 811.348 235.379 811.47 235.436Z" fill="#1D3E90"/>
<path d="M896.082 230.815C896.148 230.79 896.426 229.882 896.377 229.719C896.418 229.653 896.434 229.621 896.451 229.596C896.688 229.359 896.974 229.154 897.138 228.876C897.301 228.598 897.342 228.238 897.44 227.919C897.587 227.437 897.792 226.979 897.89 226.48C897.947 226.169 898.144 225.932 898.332 225.695C898.43 225.564 898.577 225.441 898.757 225.457C899.37 225.523 899.959 225.343 900.565 225.302C900.728 225.294 900.818 225.384 900.884 225.498C900.933 225.58 900.957 225.686 900.982 225.776C900.99 225.842 900.957 225.973 900.949 225.989C901.145 225.948 901.35 225.924 901.522 225.85C901.701 225.768 901.84 225.613 902.02 225.506C902.577 225.196 903.125 224.869 903.722 224.631C904.94 224.141 906.2 223.74 907.46 223.372C908.269 223.135 909.12 223.085 909.962 223.085C910.363 223.085 910.748 223.167 911.156 223.094C911.631 223.012 912.097 223.159 912.555 223.257C912.8 223.314 913.013 223.527 913.234 223.674C913.316 223.732 913.422 223.797 913.455 223.879C913.586 224.296 914.076 224.386 914.256 224.754C914.395 225.024 914.526 225.294 914.583 225.596C914.624 225.825 914.682 226.054 914.747 226.283C914.853 226.684 914.862 227.077 914.747 227.478C914.706 227.633 914.698 227.805 914.673 227.968C914.657 228.066 914.665 228.197 914.608 228.255C914.256 228.59 914.248 229.113 913.888 229.457C913.676 229.653 913.561 229.956 913.398 230.209C913.308 230.348 913.218 230.496 913.103 230.618C912.563 231.224 912.015 231.821 911.385 232.32C910.723 232.835 910.134 233.448 909.373 233.849C909.087 234.004 908.883 234.307 908.531 234.381C908.498 234.389 908.474 234.413 908.449 234.438C907.942 235.051 907.173 235.313 906.625 235.869C905.75 236.368 904.957 236.998 904.049 237.456C903.362 237.8 902.691 238.209 902.029 238.593C901.955 238.642 901.914 238.748 901.841 238.838C902.094 239.125 902.323 239.411 902.577 239.681C902.716 239.828 902.871 239.951 903.018 240.098C903.534 240.589 904.041 241.079 904.548 241.57C904.867 241.873 905.21 242.143 905.554 242.413C906.274 242.969 906.985 243.533 907.68 244.122C908.008 244.408 908.351 244.67 908.752 244.874C909.226 245.12 909.668 245.447 910.093 245.774C911.197 246.625 912.424 247.255 913.684 247.819C914.763 248.301 915.786 248.874 916.833 249.406C917.503 249.749 918.027 250.264 918.616 250.706C918.992 250.984 919.041 251.189 919.049 251.671C919.049 251.704 919.049 251.737 919.049 251.769C919.025 251.966 919.082 252.178 918.951 252.358C918.771 252.604 918.567 252.824 918.239 252.865C918.248 252.972 918.264 253.07 918.248 253.168C918.239 253.225 918.19 253.307 918.141 253.315C917.978 253.356 917.806 253.422 917.651 253.397C917.291 253.34 916.906 253.389 916.571 253.184C916.514 253.152 916.448 253.127 916.383 253.119C915.908 253.094 915.459 252.963 915.009 252.808C914.567 252.653 914.093 252.587 913.684 252.334C912.58 252.007 911.541 251.524 910.486 251.074C909.856 250.992 909.414 250.543 908.891 250.24C908.367 249.937 907.868 249.594 907.353 249.267C907.214 249.177 907.059 249.095 906.928 248.997C906.175 248.424 905.415 247.868 904.687 247.271C903.337 246.167 901.963 245.087 900.687 243.877C899.681 242.92 898.732 241.93 897.833 240.883C897.776 240.826 897.612 240.875 897.579 240.957C897.555 241.022 897.522 241.079 897.506 241.145C897.342 241.832 897.154 242.519 897.023 243.214C896.81 244.302 896.5 245.373 896.401 246.478C896.401 246.51 896.393 246.543 896.385 246.576C896.148 247.32 896.107 248.097 895.952 248.849C895.813 249.545 895.772 250.24 895.772 250.951C895.772 251.041 895.723 251.148 895.673 251.23C895.616 251.32 895.518 251.344 895.412 251.336C895.346 251.328 895.273 251.328 895.224 251.369C895.093 251.467 894.995 251.622 894.847 251.688C894.708 251.745 894.52 251.712 894.373 251.818C894.185 251.966 892.893 250.927 892.893 250.927C892.615 250.706 892.475 250.436 892.475 250.06C892.475 248.915 892.565 247.778 892.819 246.657C893.097 245.447 893.4 244.236 893.686 243.026C893.76 242.699 893.841 242.363 894.038 242.085C894.169 241.897 894.095 241.693 894.144 241.505C894.308 240.859 894.398 240.188 894.569 239.55C894.725 238.994 894.987 236.622 895.019 236.483C895.085 236.221 895.191 235.967 895.363 235.763C895.592 235.493 895.682 235.174 895.747 234.847C895.804 234.552 895.845 234.25 895.903 233.939C895.772 233.8 896.082 230.815 896.082 230.815ZM910.862 226.741C910.821 226.684 910.788 226.611 910.731 226.594C910.608 226.553 910.469 226.529 910.339 226.521C909.725 226.48 909.128 226.594 908.523 226.643C908.089 226.684 907.648 226.725 907.23 226.831C906.486 227.02 905.742 227.249 905.006 227.486C904.172 227.756 903.37 228.091 902.617 228.541C901.898 228.974 901.17 229.4 900.491 229.882C899.902 230.308 899.91 230.324 899.73 230.995C899.689 231.158 899.657 231.322 899.575 231.477C899.469 231.698 899.428 231.919 899.403 232.156C899.313 232.892 899.182 233.612 898.986 234.323C898.929 234.52 898.88 234.716 898.831 234.912C898.806 235.011 898.79 235.109 898.773 235.207C898.741 235.395 898.904 235.559 899.06 235.493C899.428 235.329 899.788 235.15 900.156 234.994C900.933 234.659 901.661 234.242 902.356 233.775C903.051 233.309 903.779 232.876 904.458 232.385C905.276 231.796 906.102 231.215 906.911 230.61C907.509 230.169 908.065 229.678 908.727 229.334C908.932 229.228 909.112 229.056 909.275 228.893C909.823 228.345 910.322 227.756 910.756 227.11C910.788 227.052 910.829 226.995 910.846 226.93C910.87 226.864 910.862 226.799 910.862 226.741Z" fill="#1D3E90"/>
<path d="M751.927 246.208C751.886 246.339 751.542 246.298 751.493 246.322C751.395 246.363 751.927 246.797 752.025 247.05C752.099 247.247 752.058 247.459 751.894 247.606C751.739 247.737 751.575 247.86 751.452 247.95C751.452 248.326 751.469 248.629 751.371 248.915C751.346 248.972 751.281 249.005 751.232 249.046C751.207 249.062 751.166 249.071 751.133 249.071C750.725 248.989 750.414 249.16 750.168 249.447C749.866 249.569 749.555 249.504 749.269 249.569C748.974 249.627 748.688 249.725 748.394 249.798C748.295 249.823 748.197 249.856 748.099 249.856C747.093 249.888 746.095 250.077 745.081 250.052C744.811 250.044 744.541 250.052 744.279 250.068C743.372 250.126 742.472 250.191 741.564 250.248C741.433 250.256 741.294 250.256 741.163 250.289C740.247 250.518 739.298 250.567 738.374 250.731C737.483 250.886 736.583 251.025 735.7 251.238C735.274 251.336 734.841 251.402 734.415 251.467C733.884 251.557 733.352 251.606 732.845 251.802C732.722 251.851 732.583 251.868 732.453 251.892C731.716 251.999 730.98 252.097 730.252 252.203C729.925 252.252 729.598 252.326 729.271 252.375C728.976 252.416 728.674 252.44 728.371 252.473C728.24 252.481 728.101 252.506 727.971 252.473C727.545 252.375 727.103 252.391 726.678 252.318C726.343 252.269 726.016 252.219 725.68 252.154C725.386 252.097 725.132 251.9 724.813 251.925C724.2 251.59 723.497 251.402 723.03 250.837C722.989 250.788 722.916 250.747 722.899 250.69C722.744 250.175 722.319 249.79 722.163 249.275C722.122 249.144 722.106 249.013 722.163 248.882C722.221 248.743 722.155 248.653 722.073 248.531C721.877 248.22 721.722 247.885 721.787 247.492C721.812 247.361 721.836 247.238 721.91 247.116C721.983 247.009 722.033 246.879 722.041 246.748C722.057 246.232 722.196 245.758 722.401 245.3C722.458 245.177 722.491 245.046 722.523 244.916C722.654 244.507 722.736 244.081 722.965 243.697C723.169 243.353 723.251 242.936 723.447 242.593C723.848 241.889 724.175 241.153 724.552 240.442C724.822 239.935 725.075 239.427 725.337 238.92C725.525 238.56 725.68 238.184 725.983 237.906C726.057 237.841 726.106 237.743 726.146 237.653C726.621 236.581 727.185 235.551 727.766 234.528C728.167 233.825 731.291 228.729 731.447 228.492C731.798 227.92 732.183 227.363 732.534 226.791C732.665 226.57 732.829 226.439 733.082 226.406C733.271 226.382 733.344 226.226 733.409 226.071C733.622 226.202 733.827 226.316 734.023 226.439C734.268 226.595 734.522 226.603 734.792 226.521C734.914 226.48 735.004 226.537 735.053 226.709C735.127 226.922 735.372 227.02 735.569 227.134C735.741 227.232 735.912 227.347 736.068 227.47C736.109 227.502 736.125 227.601 736.1 227.641C736.043 227.764 735.953 227.862 735.896 227.985C735.831 228.116 735.921 228.296 736.043 228.296C736.346 228.304 736.665 228.369 736.943 228.288C737.491 228.132 738.022 228.23 738.546 228.304C739.298 228.402 740.067 228.525 740.771 228.885C740.983 228.991 741.18 229.089 741.294 229.31C741.351 229.424 741.466 229.506 741.556 229.604C741.638 229.686 741.629 229.784 741.613 229.882C741.58 230.022 741.621 230.128 741.703 230.251C741.924 230.561 741.916 230.61 741.654 230.807C741.58 230.864 741.49 230.946 741.4 230.962C741.131 230.987 741.204 231.118 741.253 231.281C741.27 231.338 741.147 231.428 741.09 231.51L741.057 231.543L741.106 231.494C741.098 231.6 741.131 231.682 741.229 231.747C741.278 231.78 741.302 231.845 741.351 231.911C741.163 231.985 740.983 232.066 740.795 232.115C740.623 232.164 740.525 232.279 740.419 232.426C740.272 232.631 740.051 232.704 739.797 232.655C739.699 232.631 739.593 232.647 739.503 232.606C738.726 232.295 737.916 232.344 737.115 232.369C736.035 232.393 734.964 232.467 733.884 232.524C733.786 232.532 733.688 232.549 733.581 232.557C733.401 232.573 733.254 232.655 733.156 232.802C732.968 233.08 732.796 233.367 732.633 233.661C732.281 234.275 731.921 234.88 731.577 235.502C731.193 236.205 730.825 236.925 730.449 237.636C730.432 237.669 730.432 237.702 730.424 237.734C730.383 237.865 730.498 238.021 730.629 238.012C731.398 237.939 732.158 237.792 732.894 237.563C733.737 237.309 734.579 237.121 735.446 236.982C736.174 236.867 736.894 236.704 737.622 236.573C738.587 236.401 739.536 236.221 740.501 236.074C740.893 236.009 741.302 235.968 741.703 235.984C741.997 235.992 742.292 236.09 742.57 236.189C742.676 236.229 742.742 236.385 742.832 236.491C742.832 236.491 742.644 236.769 742.84 236.925L742.815 236.908C742.758 237.129 742.611 237.35 742.832 237.563C742.93 237.661 742.963 237.792 742.963 237.931C742.963 238.16 742.938 238.405 742.995 238.626C743.077 238.986 742.963 239.182 742.652 239.362C742.169 239.648 741.638 239.689 741.114 239.82C740.918 239.869 740.713 239.869 740.525 239.918C739.568 240.139 738.603 240.294 737.638 240.376C736.771 240.458 735.912 240.622 735.037 240.679C734.366 240.728 733.712 240.924 733.05 241.031C732.052 241.194 731.054 241.341 730.064 241.505C729.729 241.562 729.394 241.603 729.058 241.554C728.649 241.489 728.42 241.701 728.265 242.02C728.044 242.47 727.84 242.928 727.635 243.394C727.324 244.106 727.014 244.809 726.735 245.529C726.531 246.061 726.392 246.617 726.236 247.165C726.171 247.369 726.294 247.549 726.523 247.615C726.588 247.639 726.645 247.672 726.711 247.68C727.447 247.737 728.183 247.803 728.927 247.721C729.794 247.623 730.637 247.377 731.504 247.271C731.798 247.238 732.101 247.173 732.403 247.132C732.935 247.058 733.459 246.96 733.974 246.821C734.456 246.69 734.98 246.69 735.438 246.461C736.297 246.298 737.139 246.069 738.014 245.971C738.145 245.954 738.284 245.938 738.407 245.905C739.315 245.643 740.264 245.586 741.196 245.504C741.695 245.464 742.202 245.447 742.701 245.39C743.2 245.333 743.699 245.292 744.206 245.259C744.713 245.226 745.212 245.202 745.719 245.185C746.259 245.161 746.79 245.087 747.322 245.243C747.477 245.284 747.657 245.275 747.821 245.259C748.426 245.218 749.023 245.251 749.629 245.374C750.087 245.472 750.553 245.537 751.027 245.504C751.15 245.496 751.289 245.57 751.387 245.652C751.575 245.856 751.927 246.208 751.927 246.208Z" fill="#1D3E90"/>
<path d="M870.907 247.418C871.014 246.486 871.112 245.578 871.226 244.678C871.243 244.547 871.3 244.425 871.333 244.294C871.709 242.683 872.224 241.12 872.821 239.583C873.018 239.084 873.181 238.568 873.476 238.11C873.566 237.971 873.606 237.8 873.672 237.652C873.893 237.121 874.122 236.597 874.441 236.115C874.621 235.837 874.784 235.534 874.931 235.24C875.259 234.577 875.651 233.955 876.06 233.334C876.117 233.244 876.175 233.162 876.224 233.08C876.445 232.729 876.608 232.369 876.592 231.943C876.584 231.592 876.747 231.314 876.952 231.027C877.524 230.226 878.219 229.555 878.882 228.835C879.454 228.222 880.101 227.69 880.747 227.151C881.033 226.913 881.327 226.701 881.638 226.488C881.859 226.333 882.104 226.202 882.293 226.014C882.71 225.597 883.225 225.359 883.716 225.073C884.035 224.885 884.378 224.746 884.705 224.574C884.975 224.435 885.229 224.304 885.564 224.361C885.744 224.394 885.949 224.255 886.145 224.222C886.341 224.19 886.554 224.239 886.742 224.19C887.151 224.067 887.544 224.214 887.936 224.222C888.034 224.222 888.157 224.255 888.214 224.321C888.443 224.55 888.787 224.517 889.032 224.689C889.22 224.82 889.4 224.983 889.547 225.163C889.956 225.654 890.333 226.169 890.84 226.562C891.101 226.954 891.371 227.339 891.519 227.788C891.723 228.402 891.805 229.032 891.854 229.67C891.862 229.801 891.854 229.948 891.813 230.062C891.617 230.578 891.617 231.117 891.633 231.657C891.649 232.164 891.633 232.655 891.502 233.154C891.322 233.841 891.2 234.536 891.052 235.223C890.799 236.385 890.324 237.464 889.85 238.544C889.49 239.378 889.016 240.155 888.631 240.981C888.451 241.374 888.214 241.75 887.961 242.11C887.331 243.018 886.75 243.975 886.006 244.801C885.736 245.095 885.474 245.406 885.286 245.774C885.245 245.864 885.188 245.954 885.114 246.02C884.485 246.592 884.018 247.304 883.479 247.942C882.718 248.85 881.892 249.692 881.017 250.477C880.518 250.927 879.994 251.369 879.463 251.761C879.029 252.08 878.547 252.317 878.097 252.604C877.688 252.857 877.213 252.923 876.788 253.119C876.731 253.144 876.649 253.176 876.592 253.16C876.232 253.013 875.856 253.168 875.496 253.119C875.062 253.062 874.629 252.98 874.204 252.898C874.105 252.874 874.015 252.825 873.925 252.784C873.5 252.596 873.124 252.301 872.649 252.203C872.47 252.17 872.29 252.015 872.159 251.859C871.905 251.549 871.693 251.197 871.447 250.878C871.055 250.371 870.957 249.782 870.899 249.169C870.891 249.103 870.891 249.029 870.899 248.964C870.957 248.449 870.924 247.917 870.907 247.418ZM882.015 232.042C881.941 231.984 881.859 231.984 881.786 232.033C881.581 232.033 881.393 232.058 881.205 232.164C880.78 232.393 880.42 232.688 880.166 233.097C879.986 233.383 879.814 233.669 879.651 233.964C879.021 235.076 878.408 236.197 877.778 237.317C877.262 238.225 876.87 239.19 876.469 240.155C875.954 241.407 875.594 242.707 875.218 243.999C875.046 244.58 874.932 245.177 874.858 245.774C874.768 246.51 874.743 247.255 874.702 247.991C874.694 248.162 874.694 248.334 874.735 248.498C874.882 249.119 875.046 249.267 875.741 249.177C876.003 249.144 876.256 249.021 876.486 248.882C876.862 248.653 877.222 248.408 877.557 248.122C878.677 247.148 879.749 246.126 880.681 244.964C880.976 244.596 881.262 244.228 881.532 243.844C882.023 243.165 882.513 242.47 883.045 241.832C883.536 241.235 883.937 240.572 884.419 239.967C885.18 238.544 885.949 237.121 886.513 235.608C886.963 234.405 887.306 233.178 887.372 231.878C887.38 231.682 887.429 231.485 887.462 231.281C887.576 230.471 887.642 229.67 887.29 228.893C887.192 228.688 887.036 228.566 886.816 228.606C886.145 228.713 885.499 228.86 884.934 229.277C884.583 229.539 884.215 229.784 883.855 230.03C883.593 230.21 883.429 230.439 883.397 230.774C883.356 231.305 883.037 231.706 882.693 232.074C882.636 232.132 882.505 232.14 882.415 232.14C882.276 232.123 882.145 232.074 882.015 232.042Z" fill="#1D3E90"/>
<path d="M783.4 249.209C783.22 249.038 783.138 248.825 783.163 248.571C783.195 248.334 783.228 248.105 783.261 247.868C782.958 247.549 782.876 247.148 782.999 246.748C783.089 246.445 783.081 246.15 783.114 245.856C783.187 245.251 783.244 244.646 783.367 244.057C783.825 241.889 784.398 239.738 785.044 237.612C785.134 237.325 785.207 237.031 785.273 236.736C785.314 236.507 785.371 236.27 785.355 236.041C785.322 235.534 785.477 235.035 785.33 234.528C785.297 234.422 785.387 234.275 785.404 234.144C785.502 233.547 785.813 233.007 785.821 232.393C785.821 232.328 785.854 232.262 785.878 232.205C786.303 231.248 786.81 230.34 787.383 229.465C787.44 229.383 787.506 229.31 787.587 229.244C788.242 228.664 788.847 228.026 789.428 227.38C789.657 227.126 789.935 226.938 790.213 226.758C790.949 226.284 791.726 225.866 792.38 225.286C792.479 225.196 792.601 225.114 792.724 225.081C793.239 224.926 793.648 224.517 794.188 224.419C794.311 224.394 794.433 224.296 794.54 224.214C794.9 223.928 795.317 223.838 795.767 223.822C796.069 223.814 796.372 223.773 796.666 223.756C797.002 223.74 797.329 223.707 797.664 223.83C797.885 223.904 798.13 223.92 798.359 223.936C798.605 223.953 798.834 224.018 799.014 224.182C799.21 224.362 799.529 224.304 799.701 224.558C799.856 224.779 800.052 224.967 800.249 225.155C800.445 225.343 800.609 225.556 800.707 225.809C800.715 225.842 800.739 225.866 800.764 225.899C800.993 226.226 801.23 226.562 801.247 226.987C801.541 227.396 801.582 227.854 801.533 228.337C801.533 228.369 801.533 228.402 801.541 228.435C801.737 229.408 801.615 230.381 801.492 231.346C801.386 232.181 801.296 233.023 801.181 233.857C801.099 234.454 801.001 235.052 800.788 235.632C800.78 235.665 800.764 235.698 800.764 235.73C800.633 236.638 800.257 237.464 799.995 238.331C799.774 239.043 799.406 239.689 799.087 240.36C799.014 240.515 798.907 240.646 798.834 240.801C798.711 241.047 798.629 241.309 798.498 241.538C798.368 241.767 798.171 241.955 798.048 242.192C797.828 242.601 797.55 242.977 797.361 243.419C797.182 243.844 796.912 244.237 796.601 244.596C796.159 245.104 795.775 245.66 795.382 246.208C794.875 246.919 794.319 247.59 793.689 248.203C793.403 248.49 793.141 248.792 792.871 249.095C792.806 249.169 792.749 249.275 792.667 249.324C792.168 249.618 791.808 250.076 791.366 250.445C791.08 250.682 790.753 250.845 790.434 251.025C789.853 251.369 789.264 251.68 788.618 251.892C788.43 251.958 788.234 252.023 788.037 252.056C787.375 252.178 787.023 252.154 786.344 251.966C786.124 251.9 785.894 251.835 785.665 251.778C785.338 251.696 784.995 251.639 784.758 251.369C784.561 251.148 784.259 251.042 784.12 250.747C784.013 250.518 783.801 250.33 783.629 250.117C783.719 249.913 783.801 249.733 783.874 249.561C783.776 249.34 783.531 249.349 783.384 249.226L783.4 249.209ZM796.985 228.32C796.38 228.361 795.832 228.549 795.333 228.827C794.752 229.146 794.106 229.383 793.648 229.915C792.871 230.398 792.233 231.052 791.595 231.698C791.031 232.279 790.532 232.917 790.188 233.661C789.976 234.111 789.804 234.594 789.567 235.035C789.289 235.542 789.101 236.074 788.896 236.614C788.634 237.309 788.479 238.037 788.275 238.748C787.866 240.139 787.522 241.546 787.211 242.961C786.884 244.441 786.671 245.938 786.59 247.451C786.565 247.827 786.639 247.991 787.097 248.04C787.375 248.073 787.637 248.015 787.874 247.884C788.201 247.721 788.528 247.525 788.79 247.263C789.837 246.224 790.925 245.21 791.824 244.032C792.258 243.468 792.699 242.912 793.084 242.323C793.599 241.538 794.172 240.785 794.556 239.918C794.818 239.337 795.112 238.765 795.415 238.209C795.636 237.792 795.832 237.366 795.987 236.916C796.094 236.63 796.184 236.344 796.306 236.074C796.519 235.608 796.625 235.117 796.691 234.618C796.797 233.784 796.928 232.95 797.034 232.115C797.116 231.445 797.239 230.782 797.247 230.111C797.263 229.498 797.206 228.901 796.985 228.32Z" fill="#1D3E90"/>
<path d="M922.337 241.03C922.28 242.036 922.231 243.042 922.182 244.04C922.174 244.187 922.182 244.326 922.182 244.474C922.182 244.604 922.313 244.76 922.443 244.776C923.155 244.866 923.867 244.981 924.595 244.964C925.494 244.948 926.386 244.883 927.286 244.817C927.825 244.784 928.349 244.662 928.889 244.604C929.821 244.514 930.737 244.335 931.661 244.204C933.199 243.991 934.728 243.787 936.282 243.77C936.495 243.77 936.716 243.737 936.929 243.721C937.076 243.705 937.215 243.664 937.362 243.664C938.728 243.656 940.094 243.517 941.46 243.623C941.893 243.664 942.319 243.672 942.752 243.656C943.292 243.631 943.832 243.672 944.339 243.893C944.535 243.983 944.756 244.007 944.96 244.073C945.091 244.114 945.173 244.285 945.132 244.416C945.124 244.449 945.108 244.49 945.091 244.514C944.977 244.67 944.936 244.833 945.091 244.989C945.549 245.48 945.468 246.126 945.574 246.715C945.582 246.764 945.517 246.854 945.459 246.886C944.969 247.214 944.421 247.393 943.856 247.475C943.357 247.549 942.867 247.663 942.368 247.704C941.116 247.819 939.865 248.015 938.605 247.999C938.286 247.999 937.959 248.031 937.632 248.048C937.133 248.081 936.626 248.13 936.127 248.146C934.982 248.187 933.829 248.301 932.692 248.432C932.119 248.498 931.547 248.539 930.966 248.604C929.535 248.768 928.112 248.947 926.68 249.119C926.533 249.136 926.394 249.152 926.247 249.152C925.02 249.136 923.793 249.127 922.574 249.095C922.141 249.078 921.707 249.013 921.298 248.898C920.857 248.776 920.407 248.612 919.998 248.399C919.524 248.146 919.131 247.77 918.804 247.328C918.673 247.156 918.599 246.944 918.468 246.78C918.305 246.567 918.256 246.338 918.231 246.077C918.125 244.85 918.305 243.639 918.452 242.421C918.567 241.496 918.738 240.572 918.91 239.656C919 239.124 919.123 238.593 919.237 238.069C919.499 236.875 919.785 235.681 920.055 234.495C920.252 233.653 920.464 232.818 920.734 232.001C920.857 231.624 920.922 231.232 921.02 230.855C921.135 230.438 921.225 230.005 921.405 229.62C921.577 229.261 921.56 229.023 921.217 228.803C921.151 228.762 921.127 228.59 921.159 228.5C921.282 228.132 921.413 227.764 921.519 227.396C921.585 227.167 921.781 226.97 921.904 226.782C922.583 226.439 923.31 226.349 924.006 226.177C924.881 225.964 925.764 225.801 926.607 225.465C926.672 225.433 926.746 225.425 926.819 225.408C927.776 225.245 928.7 224.942 929.649 224.729C930.737 224.476 931.841 224.288 932.962 224.312C934.148 224.345 935.334 224.394 936.511 224.517C936.83 224.549 937.043 224.688 937.174 224.991C937.248 225.171 937.403 226.005 937.534 226.063C937.665 226.12 937.231 227.453 937.133 227.805C937.035 228.173 936.749 228.394 936.323 228.385C935.497 228.369 934.671 228.344 933.845 228.344C932.479 228.336 931.122 228.418 929.772 228.729C929.388 228.819 928.995 228.868 928.611 228.958C927.523 229.203 926.443 229.449 925.355 229.71C925.02 229.792 924.766 229.98 924.685 230.34C924.537 230.929 924.398 231.526 924.267 232.123C924.186 232.475 924.12 232.827 924.038 233.17C923.957 233.522 923.908 233.874 923.924 234.242C923.94 234.732 924.087 234.871 924.603 234.757C924.987 234.675 925.363 234.569 925.748 234.462C926.026 234.389 926.304 234.299 926.582 234.242C926.827 234.201 927.073 234.168 927.286 233.996C927.392 233.914 927.555 233.898 927.686 233.849C928.905 233.407 930.173 233.146 931.408 232.778C931.784 232.663 932.185 232.63 932.569 232.557C932.954 232.483 933.346 232.409 933.731 232.344C934.336 232.246 934.941 232.213 935.555 232.238C935.947 232.246 936.332 232.344 936.732 232.319C937.117 232.287 937.624 232.786 937.624 232.786C937.828 233.088 938.245 233.931 938.213 234.045C938.18 234.176 938.115 234.307 938.082 234.446C938.041 234.634 937.796 235.329 937.836 235.689C937.624 235.845 937.436 235.984 937.149 235.976C935.276 235.91 933.428 236.221 931.588 236.499C930.704 236.63 929.837 236.916 928.97 237.129C927.924 237.391 926.885 237.644 925.846 237.906C925.707 237.938 925.56 237.947 925.429 238.004C924.922 238.217 924.382 238.249 923.842 238.249C923.63 238.249 923.409 238.249 923.196 238.282C923.106 238.298 922.991 238.372 922.951 238.454C922.869 238.609 922.828 238.789 922.779 238.961C922.648 239.403 922.656 239.885 922.452 240.319C922.411 240.4 922.484 240.531 922.46 240.629C922.427 240.801 922.337 241.03 922.337 241.03Z" fill="#1D3E90"/>
<path d="M762.813 244.032C762.813 243.91 762.78 243.779 762.772 243.656L762.551 243.419C762.486 243.28 762.429 243.149 762.363 243.01C762.363 243.01 762.2 242.903 762.2 242.838C762.183 242.544 762.2 242.249 762.2 241.93C762.282 241.897 762.38 241.865 762.461 241.807C762.511 241.775 762.576 241.685 762.56 241.66C762.396 241.3 762.666 241.014 762.69 240.703C763.443 240.556 764.163 240.417 764.882 240.27C765.046 240.237 765.21 240.18 765.357 240.114C765.43 240.074 765.529 239.984 765.545 239.902C765.733 238.708 765.946 237.522 766.093 236.328C766.224 235.264 766.469 234.217 766.469 233.138C766.469 232.917 766.559 232.336 766.559 232.132C766.567 231.674 766.592 231.207 766.592 230.741C766.592 230.668 766.494 230.553 766.42 230.529C766.199 230.455 765.97 230.422 765.741 230.365C765.684 230.349 765.578 230.267 765.578 230.267C765.414 230.161 765.242 230.054 765.095 229.956C765.021 229.645 765.275 229.506 765.349 229.285C765.251 228.836 765.152 228.377 765.054 227.919C765.022 227.756 765.136 227.568 765.3 227.527C765.782 227.396 766.273 227.273 766.878 227.118C766.935 227.085 766.968 226.922 767.009 226.758C767.066 226.529 767.107 226.3 767.156 226.079C767.213 226.022 767.263 225.957 767.32 225.94C767.606 225.858 767.901 225.785 768.195 225.719C768.359 225.678 768.522 225.646 768.686 225.613C768.776 225.605 768.882 225.597 768.972 225.621C769.16 225.687 769.332 225.817 769.528 225.842C769.962 225.907 770.182 226.136 770.248 226.554C770.272 226.709 770.428 226.75 770.559 226.758C770.722 226.766 770.902 226.774 771.066 226.734C771.794 226.578 772.538 226.578 773.266 226.48C773.634 226.431 774.002 226.39 774.362 226.308C775.311 226.079 776.268 225.891 777.241 225.826C777.405 225.817 777.576 225.785 777.74 225.736C778.198 225.629 778.648 225.466 779.13 225.515C779.613 225.351 780.128 225.376 780.619 225.294C781.093 225.22 781.56 225.237 782.034 225.229C782.606 225.22 783.171 225.139 783.743 225.278C783.841 225.302 783.989 225.269 784.03 225.327C784.275 225.629 784.627 225.588 784.946 225.654C785.027 225.67 785.076 225.785 785.044 225.899C785.019 225.965 784.995 226.022 784.97 226.087C784.872 226.3 784.929 226.48 785.101 226.627C785.126 226.652 785.15 226.668 785.175 226.701C785.281 226.84 785.281 226.963 785.183 227.044C784.872 227.306 784.578 227.584 784.193 227.715C784.087 227.756 784.095 227.789 784.218 227.936C784.332 228.075 784.34 228.214 784.242 228.271C783.604 228.656 783.228 228.754 782.337 228.795C781.56 228.827 780.791 228.86 780.014 228.917C779.507 228.95 779.008 229.007 778.509 229.097C777.511 229.269 776.513 229.4 775.507 229.547C775.311 229.572 775.106 229.588 774.902 229.604C773.43 229.735 771.949 229.858 770.477 229.989C770.158 230.013 770.035 230.12 770.011 230.406C769.953 231.109 769.896 231.813 769.872 232.524C769.831 233.735 769.765 234.945 769.61 236.148C769.504 236.982 769.356 237.816 769.299 238.65C769.291 238.757 769.283 238.855 769.283 238.953C769.283 239.035 769.414 239.149 769.495 239.125C769.913 238.986 770.354 238.928 770.755 238.781C771.516 238.503 772.309 238.34 773.086 238.111C773.732 237.922 774.395 237.8 775.057 237.669C775.981 237.497 776.914 237.325 777.838 237.178C778.231 237.113 778.64 237.105 779.04 237.064C779.678 236.998 780.308 236.974 780.946 236.941C781.347 236.925 781.756 236.925 782.157 236.957C782.5 236.99 782.778 237.121 783.007 237.432C783.253 237.759 783.49 238.07 783.621 238.446C783.547 238.708 783.555 238.904 783.645 239.288C783.653 239.321 783.653 239.354 783.653 239.387C783.702 239.673 783.457 240.155 783.203 240.294C783.171 240.311 783.146 240.335 783.122 240.352C782.533 240.597 781.952 240.859 781.355 241.088C780.693 241.341 779.997 241.488 779.302 241.611C777.544 241.922 775.802 242.282 774.059 242.666C773.798 242.724 773.552 242.838 773.291 242.912C772.284 243.19 771.279 243.451 770.272 243.73C769.847 243.844 769.422 243.926 768.98 243.893C768.784 243.877 768.571 244.057 768.547 244.237C768.489 244.67 768.424 245.104 768.375 245.537C768.26 246.445 768.105 247.345 768.04 248.244C767.974 249.185 767.909 250.126 767.966 251.066C767.982 251.361 768.105 251.581 768.416 251.663C768.555 251.696 768.612 251.827 768.678 251.941C768.833 252.219 768.866 252.522 768.858 252.825C768.858 253.021 768.849 253.234 768.792 253.422C768.612 253.978 768.612 254.55 768.612 255.107C768.465 255.385 768.17 255.54 768.08 255.851C768.023 256.055 767.786 256.129 767.598 256.178C767.279 256.276 766.944 256.358 766.616 256.399C766.42 256.423 765.676 256.088 765.43 256.121C765.267 256.145 765.095 256.162 764.948 256.186C764.711 256.072 764.572 255.875 764.465 255.663C764.31 255.368 764.024 255.156 763.926 254.82C763.827 254.485 763.934 254.15 763.917 253.814C763.909 253.651 763.917 253.479 763.909 253.307C763.885 252.808 763.885 252.318 763.999 251.819C764.187 251.001 764.22 250.158 764.285 249.324C764.375 248.22 764.441 247.107 764.629 246.012C764.686 245.684 764.686 245.341 764.711 245.046C764.482 244.793 764.245 244.703 763.958 244.752C763.827 244.776 763.696 244.793 763.566 244.809C763.443 244.817 763.427 244.801 763.369 244.531C763.361 244.417 762.813 244.253 762.813 244.032Z" fill="#1D3E90"/>
<path d="M727.022 224.983C727.079 225.073 727.144 225.114 727.243 225.163C727.463 225.253 727.463 225.261 727.341 225.416C727.161 225.637 727.161 225.637 727.316 225.825C727.382 225.899 727.455 225.973 727.521 226.046C727.512 226.177 727.472 226.308 727.488 226.439C727.512 226.643 727.504 226.848 727.406 227.028C727.267 227.289 727.275 227.617 727.071 227.862C726.784 228.189 726.523 228.541 726.253 228.884C726.065 229.122 725.909 229.383 725.713 229.604C724.658 230.782 723.799 232.115 722.875 233.391C722.27 234.233 721.697 235.109 721.01 235.902C720.904 236.025 720.781 236.164 720.724 236.311C720.609 236.605 720.405 236.826 720.192 237.039C719.742 237.489 719.415 238.045 718.99 238.519C718.728 238.814 718.597 239.223 718.352 239.542C718.254 239.672 718.18 239.836 718.074 239.959C717.501 240.662 717.035 241.439 716.544 242.2C716.037 242.985 715.587 243.819 715.08 244.604C714.843 244.972 714.524 245.291 714.336 245.684C714.164 246.06 713.886 246.347 713.657 246.674C713.126 247.451 712.479 248.138 712.054 248.988C711.604 249.528 711.212 250.117 710.704 250.608C710.386 250.91 710.083 251.221 709.748 251.54C709.51 251.622 709.232 251.565 708.995 251.475C708.766 251.393 707.956 251.27 707.785 251.262C707.785 251.262 707.376 251.058 707.13 251.115C706.901 251.172 706.73 251.074 706.574 250.951C705.887 250.428 705.535 249.716 705.552 248.866C705.56 247.762 705.503 246.649 705.699 245.545C705.797 244.989 705.773 244.4 705.813 243.836C705.846 243.296 705.887 242.764 705.928 242.224C705.969 241.685 706.01 241.153 706.051 240.613C706.059 240.548 706.042 240.474 706.059 240.409C706.255 239.484 706.198 238.536 706.353 237.603C706.386 237.374 706.378 237.129 706.451 236.9C706.68 236.221 706.689 235.509 706.795 234.814C706.991 233.587 707.147 232.344 707.367 231.117C707.498 230.357 707.637 229.596 707.932 228.868C707.973 228.77 708.022 228.688 708.063 228.598C708.144 228.434 708.194 228.41 708.48 228.434C708.513 228.434 708.545 228.459 708.578 228.459C708.766 228.475 708.832 228.41 708.872 228.165C708.881 228.099 708.872 228.034 708.889 227.976C708.913 227.903 709.101 227.805 709.134 227.854C709.298 228.091 709.592 227.936 709.78 228.075C709.96 228.205 710.173 228.148 710.361 228.197C710.647 228.263 710.909 228.41 711.22 228.41C711.342 228.41 711.498 228.59 711.473 228.794C711.457 228.893 711.416 228.974 711.498 229.072C711.588 229.171 710.664 233.62 710.639 233.775C710.631 233.841 710.615 233.906 710.598 233.972C710.361 235.264 710.14 236.556 710.05 237.865C710.026 238.168 709.977 238.47 709.952 238.765C709.854 239.803 709.78 240.842 709.821 241.889C709.846 242.592 709.78 243.304 709.756 244.016C709.756 244.04 709.788 244.089 709.805 244.097C709.862 244.106 709.927 244.097 709.985 244.081C710.017 244.073 710.042 244.04 710.058 244.016C710.099 243.958 710.14 243.909 710.173 243.852C710.786 242.805 711.392 241.758 712.005 240.719C712.07 240.605 712.152 240.49 712.226 240.384C712.553 239.918 712.913 239.468 713.199 238.977C713.469 238.511 713.788 238.078 714.066 237.62C714.459 236.949 714.982 236.368 715.367 235.697C715.522 235.436 715.71 235.182 715.923 234.986C716.356 234.593 716.659 234.111 716.937 233.612C717.321 232.933 717.796 232.328 718.254 231.698C718.466 231.403 718.695 231.109 718.892 230.79C718.998 230.618 719.129 230.463 719.252 230.307C719.415 230.087 719.603 229.89 719.742 229.661C720.143 228.999 720.675 228.426 721.076 227.764C721.264 227.445 721.525 227.175 721.779 226.905C722.441 226.193 723.112 225.482 723.783 224.778C723.922 224.631 724.085 224.509 724.208 224.353C724.486 224.018 724.846 223.871 725.247 223.789C725.509 223.74 725.721 223.764 725.836 224.026C725.893 224.165 725.991 224.23 726.114 224.296C726.359 224.41 726.956 224.868 727.022 224.983Z" fill="#1D3E90"/>
<path d="M673.842 223.527C674.062 223.478 674.3 223.486 674.455 223.265C674.529 223.151 674.668 223.134 674.807 223.159C674.905 223.175 675.003 223.184 675.101 223.184C675.306 223.184 675.42 223.233 675.33 223.47C675.322 223.478 675.404 223.543 675.453 223.56C675.576 223.601 675.706 223.617 675.837 223.65L675.829 223.625L676.074 223.633L676.066 223.658C676.124 223.625 676.181 223.584 676.238 223.56C676.402 223.486 676.492 223.494 676.59 223.609C676.655 223.682 676.721 223.772 676.655 223.879C676.442 224.181 676.745 224.28 676.909 224.476C676.802 225.007 676.843 225.58 676.786 226.136C676.704 226.938 676.532 227.731 676.287 228.508C675.821 229.989 675.355 231.469 674.799 232.917C674.496 233.694 674.242 234.495 673.874 235.256C673.613 235.796 673.433 236.385 673.245 236.957C672.934 237.881 672.623 238.806 672.304 239.73C671.944 240.777 671.584 241.832 671.306 242.903C671.159 243.459 671.077 244.024 670.979 244.588C670.938 244.825 670.938 245.062 671.036 245.283C671.077 245.373 671.143 245.488 671.224 245.504C671.65 245.602 672.059 245.758 672.517 245.709C672.942 245.66 673.392 245.758 673.784 245.512C674.455 245.447 675.118 245.3 675.772 245.161C676.86 244.932 677.939 244.694 679.027 244.457C679.943 244.253 680.876 244.106 681.808 243.95C682.773 243.778 683.738 243.68 684.695 243.468C685.48 243.288 686.298 243.255 687.1 243.157C687.231 243.14 687.37 243.149 687.501 243.116C688.212 242.977 688.907 243.083 689.603 243.181C689.889 243.386 690.216 243.059 690.478 243.222C690.699 243.361 690.838 243.615 691.124 243.68C691.255 243.713 691.377 243.77 691.5 243.811C691.574 243.999 691.713 244.179 691.549 244.384C691.484 244.474 691.459 244.572 691.541 244.654C691.77 244.883 691.803 245.103 691.615 245.373C691.557 245.447 691.574 245.57 691.541 245.668C691.5 245.815 691.541 245.987 691.696 246.044C691.803 246.085 691.868 246.289 691.835 246.396C691.77 246.6 691.639 246.772 691.459 246.854C691.034 247.042 690.682 247.402 690.167 247.394C689.652 247.655 689.055 247.631 688.531 247.852C688.441 247.892 688.335 247.892 688.237 247.909C687.91 247.95 687.582 247.827 687.247 247.991C686.953 248.13 686.601 248.154 686.274 248.236C685.366 248.457 684.442 248.645 683.501 248.678C683.059 248.694 682.659 248.907 682.209 248.882C681.693 249.062 681.154 249.111 680.63 249.201C680.262 249.267 679.91 249.365 679.542 249.446C679.379 249.487 679.215 249.545 679.052 249.553C678.479 249.577 677.915 249.626 677.383 249.864C676.671 249.864 676.001 250.117 675.289 250.174C675.158 250.183 675.011 250.183 674.889 250.232C674.341 250.42 673.776 250.452 673.212 250.534C672.533 250.632 671.87 250.567 671.208 250.493C670.774 250.444 670.341 250.387 669.957 250.15C669.842 250.076 669.711 250.027 669.58 250.003C669.384 249.954 669.171 249.97 668.983 249.896C668.771 249.815 668.583 249.643 668.362 249.569C668.157 249.496 668.1 249.242 667.92 249.185C667.675 249.095 667.495 248.964 667.429 248.735C667.388 248.571 667.372 248.44 667.225 248.318C667.02 248.154 666.824 247.95 666.677 247.729C666.489 247.451 666.431 247.115 666.366 246.788C666.325 246.559 666.268 246.33 666.227 246.101C666.219 246.036 666.26 245.97 666.251 245.905C666.194 245.3 666.211 244.694 666.251 244.089C666.276 243.762 666.374 243.427 666.448 243.1C666.513 242.838 666.628 242.584 666.669 242.323C666.783 241.619 667.037 240.957 667.225 240.278C667.241 240.212 667.257 240.147 667.298 240.09C667.536 239.722 667.724 239.345 667.846 238.92C667.961 238.536 668.124 238.168 668.247 237.783C668.28 237.685 668.321 237.595 668.362 237.505C668.754 236.605 669.024 235.673 669.359 234.757C669.891 233.301 670.415 231.845 671.061 230.43C671.609 229.236 672.034 227.993 672.394 226.725C672.623 225.915 672.795 225.089 672.999 224.255C673.285 224.018 673.563 223.781 673.842 223.543V223.527Z" fill="#1D3E90"/>
<path d="M697.536 251.573C697.471 251.761 697.667 251.99 697.364 252.113C697.135 252.203 697.111 252.489 696.98 252.669C696.743 252.571 696.498 252.457 696.244 252.408C696.138 252.383 696.138 252.301 696.211 252.17C696.244 252.113 696.309 252.064 696.318 252.007C696.326 251.958 696.309 251.876 696.277 251.835C696.113 251.696 695.917 251.639 695.72 251.729C695.631 251.77 695.557 251.843 695.475 251.892C695.336 251.982 695.295 251.974 695.172 251.77C695.115 251.68 695.091 251.581 694.968 251.59C694.837 251.606 694.698 251.598 694.616 251.745C694.592 251.794 694.535 251.86 694.485 251.86C694.436 251.86 694.363 251.81 694.346 251.761C694.248 251.508 694.166 251.246 694.265 250.976C694.33 250.78 694.355 250.584 694.33 250.379C694.281 249.995 693.946 249.635 694.216 249.218C694.248 248.817 694.273 248.408 694.314 248.015C694.51 246.404 694.952 244.85 695.434 243.304C695.827 242.053 696.35 240.842 696.735 239.591C697.381 238.176 697.822 236.696 698.248 235.207C698.395 234.692 698.64 234.209 698.747 233.669C698.853 233.113 699.058 232.573 699.205 232.017C699.344 231.502 699.491 230.978 699.614 230.455C699.736 229.932 699.835 229.4 699.957 228.876C700.137 228.124 700.317 227.372 700.522 226.627C700.554 226.513 700.677 226.415 700.759 226.308C701.111 226.3 701.372 226.03 701.699 225.965C701.863 225.932 702.051 225.875 702.19 225.981C702.427 226.145 702.681 226.186 702.951 226.21C703.245 226.235 703.401 226.455 703.548 226.684C703.507 226.889 703.63 226.971 703.801 227.044C703.875 227.077 703.94 227.2 703.949 227.29C703.973 227.551 704.03 227.838 703.957 228.083C703.85 228.443 703.916 228.827 703.76 229.171C703.662 229.392 703.638 229.621 703.605 229.85C703.482 230.578 703.352 231.306 703.196 232.034C703.041 232.753 702.861 233.481 702.681 234.201C702.337 235.575 701.887 236.916 701.438 238.258C701.339 238.544 701.282 238.838 701.2 239.133C700.89 240.164 700.571 241.186 700.178 242.184C699.99 242.658 699.867 243.149 699.736 243.631C699.655 243.918 699.622 244.22 699.434 244.482C699.344 244.605 699.327 244.801 699.311 244.965C699.287 245.235 699.237 245.496 699.18 245.758C698.976 246.609 698.763 247.459 698.657 248.326C698.583 248.931 698.436 249.52 698.321 250.109C698.289 250.273 698.223 250.436 698.223 250.6C698.215 251.083 697.986 251.41 697.536 251.573Z" fill="#1D3E90"/>
<path d="M758.102 226.423H758.143L758.118 226.463L758.102 226.423Z" fill="#1D3E90"/>
<path d="M736.1 221.417C736.149 221.417 736.199 221.417 736.239 221.417V221.409C736.19 221.409 736.141 221.401 736.092 221.401L736.1 221.417Z" fill="#1D3E90"/>
<path d="M734.898 221.335C734.882 221.335 734.865 221.343 734.849 221.343C734.841 221.294 734.857 221.294 734.89 221.352L734.898 221.335Z" fill="#1D3E90"/>
<path d="M804.248 238.34V238.364L804.265 238.356L804.248 238.34Z" fill="#1D3E90"/>
<path d="M859.44 245.93L859.416 245.963L859.432 245.922L859.44 245.93Z" fill="white"/>
<path d="M776.341 226.406L776.309 226.439L776.325 226.423C776.333 226.414 776.341 226.406 776.341 226.406Z" fill="#1D3E90"/>
<path d="M865.689 227.92C865.738 227.887 865.787 227.887 865.828 227.928L865.836 227.911C865.787 227.911 865.73 227.903 865.681 227.903L865.689 227.92Z" fill="white"/>
<path d="M736.092 221.401C736.141 221.401 736.19 221.401 736.239 221.409C736.19 221.409 736.141 221.401 736.092 221.401Z" fill="#1D3E90"/>
<path d="M747.42 238.986L747.437 239.002L747.42 238.986Z" fill="#1D3E90"/>
<path d="M865.681 227.903C865.73 227.903 865.779 227.903 865.836 227.911C865.787 227.952 865.73 227.952 865.681 227.903Z" fill="white"/>
</svg>
