<svg width="681" height="288" viewBox="0 0 681 288" fill="none" xmlns="http://www.w3.org/2000/svg">
<path d="M1.35303 263.975L5.81774 263.732L7.05159 286.379L2.58688 286.623L1.35303 263.975ZM24.9894 262.688L25.2221 266.958L19.1074 267.291L20.1086 285.668L15.6439 285.911L14.6427 267.535L8.56029 267.866L8.32762 263.595L24.9894 262.688ZM32.786 262.23L30.8496 271.357L27.4525 271.542L28.2566 262.477L32.786 262.23ZM44.4663 284.795C39.8398 285.047 36.677 282.981 35.2642 279.683L38.9603 277.242C39.8837 279.301 41.543 280.574 44.3577 280.42C47.043 280.274 47.9196 279.091 47.8508 277.829C47.7591 276.147 46.2033 275.582 42.7857 274.795C39.2693 273.981 35.8253 272.708 35.5908 268.405C35.3582 264.135 38.783 261.482 42.6654 261.27C46.386 261.068 49.3371 262.821 51.0304 265.909L47.3955 268.281C46.4933 266.611 45.1987 265.481 42.9016 265.606C41.0251 265.708 39.978 266.738 40.0485 268.033C40.1243 269.424 41.0384 270.12 44.5242 270.969C48.1771 271.905 52.0599 272.895 52.312 277.521C52.5429 281.759 49.2868 284.533 44.4663 284.795ZM71.4166 283.327C66.7901 283.579 63.6273 281.512 62.2145 278.215L65.9106 275.774C66.834 277.833 68.4933 279.106 71.308 278.952C73.9933 278.806 74.8699 277.622 74.8011 276.361C74.7095 274.678 73.1536 274.114 69.736 273.327C66.2196 272.512 62.7756 271.24 62.5411 266.937C62.3085 262.666 65.7333 260.014 69.6157 259.802C73.3363 259.599 76.2874 261.353 77.9807 264.441L74.3458 266.813C73.4436 265.142 72.149 264.012 69.8519 264.137C67.9754 264.24 66.9283 265.27 66.9988 266.564C67.0746 267.955 67.9887 268.652 71.4745 269.5C75.1274 270.437 79.0102 271.426 79.2623 276.053C79.4932 280.291 76.2371 283.064 71.4166 283.327ZM93.0971 282.146C86.5618 282.502 81.0709 277.609 80.7114 271.009C80.35 264.377 85.2786 258.949 91.8139 258.593C98.3492 258.237 103.87 263.095 104.232 269.728C104.591 276.328 99.6324 281.79 93.0971 282.146ZM92.8591 277.778C96.968 277.554 100.003 274.306 99.7673 269.971C99.5293 265.603 96.1589 262.704 92.0501 262.928C87.9413 263.152 84.9058 266.4 85.1437 270.768C85.3799 275.103 88.7503 278.002 92.8591 277.778ZM129.12 267.95C130.989 268.886 132.25 270.602 132.379 272.964C132.59 276.846 129.599 279.703 125.684 279.916L116.075 280.44L114.841 257.792L123.771 257.306C127.588 257.098 130.803 259.519 131.009 263.304C131.115 265.245 130.389 266.81 129.12 267.95ZM123.998 261.479L119.533 261.723L119.805 266.705L124.269 266.462C125.661 266.386 126.638 265.262 126.56 263.838C126.483 262.415 125.421 261.402 123.998 261.479ZM125.456 275.742C126.977 275.66 128.015 274.467 127.931 272.914C127.848 271.394 126.686 270.321 125.166 270.404L120.021 270.684L120.312 276.023L125.456 275.742ZM148.087 278.695L143.097 271.082L139.7 271.267L140.128 279.129L135.664 279.372L134.43 256.725L143.489 256.232C147.662 256.004 151.21 259.186 151.436 263.327C151.591 266.174 149.951 268.827 147.428 270.165L152.908 278.433L148.087 278.695ZM139.122 260.655L139.487 267.353L144.081 267.102C145.763 267.011 147.073 265.447 146.971 263.57C146.869 261.694 145.398 260.314 143.716 260.405L139.122 260.655ZM159.769 273.776L169.313 273.256L169.546 277.526L155.537 278.29L154.303 255.642L168.15 254.888L168.383 259.159L159 259.67L159.263 264.49L167.836 264.023L168.066 268.229L159.492 268.696L159.769 273.776ZM187.599 276.543L186.018 272.54L176.992 273.032L175.855 277.183L171.034 277.445L177.727 254.366L183.259 254.065L192.452 276.278L187.599 276.543ZM178.188 268.781L184.4 268.443L180.79 259.359L178.188 268.781ZM206.754 252.785L206.986 257.055L200.872 257.389L201.873 275.765L197.408 276.008L196.407 257.632L190.325 257.963L190.092 253.693L206.754 252.785ZM222.123 251.948L226.555 251.706L227.789 274.353L223.356 274.595L222.845 265.212L214.434 265.671L214.945 275.053L210.48 275.296L209.246 252.649L213.711 252.406L214.201 261.4L222.613 260.942L222.123 251.948ZM245.742 250.661L245.974 254.931L239.86 255.264L240.861 273.641L236.396 273.884L235.395 255.508L229.312 255.839L229.08 251.569L245.742 250.661ZM262.384 272.468L260.803 268.466L251.776 268.958L250.64 273.108L245.819 273.371L252.512 250.292L258.044 249.99L267.237 272.204L262.384 272.468ZM252.973 264.707L259.184 264.368L255.574 255.284L252.973 264.707ZM287.133 271.12L281.989 271.4L273.322 261.229L273.9 271.841L269.436 272.084L268.202 249.437L272.667 249.194L273.211 259.191L280.431 248.771L285.575 248.491L277.795 259.947L287.133 271.12ZM288.107 248.353L292.571 248.109L293.805 270.756L289.34 271L288.107 248.353ZM309.866 247.167L314.331 246.924L315.565 269.571L312.168 269.756L301.708 256.438L302.462 270.285L297.997 270.528L296.764 247.881L300.161 247.696L310.619 260.982L309.866 247.167ZM341.33 255.966L341.425 257.713C341.781 264.249 337.391 268.836 330.888 269.19C323.803 269.576 318.468 264.578 318.116 258.107C317.758 251.54 322.584 246.02 329.346 245.652C333.649 245.417 337.423 247.386 339.501 250.387L335.803 252.795C334.669 251.04 332.3 249.839 329.55 249.989C325.247 250.223 322.314 253.563 322.548 257.866C322.777 262.072 325.959 265.078 330.682 264.821C334.241 264.627 336.412 262.789 337.048 260.158L330.189 260.532L329.974 256.585L341.33 255.966ZM345.781 268.347C344.26 268.429 342.964 267.267 342.881 265.746C342.798 264.226 343.96 262.929 345.481 262.847C347.002 262.764 348.298 263.926 348.381 265.447C348.464 266.967 347.301 268.264 345.781 268.347ZM353.157 267.945C351.637 268.028 350.34 266.865 350.257 265.345C350.174 263.824 351.337 262.528 352.857 262.445C354.378 262.362 355.674 263.524 355.757 265.045C355.84 266.565 354.678 267.862 353.157 267.945ZM360.501 267.545C358.981 267.627 357.684 266.465 357.601 264.944C357.519 263.424 358.681 262.127 360.202 262.045C361.722 261.962 363.019 263.124 363.101 264.645C363.184 266.165 362.022 267.462 360.501 267.545ZM373.76 243.686L378.225 243.443L379.458 266.09L374.994 266.333L373.76 243.686ZM397.396 242.398L397.629 246.669L391.514 247.002L392.515 265.379L388.051 265.622L387.049 247.245L380.967 247.577L380.734 243.306L397.396 242.398ZM405.193 241.941L403.256 251.067L399.859 251.253L400.663 242.188L405.193 241.941ZM416.873 264.506C412.247 264.758 409.084 262.691 407.671 259.393L411.367 256.953C412.29 259.012 413.95 260.284 416.765 260.131C419.45 259.985 420.326 258.801 420.258 257.54C420.166 255.857 418.61 255.293 415.193 254.506C411.676 253.691 408.232 252.419 407.998 248.116C407.765 243.845 411.19 241.193 415.072 240.981C418.793 240.778 421.744 242.532 423.437 245.62L419.802 247.992C418.9 246.321 417.605 245.191 415.308 245.316C413.432 245.419 412.385 246.449 412.455 247.743C412.531 249.134 413.445 249.831 416.931 250.679C420.584 251.616 424.467 252.605 424.719 257.232C424.95 261.47 421.694 264.243 416.873 264.506ZM443.823 263.038C439.197 263.29 436.034 261.223 434.621 257.925L438.317 255.485C439.241 257.544 440.9 258.816 443.715 258.663C446.4 258.517 447.277 257.333 447.208 256.071C447.116 254.389 445.56 253.825 442.143 253.037C438.626 252.223 435.182 250.951 434.948 246.648C434.715 242.377 438.14 239.724 442.022 239.513C445.743 239.31 448.694 241.064 450.387 244.151L446.753 246.524C445.85 244.853 444.556 243.723 442.259 243.848C440.382 243.95 439.335 244.981 439.406 246.275C439.481 247.666 440.395 248.363 443.881 249.211C447.534 250.148 451.417 251.137 451.669 255.763C451.9 260.002 448.644 262.775 443.823 263.038ZM465.504 261.856C458.969 262.212 453.478 257.32 453.118 250.72C452.757 244.087 457.685 238.659 464.221 238.303C470.756 237.947 476.277 242.806 476.639 249.438C476.998 256.038 472.039 261.5 465.504 261.856ZM465.266 257.489C469.375 257.265 472.41 254.017 472.174 249.681C471.936 245.314 468.566 242.415 464.457 242.639C460.348 242.862 457.313 246.111 457.551 250.478C457.787 254.813 461.157 257.713 465.266 257.489ZM495.692 237.043C500.06 236.805 503.608 239.986 503.839 244.225C504.07 248.463 500.888 252.011 496.521 252.249L492.541 252.466L492.947 259.907L488.482 260.15L487.248 237.503L495.692 237.043ZM496.293 248.075C498.202 247.971 499.512 246.407 499.406 244.466C499.299 242.493 497.828 241.113 495.92 241.217L491.94 241.433L492.314 248.292L496.293 248.075ZM519.818 258.443L518.237 254.44L509.21 254.932L508.073 259.083L503.253 259.345L509.945 236.266L515.478 235.965L524.671 258.179L519.818 258.443ZM510.406 250.681L516.618 250.343L513.008 241.259L510.406 250.681ZM538.739 234.698L543.203 234.455L544.437 257.102L541.04 257.287L530.58 243.968L531.334 257.815L526.87 258.059L525.636 235.412L529.033 235.227L539.491 248.512L538.739 234.698ZM563.197 256.08L561.616 252.077L552.59 252.569L551.453 256.719L546.632 256.982L553.325 233.903L558.857 233.602L568.05 255.815L563.197 256.08ZM553.786 248.318L559.998 247.979L556.388 238.896L553.786 248.318ZM591.177 231.841L592.411 254.488L587.979 254.729L587.178 240.041L581.378 250.903L580.86 250.931L573.915 240.796L574.714 255.452L570.249 255.695L569.015 233.048L573.609 232.798L580.696 243.152L586.583 232.091L591.177 231.841ZM611.19 253.465L609.609 249.462L600.582 249.954L599.445 254.105L594.625 254.367L601.317 231.288L606.85 230.987L616.042 253.2L611.19 253.465ZM601.778 245.703L607.99 245.365L604.38 236.281L601.778 245.703ZM618.41 245.446L617.069 236.92L616.716 230.449L621.731 230.176L622.084 236.647L621.71 245.266L618.41 245.446ZM620.497 253.38C618.976 253.462 617.68 252.3 617.597 250.779C617.514 249.259 618.677 247.962 620.197 247.88C621.718 247.797 623.014 248.959 623.097 250.48C623.18 252 622.017 253.297 620.497 253.38Z" fill="#F7EC6A"/>
<path d="M642.91 30.72C641.98 30.14 641.17 29.25 640.47 28.07C639.77 26.89 639.22 25.29 638.81 23.27C638.77 22.69 639.18 21.4 640.06 19.4C640.93 17.4 642 15.11 643.28 12.53C644.56 9.95003 645.87 7.63003 647.23 5.56003C648.58 3.50003 649.72 2.11005 650.65 1.39005C651.76 0.510047 653.17 0.620024 654.9 1.71002C656.63 2.80002 658 4.45005 659.02 6.67005C659.46 7.50005 659.31 8.75005 658.58 10.42C657.85 12.09 656.79 13.9 655.4 15.86C654.02 17.82 652.66 19.76 651.33 21.71C650 23.65 649.07 25.34 648.56 26.78C647.98 28.83 647.23 30.14 646.33 30.73C645.42 31.31 644.28 31.32 642.91 30.72Z" fill="#E6EBAB"/>
<path d="M26.09 174.06C26.56 174.47 28.11 174.44 30.75 173.95C33.39 173.47 36.38 172.46 39.74 170.95C41.91 170.05 44.09 168.99 46.3 167.76C48.5 166.53 50.62 165.19 52.65 163.75C53.71 162.92 54.98 161.74 56.44 160.22C57.91 158.7 59.67 156.51 61.72 153.63C62.02 153.06 62.54 151.96 63.28 150.32C64.02 148.68 64.68 147.13 65.26 145.66C66.17 144.06 67.03 141.73 67.85 138.65C68.67 135.57 68.74 133.06 68.08 131.12C67.36 128.3 66 125.9 63.99 123.92C61.99 121.94 59.57 120.6 56.76 119.88C54.3 119.58 52.26 119.43 50.65 119.41C49.04 119.4 47.3 119.61 45.44 120.04C43.7 120.69 42.47 121.54 41.76 122.57C41.04 123.6 40.11 125.75 38.97 129.01C38.28 130.59 37.3 132.85 36.03 135.79C34.76 138.73 33.7 141.6 32.87 144.41C31.3 151.78 29.81 157.57 28.38 161.78C26.96 166 26.06 168.72 25.69 169.95C25.87 171.15 25.86 172.01 25.67 172.51C25.47 173.02 25.61 173.53 26.09 174.06ZM6.63999 229.08C5.30999 229.16 4.15999 228.51 3.18999 227.13C2.48999 226.51 1.81999 225.56 1.18999 224.27C0.559991 222.98 0.399992 220.73 0.709992 217.52C1.01999 214.31 2.04999 209.51 3.78999 203.12C4.64999 198.88 5.35999 195.78 5.90999 193.82C6.45999 191.86 6.70999 190.44 6.65999 189.56C6.58999 188.35 6.66999 187.33 6.89999 186.49C7.12999 185.65 7.21999 184.85 7.17999 184.08C7.83999 184.04 8.46999 183.4 9.06999 182.15C9.65999 180.9 10.12 179.22 10.44 177.11C10.77 175.22 11.1 173.68 11.42 172.51C11.74 171.33 11.89 170.53 11.86 170.09C12.36 169.18 12.86 167.77 13.36 165.87C13.86 163.97 14.7 161.66 15.87 158.95C16.56 155.6 17.36 152.11 18.26 148.48C19.16 144.85 20.1 141.43 21.08 138.23C22.06 135.03 22.89 132.53 23.56 130.73C24.58 127.26 25.38 124.81 25.96 123.4C26.54 121.99 26.49 121.08 25.8 120.68C24.99 120.18 24.62 118.96 24.67 117.03C24.72 115.1 25.7 113.25 27.59 111.49C28.72 109.99 30.05 108.9 31.56 108.2C33.07 107.51 34.88 107.1 36.99 106.97C39.09 106.85 41.48 106.82 44.15 106.88C46.15 106.87 48.28 106.8 50.55 106.67C52.82 106.54 54.23 106.46 54.78 106.42C55.8 106.8 57.05 107.2 58.51 107.61C59.98 108.02 61.31 108.44 62.5 108.87C63.69 109.3 64.3 109.67 64.32 110C64.36 110.66 64.63 111.06 65.14 111.19C65.65 111.33 66.18 111.43 66.74 111.51C67.51 111.46 68.74 112.05 70.42 113.28C72.1 114.5 73.85 115.97 75.67 117.69C77.49 119.4 78.84 121.17 79.73 122.99C80.72 124.81 81.54 126.52 82.2 128.14C82.85 129.75 82.99 132.12 82.61 135.22C82.59 136.87 82.44 138.54 82.15 140.21C81.86 141.88 81.51 143 81.1 143.58C80.46 144.06 79.88 144.64 79.37 145.33C78.85 146.02 78.61 146.64 78.65 147.19C78.68 147.63 78.32 148.67 77.58 150.31C76.84 151.95 75.87 153.8 74.65 155.85C73.44 157.9 72.14 159.94 70.76 161.95C69.38 163.96 68.06 165.61 66.8 166.89C65.46 168.73 63.87 170.48 62.02 172.13C60.17 173.78 58.5 175.15 57.01 176.22C54.21 177.71 51.02 179.19 47.44 180.66C43.86 182.14 40.43 183.36 37.16 184.32C33.88 185.28 31.19 185.77 29.08 185.78C25.89 186.41 23.84 186.94 22.93 187.38C22.01 187.82 21.32 188.82 20.86 190.39C20.39 191.85 19.95 193.36 19.54 194.93C19.13 196.5 18.94 197.56 18.98 198.1C18.78 198.55 18.39 199.84 17.79 201.97C17.19 204.1 16.5 206.57 15.72 209.36C14.94 212.16 14.21 214.93 13.54 217.67C12.87 220.41 12.36 222.72 12.03 224.62C11.68 226.18 10.94 227.3 9.80999 227.97C8.68999 228.66 7.62999 229.02 6.63999 229.08Z" fill="#E6EBAB"/>
<path d="M122.52 159.11C125.3 158.44 127.64 157.89 129.54 157.46C131.44 157.03 133.15 156.77 134.69 156.68C138.34 155.58 141.25 154.77 143.4 154.26C145.55 153.75 147.2 153.44 148.35 153.3C149.5 153.17 150.46 153.27 151.25 153.61C151.8 154.22 152.53 154.62 153.44 154.82C153.55 154.56 153.7 153.18 153.87 150.69C154.04 148.2 154.28 145.1 154.58 141.39C154.87 137.68 155.16 133.81 155.44 129.79C155.72 125.76 155.91 122 156.03 118.49C156.14 114.98 156.21 112.27 156.23 110.36C156.22 107.94 155.97 104.78 155.48 100.86C154.71 100.9 153.29 102.39 151.22 105.31C149.15 108.23 146.8 112.03 144.19 116.7C141.58 121.37 139.08 126.39 136.7 131.74C135.56 134.23 134.49 136.29 133.5 137.94C132.5 139.59 131.69 140.43 131.05 140.47C130.81 140.74 130.17 141.8 129.12 143.64C128.07 145.48 126.97 147.55 125.83 149.85C124.68 152.15 123.74 154.2 123.02 156.03C122.28 157.85 122.12 158.88 122.52 159.11ZM82.5399 225.78C80.1699 224.64 78.8399 223.32 78.5599 221.81C78.2799 220.3 78.9899 217.58 80.6799 213.67C82.3799 209.75 85.0299 203.68 88.6599 195.45C91.3999 189.56 93.2699 184.97 94.2999 181.66C95.3299 178.35 95.9599 176 96.1999 174.58C96.4399 173.17 96.5499 172.27 96.5199 171.89C96.1999 170.76 96.2699 169.84 96.7399 169.11C97.2099 168.38 98.0099 167.73 99.1299 167.16C99.7299 166.49 100.97 165.27 102.86 163.51C104.74 161.75 106.26 159.68 107.41 157.33C108.41 154.6 109.59 151.8 110.96 148.91C112.33 146.03 114.11 142.4 116.29 138C118.47 133.61 121.41 127.87 125.1 120.78C127.4 116.19 130.09 111.17 133.17 105.7C136.25 100.24 139.38 95.12 142.57 90.36C143.87 88.5 145.2 87.03 146.55 85.93C147.9 84.83 149.14 84.25 150.3 84.18C152.73 84.04 155.23 84.56 157.8 85.75C160.37 86.94 162.73 88.46 164.89 90.3C167.05 92.15 168.57 94 169.45 95.86C170.15 96.84 170.53 98.98 170.59 102.28C170.65 105.59 170.63 109.6 170.52 114.31C170.41 119.03 170.25 124.06 170.05 129.42C169.97 134.65 169.75 140.83 169.4 147.98C169.05 155.13 168.74 162.59 168.49 170.37C168.24 178.15 168.13 185.63 168.16 192.82C168.19 200.01 168.56 206.26 169.25 211.56C169.44 212.69 169.51 213.77 169.44 214.79C169.37 215.81 169.35 216.64 169.39 217.28C168.67 218.09 167.15 218.52 164.85 218.59C162.55 218.66 160.28 218.38 158.07 217.74C155.85 217.11 154.58 216.22 154.26 215.1C153.85 214.74 153.61 214.37 153.52 214C153.43 213.62 153.39 212.29 153.38 210C153.37 207.71 153.27 203.77 153.08 198.18L152.31 168.44L149.83 168.78C148.68 168.85 146.58 169.1 143.52 169.53C140.47 169.96 137.16 170.51 133.61 171.16C130.06 171.81 126.79 172.45 123.81 173.07C120.83 173.69 118.78 174.22 117.65 174.67C116.5 174.74 115.17 175.58 113.66 177.19C112.15 178.81 110.76 180.86 109.5 183.35C109.09 185.16 108.27 187.08 107.05 189.12C105.82 191.17 105.23 192.51 105.26 193.14C104.4 193.83 103.51 195.09 102.59 196.92C102.63 197.68 102.14 199.59 101.1 202.64C100.06 205.69 98.7799 209.08 97.2699 212.79C95.7499 216.51 94.1799 219.75 92.5399 222.52L88.1499 229.65L82.5399 225.78Z" fill="#E6EBAB"/>
<path d="M194.04 232.75C191.72 231.44 190.15 229.99 189.33 228.4C188.51 226.81 188.14 225 188.22 222.96C188.3 220.92 188.59 218.64 189.11 216.13C189.92 211.89 190.87 208.33 191.96 205.45C193.05 202.57 194.12 199.56 195.2 196.42C196.27 193.28 197.13 189.26 197.77 184.38C199.59 179.43 201.2 174.74 202.6 170.34C203.99 165.93 205.45 160.94 206.98 155.34C207.08 154.81 207.59 153.41 208.52 151.12C209.44 148.84 210.57 146.06 211.9 142.76C213.22 139.47 214.52 136.15 215.78 132.8C217.65 126.4 219.35 120.96 220.87 116.48C222.39 112 223.97 107.91 225.6 104.21C227.23 100.51 229.13 96.8301 231.3 93.1601C232.72 90.3301 234.73 88.5401 237.33 87.8001C239.93 87.0601 242.47 87.1101 244.97 87.9501C247.46 88.7901 249.18 90.4901 250.12 93.0601C250.85 94.3301 251.5 95.8301 252.07 97.5701C252.63 99.3101 253.21 101.86 253.8 105.23C254.39 108.61 254.94 113.42 255.43 119.68C256.13 127.11 256.67 134.09 257.05 140.62C257.43 147.15 257.98 153.18 258.7 158.71C259.42 164.24 260.5 169.12 261.93 173.36C262.46 175.69 263.09 178.5 263.81 181.8C264.53 185.1 265.28 188.37 266.06 191.6C266.84 194.83 267.59 197.51 268.31 199.63C269.03 201.75 269.65 202.8 270.18 202.77C270.84 202.73 271.62 202.03 272.53 200.67C273.44 199.31 274.54 196.62 275.82 192.62C277.1 188.61 278.71 182.66 280.62 174.75C282.54 166.84 284.7 156.4 287.11 143.41C287.64 141.15 288.32 137.51 289.15 132.48C289.98 127.45 290.51 122.38 290.74 117.25C291.47 113.93 292.18 110.29 292.88 106.31C293.57 102.34 294.19 98.8301 294.74 95.7801C295.29 92.7401 295.55 91.0201 295.53 90.6201C295.48 89.7101 295.46 88.9201 295.49 88.2601C295.52 87.6001 295.45 86.9501 295.28 86.3101C295.94 86.2701 296.48 85.3601 296.9 83.5601C297.32 81.7701 297.5 80.2201 297.42 78.9101C297.29 76.6901 297.48 74.8801 297.99 73.4701C298.5 72.0601 299.07 71.0201 299.69 70.3201C300.62 68.1701 302.1 67.0301 304.15 66.9101C306.19 66.7901 308.16 67.2701 310.08 68.3301C311.99 69.4001 313.19 70.7701 313.69 72.4401C314.04 73.8601 313.86 77.1201 313.17 82.2001C312.48 87.2901 311.39 94.1301 309.91 102.74C309.99 104.18 309.74 106.55 309.14 109.86C308.54 113.17 307.92 116.68 307.28 120.39C306.63 124.1 306.2 127.27 305.95 129.9C305.62 133.33 305.21 136.53 304.73 139.5C304.24 142.48 303.67 143.92 303 143.83C300.43 158.79 297.58 171.57 294.44 182.17C291.29 192.77 288.46 201.42 285.95 208.12C283.21 215.49 279.62 220.21 275.19 222.31C270.76 224.4 266.28 222.89 261.75 217.78C259.05 214.53 256.82 211.32 255.05 208.14C253.28 204.97 251.74 201.19 250.43 196.81C249.12 192.43 247.8 186.87 246.49 180.13C244.99 174.71 243.85 169.34 243.08 164.01C242.31 158.68 241.76 153.21 241.43 147.59C241.1 141.98 240.82 136.03 240.59 129.75C240.31 122.69 239.8 118.39 239.05 116.87C238.3 115.34 237.38 115.92 236.28 118.6C235.18 121.29 233.8 125.36 232.14 130.83C231.37 133.5 230.43 136.57 229.31 140.04C228.19 143.51 227.04 146.95 225.85 150.37C224.66 153.78 223.68 156.72 222.9 159.19C222.12 161.66 221.62 163.23 221.39 163.9C220.69 165.51 219.89 167.62 218.99 170.23C218.08 172.84 217.39 175.6 216.9 178.51C212.88 191.06 209.95 201.55 208.14 209.98C206.32 218.41 204.97 224.09 204.08 227.02C202.98 230.75 201.83 233.15 200.63 234.2C199.37 235.29 197.19 234.79 194.04 232.75Z" fill="#E6EBAB"/>
<path d="M355.91 149.53C358.95 148.8 361.52 148.19 363.59 147.72C365.67 147.25 367.54 146.97 369.22 146.87C373.22 145.66 376.39 144.78 378.75 144.23C381.1 143.68 382.91 143.33 384.16 143.18C385.41 143.04 386.47 143.15 387.33 143.52C387.93 144.18 388.73 144.62 389.72 144.84C389.84 144.56 390 143.05 390.19 140.32C390.38 137.59 390.64 134.2 390.97 130.15C391.29 126.09 391.61 121.86 391.91 117.46C392.21 113.06 392.43 108.94 392.56 105.1C392.68 101.26 392.76 98.3001 392.78 96.2101C392.76 93.5701 392.49 90.1001 391.96 85.8201C391.12 85.8701 389.57 87.4901 387.3 90.6901C385.03 93.8901 382.47 98.0401 379.61 103.15C376.75 108.26 374.02 113.74 371.42 119.6C370.17 122.32 369.01 124.58 367.92 126.38C366.83 128.19 365.94 129.11 365.24 129.15C364.97 129.45 364.27 130.6 363.13 132.61C361.99 134.63 360.78 136.89 359.53 139.4C358.27 141.91 357.25 144.16 356.45 146.16C355.66 148.15 355.48 149.28 355.91 149.53ZM312.18 222.45C309.58 221.21 308.13 219.76 307.82 218.11C307.51 216.46 308.29 213.49 310.14 209.2C311.99 204.92 314.9 198.27 318.87 189.27C321.86 182.83 323.92 177.8 325.04 174.19C326.16 170.57 326.85 168 327.11 166.45C327.37 164.9 327.49 163.92 327.46 163.51C327.11 162.28 327.19 161.26 327.7 160.47C328.21 159.68 329.09 158.96 330.31 158.33C330.97 157.6 332.33 156.26 334.39 154.33C336.45 152.4 338.11 150.15 339.36 147.57C340.45 144.58 341.74 141.52 343.24 138.36C344.74 135.21 346.68 131.24 349.07 126.43C351.45 121.63 354.67 115.35 358.7 107.6C361.21 102.58 364.15 97.0901 367.53 91.1101C370.9 85.1401 374.33 79.5401 377.81 74.3301C379.23 72.3001 380.68 70.6801 382.16 69.4801C383.63 68.2801 385 67.6401 386.26 67.5701C388.91 67.4201 391.65 67.9901 394.46 69.2801C397.27 70.5801 399.86 72.2401 402.22 74.2601C404.58 76.2801 406.24 78.3101 407.2 80.3401C407.96 81.4101 408.38 83.7501 408.45 87.3701C408.52 90.9901 408.49 95.3701 408.37 100.53C408.25 105.69 408.08 111.2 407.86 117.06C407.77 122.77 407.54 129.54 407.15 137.36C406.76 145.18 406.43 153.34 406.16 161.85C405.88 170.36 405.76 178.55 405.8 186.41C405.84 194.27 406.23 201.11 406.99 206.91C407.2 208.15 407.27 209.33 407.2 210.45C407.12 211.57 407.11 212.47 407.15 213.17C406.36 214.05 404.7 214.53 402.18 214.61C399.66 214.69 397.19 214.38 394.76 213.68C392.33 212.99 390.95 212.02 390.59 210.79C390.15 210.4 389.88 210 389.78 209.58C389.68 209.17 389.64 207.71 389.63 205.2C389.62 202.69 389.51 198.39 389.3 192.27L388.46 159.74L385.75 160.11C384.49 160.18 382.19 160.46 378.85 160.93C375.51 161.41 371.9 162 368.01 162.71C364.12 163.43 360.55 164.12 357.29 164.8C354.03 165.48 351.79 166.06 350.55 166.55C349.29 166.62 347.84 167.54 346.19 169.31C344.54 171.08 343.02 173.33 341.64 176.05C341.19 178.03 340.3 180.13 338.96 182.37C337.62 184.61 336.97 186.07 337.01 186.76C336.07 187.51 335.1 188.89 334.09 190.9C334.14 191.73 333.59 193.82 332.46 197.16C331.32 200.5 329.92 204.2 328.27 208.26C326.61 212.32 324.89 215.87 323.1 218.9L318.29 226.7L312.18 222.45Z" fill="#E6EBAB"/>
<path d="M570.83 199.5C570.53 200.3 569.37 200.73 567.36 200.79C565.35 200.85 563.6 200.06 562.11 198.4C560.56 196.46 559.52 194.23 559 191.73C558.47 189.23 557.87 185.67 557.18 181.05C557.14 175.87 557.32 169.01 557.72 160.49C558.12 151.96 558.6 142.42 559.16 131.87C559.72 121.31 560.25 110.43 560.77 99.2099C561.28 93.7799 561.65 89.0099 561.88 84.8799C562.11 80.7599 562.27 76.4699 562.36 71.9999C562.21 72.0299 561.96 72.2899 561.61 72.7999C561.25 73.3099 560.98 73.8799 560.8 74.4999C560.61 75.1299 560.47 75.5999 560.38 75.9099C559.49 78.4399 558.47 81.0799 557.32 83.7999C556.33 85.7599 555.45 88.3299 554.68 91.5099C553.91 94.6899 552.63 98.3699 550.85 102.55C549.31 107.28 547.62 112.59 545.77 118.48C543.92 124.38 542.28 129.16 540.85 132.83C540 134.76 539.25 136.61 538.6 138.35C537.94 140.1 537.54 141.36 537.38 142.13C537.09 143.82 536.45 145.9 535.48 148.37C534.51 150.85 533.35 153.32 532 155.78C531.37 157.23 530.62 158.89 529.76 160.74C528.9 162.6 527.82 164.91 526.53 167.66C526.51 168.41 525.92 169.88 524.75 172.1C523.58 174.31 522.13 176.8 520.38 179.56C518.64 182.32 516.85 184.83 515.02 187.09C510.76 192.46 507.12 195.9 504.11 197.4C501.09 198.91 497.25 198.31 492.58 195.59C490.28 193.63 488.4 191.49 486.93 189.16C485.46 186.83 484.35 183.55 483.58 179.31C482.81 175.08 482.43 169.25 482.44 161.83C482.57 156.77 482.71 151.51 482.84 146.07C482.98 140.63 483.19 135.41 483.48 130.38C483.77 125.36 484.06 121.01 484.37 117.32C484.67 113.63 484.93 111.1 485.13 109.73C484.97 106.35 484.68 104.58 484.28 104.43C483.88 104.28 483.27 105.25 482.45 107.32C481.84 108.91 480.62 112.29 478.79 117.44C476.95 122.59 474.95 128.67 472.78 135.66C470.6 142.65 468.54 149.81 466.57 157.14C462.61 169.13 459.29 179.11 456.63 187.08C453.96 195.05 451.75 201.42 450 206.19C448.24 210.96 446.95 214.53 446.11 216.9C445.27 219.28 444.63 220.95 444.21 221.91C443.79 222.88 443.45 223.53 443.22 223.87C441.31 224.07 439.46 223.51 437.65 222.21C435.84 220.9 434.17 219.28 432.62 217.34C432.09 216.1 431.67 214.77 431.34 213.35C431.01 211.93 430.95 210.19 431.18 208.15C431.41 206.11 431.99 203.52 432.92 200.38C434.12 196.31 435.32 192.79 436.51 189.83C437.69 186.87 438.52 185.06 439 184.38C439.54 183.25 439.96 182.06 440.26 180.82C440.56 179.58 440.68 178.37 440.61 177.2C441.18 176.21 441.98 174.21 443 171.21C444.03 168.21 445.05 164.98 446.07 161.54C446.89 159.47 447.99 156.63 449.36 153.05C450.73 149.47 452.15 145.54 453.62 141.27C455.09 137 456.4 133.06 457.53 129.44C461.99 116.92 465.6 106.7 468.35 98.7899C471.1 90.8799 473.18 85.8299 474.58 83.6499C475.46 82.7499 476.13 81.2899 476.59 79.2799C477.05 77.2699 477.33 75.7399 477.44 74.6799C478.24 70.8299 479.3 67.4099 480.63 64.4299C481.96 61.4499 483.36 59.8999 484.83 59.7799C486.13 59.5399 487.64 59.6099 489.35 59.9599C491.06 60.3199 492.85 61.1499 494.73 62.4399C496.51 64.0499 498.22 66.0699 499.86 68.5199C501.5 70.9699 502.34 74.7799 502.38 79.9699C502.62 82.1499 502.77 84.7899 502.8 87.8999C502.84 91.0099 502.86 94.0099 502.86 96.8999C502.86 99.7899 502.81 102.21 502.71 104.16C502.38 110.6 502.05 117.04 501.72 123.47C501.39 129.91 501.15 136.03 501 141.84C500.85 147.65 500.79 152.89 500.82 157.56C500.84 162.23 501 165.98 501.29 168.82C501.58 171.66 502.08 173.39 502.79 174C503.57 174.16 504.27 173.92 504.9 173.28C505.53 172.65 506.15 171.53 506.76 169.94C507.54 168.46 508.32 166.8 509.11 164.96C509.9 163.11 510.77 161.14 511.74 159.03C513.13 155.96 514.74 152.26 516.57 147.92C518.4 143.59 520.59 138.15 523.15 131.6C525.7 125.06 528.77 117.01 532.35 107.47C535.93 97.9299 540.08 86.3499 544.79 72.7399C547.21 67.1099 549.49 61.5499 551.64 56.0399C553.78 50.5399 555.8 46.4299 557.71 43.7099C559.35 41.1899 561.68 40.0699 564.72 40.3299C567.76 40.5999 570.73 41.9499 573.63 44.3899C576.54 46.8299 578.51 50.1099 579.55 54.2199C580.06 56.2099 580.32 59.7199 580.33 64.7599C580.34 69.7999 580.18 75.4999 579.84 81.8699C579.49 88.2399 578.85 94.6199 577.92 101.01C577.93 103.53 577.77 106.82 577.46 110.88C577.15 114.94 576.78 119.12 576.36 123.42C575.94 127.72 575.52 131.62 575.11 135.1C574.98 140.17 574.86 144.49 574.76 148.06C574.66 151.64 574.95 154.92 575.64 157.91C574.75 160.44 574.48 163.9 574.83 168.29C575.17 172.68 575.76 177.17 576.59 181.76C577.02 187.47 576.8 191.58 575.91 194.12C575.02 196.65 574.2 197.91 573.45 197.9C572.08 197.72 571.2 198.24 570.83 199.5Z" fill="#E6EBAB"/>
<path d="M630.38 108.15C632.61 107.08 634.5 106.19 636.03 105.48C637.56 104.78 638.97 104.24 640.25 103.89C643.15 102.3 645.46 101.09 647.19 100.27C648.92 99.4501 650.26 98.8901 651.21 98.5701C652.16 98.2501 653 98.1601 653.72 98.3101C654.29 98.7301 654.98 98.9301 655.79 98.9401C655.84 98.7001 655.71 97.5101 655.41 95.3601C655.11 93.2201 654.75 90.5501 654.33 87.3601C653.91 84.1701 653.46 80.8401 652.96 77.3801C652.47 73.9201 651.95 70.7001 651.42 67.7101C650.88 64.7201 650.45 62.4101 650.12 60.7901C649.67 58.7501 648.89 56.1101 647.77 52.8801C647.13 53.0601 646.19 54.5701 644.96 57.4201C643.73 60.2701 642.43 63.9101 641.06 68.3301C639.69 72.7601 638.48 77.4601 637.43 82.4201C636.92 84.7301 636.39 86.6701 635.84 88.2501C635.3 89.8301 634.76 90.6901 634.22 90.8301C634.06 91.1001 633.71 92.1101 633.16 93.8601C632.61 95.6101 632.05 97.5601 631.49 99.7101C630.93 101.86 630.51 103.77 630.22 105.45C629.95 107.13 630 108.03 630.38 108.15ZM608.57 171.84C606.35 171.31 604.99 170.43 604.48 169.2C603.97 167.97 604.08 165.54 604.81 161.92C605.54 158.3 606.69 152.67 608.28 145.05C609.53 139.57 610.29 135.34 610.56 132.35C610.83 129.37 610.94 127.26 610.89 126.01C610.84 124.77 610.77 123.99 610.68 123.67C610.2 122.77 610.1 121.98 610.37 121.27C610.64 120.57 611.19 119.87 612.04 119.18C612.43 118.5 613.26 117.25 614.54 115.41C615.82 113.58 616.73 111.56 617.27 109.35C617.62 106.86 618.11 104.27 618.75 101.58C619.39 98.8901 620.24 95.5001 621.29 91.3801C622.34 87.2701 623.79 81.8801 625.64 75.2101C626.76 70.9101 628.12 66.1701 629.75 60.9901C631.37 55.8101 633.1 50.9101 634.93 46.3001C635.7 44.4901 636.55 43.0001 637.49 41.8301C638.43 40.6601 639.38 39.9401 640.35 39.6801C642.38 39.1201 644.59 39.1101 646.98 39.6501C649.37 40.1901 651.65 41.0501 653.81 42.2201C655.97 43.4001 657.59 44.6901 658.67 46.1001C659.44 46.8001 660.15 48.5501 660.8 51.3301C661.45 54.1201 662.16 57.5201 662.92 61.5301C663.68 65.5401 664.46 69.8401 665.26 74.4101C666.14 78.8501 667.07 84.1301 668.06 90.2401C669.05 96.3601 670.14 102.73 671.34 109.36C672.53 115.99 673.79 122.35 675.12 128.43C676.45 134.51 677.89 139.74 679.43 144.1C679.8 145.03 680.05 145.93 680.17 146.81C680.3 147.69 680.43 148.39 680.58 148.92C680.11 149.73 678.91 150.38 676.97 150.85C675.03 151.32 673.07 151.5 671.07 151.36C669.08 151.22 667.84 150.71 667.37 149.81C666.96 149.58 666.69 149.31 666.55 149.01C666.41 148.71 666.13 147.59 665.71 145.65C665.29 143.71 664.49 140.39 663.32 135.7L657.29 110.66L655.25 111.39C654.29 111.66 652.55 112.25 650.05 113.16C647.54 114.08 644.84 115.14 641.95 116.33C639.06 117.53 636.41 118.65 634 119.72C631.59 120.78 629.95 121.6 629.07 122.19C628.11 122.45 627.13 123.41 626.15 125.05C625.16 126.69 624.36 128.68 623.74 131.02C623.72 132.62 623.38 134.4 622.71 136.35C622.04 138.3 621.78 139.55 621.92 140.07C621.32 140.81 620.79 142.04 620.35 143.75C620.52 144.39 620.45 146.09 620.12 148.86C619.79 151.63 619.32 154.73 618.71 158.15C618.1 161.57 617.35 164.6 616.47 167.24L614.04 174.07L608.57 171.84Z" fill="#E6EBAB"/>
</svg>
