<svg width="681" height="295" viewBox="0 0 681 295" fill="none" xmlns="http://www.w3.org/2000/svg">
<g clip-path="url(#clip0_134_1237)">
<path d="M12.9388 264.68L9.58905 269.308L5.57728 269.527L7.92404 264.953L12.9388 264.68ZM6.81892 289.934L16.3631 289.414L16.5958 293.685L2.58688 294.448L1.35303 271.801L15.2001 271.047L15.4328 275.317L6.05041 275.828L6.31304 280.649L14.8866 280.182L15.1158 284.388L6.54219 284.855L6.81892 289.934ZM41.5767 269.61L41.8093 273.88L35.6946 274.213L36.6958 292.59L32.2311 292.833L31.2299 274.456L25.1476 274.788L24.9149 270.517L41.5767 269.61ZM50.5605 266.394C49.2547 265.654 48.8 265.647 48.8881 267.264L45.5234 267.448C45.2431 262.303 48.319 261.584 51.1983 263.212C52.5042 263.952 52.9265 263.962 52.8384 262.344L56.2355 262.159C56.5157 267.303 53.4075 268.024 50.5605 266.394ZM58.2189 291.417L56.638 287.415L47.6115 287.906L46.4748 292.057L41.6542 292.32L48.3468 269.241L53.8792 268.939L63.0718 291.153L58.2189 291.417ZM48.8076 283.655L55.0194 283.317L51.4094 274.233L48.8076 283.655ZM75.1829 290.947C68.6476 291.303 63.1567 286.411 62.7972 279.811C62.4358 273.178 67.3644 267.75 73.8997 267.394C80.435 267.038 85.9564 271.897 86.3178 278.529C86.6774 285.129 81.7182 290.591 75.1829 290.947ZM74.9449 286.58C79.0538 286.356 82.0893 283.108 81.8531 278.772C81.6151 274.405 78.2447 271.506 74.1359 271.73C70.0271 271.953 66.9916 275.201 67.2295 279.569C67.4657 283.904 70.8361 286.803 74.9449 286.58ZM105.921 266.104C112.165 265.764 117.094 270.46 117.441 276.833C117.788 283.207 113.399 288.411 107.155 288.751L98.1609 289.241L96.9271 266.594L105.921 266.104ZM106.922 284.48C110.837 284.267 113.398 281.24 113.17 277.066C112.943 272.893 110.068 270.161 106.154 270.375L101.624 270.621L102.393 284.727L106.922 284.48ZM125.457 283.471L135.001 282.951L135.234 287.221L121.225 287.984L119.991 265.337L133.838 264.583L134.071 268.854L124.688 269.365L124.951 274.185L133.525 273.718L133.754 277.924L125.18 278.391L125.457 283.471ZM146.138 287.081C141.511 287.333 138.349 285.267 136.936 281.969L140.632 279.529C141.555 281.588 143.215 282.86 146.029 282.707C148.715 282.56 149.591 281.377 149.522 280.115C149.431 278.433 147.875 277.869 144.457 277.081C140.941 276.267 137.497 274.994 137.262 270.691C137.03 266.421 140.455 263.768 144.337 263.557C148.058 263.354 151.009 265.108 152.702 268.195L149.067 270.568C148.165 268.897 146.87 267.767 144.573 267.892C142.697 267.994 141.65 269.025 141.72 270.319C141.796 271.71 142.71 272.407 146.196 273.255C149.849 274.192 153.732 275.181 153.984 279.807C154.215 284.045 150.958 286.819 146.138 287.081ZM161.317 281.517L169.955 281.046L170.188 285.317L157.085 286.031L155.851 263.384L160.316 263.14L161.317 281.517ZM180.846 285.19C175.896 285.46 172.045 282.685 171.779 277.799L170.949 262.561L175.381 262.32L176.192 277.202C176.312 279.402 177.566 280.989 180.608 280.823C183.649 280.657 184.724 278.944 184.604 276.744L183.793 261.861L188.258 261.618L189.088 276.856C189.354 281.742 185.828 284.919 180.846 285.19ZM214.442 260.192L215.675 282.839L211.243 283.08L210.443 268.392L204.642 279.254L204.124 279.282L197.18 269.147L197.978 283.803L193.514 284.046L192.28 261.399L196.874 261.149L203.96 271.503L209.847 260.442L214.442 260.192ZM232.941 270.119C234.809 271.056 236.071 272.772 236.199 275.133C236.411 279.016 233.419 281.872 229.504 282.085L219.895 282.609L218.661 259.962L227.591 259.475C231.408 259.267 234.623 261.688 234.829 265.473C234.935 267.414 234.209 268.979 232.941 270.119ZM227.818 263.649L223.353 263.892L223.625 268.874L228.09 268.631C229.481 268.555 230.458 267.431 230.38 266.008C230.303 264.584 229.242 263.571 227.818 263.649ZM229.277 277.912C230.797 277.829 231.836 276.637 231.751 275.084C231.668 273.563 230.506 272.491 228.986 272.573L223.842 272.854L224.133 278.192L229.277 277.912ZM251.907 280.865L246.917 273.251L243.52 273.436L243.949 281.298L239.484 281.541L238.25 258.894L247.309 258.401C251.482 258.173 255.03 261.355 255.256 265.496C255.411 268.343 253.771 270.996 251.248 272.334L256.728 280.602L251.907 280.865ZM242.942 262.825L243.307 269.522L247.901 269.271C249.584 269.18 250.894 267.616 250.791 265.739C250.689 263.863 249.219 262.483 247.536 262.574L242.942 262.825ZM273.916 279.666L272.335 275.663L263.308 276.155L262.172 280.305L257.351 280.568L264.044 257.489L269.576 257.188L278.769 279.401L273.916 279.666ZM264.505 271.904L270.716 271.565L267.106 262.482L264.505 271.904ZM292.837 255.92L297.302 255.677L298.536 278.324L295.138 278.509L284.678 265.191L285.433 279.038L280.968 279.281L279.734 256.634L283.131 256.449L293.59 269.735L292.837 255.92ZM316.482 254.632L316.715 258.903L310.6 259.236L311.601 277.612L307.137 277.856L306.135 259.479L300.053 259.811L299.82 255.54L316.482 254.632ZM324.441 272.63L333.985 272.11L334.217 276.38L320.208 277.143L318.975 254.496L332.822 253.742L333.054 258.013L323.672 258.524L323.935 263.344L332.508 262.877L332.737 267.083L324.164 267.55L324.441 272.63ZM339.62 276.508C338.099 276.591 336.803 275.428 336.72 273.908C336.637 272.387 337.799 271.091 339.32 271.008C340.841 270.925 342.137 272.087 342.22 273.608C342.303 275.129 341.14 276.425 339.62 276.508ZM348.277 276.036C346.756 276.119 345.46 274.957 345.377 273.436C345.294 271.915 346.456 270.619 347.977 270.536C349.498 270.453 350.794 271.616 350.877 273.136C350.96 274.657 349.797 275.953 348.277 276.036ZM356.934 275.564C355.413 275.647 354.117 274.485 354.034 272.964C353.951 271.444 355.113 270.147 356.634 270.064C358.155 269.982 359.451 271.144 359.534 272.665C359.617 274.185 358.454 275.482 356.934 275.564ZM381.775 244.585L378.426 249.213L374.414 249.432L376.761 244.858L381.775 244.585ZM375.656 269.839L385.2 269.319L385.432 273.59L371.424 274.353L370.19 251.706L384.037 250.952L384.269 255.222L374.887 255.733L375.15 260.554L383.723 260.087L383.952 264.293L375.379 264.76L375.656 269.839ZM410.413 249.515L410.646 253.785L404.531 254.118L405.532 272.495L401.068 272.738L400.067 254.362L393.984 254.693L393.751 250.422L410.413 249.515ZM419.397 246.299C418.091 245.559 417.637 245.552 417.725 247.169L414.36 247.353C414.08 242.209 417.156 241.489 420.035 243.117C421.341 243.857 421.763 243.867 421.675 242.249L425.072 242.064C425.352 247.208 422.244 247.929 419.397 246.299ZM427.055 271.322L425.475 267.32L416.448 267.812L415.311 271.962L410.491 272.225L417.183 249.146L422.716 248.844L431.908 271.058L427.055 271.322ZM417.644 263.561L423.856 263.222L420.246 254.138L417.644 263.561ZM444.019 270.852C437.484 271.208 431.993 266.316 431.634 259.716C431.272 253.083 436.201 247.655 442.736 247.299C449.272 246.943 454.793 251.802 455.154 258.434C455.514 265.034 450.555 270.496 444.019 270.852ZM443.782 266.485C447.89 266.261 450.926 263.013 450.69 258.677C450.452 254.31 447.081 251.411 442.972 251.635C438.864 251.859 435.828 255.107 436.066 259.474C436.302 263.809 439.673 266.709 443.782 266.485ZM474.208 246.039C478.575 245.801 482.124 248.982 482.354 253.221C482.585 257.459 479.404 261.007 475.036 261.245L471.057 261.462L471.462 268.903L466.998 269.146L465.764 246.499L474.208 246.039ZM474.809 257.071C476.718 256.967 478.028 255.403 477.922 253.462C477.815 251.489 476.344 250.109 474.435 250.213L470.456 250.429L470.829 257.288L474.809 257.071ZM498.333 267.439L496.752 263.436L487.726 263.928L486.589 268.079L481.768 268.341L488.461 245.262L493.993 244.961L503.186 267.175L498.333 267.439ZM488.922 259.677L495.134 259.339L491.524 250.255L488.922 259.677ZM517.254 243.694L521.719 243.451L522.953 266.098L519.556 266.283L509.095 252.964L509.85 266.811L505.385 267.055L504.151 244.408L507.548 244.223L518.007 257.508L517.254 243.694ZM541.713 265.076L540.132 261.073L531.105 261.565L529.969 265.715L525.148 265.978L531.841 242.899L537.373 242.598L546.566 264.811L541.713 265.076ZM532.301 257.314L538.513 256.975L534.903 247.892L532.301 257.314ZM569.693 240.837L570.926 263.484L566.494 263.725L565.694 249.037L559.893 259.899L559.376 259.927L552.431 249.792L553.229 264.448L548.765 264.691L547.531 242.044L552.125 241.794L559.211 252.148L565.099 241.087L569.693 240.837ZM587.278 233.389L583.928 238.017L579.916 238.236L582.263 233.662L587.278 233.389ZM589.705 262.461L588.124 258.458L579.098 258.95L577.961 263.101L573.14 263.363L579.833 240.284L585.365 239.983L594.558 262.196L589.705 262.461ZM580.294 254.699L586.506 254.361L582.896 245.277L580.294 254.699ZM596.925 254.442L595.585 245.916L595.232 239.445L600.247 239.172L600.599 245.643L600.225 254.262L596.925 254.442ZM599.012 262.376C597.492 262.458 596.195 261.296 596.113 259.775C596.03 258.255 597.192 256.958 598.713 256.876C600.233 256.793 601.53 257.955 601.613 259.476C601.695 260.996 600.533 262.293 599.012 262.376Z" fill="#F7EC6A"/>
<path d="M642.91 29.9801C641.98 29.4001 641.17 28.5101 640.47 27.3301C639.77 26.1501 639.22 24.5501 638.81 22.5301C638.77 21.9501 639.18 20.6601 640.06 18.6601C640.93 16.6601 642 14.3701 643.28 11.7901C644.56 9.21002 645.87 6.89005 647.23 4.82005C648.58 2.76005 649.72 1.37007 650.65 0.65007C651.76 -0.22993 653.17 -0.119984 654.9 0.970016C656.63 2.06002 658 3.71004 659.02 5.93004C659.46 6.76004 659.31 8.01004 658.58 9.68004C657.85 11.3501 656.79 13.1601 655.4 15.1201C654.02 17.0801 652.66 19.0201 651.33 20.9701C650 22.9101 649.08 24.6001 648.56 26.0401C647.98 28.0901 647.23 29.4001 646.33 29.9901C645.42 30.5701 644.28 30.5701 642.91 29.9801Z" fill="#E6EBAB"/>
<path d="M26.09 173.31C26.56 173.72 28.11 173.69 30.75 173.2C33.39 172.72 36.38 171.71 39.74 170.2C41.91 169.3 44.09 168.24 46.3 167.01C48.5 165.78 50.62 164.44 52.65 163C53.71 162.17 54.98 160.99 56.44 159.47C57.91 157.95 59.67 155.76 61.72 152.88C62.02 152.31 62.54 151.21 63.28 149.57C64.02 147.93 64.68 146.38 65.26 144.91C66.17 143.31 67.03 140.98 67.85 137.9C68.67 134.82 68.74 132.31 68.08 130.37C67.36 127.55 66 125.15 63.99 123.17C61.99 121.19 59.57 119.85 56.76 119.13C54.3 118.83 52.26 118.68 50.65 118.66C49.04 118.65 47.3 118.86 45.44 119.29C43.7 119.94 42.47 120.79 41.76 121.82C41.04 122.85 40.11 125 38.97 128.26C38.28 129.84 37.3 132.1 36.03 135.04C34.76 137.98 33.7 140.85 32.87 143.66C31.3 151.03 29.81 156.82 28.38 161.03C26.96 165.25 26.06 167.97 25.69 169.2C25.87 170.4 25.86 171.26 25.67 171.76C25.47 172.27 25.61 172.79 26.09 173.31ZM6.63999 228.34C5.30999 228.42 4.15999 227.77 3.18999 226.39C2.48999 225.77 1.81999 224.82 1.18999 223.53C0.559991 222.24 0.399992 219.99 0.709992 216.78C1.01999 213.57 2.04999 208.77 3.78999 202.38C4.64999 198.14 5.35999 195.04 5.90999 193.08C6.45999 191.12 6.70999 189.7 6.65999 188.82C6.58999 187.61 6.66999 186.59 6.89999 185.75C7.12999 184.91 7.21999 184.11 7.17999 183.34C7.83999 183.3 8.46999 182.66 9.06999 181.41C9.65999 180.16 10.12 178.48 10.44 176.37C10.77 174.48 11.1 172.94 11.42 171.77C11.74 170.59 11.89 169.79 11.86 169.35C12.36 168.44 12.86 167.03 13.36 165.13C13.86 163.23 14.7 160.92 15.87 158.21C16.56 154.86 17.36 151.37 18.26 147.74C19.16 144.11 20.1 140.69 21.08 137.49C22.06 134.29 22.89 131.79 23.56 129.99C24.58 126.52 25.38 124.07 25.96 122.66C26.54 121.25 26.49 120.34 25.8 119.94C24.99 119.44 24.62 118.22 24.67 116.29C24.72 114.36 25.7 112.51 27.59 110.75C28.72 109.25 30.05 108.16 31.56 107.46C33.07 106.77 34.88 106.36 36.99 106.23C39.09 106.11 41.48 106.08 44.15 106.14C46.15 106.13 48.28 106.06 50.55 105.93C52.82 105.8 54.23 105.72 54.78 105.68C55.8 106.06 57.05 106.46 58.51 106.87C59.98 107.28 61.31 107.7 62.5 108.13C63.69 108.56 64.3 108.93 64.32 109.26C64.36 109.92 64.63 110.32 65.14 110.45C65.65 110.59 66.18 110.69 66.74 110.77C67.51 110.72 68.74 111.31 70.42 112.54C72.1 113.76 73.85 115.23 75.67 116.95C77.49 118.66 78.84 120.43 79.73 122.25C80.72 124.07 81.54 125.78 82.2 127.4C82.85 129.01 82.99 131.38 82.61 134.48C82.59 136.13 82.44 137.8 82.15 139.47C81.86 141.14 81.51 142.26 81.1 142.84C80.46 143.32 79.88 143.9 79.37 144.59C78.85 145.28 78.61 145.9 78.65 146.45C78.68 146.89 78.32 147.93 77.58 149.57C76.84 151.21 75.87 153.06 74.65 155.11C73.44 157.16 72.14 159.2 70.76 161.21C69.38 163.22 68.06 164.87 66.8 166.15C65.46 167.99 63.87 169.74 62.02 171.39C60.17 173.04 58.5 174.41 57.01 175.48C54.21 176.97 51.02 178.45 47.44 179.92C43.86 181.4 40.43 182.62 37.16 183.58C33.88 184.54 31.19 185.03 29.08 185.04C25.89 185.67 23.84 186.2 22.93 186.64C22.01 187.08 21.32 188.08 20.86 189.65C20.39 191.11 19.95 192.62 19.54 194.19C19.13 195.76 18.94 196.82 18.98 197.36C18.78 197.81 18.39 199.1 17.79 201.23C17.19 203.36 16.5 205.83 15.72 208.62C14.94 211.42 14.21 214.19 13.54 216.93C12.87 219.67 12.36 221.98 12.03 223.88C11.68 225.44 10.94 226.56 9.80999 227.23C8.68999 227.91 7.62999 228.28 6.63999 228.34Z" fill="#E6EBAB"/>
<path d="M122.52 158.36C125.3 157.69 127.64 157.14 129.54 156.71C131.44 156.28 133.15 156.02 134.69 155.93C138.34 154.83 141.25 154.02 143.4 153.51C145.55 153 147.2 152.69 148.35 152.55C149.5 152.42 150.46 152.52 151.25 152.86C151.8 153.47 152.53 153.87 153.44 154.07C153.55 153.81 153.7 152.43 153.87 149.94C154.04 147.45 154.28 144.35 154.58 140.64C154.87 136.93 155.16 133.06 155.44 129.04C155.72 125.01 155.91 121.25 156.03 117.74C156.14 114.23 156.21 111.52 156.23 109.61C156.22 107.19 155.97 104.03 155.48 100.11C154.71 100.15 153.29 101.64 151.22 104.56C149.15 107.48 146.8 111.28 144.19 115.95C141.58 120.62 139.08 125.64 136.7 130.99C135.56 133.48 134.49 135.54 133.5 137.19C132.5 138.84 131.69 139.68 131.05 139.72C130.81 139.99 130.17 141.05 129.12 142.89C128.07 144.73 126.97 146.8 125.83 149.1C124.68 151.4 123.74 153.45 123.02 155.28C122.28 157.11 122.12 158.13 122.52 158.36ZM82.5399 225.03C80.1699 223.89 78.8399 222.57 78.5599 221.06C78.2799 219.55 78.9899 216.83 80.6799 212.92C82.3799 209 85.0299 202.93 88.6599 194.7C91.3999 188.81 93.2699 184.22 94.2999 180.91C95.3299 177.6 95.9599 175.25 96.1999 173.83C96.4399 172.42 96.5499 171.52 96.5199 171.14C96.1999 170.01 96.2699 169.09 96.7399 168.36C97.2099 167.63 98.0099 166.98 99.1299 166.41C99.7299 165.74 100.97 164.52 102.86 162.76C104.74 161 106.26 158.93 107.41 156.58C108.41 153.85 109.59 151.05 110.96 148.16C112.33 145.28 114.11 141.65 116.29 137.25C118.47 132.86 121.41 127.12 125.1 120.03C127.4 115.44 130.09 110.42 133.17 104.95C136.25 99.49 139.38 94.37 142.57 89.61C143.87 87.75 145.2 86.28 146.55 85.18C147.9 84.08 149.14 83.5 150.3 83.43C152.73 83.29 155.23 83.81 157.8 85C160.37 86.19 162.73 87.71 164.89 89.55C167.05 91.4 168.57 93.25 169.45 95.11C170.15 96.09 170.53 98.23 170.59 101.53C170.65 104.84 170.63 108.85 170.52 113.56C170.41 118.28 170.25 123.31 170.05 128.67C169.97 133.89 169.75 140.08 169.4 147.23C169.05 154.38 168.74 161.84 168.49 169.62C168.24 177.4 168.13 184.88 168.16 192.07C168.19 199.26 168.56 205.51 169.25 210.81C169.44 211.94 169.51 213.02 169.44 214.04C169.37 215.06 169.35 215.89 169.39 216.53C168.67 217.34 167.15 217.77 164.85 217.84C162.55 217.91 160.28 217.63 158.07 216.99C155.85 216.36 154.58 215.47 154.26 214.35C153.85 213.99 153.61 213.62 153.52 213.25C153.43 212.87 153.39 211.54 153.38 209.25C153.37 206.96 153.27 203.02 153.08 197.43L152.31 167.69L149.83 168.03C148.68 168.1 146.58 168.35 143.52 168.78C140.47 169.21 137.16 169.76 133.61 170.41C130.06 171.06 126.79 171.7 123.81 172.32C120.83 172.94 118.78 173.47 117.65 173.92C116.5 173.99 115.17 174.83 113.66 176.44C112.15 178.06 110.76 180.11 109.5 182.6C109.09 184.41 108.27 186.33 107.05 188.37C105.82 190.42 105.23 191.76 105.26 192.39C104.4 193.08 103.51 194.34 102.59 196.17C102.63 196.93 102.14 198.84 101.1 201.89C100.06 204.94 98.7799 208.33 97.2699 212.04C95.7499 215.76 94.1799 219 92.5399 221.77L88.1499 228.9L82.5399 225.03Z" fill="#E6EBAB"/>
<path d="M194.04 232C191.72 230.69 190.15 229.24 189.33 227.65C188.51 226.06 188.14 224.25 188.22 222.21C188.3 220.17 188.59 217.89 189.11 215.38C189.92 211.14 190.87 207.58 191.96 204.7C193.05 201.82 194.12 198.81 195.2 195.67C196.27 192.53 197.13 188.51 197.77 183.63C199.59 178.68 201.2 173.99 202.6 169.59C203.99 165.18 205.45 160.19 206.98 154.59C207.08 154.06 207.59 152.66 208.52 150.37C209.44 148.09 210.57 145.31 211.9 142.01C213.22 138.72 214.52 135.4 215.78 132.05C217.65 125.65 219.35 120.21 220.87 115.73C222.39 111.25 223.97 107.16 225.6 103.46C227.23 99.7601 229.13 96.0801 231.3 92.4101C232.72 89.5801 234.73 87.7901 237.33 87.0501C239.93 86.3101 242.47 86.3601 244.97 87.2001C247.46 88.0401 249.18 89.7401 250.12 92.3101C250.85 93.5801 251.5 95.0801 252.07 96.8201C252.63 98.5601 253.21 101.11 253.8 104.48C254.39 107.86 254.94 112.67 255.43 118.93C256.13 126.36 256.67 133.34 257.05 139.87C257.43 146.4 257.98 152.43 258.7 157.96C259.42 163.49 260.5 168.37 261.93 172.61C262.46 174.94 263.09 177.75 263.81 181.05C264.53 184.35 265.28 187.62 266.06 190.85C266.84 194.08 267.59 196.76 268.31 198.88C269.03 201 269.65 202.05 270.18 202.02C270.84 201.98 271.62 201.28 272.53 199.92C273.44 198.56 274.54 195.87 275.82 191.87C277.1 187.86 278.71 181.91 280.62 174C282.54 166.09 284.7 155.65 287.11 142.66C287.64 140.4 288.32 136.76 289.15 131.73C289.98 126.7 290.51 121.63 290.74 116.5C291.47 113.18 292.18 109.54 292.88 105.56C293.57 101.59 294.19 98.0801 294.74 95.0301C295.29 91.9901 295.55 90.2701 295.53 89.8701C295.48 88.9601 295.46 88.1701 295.49 87.5101C295.52 86.8501 295.45 86.2001 295.28 85.5601C295.94 85.5201 296.48 84.6001 296.9 82.8101C297.32 81.0201 297.5 79.4701 297.42 78.1601C297.29 75.9401 297.48 74.1301 297.99 72.7201C298.5 71.3101 299.07 70.2701 299.69 69.5701C300.62 67.4201 302.1 66.2801 304.15 66.1601C306.19 66.0401 308.16 66.5201 310.08 67.5801C311.99 68.6501 313.19 70.0201 313.69 71.6901C314.04 73.1101 313.86 76.3701 313.17 81.4501C312.48 86.5401 311.39 93.3801 309.91 101.99C309.99 103.43 309.74 105.8 309.14 109.11C308.54 112.42 307.92 115.93 307.28 119.64C306.63 123.35 306.2 126.52 305.95 129.15C305.62 132.58 305.21 135.78 304.73 138.75C304.24 141.73 303.67 143.17 303 143.08C300.43 158.04 297.58 170.82 294.44 181.42C291.3 192.02 288.46 200.67 285.95 207.37C283.21 214.74 279.62 219.46 275.19 221.56C270.76 223.65 266.28 222.14 261.75 217.03C259.05 213.78 256.82 210.57 255.05 207.39C253.28 204.22 251.74 200.44 250.43 196.06C249.12 191.68 247.8 186.12 246.49 179.38C244.99 173.96 243.85 168.59 243.08 163.26C242.31 157.93 241.76 152.46 241.43 146.84C241.1 141.23 240.82 135.28 240.59 129C240.31 121.94 239.8 117.64 239.05 116.12C238.3 114.59 237.38 115.17 236.28 117.85C235.18 120.54 233.8 124.61 232.14 130.08C231.37 132.75 230.43 135.82 229.31 139.29C228.19 142.76 227.04 146.2 225.85 149.62C224.66 153.03 223.68 155.97 222.9 158.44C222.12 160.91 221.62 162.48 221.39 163.15C220.69 164.76 219.89 166.87 218.99 169.48C218.08 172.09 217.39 174.85 216.9 177.76C212.88 190.31 209.95 200.8 208.14 209.23C206.32 217.66 204.97 223.34 204.08 226.27C202.98 230 201.83 232.4 200.63 233.45C199.37 234.54 197.19 234.05 194.04 232Z" fill="#E6EBAB"/>
<path d="M355.91 148.78C358.95 148.05 361.52 147.44 363.59 146.97C365.67 146.5 367.54 146.22 369.22 146.12C373.22 144.91 376.39 144.03 378.75 143.48C381.1 142.93 382.91 142.58 384.16 142.43C385.41 142.29 386.47 142.4 387.33 142.77C387.93 143.43 388.73 143.87 389.72 144.09C389.84 143.81 390 142.3 390.19 139.57C390.38 136.84 390.64 133.46 390.97 129.4C391.29 125.34 391.61 121.11 391.91 116.71C392.21 112.31 392.43 108.19 392.56 104.35C392.68 100.51 392.76 97.5501 392.78 95.4601C392.76 92.8201 392.49 89.3501 391.96 85.0701C391.12 85.1201 389.57 86.7401 387.3 89.9401C385.03 93.1401 382.47 97.2901 379.61 102.4C376.75 107.51 374.02 112.99 371.42 118.85C370.17 121.57 369.01 123.83 367.92 125.63C366.83 127.44 365.94 128.36 365.24 128.4C364.97 128.7 364.27 129.85 363.13 131.86C361.99 133.88 360.78 136.14 359.53 138.65C358.27 141.16 357.25 143.41 356.45 145.41C355.66 147.41 355.48 148.53 355.91 148.78ZM312.18 221.71C309.58 220.47 308.13 219.02 307.82 217.37C307.51 215.72 308.29 212.75 310.14 208.46C311.99 204.18 314.9 197.53 318.87 188.53C321.86 182.09 323.92 177.06 325.04 173.45C326.16 169.83 326.85 167.26 327.11 165.71C327.37 164.16 327.49 163.18 327.46 162.77C327.11 161.54 327.19 160.52 327.7 159.73C328.21 158.94 329.09 158.22 330.31 157.59C330.97 156.86 332.33 155.52 334.39 153.59C336.45 151.66 338.11 149.41 339.36 146.83C340.45 143.84 341.74 140.78 343.24 137.62C344.74 134.47 346.68 130.5 349.07 125.69C351.45 120.89 354.67 114.61 358.7 106.86C361.21 101.84 364.15 96.3501 367.53 90.3701C370.9 84.4001 374.33 78.8001 377.81 73.5901C379.23 71.5601 380.68 69.9401 382.16 68.7401C383.63 67.5401 385 66.9001 386.26 66.8301C388.91 66.6801 391.65 67.2501 394.46 68.5401C397.27 69.8401 399.86 71.5001 402.22 73.5201C404.58 75.5401 406.24 77.5701 407.2 79.6001C407.96 80.6701 408.38 83.0101 408.45 86.6301C408.52 90.2501 408.49 94.6301 408.37 99.7901C408.25 104.95 408.08 110.46 407.86 116.32C407.77 122.03 407.54 128.8 407.15 136.62C406.76 144.44 406.43 152.6 406.16 161.11C405.88 169.62 405.76 177.81 405.8 185.67C405.84 193.53 406.23 200.37 406.99 206.17C407.2 207.41 407.27 208.59 407.2 209.71C407.12 210.83 407.11 211.73 407.15 212.43C406.36 213.31 404.7 213.79 402.18 213.87C399.66 213.95 397.19 213.64 394.76 212.94C392.33 212.25 390.95 211.28 390.59 210.05C390.15 209.66 389.88 209.26 389.78 208.84C389.68 208.43 389.64 206.97 389.63 204.46C389.62 201.95 389.51 197.65 389.3 191.53L388.5 159L385.79 159.37C384.53 159.44 382.23 159.72 378.89 160.19C375.55 160.67 371.94 161.26 368.05 161.97C364.16 162.69 360.59 163.38 357.33 164.06C354.07 164.74 351.83 165.32 350.59 165.81C349.33 165.88 347.88 166.8 346.23 168.57C344.58 170.34 343.06 172.59 341.68 175.31C341.23 177.29 340.34 179.39 339 181.63C337.66 183.87 337.01 185.33 337.05 186.02C336.11 186.77 335.14 188.15 334.13 190.16C334.18 190.99 333.63 193.08 332.5 196.42C331.36 199.76 329.96 203.46 328.31 207.52C326.65 211.58 324.93 215.13 323.14 218.16L318.33 225.96L312.18 221.71Z" fill="#E6EBAB"/>
<path d="M570.83 198.75C570.53 199.55 569.37 199.98 567.36 200.04C565.35 200.1 563.6 199.31 562.11 197.65C560.56 195.71 559.52 193.48 559 190.98C558.47 188.48 557.87 184.92 557.18 180.3C557.14 175.12 557.32 168.26 557.72 159.74C558.12 151.21 558.6 141.67 559.16 131.12C559.72 120.56 560.25 109.68 560.77 98.4599C561.28 93.0299 561.65 88.2599 561.88 84.1299C562.11 80.0099 562.27 75.7199 562.36 71.2499C562.21 71.2799 561.96 71.5399 561.61 72.0499C561.25 72.5599 560.98 73.1299 560.8 73.7499C560.61 74.3799 560.47 74.8499 560.38 75.1599C559.49 77.6899 558.47 80.3299 557.32 83.0499C556.33 85.0099 555.45 87.5799 554.68 90.7599C553.91 93.9399 552.63 97.6199 550.85 101.8C549.31 106.53 547.62 111.84 545.77 117.73C543.92 123.62 542.28 128.41 540.85 132.08C540 134.01 539.25 135.86 538.6 137.6C537.94 139.35 537.54 140.61 537.38 141.38C537.09 143.07 536.45 145.15 535.48 147.62C534.51 150.1 533.35 152.57 532 155.03C531.37 156.48 530.62 158.14 529.76 159.99C528.9 161.85 527.82 164.16 526.53 166.91C526.51 167.66 525.92 169.13 524.75 171.35C523.58 173.56 522.13 176.05 520.38 178.81C518.64 181.57 516.85 184.08 515.02 186.34C510.76 191.71 507.12 195.15 504.11 196.65C501.09 198.16 497.25 197.56 492.58 194.84C490.28 192.88 488.4 190.74 486.93 188.41C485.46 186.08 484.35 182.8 483.58 178.56C482.81 174.33 482.43 168.5 482.44 161.08C482.57 156.02 482.71 150.76 482.84 145.32C482.98 139.88 483.19 134.66 483.48 129.63C483.77 124.61 484.06 120.26 484.37 116.57C484.67 112.88 484.93 110.35 485.13 108.98C484.97 105.6 484.68 103.83 484.28 103.68C483.88 103.53 483.27 104.5 482.45 106.57C481.84 108.16 480.62 111.54 478.79 116.69C476.95 121.84 474.95 127.92 472.78 134.91C470.6 141.9 468.54 149.06 466.57 156.39C462.61 168.38 459.29 178.36 456.63 186.33C453.96 194.3 451.75 200.67 450 205.44C448.24 210.21 446.95 213.78 446.11 216.15C445.27 218.53 444.63 220.2 444.21 221.16C443.79 222.13 443.45 222.78 443.22 223.12C441.31 223.32 439.46 222.76 437.65 221.46C435.84 220.15 434.17 218.53 432.62 216.59C432.09 215.35 431.67 214.02 431.34 212.6C431.01 211.18 430.95 209.44 431.18 207.4C431.41 205.36 431.99 202.77 432.92 199.63C434.12 195.56 435.32 192.04 436.51 189.08C437.69 186.12 438.52 184.31 439 183.63C439.54 182.5 439.96 181.31 440.26 180.07C440.56 178.83 440.68 177.62 440.61 176.45C441.18 175.46 441.98 173.46 443 170.46C444.03 167.46 445.05 164.23 446.07 160.79C446.89 158.72 447.99 155.88 449.36 152.3C450.73 148.72 452.15 144.79 453.62 140.52C455.09 136.25 456.4 132.31 457.53 128.69C461.99 116.17 465.6 105.95 468.35 98.0399C471.1 90.1299 473.18 85.0799 474.58 82.8999C475.46 81.9999 476.13 80.5399 476.59 78.5299C477.05 76.5199 477.33 74.9899 477.44 73.9299C478.24 70.0799 479.3 66.6599 480.63 63.6799C481.96 60.6999 483.36 59.1499 484.83 59.0299C486.13 58.7899 487.64 58.8599 489.35 59.2099C491.06 59.5699 492.85 60.3999 494.73 61.6899C496.51 63.2999 498.22 65.3199 499.86 67.7699C501.5 70.2199 502.34 74.0299 502.38 79.2199C502.62 81.3999 502.77 84.0399 502.8 87.1499C502.84 90.2599 502.86 93.2599 502.86 96.1499C502.86 99.0399 502.81 101.46 502.71 103.41C502.38 109.85 502.05 116.29 501.72 122.72C501.39 129.16 501.15 135.28 501 141.09C500.85 146.9 500.79 152.14 500.82 156.81C500.84 161.48 501 165.23 501.29 168.07C501.58 170.91 502.08 172.64 502.79 173.25C503.57 173.41 504.27 173.17 504.9 172.53C505.53 171.9 506.15 170.78 506.76 169.19C507.54 167.71 508.32 166.05 509.11 164.21C509.9 162.36 510.77 160.39 511.74 158.28C513.13 155.21 514.74 151.51 516.57 147.17C518.4 142.84 520.59 137.4 523.15 130.85C525.7 124.31 528.77 116.26 532.35 106.72C535.93 97.1798 540.08 85.5999 544.79 71.9899C547.21 66.3599 549.49 60.7999 551.64 55.2899C553.78 49.7899 555.8 45.6799 557.71 42.9599C559.35 40.4399 561.68 39.3199 564.72 39.5799C567.76 39.8499 570.73 41.1999 573.63 43.6399C576.54 46.0799 578.51 49.3598 579.55 53.4698C580.06 55.4598 580.32 58.9699 580.33 64.0099C580.34 69.0499 580.18 74.7499 579.84 81.1199C579.49 87.4899 578.85 93.8699 577.92 100.26C577.93 102.78 577.77 106.07 577.46 110.13C577.15 114.19 576.78 118.37 576.36 122.67C575.94 126.97 575.52 130.87 575.11 134.35C574.98 139.42 574.86 143.74 574.76 147.31C574.66 150.89 574.95 154.17 575.64 157.16C574.75 159.69 574.48 163.15 574.83 167.54C575.17 171.93 575.76 176.42 576.59 181.01C577.02 186.72 576.8 190.83 575.91 193.37C575.02 195.9 574.2 197.16 573.45 197.15C572.08 196.97 571.2 197.5 570.83 198.75Z" fill="#E6EBAB"/>
<path d="M630.38 107.41C632.61 106.34 634.5 105.45 636.03 104.74C637.56 104.04 638.97 103.5 640.25 103.15C643.15 101.56 645.46 100.35 647.19 99.5301C648.92 98.7101 650.26 98.1501 651.21 97.8301C652.16 97.5101 653 97.4201 653.72 97.5701C654.29 97.9901 654.98 98.1901 655.79 98.2001C655.84 97.9601 655.71 96.7701 655.41 94.6201C655.11 92.4801 654.75 89.8101 654.33 86.6201C653.91 83.4301 653.46 80.1001 652.96 76.6401C652.47 73.1801 651.95 69.9601 651.42 66.9701C650.88 63.9801 650.45 61.6701 650.12 60.0501C649.67 58.0101 648.89 55.3701 647.77 52.1401C647.13 52.3201 646.19 53.8301 644.96 56.6801C643.73 59.5301 642.43 63.1701 641.06 67.5901C639.69 72.0201 638.48 76.7201 637.43 81.6801C636.92 83.9901 636.39 85.9301 635.84 87.5101C635.3 89.0901 634.76 89.9501 634.22 90.0901C634.06 90.3601 633.71 91.3701 633.16 93.1201C632.61 94.8701 632.05 96.8201 631.49 98.9701C630.93 101.12 630.51 103.03 630.22 104.71C629.95 106.39 630 107.29 630.38 107.41ZM608.57 171.09C606.35 170.56 604.99 169.68 604.48 168.45C603.97 167.22 604.08 164.79 604.81 161.17C605.54 157.55 606.69 151.92 608.28 144.3C609.53 138.82 610.29 134.59 610.56 131.6C610.83 128.62 610.94 126.51 610.89 125.26C610.84 124.02 610.77 123.24 610.68 122.92C610.2 122.02 610.1 121.23 610.37 120.52C610.64 119.82 611.19 119.12 612.04 118.43C612.43 117.75 613.26 116.5 614.54 114.66C615.82 112.83 616.73 110.81 617.27 108.6C617.62 106.11 618.11 103.52 618.75 100.83C619.39 98.1401 620.24 94.7501 621.29 90.6301C622.34 86.5201 623.79 81.1301 625.64 74.4601C626.76 70.1601 628.12 65.4201 629.75 60.2401C631.37 55.0601 633.1 50.1601 634.93 45.5501C635.7 43.7401 636.55 42.2501 637.49 41.0801C638.43 39.9101 639.38 39.1901 640.35 38.9301C642.38 38.3701 644.59 38.3601 646.98 38.9001C649.37 39.4401 651.65 40.3001 653.81 41.4701C655.97 42.6501 657.59 43.9401 658.67 45.3501C659.44 46.0501 660.15 47.8001 660.8 50.5801C661.45 53.3701 662.16 56.7701 662.92 60.7801C663.68 64.7901 664.46 69.0901 665.26 73.6601C666.14 78.1001 667.07 83.3801 668.06 89.4901C669.05 95.6101 670.14 101.98 671.34 108.61C672.53 115.24 673.79 121.6 675.12 127.68C676.45 133.76 677.89 138.99 679.43 143.35C679.8 144.28 680.05 145.18 680.17 146.06C680.3 146.94 680.43 147.64 680.58 148.17C680.11 148.98 678.91 149.63 676.97 150.1C675.03 150.57 673.07 150.75 671.07 150.61C669.08 150.47 667.84 149.96 667.37 149.06C666.96 148.83 666.69 148.56 666.55 148.26C666.41 147.96 666.13 146.84 665.71 144.9C665.29 142.96 664.49 139.64 663.32 134.95L657.29 109.91L655.25 110.64C654.29 110.91 652.55 111.5 650.05 112.41C647.54 113.33 644.84 114.39 641.95 115.58C639.06 116.78 636.41 117.9 634 118.97C631.59 120.03 629.95 120.85 629.07 121.44C628.11 121.7 627.13 122.66 626.15 124.3C625.16 125.94 624.36 127.93 623.74 130.27C623.72 131.87 623.38 133.65 622.71 135.6C622.04 137.55 621.78 138.8 621.92 139.32C621.32 140.06 620.79 141.29 620.35 143C620.52 143.64 620.45 145.34 620.12 148.11C619.79 150.88 619.32 153.98 618.71 157.4C618.1 160.82 617.35 163.85 616.47 166.49L614.04 173.32L608.57 171.09Z" fill="#E6EBAB"/>
</g>
<defs>
<clipPath id="clip0_134_1237">
<rect width="681" height="295" fill="white"/>
</clipPath>
</defs>
</svg>
