<svg width="623" height="278" viewBox="0 0 623 278" fill="none" xmlns="http://www.w3.org/2000/svg">
<g clip-path="url(#clip0_121_1665)">
<path d="M562.017 26.2387C561.188 25.7547 560.496 24.9249 559.874 23.8878C559.252 22.8506 558.768 21.4676 558.422 19.6699C558.422 19.1858 558.768 18.0104 559.528 16.2817C560.289 14.5531 561.257 12.5478 562.363 10.266C563.47 7.9842 564.645 5.97898 565.82 4.18119C566.996 2.38339 568.033 1.13876 568.794 0.516444C569.762 -0.244161 571.006 -0.175019 572.528 0.793023C574.049 1.76106 575.224 3.21314 576.123 5.14922C576.538 5.90983 576.4 6.947 575.708 8.39907C575.086 9.85113 574.118 11.4415 572.943 13.1701C571.698 14.8988 570.522 16.5583 569.347 18.2869C568.171 20.0156 567.342 21.4676 566.927 22.7123C566.443 24.5101 565.751 25.6855 564.991 26.1696C564.23 26.6536 563.193 26.6536 562.017 26.1696V26.2387Z" fill="#E7EFA9"/>
<path d="M22.3341 151.669C22.749 152.015 24.1319 152.015 26.4137 151.6C28.6955 151.185 31.3231 150.286 34.2963 148.973C36.1633 148.212 38.0994 147.244 40.0354 146.207C41.9715 145.1 43.8385 143.994 45.5671 142.68C46.466 141.92 47.5723 140.952 48.8861 139.569C50.1999 138.255 51.7211 136.319 53.5189 133.83C53.7955 133.346 54.2103 132.378 54.9018 130.925C55.5241 129.473 56.1464 128.16 56.6304 126.846C57.3911 125.463 58.1517 123.389 58.9123 120.692C59.6037 117.995 59.6729 115.783 59.1197 114.123C58.4974 111.634 57.3219 109.559 55.5241 107.831C53.7955 106.102 51.6519 104.927 49.1627 104.304C47.0192 104.028 45.2214 103.889 43.8385 103.889C42.4556 103.889 40.9343 104.028 39.2748 104.443C37.7536 104.996 36.6473 105.756 36.025 106.655C35.4027 107.554 34.5729 109.421 33.6049 112.325C32.9826 113.708 32.1528 115.713 31.0465 118.272C29.9402 120.83 29.0413 123.389 28.2807 125.809C26.8977 132.239 25.584 137.287 24.3393 141.021C23.0947 144.686 22.3341 147.106 21.9884 148.143C22.1267 149.18 22.1267 149.941 21.9884 150.355C21.8501 150.77 21.9884 151.254 22.3341 151.738M5.32423 199.795C4.14875 199.795 3.18071 199.311 2.28181 198.066C1.6595 197.513 1.10633 196.683 0.553168 195.577C1.19209e-06 194.471 -0.138292 192.465 0.138291 189.699C0.414875 186.864 1.31377 182.716 2.83498 177.115C3.59558 173.381 4.2179 170.684 4.70192 168.956C5.18594 167.227 5.39338 165.982 5.39338 165.222C5.39338 164.185 5.39338 163.286 5.60081 162.525C5.80825 161.765 5.8774 161.073 5.80825 160.382C6.36142 160.382 6.91459 159.759 7.46775 158.722C8.02092 157.616 8.36665 156.164 8.64323 154.297C8.91981 152.637 9.1964 151.324 9.47298 150.286C9.74956 149.249 9.88786 148.558 9.88786 148.143C10.3027 147.313 10.7868 146.138 11.2016 144.478C11.6165 142.819 12.3771 140.813 13.4143 138.393C14.0366 135.489 14.7281 132.378 15.4887 129.197C16.2493 126.016 17.079 123.043 17.9779 120.208C18.8077 117.442 19.5683 115.229 20.1214 113.639C21.0203 110.597 21.7118 108.453 22.1958 107.208C22.6798 105.964 22.6798 105.203 22.0575 104.857C21.3661 104.443 21.0203 103.336 21.0895 101.677C21.0895 100.017 21.9884 98.3577 23.6479 96.8365C24.6159 95.5227 25.7914 94.5547 27.1052 93.9323C28.4189 93.31 30.0093 92.9643 31.8762 92.826C33.7432 92.6877 35.8176 92.6877 38.1685 92.7569C39.8972 92.7569 41.7641 92.7569 43.7693 92.5494C45.7746 92.4111 47.0192 92.342 47.5032 92.342C48.4021 92.6877 49.5084 93.0335 50.7531 93.3792C52.0668 93.7249 53.1732 94.0706 54.2103 94.4855C55.2475 94.8312 55.8007 95.177 55.8007 95.4536C55.8007 96.0067 56.0773 96.3525 56.4922 96.4908C56.907 96.629 57.3911 96.6982 57.8751 96.7673C58.5665 96.7673 59.6037 97.2513 61.1249 98.2885C62.577 99.3257 64.0982 100.64 65.6886 102.161C67.2789 103.682 68.4544 105.203 69.215 106.794C70.1139 108.384 70.8053 109.905 71.3585 111.288C71.9117 112.671 72.05 114.745 71.7042 117.511C71.7042 118.963 71.5659 120.415 71.2894 121.867C71.0128 123.319 70.7362 124.287 70.3905 124.841C69.8373 125.256 69.3533 125.74 68.8693 126.362C68.3852 126.984 68.1778 127.537 68.247 128.021C68.247 128.436 67.9704 129.335 67.2789 130.718C66.6566 132.17 65.7577 133.76 64.7205 135.558C63.6833 137.356 62.5078 139.154 61.3324 140.882C60.1569 142.611 58.9814 144.063 57.8751 145.239C56.6996 146.829 55.3167 148.35 53.7263 149.802C52.136 151.254 50.6148 152.43 49.3701 153.398C46.95 154.712 44.1151 156.025 41.0035 157.27C37.8919 158.584 34.8495 159.621 32.0145 160.451C29.1795 161.281 26.7594 161.695 24.9616 161.765C22.1958 162.318 20.398 162.802 19.5683 163.147C18.7385 163.562 18.1854 164.392 17.7705 165.775C17.3556 167.02 17.0099 168.403 16.595 169.716C16.2493 171.099 16.0418 171.998 16.111 172.482C15.9035 172.897 15.5578 174.003 15.0738 175.87C14.5206 177.737 13.9675 179.881 13.276 182.37C12.5845 184.79 11.9622 187.279 11.3399 189.63C10.7176 192.05 10.3027 194.056 10.0261 195.715C9.74956 197.098 9.05811 198.066 8.09006 198.619C7.12202 199.172 6.15398 199.518 5.32423 199.587" fill="#E7EFA9"/>
<path d="M106.692 138.601C109.112 138.048 111.187 137.563 112.846 137.149C114.506 136.803 116.027 136.526 117.34 136.457C120.521 135.489 123.08 134.798 124.947 134.314C126.813 133.899 128.266 133.622 129.303 133.484C130.34 133.346 131.17 133.484 131.861 133.76C132.345 134.314 132.967 134.659 133.797 134.798C133.866 134.59 134.005 133.346 134.143 131.202C134.281 128.989 134.489 126.293 134.765 123.043C135.042 119.793 135.249 116.405 135.526 112.878C135.802 109.352 135.941 106.033 136.01 102.991C136.079 99.9481 136.148 97.528 136.217 95.8685C136.217 93.725 136.01 90.9592 135.595 87.571C134.904 87.571 133.659 88.8848 131.861 91.4432C130.063 94.0016 127.989 97.3206 125.707 101.4C123.425 105.48 121.213 109.905 119.138 114.538C118.17 116.681 117.202 118.548 116.372 119.931C115.474 121.383 114.782 122.144 114.229 122.144C114.021 122.351 113.468 123.319 112.569 124.91C111.671 126.5 110.702 128.367 109.665 130.372C108.628 132.378 107.868 134.175 107.176 135.766C106.554 137.356 106.415 138.255 106.761 138.462M71.7042 196.891C69.6298 195.923 68.4544 194.747 68.2469 193.433C67.9703 192.12 68.5927 189.769 70.1139 186.311C71.5659 182.854 73.9169 177.599 77.0976 170.339C79.5177 165.153 81.1081 161.142 82.007 158.307C82.9058 155.403 83.459 153.329 83.6665 152.084C83.8739 150.839 83.943 150.079 83.943 149.733C83.6665 148.765 83.7356 147.935 84.1505 147.313C84.5654 146.691 85.2568 146.138 86.2249 145.584C86.778 145.031 87.8152 143.925 89.4747 142.404C91.1342 140.882 92.448 139.085 93.4852 137.01C94.3841 134.59 95.4213 132.17 96.5967 129.612C97.7722 127.122 99.3626 123.942 101.229 120.07C103.166 116.197 105.724 111.219 108.905 104.996C110.91 100.985 113.261 96.56 115.958 91.7889C118.654 87.0179 121.42 82.5234 124.186 78.3746C125.292 76.7843 126.468 75.4705 127.643 74.5025C128.819 73.5344 129.925 73.0504 130.893 72.9813C133.037 72.843 135.18 73.327 137.462 74.3642C139.744 75.4014 141.749 76.7151 143.685 78.3746C145.552 79.965 146.935 81.6245 147.696 83.2149C148.318 84.0446 148.664 85.9115 148.664 88.8157C148.664 91.7198 148.664 95.2462 148.664 99.3258C148.594 103.475 148.456 107.831 148.249 112.533C148.18 117.096 147.972 122.49 147.696 128.782C147.419 135.005 147.142 141.574 146.935 148.35C146.727 155.127 146.589 161.695 146.658 167.988C146.658 174.28 147.004 179.742 147.626 184.375C147.765 185.343 147.834 186.311 147.765 187.21C147.765 188.109 147.696 188.801 147.765 189.354C147.142 190.045 145.829 190.46 143.823 190.529C141.818 190.529 139.813 190.322 137.877 189.769C135.941 189.215 134.834 188.455 134.558 187.487C134.212 187.141 134.005 186.864 133.935 186.519C133.866 186.173 133.797 184.998 133.797 182.992C133.797 180.987 133.728 177.53 133.521 172.62L132.829 146.622L130.686 146.898C129.648 146.898 127.851 147.175 125.154 147.52C122.457 147.935 119.622 148.35 116.511 148.973C113.399 149.526 110.564 150.079 107.937 150.632C105.309 151.185 103.511 151.669 102.543 152.015C101.506 152.015 100.4 152.776 99.086 154.228C97.7722 155.611 96.5276 157.408 95.4213 159.621C95.0755 161.211 94.3149 162.871 93.2777 164.669C92.1714 166.466 91.6874 167.642 91.6874 168.195C90.9268 168.817 90.1662 169.924 89.3364 171.514C89.3364 172.206 88.9215 173.865 88.0226 176.493C87.1237 179.189 86.0174 182.093 84.6345 185.343C83.3207 188.593 81.9378 191.428 80.4857 193.848L76.6136 200.071L71.7042 196.683V196.891Z" fill="#E7EFA9"/>
<path d="M169.269 203.045C167.264 201.869 165.881 200.625 165.12 199.242C164.429 197.859 164.083 196.268 164.152 194.471C164.221 192.673 164.498 190.668 164.913 188.524C165.604 184.79 166.434 181.679 167.402 179.189C168.37 176.7 169.269 174.003 170.237 171.307C171.205 168.541 171.897 165.014 172.45 160.797C174.04 156.44 175.423 152.361 176.668 148.489C177.912 144.616 179.157 140.26 180.471 135.351C180.54 134.867 181.024 133.691 181.784 131.686C182.614 129.681 183.582 127.261 184.758 124.357C185.933 121.453 187.04 118.548 188.146 115.644C189.805 110.043 191.257 105.272 192.571 101.4C193.885 97.459 195.268 93.9326 196.72 90.6827C198.172 87.4329 199.831 84.2522 201.698 81.0023C202.943 78.5131 204.672 76.9919 206.954 76.3004C209.235 75.6781 211.448 75.6781 213.661 76.4387C215.873 77.1993 217.325 78.6514 218.155 80.9332C218.777 82.0395 219.331 83.3533 219.884 84.8745C220.368 86.3957 220.852 88.6084 221.405 91.5816C221.958 94.5549 222.373 98.7728 222.857 104.235C223.479 110.735 223.963 116.82 224.24 122.559C224.586 128.298 225.07 133.553 225.692 138.393C226.314 143.233 227.282 147.521 228.527 151.185C229.011 153.19 229.564 155.68 230.187 158.584C230.809 161.488 231.5 164.323 232.192 167.158C232.883 169.993 233.506 172.344 234.128 174.211C234.75 176.078 235.303 176.977 235.787 176.977C236.341 176.977 237.032 176.354 237.862 175.11C238.691 173.934 239.59 171.583 240.766 168.057C241.872 164.53 243.324 159.344 244.984 152.43C246.643 145.515 248.579 136.388 250.654 124.979C251.138 122.974 251.691 119.793 252.451 115.437C253.143 111.012 253.627 106.586 253.834 102.092C254.457 99.1877 255.079 96.007 255.701 92.5497C256.324 89.0924 256.877 85.9808 257.361 83.3533C257.845 80.6566 258.052 79.2045 258.052 78.8588C258.052 78.0291 258.052 77.4067 258.052 76.7844C258.052 76.2313 258.052 75.6089 257.845 75.0558C258.398 75.0558 258.882 74.226 259.297 72.6357C259.643 71.0453 259.85 69.7315 259.781 68.5561C259.643 66.62 259.781 65.0296 260.265 63.785C260.68 62.5404 261.233 61.6415 261.717 61.0192C262.547 59.1522 263.861 58.115 265.589 58.0459C267.387 57.9768 269.116 58.3916 270.775 59.2905C272.435 60.2586 273.472 61.434 273.956 62.8861C274.232 64.1307 274.094 66.9657 273.472 71.4602C272.85 75.8855 271.881 81.9012 270.637 89.4381C270.706 90.6827 270.499 92.7571 269.945 95.6612C269.392 98.5654 268.908 101.608 268.286 104.858C267.733 108.107 267.318 110.873 267.11 113.155C266.834 116.128 266.488 118.963 266.073 121.591C265.658 124.218 265.174 125.463 264.552 125.394C262.339 138.462 259.781 149.664 257.084 158.93C254.318 168.195 251.829 175.801 249.686 181.609C247.266 188.04 244.154 192.189 240.282 194.056C236.41 195.853 232.468 194.54 228.527 190.114C226.176 187.279 224.24 184.444 222.65 181.679C221.128 178.913 219.745 175.594 218.639 171.791C217.464 167.988 216.357 163.078 215.182 157.201C213.868 152.43 212.9 147.797 212.209 143.095C211.517 138.462 211.033 133.622 210.757 128.713C210.48 123.803 210.203 118.618 209.996 113.086C209.719 106.932 209.304 103.129 208.613 101.815C207.922 100.501 207.161 100.985 206.193 103.336C205.225 105.687 204.049 109.283 202.597 114.054C201.906 116.405 201.076 119.102 200.108 122.144C199.14 125.186 198.103 128.16 197.066 131.202C196.028 134.175 195.13 136.734 194.507 138.946C193.816 141.09 193.401 142.473 193.193 143.095C192.571 144.478 191.88 146.345 191.119 148.627C190.359 150.909 189.736 153.329 189.321 155.887C185.795 166.881 183.236 176.078 181.646 183.407C180.056 190.806 178.88 195.784 178.12 198.343C177.152 201.593 176.184 203.736 175.077 204.635C174.04 205.534 172.104 205.119 169.338 203.321" fill="#E7EFA9"/>
<path d="M310.949 130.165C313.576 129.543 315.858 128.989 317.656 128.575C319.454 128.16 321.113 127.883 322.565 127.814C326.092 126.777 328.858 126.016 330.932 125.532C333.006 125.048 334.597 124.772 335.634 124.633C336.74 124.495 337.639 124.633 338.4 124.91C338.953 125.463 339.644 125.878 340.474 126.085C340.612 125.809 340.751 124.495 340.889 122.144C341.027 119.793 341.304 116.82 341.58 113.224C341.857 109.698 342.134 105.964 342.41 102.092C342.687 98.2195 342.894 94.6239 342.963 91.3049C343.102 87.9168 343.171 85.3584 343.171 83.5606C343.171 81.2788 342.894 78.2364 342.479 74.4333C341.719 74.4333 340.405 75.8854 338.4 78.7204C336.395 81.4862 334.182 85.1509 331.693 89.6454C329.203 94.1399 326.783 98.911 324.501 104.028C323.395 106.379 322.358 108.384 321.459 109.974C320.491 111.565 319.73 112.325 319.108 112.394C318.901 112.671 318.278 113.639 317.241 115.437C316.273 117.235 315.167 119.171 314.06 121.383C312.954 123.596 312.055 125.532 311.364 127.33C310.672 129.059 310.534 130.027 310.88 130.303M272.642 193.987C270.36 192.88 269.116 191.636 268.839 190.184C268.562 188.731 269.254 186.173 270.844 182.37C272.435 178.636 274.993 172.828 278.45 164.945C281.078 159.344 282.876 154.919 283.844 151.738C284.812 148.558 285.434 146.345 285.641 144.962C285.849 143.579 285.987 142.749 285.918 142.404C285.641 141.297 285.711 140.468 286.125 139.776C286.54 139.085 287.37 138.462 288.407 137.909C288.96 137.287 290.205 136.111 292.003 134.383C293.801 132.723 295.253 130.718 296.359 128.436C297.327 125.809 298.433 123.112 299.747 120.415C301.061 117.649 302.79 114.192 304.864 109.974C306.938 105.756 309.773 100.294 313.3 93.5176C315.512 89.0923 318.071 84.3212 321.044 79.0661C324.017 73.811 326.991 68.9708 330.033 64.4072C331.278 62.6094 332.522 61.2265 333.836 60.1893C335.15 59.1521 336.325 58.5989 337.432 58.5298C339.783 58.3915 342.134 58.8755 344.623 60.051C347.112 61.1573 349.325 62.6094 351.399 64.4072C353.474 66.205 354.926 67.9336 355.755 69.7314C356.447 70.6995 356.793 72.7047 356.862 75.8854C356.862 79.0661 356.862 82.8691 356.862 87.4328C356.723 91.9272 356.585 96.7675 356.447 101.884C356.378 106.863 356.17 112.809 355.824 119.655C355.479 126.5 355.202 133.622 354.926 141.09C354.718 148.558 354.58 155.68 354.58 162.594C354.58 169.509 354.995 175.455 355.617 180.503C355.825 181.609 355.894 182.647 355.824 183.615C355.824 184.583 355.755 185.412 355.824 185.966C355.133 186.726 353.681 187.141 351.468 187.21C349.256 187.21 347.112 187.003 344.969 186.38C342.825 185.758 341.65 184.928 341.304 183.822C340.889 183.476 340.682 183.131 340.612 182.785C340.543 182.439 340.474 181.125 340.474 178.982C340.474 176.769 340.405 173.035 340.198 167.642L339.437 139.154L337.086 139.5C335.98 139.5 333.974 139.776 331.07 140.191C328.166 140.606 324.985 141.159 321.597 141.781C318.209 142.404 315.098 143.026 312.193 143.579C309.358 144.201 307.353 144.686 306.316 145.1C305.21 145.1 303.965 145.999 302.513 147.521C301.061 149.042 299.747 151.047 298.503 153.398C298.088 155.127 297.327 156.993 296.152 158.93C294.976 160.866 294.423 162.179 294.423 162.802C293.593 163.493 292.763 164.669 291.865 166.397C291.865 167.158 291.45 168.956 290.413 171.86C289.444 174.764 288.2 178.014 286.748 181.609C285.296 185.136 283.775 188.247 282.253 190.944L278.035 197.79L272.642 194.056V193.987Z" fill="#E7EFA9"/>
<path d="M498.956 173.934C498.68 174.626 497.712 175.041 495.914 175.041C494.185 175.041 492.595 174.418 491.35 172.966C489.967 171.238 489.069 169.301 488.654 167.158C488.17 164.945 487.686 161.834 487.063 157.823C487.063 153.26 487.202 147.313 487.547 139.845C487.893 132.378 488.308 124.011 488.792 114.815C489.276 105.549 489.76 96.076 490.175 86.2573C490.59 81.4862 490.936 77.3375 491.143 73.7419C491.35 70.1463 491.489 66.4124 491.558 62.4711C491.42 62.4711 491.212 62.7477 490.866 63.1626C490.59 63.5775 490.313 64.1306 490.175 64.6838C490.037 65.237 489.898 65.6518 489.829 65.9284C489.069 68.1411 488.17 70.4229 487.132 72.843C486.234 74.5716 485.473 76.7843 484.851 79.6193C484.159 82.3851 483.053 85.635 481.463 89.2997C480.149 93.4484 478.628 98.0812 477.037 103.267C475.447 108.453 473.995 112.602 472.75 115.852C471.99 117.511 471.367 119.171 470.814 120.692C470.261 122.213 469.915 123.319 469.777 124.011C469.5 125.463 468.947 127.33 468.117 129.473C467.288 131.617 466.25 133.83 465.075 135.973C464.522 137.218 463.9 138.67 463.139 140.329C462.378 141.989 461.41 143.994 460.304 146.414C460.304 147.037 459.751 148.35 458.783 150.286C457.746 152.222 456.501 154.366 454.98 156.786C453.458 159.206 451.868 161.419 450.278 163.355C446.544 168.057 443.363 171.03 440.736 172.413C438.108 173.727 434.72 173.174 430.64 170.823C428.635 169.094 426.976 167.227 425.731 165.222C424.417 163.217 423.449 160.312 422.827 156.579C422.135 152.845 421.859 147.797 421.859 141.297C421.997 136.872 422.066 132.239 422.205 127.537C422.343 122.766 422.481 118.203 422.758 113.777C423.034 109.352 423.242 105.549 423.518 102.368C423.795 99.1184 424.002 96.9058 424.21 95.7303C424.071 92.757 423.795 91.2358 423.449 91.0975C423.103 90.9592 422.55 91.789 421.859 93.6559C421.306 95.0388 420.268 98.0121 418.678 102.507C417.088 107.001 415.29 112.325 413.423 118.479C411.487 124.633 409.689 130.856 407.96 137.287C404.503 147.797 401.599 156.509 399.248 163.493C396.897 170.477 394.961 176.009 393.44 180.226C391.919 184.375 390.743 187.556 390.052 189.63C389.291 191.705 388.738 193.157 388.392 193.987C388.046 194.816 387.701 195.369 387.493 195.715C385.834 195.853 384.174 195.369 382.653 194.263C381.063 193.088 379.611 191.705 378.228 189.976C377.744 188.87 377.398 187.694 377.121 186.45C376.845 185.205 376.776 183.684 376.983 181.886C377.191 180.088 377.675 177.806 378.504 175.11C379.542 171.514 380.579 168.472 381.616 165.913C382.653 163.355 383.345 161.765 383.759 161.142C384.243 160.174 384.589 159.137 384.866 158.031C385.142 156.924 385.212 155.887 385.142 154.85C385.626 153.951 386.318 152.222 387.217 149.595C388.116 146.967 389.015 144.132 389.913 141.159C390.605 139.361 391.573 136.872 392.818 133.76C393.993 130.649 395.238 127.192 396.551 123.458C397.865 119.724 398.972 116.267 400.009 113.086C403.881 102.161 407.062 93.1719 409.482 86.2573C411.902 79.3427 413.7 74.9174 414.944 72.9813C415.705 72.2207 416.327 70.9069 416.673 69.1783C417.088 67.4496 417.295 66.0667 417.433 65.1678C418.125 61.7797 419.093 58.8064 420.199 56.1788C421.375 53.5513 422.619 52.2375 423.864 52.0992C424.97 51.8918 426.353 51.961 427.805 52.2375C429.327 52.5833 430.848 53.2747 432.507 54.381C434.098 55.764 435.55 57.5618 437.002 59.7053C438.454 61.8488 439.145 65.1678 439.214 69.7314C439.422 71.6675 439.56 73.9493 439.56 76.646C439.56 79.3427 439.56 81.9702 439.56 84.5286C439.56 87.087 439.56 89.1614 439.422 90.8901C439.145 96.4909 438.869 102.161 438.523 107.762C438.246 113.362 438.039 118.756 437.901 123.803C437.762 128.92 437.693 133.484 437.762 137.564C437.762 141.643 437.901 144.962 438.177 147.382C438.454 149.871 438.869 151.393 439.491 151.946C440.182 152.084 440.805 151.877 441.358 151.324C441.911 150.77 442.464 149.802 443.017 148.419C443.709 147.106 444.4 145.654 445.092 144.063C445.783 142.473 446.544 140.744 447.374 138.877C448.618 136.181 450.001 132.931 451.592 129.128C453.182 125.325 455.118 120.554 457.331 114.884C459.543 109.145 462.24 102.092 465.352 93.7942C468.463 85.4275 472.128 75.3322 476.207 63.4392C478.351 58.5298 480.356 53.6204 482.223 48.8494C484.09 44.0092 485.888 40.4136 487.547 38.0626C488.999 35.85 491.005 34.8819 493.701 35.0894C496.329 35.2968 498.956 36.5414 501.515 38.6158C504.073 40.7593 505.802 43.5943 506.701 47.1899C507.116 48.9185 507.392 52.0301 507.392 56.3863C507.392 60.8116 507.254 65.7901 506.977 71.3218C506.701 76.9226 506.148 82.4543 505.318 88.0551C505.318 90.2677 505.18 93.1719 504.903 96.6983C504.626 100.225 504.281 103.889 503.935 107.692C503.589 111.426 503.174 114.884 502.829 117.926C502.69 122.351 502.621 126.154 502.552 129.266C502.483 132.378 502.69 135.282 503.313 137.909C502.552 140.122 502.275 143.164 502.621 146.967C502.898 150.84 503.451 154.712 504.142 158.791C504.488 163.77 504.35 167.365 503.52 169.578C502.759 171.791 501.999 172.897 501.377 172.897C500.201 172.759 499.371 173.174 499.095 174.28" fill="#E7EFA9"/>
<path d="M551.092 94.0017C553.028 93.0336 554.688 92.273 556.002 91.6507C557.315 91.0284 558.56 90.5444 559.666 90.2678C562.225 88.8849 564.23 87.8477 565.751 87.0871C567.272 86.3956 568.448 85.8425 569.278 85.5659C570.107 85.2893 570.868 85.2202 571.49 85.3585C571.974 85.7042 572.597 85.9116 573.288 85.9116C573.288 85.7042 573.288 84.667 572.942 82.8C572.666 80.9331 572.389 78.5821 571.974 75.8163C571.629 73.0505 571.214 70.0772 570.799 67.104C570.384 64.0615 569.9 61.2265 569.416 58.6682C568.932 56.0406 568.586 54.0354 568.31 52.5833C567.895 50.7855 567.203 48.5037 566.235 45.6687C565.682 45.807 564.852 47.1208 563.815 49.61C562.709 52.0993 561.602 55.28 560.427 59.1522C559.251 63.0243 558.145 67.1039 557.246 71.4601C556.762 73.4654 556.347 75.194 555.863 76.5769C555.379 77.9598 554.895 78.7205 554.48 78.8587C554.342 79.0662 554.065 79.9651 553.581 81.4863C553.097 83.0075 552.613 84.7361 552.129 86.6031C551.645 88.47 551.3 90.1295 551.023 91.6507C550.746 93.1028 550.816 93.9325 551.161 94.0017M532.008 149.733C530.072 149.249 528.896 148.489 528.412 147.451C527.997 146.345 528.067 144.271 528.689 141.09C529.311 137.909 530.348 133 531.731 126.293C532.838 121.522 533.46 117.788 533.737 115.16C533.944 112.533 534.082 110.735 534.013 109.629C534.013 108.522 533.875 107.831 533.806 107.554C533.391 106.794 533.322 106.102 533.529 105.48C533.737 104.858 534.221 104.235 534.981 103.682C535.327 103.06 536.018 102.023 537.194 100.363C538.3 98.7727 539.13 96.975 539.614 95.0389C539.891 92.8262 540.375 90.6135 540.928 88.2626C541.481 85.9116 542.242 82.9383 543.14 79.3428C544.039 75.7472 545.353 71.0453 546.943 65.1679C547.911 61.434 549.087 57.2852 550.539 52.7216C551.991 48.158 553.443 43.8709 555.103 39.8605C555.794 38.2701 556.555 36.9564 557.315 35.9192C558.145 34.882 558.975 34.2597 559.805 34.0522C561.602 33.5682 563.538 33.5682 565.613 34.0522C567.687 34.5362 569.692 35.2969 571.559 36.3341C573.426 37.3712 574.878 38.4776 575.846 39.7222C576.538 40.3445 577.16 41.8657 577.713 44.2858C578.267 46.7059 578.889 49.6792 579.58 53.2056C580.272 56.7321 580.894 60.4659 581.655 64.4764C582.415 68.3486 583.245 72.9813 584.075 78.3056C584.974 83.6298 585.873 89.2306 586.91 95.0389C587.947 100.847 589.053 106.379 590.229 111.703C591.404 117.027 592.649 121.591 594.032 125.394C594.378 126.224 594.585 126.984 594.654 127.745C594.792 128.505 594.862 129.128 595 129.612C594.585 130.303 593.548 130.856 591.819 131.271C590.09 131.686 588.431 131.824 586.633 131.686C584.905 131.548 583.798 131.133 583.383 130.303C583.038 130.096 582.761 129.888 582.692 129.612C582.554 129.335 582.346 128.367 581.931 126.639C581.586 124.91 580.894 122.006 579.857 117.926L574.602 96.0069L572.804 96.6292C571.974 96.8367 570.453 97.3898 568.24 98.1504C566.028 98.9802 563.677 99.8791 561.188 100.916C558.629 101.953 556.347 102.921 554.204 103.89C552.06 104.788 550.677 105.549 549.917 106.033C549.087 106.24 548.188 107.07 547.358 108.522C546.529 109.974 545.768 111.703 545.284 113.777C545.284 115.16 544.938 116.751 544.385 118.41C543.832 120.139 543.555 121.176 543.694 121.66C543.14 122.282 542.726 123.389 542.311 124.91C542.449 125.463 542.38 126.984 542.103 129.404C541.827 131.824 541.412 134.521 540.859 137.564C540.305 140.537 539.683 143.233 538.923 145.515L536.779 151.462L532.008 149.457V149.733Z" fill="#E7EFA9"/>
<path d="M29.7319 240.714L31.2082 267.974L25.873 268.263L24.9155 250.583L17.9292 263.655L17.3061 263.689L8.95098 251.487L9.90639 269.128L4.53227 269.419L3.05591 242.159L8.58581 241.86L17.1115 254.326L24.202 241.014L29.7319 240.714ZM46.4812 267.694C40.5229 268.017 35.8894 264.674 35.5709 258.794L34.5775 240.452L39.9127 240.163L40.8829 258.077C41.0263 260.725 42.5358 262.635 46.1964 262.437C49.8571 262.238 51.1515 260.176 51.008 257.528L50.0379 239.615L55.412 239.324L56.4054 257.666C56.7238 263.546 52.4784 267.369 46.4812 267.694ZM81.4094 237.916L72.9637 255.05L73.5395 265.682L68.2043 265.971L67.6285 255.339L57.4206 239.215L63.4957 238.886L70.0309 249.936L75.3343 238.245L81.4094 237.916ZM110.314 241.506L99.4105 242.096L99.7606 248.561L110.353 247.987L110.631 253.127L100.039 253.701L100.608 264.216L95.2343 264.507L93.758 237.247L110.036 236.365L110.314 241.506ZM131.736 262.53L129.834 257.712L118.969 258.3L117.599 263.296L111.797 263.61L119.862 235.833L126.521 235.472L137.577 262.214L131.736 262.53ZM120.411 253.184L127.888 252.779L123.546 241.844L120.411 253.184ZM148.952 262.144C143.384 262.446 139.577 259.957 137.878 255.987L142.328 253.051C143.439 255.53 145.435 257.062 148.823 256.879C152.056 256.704 153.111 255.279 153.029 253.761C152.919 251.736 151.047 251.056 146.933 250.107C142.701 249.125 138.556 247.592 138.276 242.413C137.997 237.272 142.121 234.081 146.794 233.828C151.272 233.585 154.824 235.697 156.861 239.414L152.485 242.268C151.399 240.257 149.841 238.896 147.077 239.046C144.818 239.168 143.557 240.408 143.641 241.966C143.732 243.641 144.832 244.479 149.027 245.502C153.424 246.631 158.097 247.823 158.399 253.392C158.675 258.493 154.755 261.83 148.952 262.144ZM175.088 260.729C166.832 261.176 160.575 255.266 160.145 247.321C159.713 239.338 165.297 232.826 173.553 232.378C178.537 232.108 183.075 234.401 185.622 238.169L181.134 241.107C179.679 238.764 176.951 237.428 173.835 237.597C168.5 237.886 165.195 241.775 165.48 247.032C165.763 252.251 169.468 255.761 174.803 255.472C177.919 255.303 180.526 253.678 181.682 251.232L186.462 253.668C184.375 257.687 180.112 260.457 175.088 260.729ZM188.605 232.11L193.979 231.819L195.456 259.079L190.082 259.37L188.605 232.11ZM214.797 230.691L220.172 230.4L221.648 257.66L217.559 257.882L204.973 241.847L205.876 258.515L200.502 258.806L199.025 231.546L203.115 231.324L215.698 247.32L214.797 230.691ZM244.229 256.438L242.328 251.619L231.463 252.208L230.093 257.203L224.29 257.517L232.355 229.741L239.014 229.38L250.07 256.121L244.229 256.438ZM232.904 247.091L240.381 246.686L236.039 235.751L232.904 247.091ZM267.013 227.864L272.387 227.573L273.863 254.833L269.774 255.054L257.189 239.019L258.091 255.687L252.717 255.978L251.241 228.718L255.33 228.496L267.913 244.492L267.013 227.864ZM295.474 226.322L295.753 231.463L288.393 231.861L289.59 253.981L284.216 254.272L283.018 232.152L275.697 232.549L275.419 227.408L295.474 226.322ZM305.047 247.988L316.535 247.366L316.813 252.507L299.951 253.42L298.474 226.16L315.142 225.257L315.42 230.397L304.127 231.009L304.441 236.812L314.761 236.253L315.035 241.315L304.715 241.874L305.047 247.988ZM323.316 252.662C321.485 252.761 319.925 251.362 319.826 249.531C319.727 247.701 321.127 246.141 322.957 246.042C324.787 245.943 326.347 247.342 326.447 249.173C326.546 251.003 325.146 252.563 323.316 252.662ZM332.195 252.181C330.364 252.28 328.804 250.881 328.705 249.05C328.606 247.22 330.006 245.66 331.836 245.561C333.666 245.462 335.226 246.861 335.326 248.692C335.425 250.522 334.025 252.082 332.195 252.181ZM341.035 251.702C339.204 251.802 337.644 250.402 337.545 248.572C337.446 246.741 338.846 245.181 340.676 245.082C342.507 244.983 344.066 246.383 344.166 248.213C344.265 250.043 342.865 251.603 341.035 251.702ZM360.084 230.127C361.915 230.028 363.475 231.427 363.574 233.258C363.673 235.088 362.273 236.648 360.443 236.747C358.613 236.846 357.053 235.446 356.954 233.616C356.854 231.786 358.254 230.226 360.084 230.127ZM358.621 239.892L362.594 239.677L364.165 249.942L364.587 257.731L358.551 258.058L358.129 250.269L358.621 239.892ZM394.099 220.981L395.576 248.241L390.24 248.53L389.283 230.85L382.296 243.922L381.673 243.955L373.318 231.753L374.274 249.395L368.9 249.686L367.423 222.426L372.953 222.126L381.479 234.592L388.569 221.28L394.099 220.981ZM410.848 247.961C404.89 248.283 400.257 244.941 399.938 239.061L398.945 220.718L404.28 220.429L405.25 238.343C405.394 240.991 406.903 242.902 410.564 242.703C414.224 242.505 415.519 240.443 415.375 237.795L414.405 219.881L419.779 219.59L420.773 237.932C421.091 243.813 416.846 247.636 410.848 247.961ZM445.777 218.182L437.331 235.317L437.907 245.948L432.572 246.237L431.996 235.606L421.788 219.481L427.863 219.152L434.398 230.203L439.702 218.511L445.777 218.182ZM468.289 216.963C473.547 216.678 477.816 220.509 478.092 225.61C478.369 230.712 474.538 234.981 469.281 235.266L464.491 235.525L464.976 244.482L459.602 244.773L458.125 217.513L468.289 216.963ZM469.009 230.242C471.306 230.118 472.884 228.236 472.757 225.899C472.629 223.524 470.859 221.862 468.561 221.986L463.771 222.246L464.219 230.502L469.009 230.242ZM497.32 242.731L495.419 237.912L484.554 238.501L483.184 243.496L477.381 243.81L485.446 216.034L492.105 215.673L503.161 242.414L497.32 242.731ZM485.995 233.384L493.472 232.979L489.13 222.044L485.995 233.384ZM520.104 214.157L525.478 213.866L526.954 241.126L522.865 241.347L510.28 225.312L511.182 241.98L505.808 242.271L504.332 215.011L508.421 214.789L521.004 230.785L520.104 214.157ZM549.535 239.903L547.634 235.085L536.769 235.673L535.399 240.668L529.597 240.983L537.661 213.206L544.321 212.845L555.377 239.586L549.535 239.903ZM538.21 230.557L545.687 230.152L541.346 219.216L538.21 230.557ZM583.223 210.738L584.7 237.998L579.365 238.287L578.407 220.607L571.421 233.679L570.798 233.713L562.443 221.511L563.398 239.152L558.024 239.443L556.547 212.183L562.077 211.883L570.603 224.35L577.693 211.038L583.223 210.738ZM604.393 201.78L600.359 207.35L595.53 207.611L598.357 202.107L604.393 201.78ZM607.303 236.774L605.402 231.956L594.537 232.544L593.167 237.54L587.365 237.854L595.429 210.077L602.088 209.717L613.145 236.458L607.303 236.774ZM595.978 227.428L603.455 227.023L599.114 216.088L595.978 227.428ZM615.997 227.125L614.387 216.862L613.965 209.073L620.001 208.746L620.423 216.535L619.969 226.91L615.997 227.125ZM618.506 236.675C616.676 236.774 615.116 235.375 615.017 233.544C614.918 231.714 616.317 230.154 618.148 230.055C619.978 229.956 621.538 231.355 621.637 233.186C621.736 235.016 620.336 236.576 618.506 236.675Z" fill="#FFFF68"/>
</g>
<defs>
<clipPath id="clip0_121_1665">
<rect width="623" height="278" fill="white"/>
</clipPath>
</defs>
</svg>
