<svg width="681" height="287" viewBox="0 0 681 287" fill="none" xmlns="http://www.w3.org/2000/svg">
<path d="M23.4221 256.436L24.6559 279.083L20.2236 279.324L19.4233 264.636L13.6227 275.498L13.105 275.526L6.16034 265.391L6.95882 280.047L2.4941 280.29L1.26025 257.643L5.85438 257.393L12.9408 267.747L18.828 256.686L23.4221 256.436ZM37.3445 278.846C32.3945 279.115 28.5441 276.34 28.278 271.454L27.4478 256.216L31.8801 255.975L32.6909 270.857C32.8108 273.057 34.0654 274.644 37.1066 274.478C40.1478 274.312 41.2226 272.599 41.1027 270.399L40.2919 255.516L44.7566 255.273L45.5868 270.511C45.853 275.397 42.3269 278.574 37.3445 278.846ZM66.3548 254.096L59.3427 268.334L59.8239 277.167L55.3915 277.408L54.9103 268.576L46.4253 255.182L51.4724 254.907L56.9047 264.086L61.3077 254.371L66.3548 254.096ZM92.4064 275.391L90.8255 271.389L81.799 271.881L80.6623 276.031L75.8417 276.294L82.5343 253.215L88.0667 252.914L97.2593 275.127L92.4064 275.391ZM82.9951 267.63L89.2069 267.291L85.5969 258.208L82.9951 267.63ZM106.71 275.066C102.083 275.319 98.9206 273.252 97.5079 269.954L101.204 267.514C102.127 269.573 103.786 270.845 106.601 270.692C109.286 270.545 110.163 269.362 110.094 268.1C110.003 266.418 108.447 265.854 105.029 265.066C101.513 264.252 98.0689 262.979 97.8345 258.677C97.6018 254.406 101.026 251.753 104.909 251.542C108.629 251.339 111.58 253.093 113.274 256.18L109.639 258.553C108.737 256.882 107.442 255.752 105.145 255.877C103.269 255.979 102.221 257.01 102.292 258.304C102.368 259.695 103.282 260.392 106.768 261.24C110.42 262.177 114.303 263.166 114.555 267.792C114.786 272.031 111.53 274.804 106.71 275.066ZM128.39 273.885C121.855 274.241 116.364 269.349 116.004 262.749C115.643 256.116 120.572 250.688 127.107 250.332C133.642 249.976 139.164 254.835 139.525 261.467C139.885 268.067 134.926 273.529 128.39 273.885ZM128.152 269.518C132.261 269.294 135.297 266.046 135.06 261.71C134.822 257.343 131.452 254.444 127.343 254.668C123.234 254.891 120.199 258.139 120.437 262.507C120.673 266.842 124.043 269.741 128.152 269.518ZM164.208 248.765L165.442 271.412L161.009 271.654L160.209 256.966L154.409 267.828L153.891 267.856L146.946 257.721L147.745 272.377L143.28 272.62L142.046 249.973L146.64 249.722L153.727 260.077L159.614 249.016L164.208 248.765ZM182.707 258.693C184.575 259.629 185.837 261.345 185.966 263.707C186.177 267.589 183.185 270.446 179.27 270.659L169.662 271.182L168.428 248.535L177.357 248.049C181.175 247.841 184.389 250.262 184.596 254.047C184.701 255.988 183.975 257.553 182.707 258.693ZM177.585 252.222L173.12 252.466L173.391 257.448L177.856 257.205C179.247 257.129 180.224 256.005 180.147 254.581C180.069 253.158 179.008 252.145 177.585 252.222ZM179.043 266.485C180.564 266.403 181.602 265.21 181.517 263.657C181.435 262.137 180.273 261.064 178.752 261.147L173.608 261.427L173.899 266.766L179.043 266.485ZM201.674 269.438L196.684 261.825L193.287 262.01L193.715 269.872L189.25 270.115L188.016 247.468L197.075 246.975C201.249 246.747 204.797 249.929 205.023 254.07C205.178 256.917 203.537 259.57 201.014 260.908L206.494 269.176L201.674 269.438ZM192.709 251.398L193.073 258.095L197.668 257.845C199.35 257.754 200.66 256.19 200.558 254.313C200.456 252.437 198.985 251.056 197.303 251.148L192.709 251.398ZM219.604 268.916C213.069 269.272 207.578 264.379 207.218 257.779C206.857 251.147 211.786 245.719 218.321 245.363C224.856 245.007 230.378 249.865 230.739 256.498C231.099 263.098 226.139 268.56 219.604 268.916ZM219.366 264.548C223.475 264.324 226.511 261.076 226.274 256.741C226.036 252.373 222.666 249.474 218.557 249.698C214.448 249.922 211.413 253.17 211.651 257.538C211.887 261.873 215.257 264.772 219.366 264.548ZM241.43 267.727C236.803 267.979 233.64 265.912 232.228 262.614L235.924 260.174C236.847 262.233 238.506 263.505 241.321 263.352C244.006 263.206 244.883 262.022 244.814 260.76C244.722 259.078 243.167 258.514 239.749 257.727C236.233 256.912 232.789 255.64 232.554 251.337C232.321 247.066 235.746 244.413 239.629 244.202C243.349 243.999 246.3 245.753 247.994 248.841L244.359 251.213C243.457 249.542 242.162 248.412 239.865 248.537C237.988 248.639 236.941 249.67 237.012 250.964C237.088 252.355 238.002 253.052 241.488 253.9C245.14 254.837 249.023 255.826 249.275 260.453C249.506 264.691 246.25 267.464 241.43 267.727ZM263.11 266.546C256.575 266.902 251.084 262.009 250.724 255.409C250.363 248.776 255.292 243.349 261.827 242.993C268.362 242.636 273.884 247.495 274.245 254.127C274.605 260.727 269.645 266.189 263.11 266.546ZM262.872 262.178C266.981 261.954 270.016 258.706 269.78 254.371C269.542 250.003 266.172 247.104 262.063 247.328C257.954 247.552 254.919 250.8 255.157 255.167C255.393 259.503 258.763 262.402 262.872 262.178ZM278.612 265.668C277.092 265.751 275.795 264.589 275.712 263.068C275.63 261.548 276.792 260.251 278.313 260.168C279.833 260.086 281.13 261.248 281.212 262.769C281.295 264.289 280.133 265.586 278.612 265.668ZM285.989 265.267C284.468 265.349 283.172 264.187 283.089 262.666C283.006 261.146 284.169 259.849 285.689 259.767C287.21 259.684 288.506 260.846 288.589 262.367C288.672 263.887 287.509 265.184 285.989 265.267ZM293.333 264.866C291.812 264.949 290.516 263.787 290.433 262.266C290.35 260.746 291.513 259.449 293.033 259.366C294.554 259.284 295.85 260.446 295.933 261.967C296.016 263.487 294.853 264.784 293.333 264.866ZM309.153 246.936C310.674 246.854 311.97 248.016 312.053 249.537C312.136 251.057 310.974 252.354 309.453 252.436C307.933 252.519 306.636 251.357 306.553 249.836C306.47 248.316 307.633 247.019 309.153 246.936ZM307.941 255.05L311.241 254.87L312.549 263.398L312.901 269.868L307.887 270.142L307.534 263.671L307.941 255.05ZM337.41 239.329L338.644 261.976L334.212 262.217L333.411 247.529L327.611 258.391L327.093 258.419L320.149 248.284L320.947 262.94L316.482 263.183L315.248 240.536L319.843 240.286L326.929 250.641L332.816 239.579L337.41 239.329ZM351.333 261.739C346.383 262.009 342.532 259.233 342.266 254.348L341.436 239.11L345.868 238.868L346.679 253.75C346.799 255.95 348.054 257.537 351.095 257.371C354.136 257.206 355.211 255.492 355.091 253.292L354.28 238.41L358.745 238.167L359.575 253.405C359.841 258.29 356.315 261.468 351.333 261.739ZM380.343 236.99L373.331 251.228L373.812 260.06L369.38 260.301L368.898 251.469L360.413 238.076L365.461 237.801L370.893 246.98L375.296 237.265L380.343 236.99ZM399.046 235.971C403.414 235.733 406.962 238.914 407.193 243.153C407.423 247.391 404.242 250.939 399.874 251.177L395.895 251.394L396.3 258.835L391.836 259.078L390.602 236.431L399.046 235.971ZM399.647 247.003C401.556 246.899 402.866 245.335 402.76 243.394C402.653 241.421 401.182 240.04 399.273 240.144L395.294 240.361L395.668 247.22L399.647 247.003ZM423.171 257.371L421.59 253.368L412.564 253.86L411.427 258.011L406.607 258.273L413.299 235.194L418.832 234.893L428.024 257.106L423.171 257.371ZM413.76 249.609L419.972 249.271L416.362 240.187L413.76 249.609ZM442.092 233.626L446.557 233.382L447.791 256.029L444.394 256.215L433.934 242.896L434.688 256.743L430.223 256.987L428.989 234.34L432.387 234.154L442.845 247.44L442.092 233.626ZM466.551 255.007L464.97 251.005L455.944 251.497L454.807 255.647L449.986 255.91L456.679 232.831L462.211 232.53L471.404 254.743L466.551 255.007ZM457.14 247.246L463.351 246.907L459.741 237.823L457.14 247.246ZM494.531 230.769L495.765 253.416L491.332 253.657L490.532 238.969L484.731 249.831L484.214 249.859L477.269 239.724L478.068 254.38L473.603 254.623L472.369 231.976L476.963 231.726L484.05 242.08L489.937 231.019L494.531 230.769ZM512.116 223.321L508.766 227.949L504.754 228.167L507.101 223.594L512.116 223.321ZM514.543 252.393L512.962 248.39L503.936 248.882L502.799 253.033L497.979 253.295L504.671 230.216L510.204 229.915L519.396 252.128L514.543 252.393ZM505.132 244.631L511.344 244.293L507.734 235.209L505.132 244.631ZM521.763 244.374L520.423 235.848L520.07 229.377L525.085 229.104L525.437 235.575L525.063 244.194L521.763 244.374ZM523.851 252.307C522.33 252.39 521.034 251.228 520.951 249.707C520.868 248.187 522.03 246.89 523.551 246.807C525.071 246.725 526.368 247.887 526.451 249.408C526.534 250.928 525.371 252.225 523.851 252.307Z" fill="#F7EC6A"/>
<path d="M642.82 30.41C641.89 29.83 641.08 28.94 640.38 27.76C639.68 26.58 639.13 24.98 638.72 22.96C638.68 22.38 639.09 21.09 639.97 19.09C640.84 17.09 641.91 14.8 643.19 12.22C644.47 9.63998 645.78 7.31998 647.14 5.24998C648.49 3.18998 649.63 1.79998 650.56 1.07998C651.67 0.19998 653.08 0.30998 654.81 1.39998C656.54 2.48998 657.91 4.13998 658.93 6.35998C659.37 7.18998 659.22 8.43998 658.49 10.11C657.76 11.78 656.7 13.59 655.31 15.55C653.93 17.51 652.57 19.45 651.24 21.4C649.91 23.34 648.99 25.03 648.47 26.47C647.89 28.52 647.14 29.83 646.24 30.42C645.33 31 644.19 31 642.82 30.41Z" fill="#E6EBAB"/>
<path d="M25.9899 173.74C26.4599 174.15 28.0099 174.12 30.6499 173.63C33.2899 173.15 36.2799 172.14 39.6399 170.63C41.8099 169.73 43.9899 168.67 46.1999 167.44C48.3999 166.21 50.5199 164.87 52.5499 163.43C53.6099 162.6 54.8799 161.42 56.3399 159.9C57.8099 158.38 59.5699 156.19 61.6199 153.31C61.9199 152.74 62.4399 151.64 63.1799 150C63.9199 148.36 64.5799 146.81 65.1599 145.34C66.0699 143.74 66.9299 141.41 67.7499 138.33C68.5699 135.25 68.6399 132.74 67.9799 130.8C67.2599 127.98 65.8999 125.58 63.8899 123.6C61.8899 121.62 59.4699 120.28 56.6599 119.56C54.1999 119.26 52.1599 119.11 50.5499 119.09C48.9399 119.08 47.1999 119.29 45.3399 119.72C43.5999 120.37 42.3699 121.22 41.6599 122.25C40.9399 123.28 40.0099 125.43 38.8699 128.69C38.1799 130.27 37.1999 132.53 35.9299 135.47C34.6599 138.41 33.5999 141.28 32.7699 144.09C31.1999 151.46 29.7099 157.25 28.2799 161.46C26.8599 165.68 25.9599 168.4 25.5899 169.63C25.7699 170.83 25.7599 171.69 25.5699 172.19C25.3799 172.7 25.5199 173.22 25.9899 173.74ZM6.53989 228.77C5.20989 228.85 4.05989 228.2 3.08989 226.82C2.38989 226.2 1.71989 225.25 1.08989 223.96C0.459894 222.67 0.299894 220.42 0.609894 217.21C0.919894 214 1.94989 209.2 3.68989 202.81C4.54989 198.57 5.2599 195.47 5.8099 193.51C6.3599 191.55 6.6099 190.13 6.5599 189.25C6.4899 188.04 6.56989 187.02 6.79989 186.18C7.02989 185.34 7.1199 184.54 7.0799 183.77C7.7399 183.73 8.36989 183.09 8.96989 181.84C9.55989 180.59 10.0199 178.91 10.3399 176.8C10.6699 174.91 10.9999 173.37 11.3199 172.2C11.6399 171.02 11.7899 170.22 11.7599 169.78C12.2599 168.87 12.7599 167.46 13.2599 165.56C13.7599 163.66 14.5999 161.35 15.7699 158.64C16.4599 155.29 17.2599 151.8 18.1599 148.17C19.0599 144.54 19.9999 141.12 20.9799 137.92C21.9599 134.72 22.7899 132.22 23.4599 130.42C24.4799 126.95 25.2799 124.5 25.8599 123.09C26.4399 121.68 26.3899 120.77 25.6999 120.37C24.8899 119.87 24.5199 118.65 24.5699 116.72C24.6199 114.79 25.5999 112.94 27.4899 111.18C28.6199 109.68 29.9499 108.59 31.4599 107.89C32.9699 107.2 34.7799 106.79 36.8899 106.66C38.9899 106.54 41.3799 106.51 44.0499 106.57C46.0499 106.56 48.1799 106.49 50.4499 106.36C52.7199 106.23 54.1299 106.15 54.6799 106.11C55.6999 106.49 56.9499 106.89 58.4099 107.3C59.8799 107.71 61.2099 108.13 62.3999 108.56C63.5899 108.99 64.1999 109.36 64.2199 109.69C64.2599 110.35 64.5299 110.75 65.0399 110.88C65.5499 111.02 66.0799 111.12 66.6399 111.2C67.4099 111.15 68.6399 111.74 70.3199 112.97C71.9999 114.19 73.7499 115.66 75.5699 117.38C77.3899 119.09 78.7399 120.86 79.6299 122.68C80.6199 124.5 81.4399 126.21 82.0999 127.83C82.7499 129.44 82.8899 131.81 82.5099 134.91C82.4899 136.56 82.3399 138.23 82.0499 139.9C81.7599 141.57 81.4099 142.69 80.9999 143.27C80.3599 143.75 79.7799 144.33 79.2699 145.02C78.7499 145.71 78.5099 146.33 78.5499 146.88C78.5799 147.32 78.2199 148.36 77.4799 150C76.7399 151.64 75.7699 153.49 74.5499 155.54C73.3399 157.59 72.0399 159.63 70.6599 161.64C69.2799 163.65 67.9599 165.3 66.6999 166.58C65.3599 168.42 63.7699 170.17 61.9199 171.82C60.0699 173.47 58.3999 174.84 56.9099 175.91C54.1099 177.4 50.9199 178.88 47.3399 180.35C43.7599 181.83 40.3299 183.05 37.0599 184.01C33.7799 184.97 31.0899 185.46 28.9799 185.47C25.7899 186.1 23.7399 186.63 22.8299 187.07C21.9099 187.51 21.2199 188.51 20.7599 190.08C20.2899 191.54 19.8499 193.05 19.4399 194.62C19.0299 196.19 18.8399 197.25 18.8799 197.79C18.6799 198.24 18.2899 199.53 17.6899 201.66C17.0899 203.79 16.3999 206.26 15.6199 209.05C14.8399 211.85 14.1099 214.62 13.4399 217.36C12.7699 220.1 12.2599 222.41 11.9299 224.31C11.5799 225.87 10.8399 226.99 9.70989 227.66C8.59989 228.34 7.53989 228.71 6.53989 228.77Z" fill="#E6EBAB"/>
<path d="M122.42 158.8C125.2 158.13 127.54 157.58 129.44 157.15C131.34 156.72 133.05 156.46 134.59 156.37C138.24 155.27 141.15 154.46 143.3 153.95C145.45 153.44 147.1 153.13 148.25 152.99C149.4 152.86 150.36 152.96 151.15 153.3C151.7 153.91 152.43 154.31 153.34 154.51C153.45 154.25 153.6 152.87 153.77 150.38C153.94 147.89 154.18 144.79 154.48 141.08C154.77 137.37 155.06 133.5 155.34 129.48C155.62 125.45 155.81 121.69 155.93 118.18C156.04 114.67 156.11 111.96 156.13 110.05C156.12 107.63 155.87 104.47 155.38 100.55C154.61 100.59 153.19 102.08 151.12 105C149.05 107.92 146.7 111.72 144.09 116.39C141.48 121.06 138.98 126.08 136.6 131.43C135.46 133.92 134.39 135.98 133.4 137.63C132.4 139.28 131.59 140.12 130.95 140.16C130.71 140.43 130.07 141.49 129.02 143.33C127.97 145.17 126.87 147.24 125.73 149.54C124.58 151.84 123.64 153.89 122.92 155.72C122.19 157.54 122.03 158.57 122.42 158.8ZM82.4398 225.47C80.0698 224.33 78.7398 223.01 78.4598 221.5C78.1798 219.99 78.8898 217.27 80.5798 213.36C82.2798 209.44 84.9298 203.37 88.5598 195.14C91.2998 189.25 93.1698 184.66 94.1998 181.35C95.2298 178.04 95.8598 175.69 96.0998 174.27C96.3398 172.86 96.4498 171.96 96.4198 171.58C96.0998 170.45 96.1698 169.53 96.6398 168.8C97.1098 168.07 97.9098 167.42 99.0298 166.85C99.6298 166.18 100.87 164.96 102.76 163.2C104.64 161.44 106.16 159.37 107.31 157.02C108.31 154.29 109.49 151.49 110.86 148.6C112.23 145.72 114.01 142.09 116.19 137.69C118.37 133.3 121.31 127.56 125 120.47C127.3 115.88 129.99 110.86 133.07 105.39C136.15 99.93 139.28 94.81 142.47 90.05C143.77 88.19 145.1 86.72 146.45 85.62C147.8 84.52 149.04 83.94 150.2 83.87C152.63 83.73 155.13 84.25 157.7 85.44C160.27 86.63 162.63 88.15 164.79 89.99C166.95 91.84 168.47 93.69 169.35 95.55C170.05 96.53 170.43 98.67 170.49 101.97C170.55 105.28 170.53 109.29 170.42 114C170.31 118.72 170.15 123.75 169.95 129.11C169.87 134.34 169.65 140.52 169.3 147.67C168.95 154.82 168.64 162.28 168.39 170.06C168.14 177.84 168.03 185.32 168.06 192.51C168.09 199.7 168.46 205.95 169.15 211.25C169.34 212.38 169.41 213.46 169.34 214.48C169.27 215.5 169.25 216.33 169.29 216.97C168.57 217.78 167.05 218.21 164.75 218.28C162.45 218.35 160.18 218.07 157.97 217.43C155.75 216.8 154.48 215.91 154.16 214.79C153.75 214.43 153.51 214.06 153.42 213.69C153.33 213.31 153.29 211.98 153.28 209.69C153.27 207.4 153.17 203.46 152.98 197.87L152.21 168.13L149.73 168.47C148.58 168.54 146.48 168.79 143.42 169.22C140.37 169.65 137.06 170.2 133.51 170.85C129.96 171.5 126.69 172.14 123.71 172.76C120.73 173.38 118.68 173.91 117.55 174.36C116.4 174.43 115.07 175.27 113.56 176.88C112.05 178.5 110.66 180.55 109.4 183.04C108.99 184.85 108.17 186.77 106.95 188.81C105.72 190.86 105.13 192.2 105.16 192.83C104.3 193.52 103.41 194.78 102.49 196.61C102.53 197.37 102.04 199.28 101 202.33C99.9598 205.38 98.6798 208.77 97.1698 212.48C95.6498 216.2 94.0798 219.44 92.4398 222.21L88.0498 229.34L82.4398 225.47Z" fill="#E6EBAB"/>
<path d="M193.94 232.44C191.62 231.13 190.05 229.68 189.23 228.09C188.41 226.5 188.04 224.69 188.12 222.65C188.2 220.61 188.49 218.33 189.01 215.82C189.82 211.58 190.77 208.02 191.86 205.14C192.95 202.26 194.02 199.25 195.1 196.11C196.17 192.97 197.03 188.95 197.67 184.07C199.49 179.12 201.1 174.43 202.5 170.03C203.89 165.62 205.35 160.63 206.88 155.03C206.98 154.5 207.49 153.1 208.42 150.81C209.34 148.53 210.47 145.75 211.8 142.45C213.12 139.16 214.42 135.84 215.68 132.49C217.55 126.09 219.25 120.65 220.77 116.17C222.29 111.69 223.87 107.6 225.5 103.9C227.13 100.2 229.03 96.5201 231.2 92.8501C232.62 90.0201 234.63 88.2301 237.23 87.4901C239.83 86.7501 242.37 86.8001 244.87 87.6401C247.36 88.4801 249.08 90.1801 250.02 92.7501C250.75 94.0201 251.4 95.5201 251.97 97.2601C252.53 99.0001 253.11 101.55 253.7 104.92C254.29 108.3 254.84 113.11 255.33 119.37C256.03 126.8 256.57 133.78 256.95 140.31C257.33 146.84 257.88 152.87 258.6 158.4C259.32 163.93 260.4 168.81 261.83 173.05C262.36 175.38 262.99 178.19 263.71 181.49C264.43 184.79 265.18 188.06 265.96 191.29C266.74 194.52 267.49 197.2 268.21 199.32C268.93 201.44 269.55 202.49 270.08 202.46C270.74 202.42 271.52 201.72 272.43 200.36C273.34 199 274.44 196.31 275.72 192.31C277 188.3 278.61 182.35 280.52 174.44C282.44 166.53 284.6 156.09 287.01 143.1C287.54 140.84 288.22 137.2 289.05 132.17C289.88 127.14 290.41 122.07 290.64 116.94C291.37 113.62 292.08 109.98 292.78 106C293.47 102.03 294.09 98.5201 294.64 95.4701C295.19 92.4301 295.45 90.7101 295.43 90.3101C295.38 89.4001 295.36 88.6101 295.39 87.9501C295.42 87.2901 295.35 86.6401 295.18 86.0001C295.84 85.9601 296.38 85.0501 296.8 83.2501C297.22 81.4601 297.4 79.9101 297.32 78.6001C297.19 76.3801 297.38 74.5701 297.89 73.1601C298.4 71.7501 298.97 70.7101 299.59 70.0101C300.52 67.8601 302 66.7201 304.05 66.6001C306.09 66.4801 308.06 66.96 309.98 68.02C311.89 69.09 313.09 70.4601 313.59 72.1301C313.94 73.5501 313.76 76.8101 313.07 81.8901C312.38 86.9801 311.29 93.8201 309.81 102.43C309.89 103.87 309.64 106.24 309.04 109.55C308.44 112.86 307.82 116.37 307.18 120.08C306.53 123.79 306.1 126.96 305.85 129.59C305.52 133.02 305.11 136.22 304.63 139.19C304.14 142.17 303.57 143.61 302.9 143.52C300.33 158.48 297.48 171.26 294.34 181.86C291.19 192.46 288.36 201.11 285.85 207.81C283.11 215.18 279.52 219.9 275.09 222C270.66 224.09 266.18 222.58 261.65 217.47C258.95 214.22 256.72 211.01 254.95 207.83C253.18 204.66 251.64 200.88 250.33 196.5C249.02 192.12 247.7 186.56 246.39 179.82C244.89 174.4 243.75 169.03 242.98 163.7C242.21 158.37 241.66 152.9 241.33 147.28C241 141.67 240.72 135.72 240.49 129.44C240.21 122.38 239.7 118.08 238.95 116.56C238.2 115.03 237.28 115.61 236.18 118.29C235.08 120.98 233.7 125.05 232.04 130.52C231.27 133.19 230.33 136.26 229.21 139.73C228.09 143.2 226.94 146.64 225.75 150.06C224.56 153.47 223.58 156.41 222.8 158.88C222.02 161.35 221.52 162.92 221.29 163.59C220.59 165.2 219.79 167.31 218.89 169.92C217.98 172.53 217.29 175.29 216.8 178.2C212.78 190.75 209.85 201.24 208.04 209.67C206.22 218.1 204.87 223.78 203.98 226.71C202.88 230.44 201.73 232.84 200.53 233.89C199.27 234.98 197.1 234.48 193.94 232.44Z" fill="#E6EBAB"/>
<path d="M355.82 149.21C358.86 148.48 361.43 147.87 363.5 147.4C365.58 146.93 367.45 146.65 369.13 146.55C373.13 145.34 376.3 144.46 378.66 143.91C381.01 143.36 382.82 143.01 384.07 142.86C385.32 142.72 386.38 142.83 387.24 143.2C387.84 143.86 388.64 144.3 389.63 144.52C389.75 144.24 389.91 142.73 390.1 140C390.29 137.27 390.55 133.88 390.88 129.83C391.2 125.77 391.52 121.54 391.82 117.14C392.12 112.74 392.34 108.62 392.47 104.78C392.59 100.94 392.67 97.98 392.69 95.89C392.67 93.25 392.4 89.78 391.87 85.5C391.03 85.55 389.48 87.17 387.21 90.37C384.94 93.57 382.38 97.72 379.52 102.83C376.66 107.94 373.93 113.42 371.33 119.28C370.08 122 368.92 124.26 367.83 126.06C366.74 127.87 365.85 128.79 365.15 128.83C364.88 129.13 364.18 130.28 363.04 132.29C361.9 134.31 360.69 136.57 359.44 139.08C358.18 141.59 357.16 143.84 356.36 145.84C355.56 147.84 355.39 148.96 355.82 149.21ZM312.09 222.14C309.49 220.9 308.04 219.45 307.73 217.8C307.42 216.15 308.2 213.18 310.05 208.89C311.9 204.61 314.81 197.96 318.78 188.96C321.77 182.52 323.83 177.49 324.95 173.88C326.07 170.26 326.76 167.69 327.02 166.14C327.28 164.59 327.4 163.61 327.37 163.2C327.02 161.97 327.1 160.95 327.61 160.16C328.12 159.37 329 158.65 330.22 158.02C330.88 157.29 332.24 155.95 334.3 154.02C336.36 152.09 338.02 149.84 339.27 147.26C340.36 144.27 341.65 141.21 343.15 138.05C344.65 134.9 346.59 130.93 348.98 126.12C351.36 121.32 354.58 115.04 358.61 107.29C361.12 102.27 364.06 96.78 367.44 90.8C370.81 84.83 374.24 79.23 377.72 74.02C379.14 71.99 380.59 70.37 382.07 69.17C383.54 67.97 384.91 67.33 386.17 67.26C388.82 67.11 391.56 67.68 394.37 68.97C397.18 70.27 399.77 71.93 402.13 73.95C404.49 75.97 406.15 78 407.11 80.03C407.87 81.1 408.29 83.44 408.36 87.06C408.43 90.68 408.4 95.06 408.28 100.22C408.16 105.38 407.99 110.89 407.77 116.75C407.68 122.46 407.45 129.23 407.06 137.05C406.67 144.87 406.34 153.03 406.07 161.54C405.79 170.05 405.67 178.24 405.71 186.1C405.75 193.96 406.14 200.8 406.9 206.6C407.11 207.84 407.18 209.02 407.11 210.14C407.03 211.26 407.02 212.16 407.06 212.86C406.27 213.74 404.61 214.22 402.09 214.3C399.57 214.38 397.1 214.07 394.67 213.37C392.24 212.68 390.86 211.71 390.5 210.48C390.06 210.09 389.79 209.69 389.69 209.27C389.59 208.86 389.55 207.4 389.54 204.89C389.53 202.38 389.42 198.08 389.21 191.96L388.37 159.43L385.66 159.8C384.4 159.87 382.1 160.15 378.76 160.62C375.42 161.1 371.81 161.69 367.92 162.4C364.03 163.12 360.46 163.81 357.2 164.49C353.94 165.17 351.7 165.75 350.46 166.24C349.2 166.31 347.75 167.23 346.1 169C344.45 170.77 342.93 173.02 341.55 175.74C341.1 177.72 340.21 179.82 338.87 182.06C337.53 184.3 336.88 185.76 336.92 186.45C335.98 187.2 335.01 188.58 334 190.59C334.05 191.42 333.5 193.51 332.37 196.85C331.23 200.19 329.83 203.89 328.18 207.95C326.52 212.01 324.8 215.56 323.01 218.59L318.2 226.39L312.09 222.14Z" fill="#E6EBAB"/>
<path d="M570.74 199.18C570.44 199.98 569.28 200.41 567.27 200.47C565.26 200.53 563.51 199.74 562.02 198.08C560.47 196.14 559.43 193.91 558.91 191.41C558.38 188.91 557.78 185.35 557.09 180.73C557.05 175.55 557.23 168.69 557.63 160.17C558.03 151.64 558.51 142.1 559.07 131.55C559.63 120.99 560.16 110.11 560.68 98.89C561.19 93.46 561.56 88.69 561.79 84.56C562.02 80.44 562.18 76.15 562.27 71.68C562.12 71.71 561.87 71.97 561.52 72.48C561.16 72.99 560.89 73.56 560.71 74.18C560.52 74.81 560.38 75.28 560.29 75.59C559.4 78.12 558.38 80.76 557.23 83.48C556.24 85.44 555.36 88.01 554.59 91.19C553.82 94.37 552.54 98.05 550.76 102.23C549.22 106.96 547.53 112.27 545.68 118.16C543.83 124.06 542.19 128.84 540.76 132.51C539.91 134.44 539.16 136.29 538.51 138.03C537.85 139.78 537.45 141.04 537.29 141.81C537 143.5 536.36 145.58 535.39 148.05C534.42 150.53 533.26 153 531.91 155.46C531.28 156.91 530.53 158.57 529.67 160.42C528.81 162.28 527.73 164.59 526.44 167.34C526.42 168.09 525.83 169.56 524.66 171.78C523.49 173.99 522.04 176.48 520.29 179.24C518.55 182 516.76 184.51 514.93 186.77C510.67 192.14 507.03 195.58 504.02 197.08C501 198.59 497.16 197.99 492.49 195.27C490.19 193.31 488.31 191.17 486.84 188.84C485.37 186.51 484.26 183.23 483.49 178.99C482.72 174.76 482.34 168.93 482.35 161.51C482.48 156.45 482.62 151.19 482.75 145.75C482.89 140.31 483.1 135.09 483.39 130.06C483.68 125.04 483.97 120.69 484.28 117C484.58 113.31 484.84 110.78 485.04 109.41C484.88 106.03 484.59 104.26 484.19 104.11C483.79 103.96 483.18 104.93 482.36 107C481.75 108.59 480.53 111.97 478.7 117.12C476.86 122.27 474.86 128.35 472.69 135.34C470.51 142.33 468.45 149.49 466.48 156.82C462.52 168.81 459.2 178.79 456.54 186.76C453.87 194.73 451.66 201.1 449.91 205.87C448.15 210.64 446.86 214.21 446.02 216.58C445.18 218.96 444.54 220.63 444.12 221.59C443.7 222.56 443.36 223.21 443.13 223.55C441.22 223.75 439.37 223.19 437.56 221.89C435.75 220.58 434.08 218.96 432.53 217.02C432 215.78 431.58 214.45 431.25 213.03C430.92 211.61 430.86 209.87 431.09 207.83C431.32 205.79 431.9 203.2 432.83 200.06C434.03 195.99 435.23 192.47 436.42 189.51C437.6 186.55 438.43 184.74 438.91 184.06C439.45 182.93 439.87 181.74 440.17 180.5C440.47 179.26 440.59 178.05 440.52 176.88C441.09 175.89 441.89 173.89 442.91 170.89C443.94 167.89 444.96 164.66 445.98 161.22C446.8 159.15 447.9 156.31 449.27 152.73C450.64 149.15 452.06 145.22 453.53 140.95C455 136.68 456.31 132.74 457.44 129.12C461.9 116.6 465.51 106.38 468.26 98.47C471.01 90.56 473.09 85.51 474.49 83.33C475.37 82.43 476.04 80.97 476.5 78.96C476.96 76.95 477.24 75.42 477.35 74.36C478.15 70.51 479.21 67.09 480.54 64.11C481.87 61.13 483.27 59.58 484.74 59.46C486.04 59.22 487.55 59.29 489.26 59.64C490.97 60 492.76 60.83 494.64 62.12C496.42 63.73 498.13 65.75 499.77 68.2C501.41 70.65 502.25 74.46 502.29 79.65C502.53 81.83 502.68 84.47 502.71 87.58C502.75 90.69 502.77 93.69 502.77 96.58C502.77 99.47 502.72 101.89 502.62 103.84C502.29 110.28 501.96 116.72 501.63 123.15C501.3 129.59 501.06 135.71 500.91 141.52C500.76 147.33 500.7 152.57 500.73 157.24C500.75 161.91 500.91 165.66 501.2 168.5C501.49 171.34 501.99 173.07 502.7 173.68C503.48 173.84 504.18 173.6 504.81 172.96C505.44 172.33 506.06 171.21 506.67 169.62C507.45 168.14 508.23 166.48 509.02 164.64C509.81 162.79 510.68 160.82 511.65 158.71C513.04 155.64 514.65 151.94 516.48 147.6C518.31 143.27 520.5 137.83 523.06 131.28C525.61 124.74 528.68 116.69 532.26 107.15C535.84 97.61 539.99 86.03 544.7 72.42C547.12 66.79 549.4 61.23 551.55 55.72C553.69 50.22 555.71 46.11 557.62 43.39C559.26 40.87 561.59 39.75 564.63 40.01C567.67 40.28 570.64 41.63 573.54 44.07C576.45 46.51 578.42 49.79 579.46 53.9C579.97 55.89 580.23 59.4 580.24 64.44C580.25 69.48 580.09 75.18 579.75 81.55C579.4 87.92 578.76 94.3 577.83 100.69C577.84 103.21 577.68 106.5 577.37 110.56C577.06 114.62 576.69 118.8 576.27 123.1C575.85 127.4 575.43 131.3 575.02 134.78C574.89 139.85 574.77 144.17 574.67 147.74C574.57 151.32 574.86 154.6 575.55 157.59C574.66 160.12 574.39 163.58 574.74 167.97C575.08 172.36 575.67 176.85 576.5 181.44C576.93 187.15 576.71 191.26 575.82 193.8C574.93 196.33 574.11 197.59 573.36 197.58C571.98 197.4 571.1 197.93 570.74 199.18Z" fill="#E6EBAB"/>
<path d="M630.28 107.84C632.51 106.77 634.4 105.88 635.93 105.17C637.46 104.47 638.87 103.93 640.15 103.58C643.05 101.99 645.36 100.78 647.09 99.96C648.82 99.14 650.16 98.58 651.11 98.26C652.06 97.94 652.9 97.85 653.62 98C654.19 98.42 654.88 98.62 655.69 98.63C655.74 98.39 655.61 97.2 655.31 95.05C655.01 92.91 654.65 90.24 654.23 87.05C653.81 83.86 653.36 80.53 652.86 77.07C652.37 73.61 651.85 70.39 651.32 67.4C650.78 64.41 650.35 62.1 650.02 60.48C649.57 58.44 648.79 55.8 647.67 52.57C647.03 52.75 646.09 54.26 644.86 57.11C643.63 59.96 642.33 63.6 640.96 68.02C639.59 72.45 638.38 77.15 637.33 82.11C636.82 84.42 636.29 86.36 635.74 87.94C635.2 89.52 634.66 90.38 634.12 90.52C633.96 90.79 633.61 91.8 633.06 93.55C632.51 95.3 631.95 97.25 631.39 99.4C630.83 101.55 630.41 103.46 630.12 105.14C629.86 106.82 629.91 107.72 630.28 107.84ZM608.48 171.52C606.26 170.99 604.9 170.11 604.39 168.88C603.88 167.65 603.99 165.22 604.72 161.6C605.45 157.98 606.6 152.35 608.19 144.73C609.44 139.25 610.2 135.02 610.47 132.03C610.74 129.05 610.85 126.94 610.8 125.69C610.75 124.45 610.68 123.67 610.59 123.35C610.11 122.45 610.01 121.66 610.28 120.95C610.55 120.25 611.1 119.55 611.95 118.86C612.34 118.18 613.17 116.93 614.45 115.09C615.73 113.26 616.64 111.24 617.18 109.03C617.53 106.54 618.02 103.95 618.66 101.26C619.3 98.57 620.15 95.18 621.2 91.06C622.25 86.95 623.7 81.56 625.55 74.89C626.67 70.59 628.03 65.85 629.66 60.67C631.28 55.49 633.01 50.59 634.84 45.98C635.61 44.17 636.46 42.68 637.4 41.51C638.34 40.34 639.29 39.62 640.26 39.36C642.29 38.8 644.5 38.79 646.89 39.33C649.28 39.87 651.56 40.73 653.72 41.9C655.88 43.08 657.5 44.37 658.58 45.78C659.35 46.48 660.06 48.23 660.71 51.01C661.36 53.8 662.07 57.2 662.83 61.21C663.59 65.22 664.37 69.52 665.17 74.09C666.05 78.53 666.98 83.81 667.97 89.92C668.96 96.04 670.05 102.41 671.25 109.04C672.44 115.67 673.7 122.03 675.03 128.11C676.36 134.19 677.8 139.42 679.34 143.78C679.71 144.71 679.96 145.61 680.08 146.49C680.21 147.37 680.34 148.07 680.49 148.6C680.02 149.41 678.82 150.06 676.88 150.53C674.94 151 672.98 151.18 670.98 151.04C668.99 150.9 667.75 150.39 667.28 149.49C666.87 149.26 666.6 148.99 666.46 148.69C666.32 148.39 666.04 147.27 665.62 145.33C665.2 143.39 664.4 140.07 663.23 135.38L657.2 110.34L655.16 111.07C654.2 111.34 652.46 111.93 649.96 112.84C647.45 113.76 644.75 114.82 641.86 116.01C638.97 117.21 636.32 118.33 633.91 119.4C631.5 120.46 629.86 121.28 628.98 121.87C628.02 122.13 627.04 123.09 626.06 124.73C625.07 126.37 624.27 128.36 623.65 130.7C623.63 132.3 623.29 134.08 622.62 136.03C621.95 137.98 621.69 139.23 621.83 139.75C621.23 140.49 620.7 141.72 620.26 143.43C620.43 144.07 620.36 145.77 620.03 148.54C619.7 151.31 619.23 154.41 618.62 157.83C618.01 161.25 617.26 164.28 616.38 166.92L613.95 173.75L608.48 171.52Z" fill="#E6EBAB"/>
</svg>
