<svg width="374" height="264" viewBox="0 0 374 264" fill="none" xmlns="http://www.w3.org/2000/svg">
<path d="M36.9716 153.654C34.3666 144.797 25.857 139.934 25.857 139.934C20.8207 136.809 5.53806 133.856 2.58574 141.324C1.54374 143.755 1.54374 157.648 0.849076 175.536C0.501744 183.004 0.15437 190.124 0.15437 197.592C0.15437 201.412 -0.192962 204.886 0.15437 207.317C0.15437 208.012 0.154391 208.533 0.501723 209.054C0.501723 209.227 0.501786 209.401 0.675452 209.575C1.54378 211.311 3.45409 212.353 5.53808 212.353C8.4904 212.353 11.0954 209.922 11.0954 206.796C11.0954 204.886 11.0954 202.107 11.0954 196.897C11.0954 191.687 11.0954 185.782 11.0954 185.782C26.378 186.13 42.5289 171.889 36.9716 153.48V153.654ZM10.9217 143.408C18.042 143.408 28.4619 148.097 30.8933 157.475C34.1929 170.152 22.5573 181.093 10.9217 181.093V143.408ZM129.709 207.838C129.362 209.748 127.799 211.138 125.889 211.138C123.978 211.138 122.936 210.269 122.415 208.88C120.679 204.886 104.007 163.206 104.18 160.774C103.486 169.284 102.096 199.676 101.923 207.491C101.923 207.838 101.923 208.359 101.923 208.706C101.923 209.227 101.923 209.748 101.575 210.269C101.575 210.617 101.228 210.964 101.054 211.138C100.36 211.832 99.4913 212.18 98.4494 212.18C96.539 212.18 94.976 210.617 94.976 208.706C94.976 206.796 94.976 208.706 94.976 208.533C94.976 208.359 94.976 208.185 94.976 207.838C95.3234 192.903 96.539 155.912 96.8863 147.923C96.8863 147.923 96.8863 147.055 97.2337 146.186C97.581 143.755 99.665 142.018 102.27 142.018C104.875 142.018 105.222 142.713 106.091 143.755C106.091 143.755 106.264 143.929 106.438 144.102C107.133 145.144 106.785 144.623 107.306 145.665C108.696 147.576 124.499 180.051 124.326 182.309C126.062 169.458 128.494 141.671 129.188 139.066C129.188 139.066 129.188 139.066 129.188 138.893C129.536 137.503 130.577 136.461 132.14 136.461C133.703 136.461 135.093 137.851 135.093 139.413C135.093 140.629 130.925 199.676 130.23 207.491L129.709 207.838ZM299.728 207.143C299.728 203.149 300.944 163.727 299.902 148.27C299.728 145.318 297.47 140.629 292.608 138.893C287.745 137.156 283.23 137.677 278.888 139.413C267.947 143.581 265.516 158.517 264.648 169.979C264.648 171.194 264.3 173.278 264.3 173.278C264.3 173.278 259.264 173.452 258.396 173.452C256.833 173.452 255.443 174.841 255.443 176.578C255.443 178.315 256.833 179.704 258.569 179.704C259.438 179.704 263.606 179.704 263.606 179.704C263.606 179.704 262.043 198.46 262.043 201.065C262.043 203.67 264.127 205.928 266.905 205.928C269.684 205.928 271.421 204.017 271.594 201.586C271.594 199.676 273.331 179.357 273.331 179.357C273.331 179.357 285.14 178.836 289.655 178.662L289.135 207.491C289.135 210.443 291.566 212.874 294.518 212.874C297.47 212.874 299.554 210.79 299.902 208.185C299.902 208.012 299.902 207.838 299.902 207.491L299.728 207.143ZM273.678 173.278C273.678 173.278 274.373 157.822 276.11 153.133C276.11 153.133 280.104 141.15 287.398 144.276C290.697 145.665 290.524 149.486 290.524 149.486C290.524 155.738 290.003 173.105 290.003 173.105H273.678V173.278ZM51.0386 150.702C48.0862 156.78 46.1758 171.368 46.1758 171.368C46.1758 171.368 44.2656 171.368 43.2236 171.368C41.4869 171.368 39.9239 172.757 39.9239 174.668C39.9239 176.578 41.1395 177.62 42.7025 177.967C43.2235 177.967 44.0919 177.967 44.9603 177.967C44.2656 185.088 43.2235 193.597 42.7025 200.718C42.3552 204.017 42.0079 206.275 42.1815 207.838C42.1815 207.838 42.1815 207.838 42.1815 208.012C42.1815 208.359 42.1815 208.706 42.1815 209.054C42.1815 209.575 42.5289 209.922 42.7025 210.269C43.3972 211.485 44.7866 212.353 46.3496 212.353C47.9126 212.353 49.3019 211.485 50.1702 210.269C50.1702 210.269 50.3438 209.922 50.5175 209.748C50.5175 209.575 50.5176 209.227 50.6912 209.054C50.6912 209.054 50.6912 208.88 50.6912 208.706C51.5595 203.323 53.1225 177.099 53.1225 177.099L72.0521 176.057C72.0521 176.057 71.1838 192.903 70.8364 201.065C70.8364 201.065 70.8364 201.239 70.8364 201.412C70.8364 201.933 70.8364 202.628 71.1838 203.149C71.8784 205.233 73.9625 206.796 76.2201 206.796C78.4778 206.796 81.6037 204.365 81.6037 201.586C82.1247 201.065 83.514 156.954 82.6457 150.875C80.388 136.114 60.0692 131.772 51.0386 150.875V150.702ZM53.6436 171.021C54.1646 160.948 57.1169 153.48 58.8535 150.354C60.4165 147.402 61.8058 145.665 64.2371 144.797C67.0158 143.581 72.9204 143.755 73.0941 148.965C73.0941 151.57 72.7467 161.469 72.2257 169.805C66.1474 170.152 53.4698 171.021 53.4698 171.021H53.6436ZM249.191 205.407C248.844 208.185 246.413 210.269 243.634 210.269C240.855 210.269 237.903 207.664 237.903 204.538C237.903 201.412 237.903 204.017 237.903 203.67C239.292 190.992 244.502 146.534 240.855 146.707C238.598 146.707 231.477 171.542 221.752 196.55C221.057 198.807 218.8 200.544 216.195 200.544C213.59 200.544 211.332 198.807 210.637 196.376C210.637 196.376 210.637 196.029 210.637 195.855C210.117 193.771 203.344 153.654 202.128 152.091C201.433 151.396 200.912 152.091 200.739 152.612C199.87 157.127 198.655 199.502 198.481 203.844V204.017C198.307 205.928 196.744 207.491 194.66 207.491C192.576 207.491 190.84 205.754 190.84 203.67C190.84 198.634 192.924 150.354 193.445 147.055C193.966 143.408 199.176 141.845 204.038 143.408C204.386 143.408 204.559 143.581 204.907 143.755C206.122 144.276 207.164 144.797 208.033 145.665C208.033 145.665 208.033 145.665 208.206 145.665C208.206 145.665 208.554 146.013 208.727 146.013C209.943 147.228 210.637 148.618 211.158 149.66C211.332 150.181 211.68 150.875 211.68 151.57C212.722 155.043 218.105 179.704 219.495 186.303C222.968 178.141 223.662 175.536 228.525 162.164C233.214 149.139 235.645 142.713 237.903 139.934C238.077 139.587 238.424 139.414 238.598 139.066C239.466 138.198 240.334 137.851 241.376 137.851C241.724 137.851 241.897 137.851 242.245 137.851C242.592 137.851 242.939 137.851 243.287 137.851C244.502 138.024 246.065 138.545 247.976 138.893C248.149 138.893 248.323 138.893 248.497 138.893C250.407 139.24 251.97 140.629 252.665 142.539C252.838 143.06 253.012 143.581 253.012 144.102C253.012 147.576 253.012 153.48 253.012 157.127C252.491 168.589 250.581 192.903 249.539 204.538L249.191 205.407ZM180.246 149.66C178.683 142.539 171.91 137.851 164.616 138.372C150.028 139.413 147.076 158.69 145.165 174.32C145.165 174.32 142.039 174.32 140.998 174.32C139.087 174.32 137.524 175.883 137.524 177.794C137.524 179.704 139.087 181.267 140.998 181.267C141.692 181.267 144.644 181.093 144.644 181.093C143.95 188.214 142.039 201.412 141.692 205.754C141.692 206.101 141.692 206.449 141.692 206.796C141.692 209.401 143.776 211.311 146.207 211.311C148.639 211.311 149.507 210.269 150.202 208.88C150.549 208.359 150.723 207.838 150.723 207.143C151.244 201.412 153.154 180.399 153.154 180.399L168.958 180.051C168.958 187.519 168.263 202.802 168.263 204.886C168.263 207.491 170.521 209.575 173.126 209.575C175.731 209.575 177.467 208.012 177.988 205.754C177.988 205.754 177.988 205.754 177.988 205.58C178.336 203.323 181.809 157.127 180.246 149.486V149.66ZM169.131 174.494H153.675C153.675 174.494 155.064 144.797 163.921 144.623C166.7 144.623 169.652 146.36 169.652 149.833C169.652 158.69 169.131 174.494 169.131 174.494Z" fill="white"/>
<path d="M301.639 4.82284C302.681 8.29616 303.376 11.9431 304.07 15.4165C304.765 19.0634 305.286 22.5368 305.633 26.1837C306.154 29.8307 306.502 33.4777 306.675 37.1247C307.023 40.7717 307.197 44.4187 307.197 48.2393C307.197 49.2813 306.328 50.1496 305.286 50.1496C304.591 50.1496 303.897 49.8023 303.549 49.1077C301.813 45.808 300.424 42.3347 299.034 39.035C297.645 35.5617 296.256 32.2621 295.04 28.7887C293.824 25.3154 292.609 21.8421 291.567 18.3688C290.525 14.8955 289.483 11.4221 288.962 7.77516C288.267 4.30184 290.698 0.828521 294.172 0.133857C297.471 -0.560807 300.771 1.52318 301.639 4.64917V4.82284Z" fill="#EA2229"/>
<path d="M365.721 39.9034C362.769 41.9874 359.469 43.7241 356.343 45.4607C353.217 47.1974 349.918 48.7604 346.618 50.3234C343.318 51.8864 340.019 53.2757 336.545 54.665C333.072 56.0544 329.772 57.4437 326.125 58.6593C325.083 59.0067 324.041 58.4857 323.694 57.4437C323.52 56.749 323.694 56.0544 324.215 55.5334C326.82 52.9284 329.599 50.497 332.377 48.0657C335.156 45.6344 337.935 43.3767 340.887 41.1191C343.839 38.8614 346.618 36.7774 349.744 34.6934C352.696 32.6095 355.822 30.6991 358.948 28.9625C362.074 27.2258 366.068 28.4415 367.805 31.5675C369.368 34.5198 368.5 38.1668 365.721 40.0771V39.9034Z" fill="#EA2229"/>
<path d="M352.175 111.627C349.397 109.369 346.618 106.938 344.013 104.333C341.408 101.728 338.803 99.1228 336.372 96.5178C333.941 93.9129 331.509 91.1342 329.078 88.3555C326.647 85.5769 324.389 82.7982 322.131 79.6723C321.437 78.8039 321.61 77.5883 322.479 77.0673C323 76.5463 323.868 76.5463 324.563 77.0673C327.862 78.8039 330.988 80.7142 334.114 82.6246C337.24 84.5349 340.366 86.6189 343.319 88.5292C346.271 90.6132 349.223 92.6972 352.175 94.9549C355.128 97.2125 357.906 99.4702 360.511 101.901C363.116 104.333 363.29 108.501 360.685 111.106C358.427 113.537 354.607 113.711 352.002 111.8L352.175 111.627Z" fill="#EA2229"/>
<path d="M279.583 120.657C280.799 117.184 282.362 113.884 283.925 110.758C285.488 107.459 287.224 104.333 289.135 101.207C290.871 98.0809 292.782 94.9549 294.692 91.8289C296.602 88.7029 298.686 85.5769 300.77 82.6246C301.465 81.7563 302.507 81.5826 303.375 82.2773C304.07 82.7983 304.244 83.4929 304.07 84.1876C303.375 87.8346 302.681 91.4816 301.812 94.9549C300.944 98.4282 299.902 102.075 298.86 105.549C297.818 109.022 296.776 112.495 295.56 115.968C294.345 119.442 293.129 122.741 291.566 126.041C290.003 129.341 286.182 130.73 282.883 129.167C279.757 127.778 278.541 124.131 279.583 121.005V120.657Z" fill="#EA2229"/>
<path d="M248.67 54.6645C252.317 54.6645 255.964 55.1855 259.438 55.7065C263.085 56.2275 266.558 56.9222 270.205 57.6168C273.852 58.3115 277.325 59.1798 280.972 60.0482C284.446 60.9165 288.093 61.7848 291.566 63.0005C292.608 63.3478 293.129 64.3898 292.782 65.4318C292.608 66.1265 291.913 66.6475 291.219 66.6475C287.572 67.1685 283.925 67.5158 280.278 67.6895C276.631 67.8631 272.984 68.0368 269.337 68.2105C265.69 68.2105 262.043 68.2105 258.396 68.2105C254.749 68.2105 251.102 67.8631 247.628 67.5158C243.981 66.9948 241.55 63.6951 242.071 60.2218C242.592 56.9222 245.544 54.4908 248.844 54.6645H248.67Z" fill="#EA2229"/>
<path d="M327.34 21.4947C326.646 24.447 325.777 27.2257 324.735 30.0043C323.693 32.783 322.651 35.5616 321.609 38.3403C320.394 41.1189 319.352 43.8976 317.962 46.6762C316.747 49.4549 315.357 52.0599 313.968 54.8385C313.621 55.5332 312.579 55.8805 311.884 55.5332C311.363 55.1859 311.016 54.6649 311.016 54.1439C311.016 51.0179 311.537 48.0656 311.884 45.1132C312.231 42.1609 312.579 39.2086 313.1 36.2563C313.621 33.304 314.142 30.3516 314.663 27.3993C315.357 24.447 316.052 21.6683 316.92 18.716C317.789 15.9374 320.915 14.3744 323.693 15.2427C326.298 16.111 327.861 18.8897 327.167 21.4947H327.34Z" fill="#EA2229"/>
<path d="M357.732 69.9474C354.78 70.2947 351.828 70.2947 348.875 70.121C345.923 70.121 342.971 69.9474 339.845 69.6001C336.892 69.4264 333.94 69.0791 330.814 68.7317C327.862 68.3844 324.909 68.0371 321.783 67.3424C320.915 67.3424 320.394 66.3004 320.568 65.4321C320.568 64.9111 321.089 64.3901 321.61 64.2164C324.562 63.3481 327.514 62.8271 330.467 62.1324C333.419 61.6114 336.371 61.0904 339.324 60.5694C342.276 60.0484 345.228 59.7011 348.181 59.3538C351.133 59.0064 354.085 58.8328 357.038 58.8328C359.99 58.8328 362.421 61.2641 362.421 64.2164C362.421 66.9951 360.164 69.2527 357.559 69.4264L357.732 69.9474Z" fill="#EA2229"/>
<path d="M320.915 113.711C319.699 110.932 318.831 108.154 317.962 105.375C317.094 102.596 316.399 99.644 315.705 96.6916C315.01 93.7393 314.315 90.787 313.794 87.8347C313.273 84.8824 312.579 81.93 312.231 78.804C312.231 77.9357 312.752 77.241 313.621 77.0674C314.315 77.0674 314.836 77.2411 315.184 77.762C316.92 80.367 318.31 82.972 319.873 85.577C321.262 88.182 322.651 90.787 324.041 93.5656C325.43 96.1706 326.646 98.9493 327.861 101.728C329.077 104.507 330.119 107.285 330.987 110.064C331.856 112.843 330.293 115.969 327.514 116.837C324.909 117.705 322.13 116.316 320.915 113.885V113.711Z" fill="#EA2229"/>
<path d="M267.947 92.1762C270.205 90.2659 272.636 88.5292 275.068 86.7926C277.499 85.0559 280.104 83.4929 282.535 81.9299C285.14 80.3669 287.745 78.8039 290.35 77.4146C292.955 76.0253 295.56 74.4623 298.339 73.2466C299.207 72.8993 300.075 73.2466 300.423 73.9413C300.77 74.4623 300.423 75.1569 300.249 75.5043C298.339 77.9356 296.255 80.1932 294.171 82.2772C292.087 84.5349 290.003 86.6189 287.919 88.7029C285.835 90.7869 283.577 92.8709 281.319 94.7812C279.062 96.6915 276.804 98.6018 274.373 100.338C271.941 102.075 268.642 101.554 266.905 99.1228C265.342 96.8652 265.69 93.7392 267.774 92.0025L267.947 92.1762Z" fill="#EA2229"/>
<path d="M272.115 35.0406C274.72 36.6035 277.151 38.3402 279.409 40.0769C281.84 41.8135 284.098 43.7238 286.355 45.8078C288.613 47.7182 290.871 49.8022 293.128 51.7125C295.386 53.7965 297.47 55.8805 299.554 58.1381C300.075 58.8328 300.075 59.7011 299.554 60.3958C299.033 60.7431 298.512 60.9168 297.991 60.7431C295.212 59.7011 292.434 58.4855 289.655 57.0961C286.876 55.8805 284.271 54.4911 281.666 53.1018C279.061 51.7125 276.456 50.3232 273.851 48.7602C271.246 47.1972 268.815 45.6342 266.384 43.8975C263.952 42.1609 263.605 38.8612 265.342 36.4299C267.078 34.1722 270.031 33.6512 272.462 35.0406H272.115Z" fill="#EA2229"/>
<path d="M350.786 17.5002C349.397 19.4105 348.007 21.3208 346.444 23.2312C344.881 25.1415 343.318 26.8781 341.582 28.6148C340.019 30.3515 338.282 32.0881 336.545 33.8248C334.809 35.5614 333.072 37.1244 331.162 38.6874C330.641 39.2084 329.772 39.0348 329.425 38.6874C329.078 38.3401 329.078 37.8191 329.251 37.2981C330.293 35.0404 331.335 32.9565 332.377 30.6988C333.419 28.6148 334.635 26.5308 335.851 24.4468C337.066 22.3628 338.282 20.2788 339.671 18.3685C341.061 16.4582 342.276 14.3742 343.839 12.6375C345.402 10.7272 348.007 10.5536 349.918 12.1165C351.654 13.5059 352.002 15.9372 350.786 17.8475V17.5002Z" fill="#EA2229"/>
<path d="M368.5 90.4401C366.242 89.7455 363.985 88.8771 361.727 88.0088C359.469 87.1405 357.385 86.0985 355.128 85.0565C353.044 84.0145 350.786 82.9725 348.702 81.9305C346.618 80.8885 344.36 79.6728 342.276 78.4572C341.755 78.1098 341.582 77.2415 341.929 76.7205C342.103 76.3732 342.624 76.0258 343.145 76.1995C345.576 76.3732 348.007 76.8942 350.265 77.2415C352.696 77.5888 354.954 78.1098 357.385 78.6308C359.817 79.1518 362.074 79.6728 364.332 80.3675C366.59 81.0622 368.847 81.7568 371.105 82.6252C373.363 83.4935 374.404 85.9248 373.536 88.1825C372.668 90.2665 370.41 91.3085 368.326 90.7875L368.5 90.4401Z" fill="#EA2229"/>
<path d="M304.417 129.688C304.417 127.257 304.417 124.999 304.591 122.568C304.764 120.137 304.938 117.879 305.285 115.448C305.633 113.016 305.98 110.759 306.327 108.327C306.675 105.896 307.196 103.638 307.717 101.207C307.717 100.512 308.585 100.165 309.28 100.339C309.801 100.339 310.148 100.86 310.148 101.207C310.669 103.638 311.016 106.07 311.364 108.327C311.711 110.759 312.058 113.19 312.232 115.448C312.406 117.879 312.753 120.137 312.753 122.568C312.753 124.999 312.753 127.257 312.753 129.688C312.753 132.12 310.495 133.856 308.238 133.683C305.98 133.683 304.243 131.772 304.243 129.515L304.417 129.688Z" fill="#EA2229"/>
<path d="M247.281 80.7146C249.539 79.8463 251.796 79.3253 254.228 78.6306C256.485 78.1096 258.917 77.5886 261.174 77.0676C263.606 76.5466 265.863 76.1993 268.294 75.852C270.726 75.5046 273.157 75.1573 275.588 74.9836C276.283 74.9836 276.804 75.5046 276.978 76.1993C276.978 76.7203 276.804 77.0676 276.283 77.415C274.199 78.6306 271.941 79.6726 269.857 80.8883C267.774 81.9303 265.516 82.9723 263.258 83.8406C261 84.8826 258.916 85.7509 256.659 86.6193C254.401 87.4876 252.144 88.1823 249.886 88.8769C247.628 89.3979 245.197 88.0086 244.676 85.7509C244.155 83.6669 245.371 81.4093 247.281 80.7146Z" fill="#EA2229"/>
<path d="M276.283 11.4218C277.673 13.3321 279.062 15.2425 280.278 17.3265C281.494 19.4104 282.709 21.4944 283.925 23.5784C285.14 25.6624 286.183 27.7464 287.225 30.0041C288.267 32.2617 289.308 34.3457 290.177 36.6034C290.524 37.298 290.177 37.9927 289.482 38.1664C288.961 38.34 288.44 38.1664 288.093 37.9927C286.356 36.4297 284.62 34.693 282.883 32.9564C281.146 31.2197 279.583 29.4831 278.02 27.5727C276.457 25.8361 274.894 23.9258 273.331 22.0154C271.768 20.1051 270.379 18.1948 269.163 16.2845C267.948 14.2005 268.469 11.5955 270.553 10.3798C272.463 9.16415 274.894 9.68515 276.283 11.4218Z" fill="#EA2229"/>
<path d="M165.137 236.146C166.006 235.799 167.048 235.278 167.742 234.757C168.09 234.583 168.437 234.41 168.784 234.062C168.784 234.062 169.132 233.889 169.305 233.715C169.653 233.541 169.826 233.368 170.174 233.194C170.695 232.847 171.216 232.499 171.563 232.152C172.084 231.805 172.605 231.284 173.126 230.936C173.647 230.589 174.168 229.894 174.689 229.547C174.689 229.547 174.863 229.373 175.036 229.2C175.905 228.331 176.947 227.289 177.815 226.421C177.989 226.247 178.162 226.074 178.162 225.726V225.379C178.162 225.379 178.162 225.032 177.989 225.032C177.468 224.684 176.947 224.511 176.252 224.511C176.078 224.511 175.731 224.511 175.557 224.511C174.863 224.511 174.168 224.511 173.473 224.511C172.779 224.511 171.91 224.511 171.216 224.858C171.042 224.858 170.868 224.858 170.695 224.858C170.347 224.858 169.826 225.032 169.479 225.205C168.958 225.553 168.437 225.726 167.742 226.074C167.742 226.074 167.395 226.074 167.221 226.421C166.006 227.289 164.79 228.158 163.748 229.2C163.401 229.547 163.227 229.894 163.053 230.415C163.053 230.936 162.88 231.457 162.532 231.978C162.532 231.978 162.532 232.326 162.532 232.499C162.532 232.673 162.185 233.715 162.185 234.062C162.185 234.236 162.185 234.583 162.185 234.757C162.185 234.757 162.185 234.757 162.185 234.931C162.185 234.931 162.185 234.931 162.359 234.931C163.053 234.931 163.748 235.104 164.443 235.452C164.443 235.452 164.616 235.452 164.79 235.452L165.137 236.146ZM154.891 253.339C154.891 252.297 154.891 251.429 154.891 250.387C154.891 249.518 155.065 248.65 155.238 247.608C155.586 246.566 155.933 245.524 156.107 244.482C156.107 244.135 156.454 243.961 156.454 243.614C156.628 242.919 156.975 242.225 157.149 241.356C157.149 240.835 157.322 240.488 157.496 239.967C157.496 239.446 157.67 239.099 157.843 238.751C157.843 238.404 157.843 238.23 158.191 237.883C158.191 237.883 158.191 237.883 158.191 237.709C158.191 237.362 158.712 235.278 158.712 235.104C158.712 234.583 158.885 234.062 159.059 233.541C159.059 233.194 158.538 232.847 158.191 232.673C158.191 232.673 158.191 232.673 158.191 232.499C158.191 232.499 158.191 232.499 158.191 232.326V231.978C158.191 231.631 158.538 231.457 158.538 231.11C158.885 230.936 158.538 230.415 159.059 230.242C159.406 229.547 160.101 228.852 160.448 228.158C160.448 228.158 160.448 227.81 160.622 227.637C160.622 227.289 160.622 227.116 160.796 226.768C160.796 226.421 160.969 225.9 161.317 225.553C161.317 225.553 161.317 225.553 161.317 225.379C161.317 225.205 161.317 225.379 161.49 225.379C162.011 225.379 162.359 225.379 162.88 225.379C163.053 225.379 163.401 225.379 163.574 225.379C163.922 225.032 164.269 224.684 164.79 224.684C164.79 224.684 164.79 224.337 164.964 224.337C165.311 224.163 165.658 223.816 166.179 223.642C166.874 223.469 167.395 223.121 167.916 222.774C168.958 222.253 170 221.906 171.042 221.558C171.91 221.558 172.605 221.211 173.473 221.211C174.342 221.211 175.036 221.211 175.905 221.211C176.599 221.211 177.12 221.211 177.815 221.558C178.336 221.558 179.031 221.906 179.378 222.253C179.378 222.253 179.725 222.253 179.725 222.427C180.246 222.6 180.594 222.948 180.941 223.469C181.288 223.816 181.462 224.511 181.809 224.858C181.983 225.205 182.157 225.726 182.157 226.074C182.157 226.595 182.157 227.116 182.157 227.637C182.157 228.158 181.983 228.679 181.636 229.026C181.462 229.2 181.288 229.547 181.115 229.721C180.767 230.242 180.246 230.589 180.073 231.11C180.073 231.11 179.899 231.284 179.725 231.457L177.815 233.368C177.815 233.368 177.641 233.541 177.468 233.715C177.12 234.062 176.599 234.236 176.426 234.583C176.078 234.931 175.731 235.104 175.384 235.452C175.384 235.452 175.21 235.452 175.036 235.625C175.036 235.625 174.863 235.625 174.689 235.799C174.515 236.146 174.168 236.494 173.647 236.667C173.647 236.667 173.473 236.667 173.3 236.841C172.779 237.362 172.084 237.709 171.389 238.23C171.216 238.23 171.042 238.404 170.868 238.578C170.347 238.925 169.826 239.272 169.305 239.62C169.305 239.62 168.958 239.793 168.784 239.967C168.784 239.967 168.784 240.314 168.958 240.314C169.653 240.835 170.347 241.53 171.042 242.225C172.258 243.44 173.647 244.656 175.036 245.871C175.21 245.871 175.384 246.219 175.731 246.392L177.815 247.782C178.336 248.129 178.857 248.476 179.552 248.65C180.594 249.171 181.636 249.518 182.851 249.866C183.372 250.039 184.067 250.213 184.762 250.387C185.283 250.387 185.804 250.734 186.325 250.734C186.498 250.734 186.672 250.734 186.845 251.081C186.845 251.081 187.019 251.255 187.019 251.429C187.019 251.429 187.019 251.602 187.019 251.776C187.019 252.123 187.019 252.644 186.845 252.992C186.845 253.339 186.846 253.86 186.672 254.207C186.672 254.381 186.672 254.728 186.498 254.902C186.498 255.076 186.325 255.249 186.151 255.423C185.977 255.423 185.804 255.423 185.63 255.423C184.762 255.423 183.893 255.249 183.025 254.902C182.157 254.902 181.288 254.381 180.246 254.207C179.725 253.86 179.031 253.686 178.51 253.339C177.815 253.165 177.294 252.818 176.773 252.471C176.773 252.471 176.773 252.471 176.599 252.471C175.731 252.297 175.21 251.776 174.515 251.255C174.342 251.081 174.168 250.908 173.821 250.908C173.821 250.908 173.647 250.908 173.473 250.908C173.126 250.734 172.952 250.387 172.605 250.213C172.258 250.039 172.084 249.692 171.737 249.518C170.695 248.65 169.653 247.782 168.611 246.74C167.916 246.045 167.221 245.351 166.527 244.656C165.832 243.961 165.137 243.267 164.443 242.572C164.443 242.572 164.269 242.398 164.095 242.398C164.095 242.398 163.748 242.398 163.574 242.398C163.401 242.398 163.053 242.398 162.88 242.398C162.185 242.572 161.49 242.398 160.969 242.398C160.796 242.398 160.448 242.398 160.448 242.746C160.275 243.614 160.101 244.309 160.101 245.177C160.101 246.045 160.101 246.914 159.754 247.782C159.233 249.345 159.059 250.908 158.885 252.644C158.885 252.992 158.885 253.513 158.885 253.86C158.885 254.034 158.885 254.207 158.712 254.381C158.712 254.381 158.712 254.381 158.538 254.555C158.538 254.555 158.364 254.555 158.191 254.555C158.017 254.555 157.67 254.555 157.496 254.555C157.149 254.381 156.628 254.555 156.107 254.555C155.933 254.555 155.586 254.555 155.412 254.555C155.238 254.555 154.891 254.381 154.717 254.207L154.891 253.339Z" fill="white"/>
<path d="M150.55 229.026C149.855 229.026 149.334 229.373 148.813 229.72C148.118 230.068 147.424 230.415 147.076 230.936C146.208 231.457 145.513 232.152 144.819 233.02C144.124 233.715 143.777 234.409 143.429 235.278C143.256 235.799 143.082 236.32 142.735 236.841C142.387 237.362 142.214 238.056 142.04 238.577C141.693 239.272 141.693 240.14 141.519 241.009C141.172 242.572 140.824 244.134 140.477 245.697C140.13 247.26 139.956 248.997 139.956 250.56C139.956 250.907 139.956 251.081 140.477 251.255C140.824 251.255 140.998 251.255 141.345 251.081C141.693 250.907 142.04 250.734 142.387 250.386C143.603 249.171 144.645 247.955 145.687 246.739C146.208 246.045 146.555 245.524 147.076 244.829C147.597 243.961 148.118 243.093 148.639 242.224C148.987 241.53 149.16 241.009 149.508 240.314C149.681 239.793 149.855 239.446 150.029 238.925C150.029 238.577 150.202 238.23 150.376 238.056C150.55 237.535 150.723 237.014 150.723 236.493C150.723 235.625 150.897 234.757 151.071 233.715C151.071 233.02 151.071 232.325 151.071 231.457C151.071 230.762 151.071 230.241 150.723 229.547L150.55 229.026ZM136.309 252.297C136.309 252.297 136.135 252.123 136.135 251.949C136.135 251.949 136.135 251.776 136.135 251.602C136.135 251.428 136.135 251.081 136.135 250.907C136.135 250.907 135.788 250.56 135.788 250.386C135.788 250.213 135.788 249.865 135.788 249.692C135.788 249.344 135.788 248.997 135.788 248.65C135.788 247.955 135.788 247.26 135.962 246.739C136.309 244.308 136.83 242.051 137.525 239.619C137.525 239.272 137.525 238.925 137.698 238.577C137.698 238.404 137.698 238.056 137.698 237.883C137.698 237.362 137.698 236.841 137.698 236.32V235.972C137.698 235.278 138.046 234.757 138.046 234.062C138.046 234.062 138.046 234.062 138.046 233.888C138.393 232.846 138.914 231.804 139.609 230.936C139.609 230.936 139.609 230.762 139.782 230.762C140.477 230.068 141.172 229.373 141.693 228.678C141.866 228.331 142.214 228.157 142.561 227.984C143.429 227.463 144.124 226.942 144.819 226.247C144.819 226.247 144.992 226.073 145.166 226.073C145.687 225.9 146.208 225.379 146.729 225.205C146.729 225.205 147.076 225.205 147.076 225.031C147.424 224.684 147.945 224.51 148.466 224.51C148.813 224.51 149.16 224.51 149.508 224.51C149.855 224.51 150.202 224.51 150.55 224.51C150.723 224.51 151.071 224.51 151.244 224.51C151.592 224.51 151.765 224.51 151.939 224.684C152.113 224.858 152.46 224.684 152.807 225.031C152.981 225.205 153.155 225.552 153.502 225.726C153.676 225.9 153.849 226.073 154.023 226.421C154.37 226.768 154.544 227.115 154.544 227.636C154.891 227.984 155.065 228.505 154.891 229.026C155.065 230.068 155.065 231.11 154.891 232.152C154.891 233.02 154.891 233.888 154.718 234.93C154.718 235.625 154.718 236.32 154.37 236.841C154.37 237.883 153.849 238.751 153.676 239.619C153.502 240.314 153.155 241.182 152.807 241.877C152.807 241.877 152.634 242.224 152.634 242.398C152.634 242.745 152.46 242.919 152.286 243.266C152.286 243.44 151.939 243.787 151.765 243.961C151.592 244.482 151.244 244.829 151.071 245.35C150.897 245.871 150.55 246.219 150.202 246.739C149.681 247.26 149.334 247.955 148.987 248.476C148.466 249.344 147.945 250.039 147.25 250.734C146.903 251.081 146.729 251.428 146.382 251.776C146.382 251.776 146.382 251.949 146.208 251.949C145.687 252.297 145.34 252.818 144.819 253.165C144.471 253.339 144.124 253.686 143.777 253.86C143.082 254.207 142.561 254.554 141.866 254.902C141.693 254.902 141.519 254.902 141.172 255.075C140.477 255.075 139.956 255.075 139.261 255.075C139.088 255.075 138.74 255.075 138.567 255.075C138.219 255.075 137.872 255.075 137.525 254.728C137.351 254.554 137.004 254.381 136.83 254.033C136.83 253.86 136.483 253.512 136.309 253.339V252.644C136.309 252.47 136.309 252.47 135.962 252.297H136.309Z" fill="white"/>
<path d="M216.196 221.906C216.196 221.906 216.37 221.906 216.543 221.906C216.543 221.906 216.543 222.253 216.891 222.253H217.238C217.238 222.253 217.412 222.427 217.585 222.6C217.933 222.948 218.28 223.642 218.454 224.163C218.454 224.511 218.627 224.858 218.801 225.205C218.801 225.553 218.801 225.9 218.801 226.247C218.801 226.942 218.975 227.637 219.148 228.331C219.148 228.679 219.148 229.2 219.148 229.721C219.322 231.11 219.148 232.152 219.496 233.194C219.496 233.368 219.496 233.541 219.496 233.715C219.496 234.062 219.496 234.41 219.496 234.757C219.496 235.104 219.669 235.452 219.496 235.625C219.669 236.146 219.496 236.667 219.496 237.188C219.496 237.536 219.496 237.709 219.496 238.057C219.496 238.751 219.496 239.272 219.669 239.967C219.669 241.183 219.669 242.572 219.843 243.788C219.843 244.135 219.843 244.482 220.19 244.656C220.19 244.309 220.364 244.135 220.538 243.788C221.059 242.572 221.406 241.356 221.927 240.141C222.448 239.099 222.622 238.057 222.969 237.015C223.49 235.799 224.011 234.41 224.532 233.194C224.879 232.326 225.227 231.284 225.748 230.415C226.269 229.373 226.616 228.331 227.137 227.289C227.658 226.247 228.353 225.205 229.221 224.337C229.568 223.99 229.916 223.816 230.263 223.469C230.61 223.121 230.784 222.774 231.131 222.6C231.131 222.6 231.131 222.6 231.305 222.6C231.652 222.427 232 222.079 232.347 221.906C232.347 221.732 232.694 221.558 232.868 221.558C233.042 221.558 233.389 221.558 233.563 221.558C233.736 221.558 233.91 221.558 234.084 221.558C234.431 221.385 234.778 221.558 235.126 221.558C235.126 221.732 235.473 221.906 235.647 222.079C236.168 222.427 236.689 222.948 236.862 223.642C237.21 224.163 237.209 224.858 237.209 225.379C237.209 225.9 237.209 226.595 237.209 227.116C237.209 228.331 237.209 229.373 237.209 230.589C237.209 231.11 237.209 231.805 237.209 232.326C237.209 232.326 237.209 232.326 237.209 232.499C237.036 233.368 237.21 234.236 236.862 234.931C236.862 235.973 236.515 237.015 236.341 238.057C236.341 238.404 236.341 238.751 236.341 239.099C236.341 241.009 236.341 242.746 236.168 244.656C236.168 246.393 236.168 248.303 236.168 250.213C236.168 250.213 236.168 250.561 236.168 250.734C236.168 251.95 236.515 252.992 236.689 254.208C236.689 254.555 236.689 254.729 236.689 255.076C237.036 256.292 237.557 257.681 238.252 258.897C238.252 259.07 238.425 259.244 238.599 259.418C238.773 259.765 238.946 259.939 239.12 260.286C239.12 260.633 239.294 260.807 239.467 260.981C239.467 260.981 239.467 261.154 239.814 261.328C239.814 261.675 239.467 261.849 239.294 262.023C239.12 262.196 238.946 262.37 238.773 262.544C238.773 262.544 238.599 262.891 238.599 263.065C237.904 263.065 237.383 263.586 236.689 263.759C236.689 263.759 236.689 263.759 236.515 263.759C236.341 263.759 235.994 263.586 235.82 263.412C235.299 262.891 234.605 262.544 234.257 262.023C234.257 262.023 234.257 261.849 233.91 261.675C233.563 261.328 233.389 260.981 233.215 260.46C232.868 259.244 232.521 258.202 232.173 256.986C232.173 256.813 232 256.465 232 256.292C231.652 254.902 231.479 253.513 231.305 252.124C231.305 251.429 231.305 250.734 231.305 250.04C231.305 249.519 231.305 249.171 231.305 248.65C231.305 247.956 231.305 247.435 231.305 246.74C231.305 245.524 231.305 244.309 231.305 243.093C231.305 242.746 231.305 242.572 231.305 242.225C231.305 241.356 231.479 240.488 231.305 239.793V239.446C231.305 239.272 231.305 239.099 231.305 238.925C231.305 238.404 231.305 237.883 231.305 237.362C231.305 236.841 231.305 236.494 231.305 235.973C231.305 234.583 231.479 233.368 231.652 231.978C231.652 231.11 231.652 230.242 231.826 229.373C231.826 229.373 231.826 229.373 231.652 229.026C231.131 229.721 230.784 230.242 230.437 230.936C230.089 231.457 229.742 232.152 229.568 232.673C229.221 233.194 229.047 233.889 228.874 234.41C228.874 234.757 228.7 235.104 228.526 235.278C228.353 235.973 228.005 236.667 227.832 237.362C227.832 237.362 227.832 237.362 227.832 237.536C227.658 238.404 227.137 239.272 226.79 240.141C226.442 241.009 226.269 241.877 225.921 242.746C225.921 242.919 225.748 243.267 225.574 243.44C225.574 243.788 225.227 244.135 225.227 244.482C225.227 244.83 224.879 245.003 224.879 245.351C224.532 246.219 224.358 247.087 224.011 247.782C223.837 248.477 223.49 248.998 223.316 249.692C223.143 250.213 222.969 250.734 222.622 251.255C222.622 251.603 222.622 251.776 222.274 252.124C222.101 252.297 221.927 252.645 221.58 252.818C221.58 252.818 221.406 253.166 221.232 253.339C221.232 253.339 220.885 253.687 220.711 253.687C220.364 253.687 220.017 253.687 219.669 253.86C219.322 253.86 218.975 253.86 218.627 253.86C218.454 253.86 218.454 253.86 218.454 253.513C218.454 253.166 218.454 253.166 218.106 253.166C218.106 253.166 218.106 253.166 217.933 253.166C217.933 253.166 217.759 253.166 217.585 253.166C217.412 253.166 217.412 253.166 217.238 253.166C217.238 253.166 217.064 252.992 216.891 252.818C216.543 252.645 216.196 252.297 216.022 251.95C215.501 250.908 215.154 249.866 214.98 248.824C214.98 247.435 214.807 246.219 214.633 244.83C214.633 244.83 214.633 244.83 214.633 244.656C214.633 243.961 214.633 243.267 214.633 242.398C214.633 241.183 214.633 239.967 214.459 238.751C214.459 237.362 214.286 235.973 214.112 234.583C214.112 233.715 213.938 232.847 213.938 232.152C213.938 231.805 213.938 231.631 213.765 231.284C213.417 231.805 213.417 232.326 213.244 232.673C212.896 234.062 212.549 235.278 212.202 236.667C211.854 237.883 211.507 239.099 211.16 240.314C210.812 241.704 210.291 243.267 209.944 244.656C209.423 246.219 208.902 247.608 208.555 249.171C208.555 249.692 208.381 250.387 208.381 250.908C208.381 251.429 208.381 251.776 208.381 252.124C208.381 252.297 208.381 252.471 208.381 252.818C208.381 252.818 208.381 252.818 208.381 252.992C208.381 253.687 208.381 254.208 208.034 254.729C208.034 254.902 207.86 255.076 207.686 255.25C207.686 255.25 207.513 255.25 207.339 255.423C207.339 255.423 207.165 255.423 206.992 255.423C206.818 255.423 206.471 255.423 206.297 255.423C206.123 255.423 205.95 255.423 205.776 255.423C205.255 255.076 204.734 254.729 204.213 254.555C204.039 254.208 203.866 253.86 203.866 253.687C203.866 253.166 203.866 252.645 203.866 252.124C203.866 251.776 203.866 251.429 203.866 251.082C203.866 250.734 203.866 250.561 203.866 250.213C203.866 249.866 203.866 249.519 204.039 249.171C204.213 248.477 204.213 247.782 204.56 247.087C204.56 246.219 204.908 245.524 205.081 244.83C205.081 244.135 205.429 243.44 205.776 242.746C206.297 241.183 206.644 239.446 207.165 237.709C207.339 236.667 207.686 235.799 207.86 234.931C208.207 234.062 208.381 233.194 208.555 232.326C208.555 231.457 208.902 230.763 209.249 229.894C209.249 229.373 209.597 229.026 209.597 228.505C209.944 227.289 210.465 226.074 210.986 225.032C210.986 225.032 210.986 224.858 210.986 224.684C210.986 224.684 210.986 224.511 210.986 224.337C210.986 224.337 210.986 224.163 211.16 223.99C211.16 223.99 211.333 223.99 211.333 223.816C211.333 223.469 211.681 223.295 211.854 223.121C212.202 223.121 214.807 222.774 214.807 222.774L216.196 221.906Z" fill="white"/>
<path d="M134.399 226.421C134.399 226.595 134.225 226.942 134.052 227.116C133.183 227.984 132.141 229.026 131.273 229.894C131.273 229.894 131.099 230.068 130.926 230.242C130.405 230.589 129.884 231.11 129.363 231.631C128.842 231.978 128.321 232.499 127.8 232.847C127.279 233.194 126.758 233.541 126.41 233.889C126.063 234.062 125.889 234.236 125.542 234.41C125.542 234.41 125.195 234.583 125.021 234.757C124.674 234.931 124.326 235.104 123.979 235.278C123.111 235.799 122.242 236.32 121.374 236.667C121.374 236.667 121.2 236.667 121.027 236.667C120.332 236.32 119.811 236.146 118.943 236.146C118.943 236.146 118.943 236.146 118.769 236.146C118.769 236.146 118.769 236.146 118.769 235.973C118.769 235.799 118.769 235.452 118.769 235.278C118.769 234.931 119.116 233.889 119.116 233.715C119.116 233.541 119.116 233.368 119.116 233.194C119.29 232.673 119.464 232.152 119.637 231.631C119.637 231.11 119.985 230.763 120.332 230.415C121.374 229.373 122.59 228.505 123.805 227.637C123.805 227.637 124.153 227.463 124.326 227.289C124.847 226.942 125.368 226.768 126.063 226.421C126.41 226.247 126.758 226.074 127.279 226.074C127.452 226.074 127.626 226.074 127.8 226.074C128.494 225.9 129.189 225.726 130.057 225.726C130.752 225.726 131.447 225.726 132.141 225.726C132.315 225.726 132.662 225.726 132.836 225.726C133.357 225.726 134.052 225.9 134.573 226.247C134.573 226.247 134.746 226.421 134.746 226.595V226.942L134.399 226.421ZM138.741 224.337C138.393 223.99 138.22 223.469 137.872 222.948C137.525 222.6 137.178 222.253 136.657 221.906C136.657 221.906 136.309 221.906 136.309 221.732C135.788 221.385 135.267 221.211 134.746 221.037C134.225 220.864 133.531 220.69 132.836 220.69C131.968 220.69 131.273 220.69 130.405 220.69C129.536 220.69 128.842 221.037 127.973 221.037C126.931 221.385 125.889 221.732 124.847 222.253C124.326 222.6 123.632 222.948 123.111 223.121C122.763 223.295 122.242 223.469 121.895 223.816C121.895 223.816 121.895 223.99 121.721 224.163C121.2 224.163 120.853 224.684 120.506 224.858C120.332 224.858 119.985 225.032 119.811 224.858C119.29 224.858 118.943 224.858 118.422 224.858C118.422 224.858 118.248 224.858 118.074 224.858C118.074 224.858 118.074 224.858 118.074 225.032C117.901 225.379 117.727 225.9 117.553 226.247C117.553 226.595 117.553 226.768 117.38 227.116C117.38 227.289 117.38 227.463 117.206 227.637C116.859 228.331 116.164 229.026 115.817 229.721C115.469 229.721 115.469 230.415 115.296 230.589C115.296 230.936 115.122 231.284 114.948 231.457V231.805C114.948 231.805 114.948 231.805 114.948 231.978C114.948 231.978 114.948 231.978 114.948 232.152C115.296 232.499 115.643 232.673 115.817 233.02C115.817 233.541 115.643 234.062 115.469 234.583C115.469 234.931 114.775 236.841 114.948 237.188C114.948 237.188 114.948 237.188 114.948 237.362C114.775 237.536 114.601 237.883 114.601 238.23C114.601 238.578 114.427 239.099 114.254 239.446C114.254 239.793 114.08 240.314 113.906 240.835C113.733 241.53 113.385 242.225 113.212 243.093C113.212 243.44 112.864 243.614 112.864 243.961C112.517 245.003 112.17 246.045 111.996 247.087C111.822 247.955 111.649 248.824 111.649 249.866C111.649 250.908 111.649 251.776 111.649 252.818C111.822 252.992 111.996 253.165 112.343 253.165C112.517 253.165 112.864 253.165 113.038 253.165C113.559 253.165 113.906 252.992 114.427 253.165C114.601 253.165 114.948 253.165 115.122 253.165C115.122 253.165 115.296 253.165 115.469 253.165C115.469 253.165 115.643 253.165 115.643 252.992C115.643 252.992 115.817 252.644 115.817 252.471C115.817 252.123 115.817 251.602 115.817 251.255C115.817 249.692 116.164 247.955 116.685 246.393C117.032 245.524 117.032 244.656 117.032 243.788C117.032 242.919 117.032 242.051 117.38 241.356C117.38 241.183 117.727 241.009 117.901 241.009C118.595 241.183 119.29 241.183 119.811 241.009C119.985 241.009 120.332 241.009 120.506 241.009C122.59 240.488 124.5 239.62 126.237 238.404C126.758 238.057 127.279 237.709 127.8 237.362C127.973 237.362 128.147 237.188 128.321 237.015C129.015 236.494 129.71 236.32 130.231 235.625C130.231 235.625 130.405 235.452 130.578 235.452C130.926 235.278 131.273 234.931 131.62 234.583C131.62 234.583 131.794 234.41 131.968 234.41C131.968 234.41 132.315 234.41 132.315 234.236C132.489 233.889 133.01 233.715 133.357 233.368C133.704 233.02 134.052 232.673 134.399 232.499C134.399 232.499 134.573 232.326 134.746 232.152L136.657 230.242C136.657 230.242 137.004 230.068 137.004 229.894C137.178 229.373 137.699 229.026 138.046 228.505C138.046 228.158 138.393 227.984 138.567 227.81C138.914 227.463 139.088 226.942 139.088 226.421C139.088 225.9 139.088 225.379 139.088 224.858C139.088 224.337 139.088 223.99 138.741 223.642V224.337Z" fill="white"/>
<path d="M98.4496 245.871C98.4496 245.871 98.1023 245.871 97.9286 245.871C97.9286 245.871 98.4496 246.392 98.6232 246.566C98.6232 246.566 98.6232 246.74 98.6232 246.913C98.6232 246.913 98.6232 247.087 98.6232 247.261C98.6232 247.261 98.2759 247.608 98.1023 247.608C98.1023 247.955 98.1023 248.303 98.1023 248.65C97.9286 248.65 97.755 248.65 97.5813 248.65C97.4076 248.65 97.234 248.823 97.0603 248.997C96.713 248.997 96.3656 248.997 96.0182 248.997C95.6709 248.997 95.3236 249.171 94.9763 249.344C94.9763 249.344 94.8026 249.344 94.6289 249.344C93.5869 249.344 92.3712 249.692 91.3292 249.692C90.2873 249.692 90.8082 249.692 90.4609 249.692C89.4189 249.692 88.377 249.865 87.5087 250.039C87.5087 250.039 87.1613 250.039 86.9876 250.039C85.9456 250.386 84.9036 250.386 83.8616 250.734C82.8196 250.907 81.9513 251.081 80.9093 251.428C80.3883 251.428 80.041 251.602 79.52 251.776C78.999 251.776 78.3043 251.949 77.7833 252.123H77.436C76.5676 252.123 75.873 252.47 75.0047 252.644C74.6574 252.644 74.31 252.644 73.9627 252.818C73.6153 252.818 73.268 252.818 72.9207 252.818C72.9207 252.818 72.5734 252.818 72.3997 252.818C71.8787 252.818 71.3577 252.818 71.0104 252.818C70.6631 252.818 70.3157 252.818 69.9684 252.818C69.621 252.818 69.2737 252.644 68.9264 252.644C68.2317 252.297 67.3634 252.123 66.8424 251.602C66.6687 251.081 66.1477 250.734 65.9741 250.039V249.692C65.9741 249.692 65.9741 249.518 65.9741 249.344C65.6267 248.997 65.6267 248.65 65.6267 248.302V247.955V247.608C65.6267 247.087 65.6267 246.566 65.9741 246.045V245.697C65.9741 245.176 66.1477 244.829 66.3214 244.308C66.4951 243.961 66.6687 243.44 66.8424 243.093C67.1897 242.398 67.5371 241.53 68.0581 240.661C68.4054 240.14 68.5791 239.619 68.9264 238.925C68.9264 238.577 69.2737 238.056 69.621 237.709C69.621 237.709 69.621 237.709 69.621 237.362C70.142 236.146 70.663 235.104 71.3577 233.888C71.705 233.194 75.0047 227.463 75.1783 227.115C75.5257 226.421 75.8731 225.9 76.2204 225.205C76.2204 225.205 76.2204 225.031 76.394 224.858C76.394 224.858 76.5677 224.858 76.7414 224.858C76.915 224.858 77.0887 224.684 77.0887 224.51L77.7833 224.858H78.1307C78.1307 224.858 78.478 224.858 78.6517 224.858C78.6517 224.858 78.8253 224.858 78.999 225.031C78.999 225.205 79.3463 225.379 79.52 225.552C79.6937 225.552 79.8673 225.726 80.041 225.9C80.041 225.9 80.041 226.073 79.8673 226.247C80.2147 226.247 80.562 226.247 80.9093 226.247C81.4303 226.247 82.125 226.247 82.6459 226.247C83.5143 226.247 84.3827 226.421 85.0773 226.768C85.251 226.768 85.5983 226.942 85.5983 227.289C85.5983 227.289 85.772 227.463 85.9456 227.636C85.9456 227.636 85.9456 227.636 85.9456 227.81C85.9456 227.984 85.9456 227.81 85.9456 227.984C86.293 228.331 86.1193 228.331 85.9456 228.505C85.9456 228.505 85.772 228.505 85.5983 228.678C85.251 228.678 85.4246 228.852 85.5983 229.026C85.5983 229.026 85.5983 229.026 85.4247 229.199C85.4247 229.199 85.4247 229.199 85.4247 229.373C85.251 229.373 85.0773 229.547 84.73 229.547C84.73 229.547 84.3826 229.72 84.3826 229.894C84.3826 229.894 84.209 230.068 84.0354 230.068C84.0354 230.068 83.8617 230.068 83.688 230.068C83.688 230.068 83.5143 230.068 83.3407 230.068C82.4723 229.72 81.604 229.894 80.7357 230.068C79.52 230.068 78.3044 230.241 77.0887 230.415C77.0887 230.415 76.915 230.415 76.7414 230.415C76.7414 230.415 76.5677 230.415 76.394 230.415C76.394 230.415 76.3941 230.415 76.2204 230.589C76.0467 230.936 75.873 231.283 75.6993 231.631C75.352 232.325 75.0047 233.02 74.6574 233.715C74.31 234.583 73.9627 235.278 73.4417 236.146C74.31 236.146 75.1784 235.799 75.873 235.625C76.7414 235.278 77.7833 235.104 78.6517 234.93C79.52 234.93 80.2147 234.583 81.083 234.409C82.125 234.236 83.167 233.888 84.209 233.715C84.73 233.715 85.0773 233.715 85.5983 233.715C85.9456 233.715 86.293 233.715 86.6404 233.888C86.6404 233.888 86.8139 234.062 86.9876 234.236C86.9876 234.236 86.8139 234.583 86.9876 234.757C86.9876 234.93 86.8139 235.278 86.9876 235.451C86.9876 235.451 86.9876 235.451 86.9876 235.625C86.9876 235.625 86.9876 235.625 86.9876 235.799C86.9876 235.972 86.9876 236.32 86.9876 236.493C86.9876 236.493 86.9876 236.841 86.9876 237.014C86.9876 237.014 86.814 237.362 86.6404 237.362C86.1194 237.709 85.5984 237.709 84.9037 237.883C84.73 237.883 84.3827 237.883 84.209 237.883C83.167 238.23 82.125 238.404 81.083 238.577C80.041 238.577 79.1727 238.925 78.1307 239.098C77.436 239.098 76.7414 239.446 75.873 239.619C74.831 239.793 73.6153 239.967 72.5733 240.314C72.226 240.314 71.8787 240.314 71.5314 240.314C71.3577 240.314 71.1841 240.314 71.0104 240.314C71.0104 240.314 70.6631 240.488 70.6631 240.661C70.4894 241.182 70.3157 241.703 69.9684 242.224C69.621 243.093 69.2737 243.787 69.1 244.656C68.9264 245.177 68.7527 245.871 68.5791 246.392C68.5791 246.566 68.5791 246.74 68.9264 246.913C68.9264 246.913 68.9264 246.913 69.1 246.913C69.9684 246.913 70.6631 246.913 71.5314 246.913C72.5734 246.913 73.4417 246.392 74.31 246.392C74.6573 246.392 75.0047 246.392 75.3521 246.218C75.8731 246.218 76.5677 246.045 77.0887 245.871C77.6097 245.871 78.1307 245.697 78.6517 245.35C79.52 245.176 80.562 244.829 81.4304 244.656C81.4304 244.656 81.7777 244.656 81.9513 244.656C82.9933 244.308 84.0353 244.135 85.0773 244.135C85.5983 244.135 86.1193 244.134 86.814 243.961C87.335 243.961 87.856 243.961 88.5506 243.787C89.0716 243.787 89.5926 243.787 90.2873 243.787C90.8083 243.787 91.503 243.787 92.024 243.787C92.1976 243.787 92.3713 243.787 92.5449 243.787C93.2396 243.787 93.9343 243.787 94.6289 243.787C95.1499 243.787 95.671 243.787 96.192 243.787H96.5392C96.8866 243.961 97.2339 244.308 97.2339 244.308L98.4496 245.871Z" fill="white"/>
<path d="M33.6727 224.51C33.6727 224.51 33.6727 224.51 33.8463 224.684C34.02 224.684 34.02 224.684 33.8463 225.031C33.6727 225.205 33.6727 225.205 33.8463 225.552C33.8463 225.552 33.8463 225.552 34.02 225.726V226.073C34.02 226.247 34.02 226.594 34.02 226.768C34.02 227.115 34.02 227.463 33.6727 227.636C33.3254 227.984 33.1517 228.331 32.8044 228.852C32.6307 229.199 32.457 229.373 32.2833 229.72C31.2413 231.11 30.1994 232.499 29.3311 233.888C28.6364 234.757 28.1153 235.799 27.4207 236.667C27.4207 236.667 27.247 237.014 27.0733 237.188C27.0733 237.535 26.726 237.709 26.5523 238.056C26.0313 238.577 25.684 239.098 25.3367 239.793C24.9893 240.14 24.9894 240.488 24.6421 241.009C24.6421 241.009 24.4684 241.356 24.2947 241.53C23.7737 242.398 23.2527 243.093 22.7317 243.961C22.2107 244.829 21.6897 245.698 21.1687 246.566C20.8214 246.913 20.6477 247.434 20.474 247.782C20.3004 248.129 19.9531 248.476 19.7794 248.824C19.2584 249.692 18.5638 250.387 18.0428 251.429C17.5218 252.123 17.1744 252.644 16.6534 253.165C16.306 253.513 15.4378 254.034 15.0904 254.034H13.7011C13.3538 254.034 12.8327 254.034 12.6591 254.034C12.6591 254.034 11.2698 253.513 11.2698 253.165C11.2698 252.471 10.9224 252.471 10.7488 251.602C10.7488 250.387 10.7488 249.171 10.7488 247.955C10.7488 247.261 10.7488 246.74 10.7488 246.045C10.7488 245.524 10.7488 244.829 10.7488 244.308C10.7488 243.787 10.7488 243.093 10.7488 242.572C10.9224 241.356 10.7487 240.314 10.9224 239.272C10.9224 239.098 10.9224 238.751 10.9224 238.577C10.9224 237.883 11.0961 237.014 11.2698 236.32C11.2698 234.93 11.6171 233.715 11.7907 232.325C11.7907 231.457 12.138 230.589 12.3117 229.894C12.3117 229.894 12.3117 229.72 12.3117 229.547C12.3117 229.373 12.3118 229.373 12.8328 229.373C13.0065 229.373 13.18 229.373 13.18 229.026C13.18 229.026 13.18 229.026 13.18 228.852C13.18 228.852 13.3537 228.678 13.5274 228.852C13.7011 229.026 14.0484 228.852 14.2221 229.026C14.3958 229.026 14.743 229.026 14.9167 229.026C15.264 229.026 15.6114 229.026 15.9588 229.199C15.9588 229.199 16.3061 229.373 16.3061 229.547C16.3061 229.547 16.3061 229.72 16.3061 229.894L15.6114 234.93C15.6114 234.93 15.6114 234.93 15.6114 235.104C15.4377 236.493 15.2641 237.883 15.2641 239.272C15.2641 239.619 15.2641 239.967 15.2641 240.314C15.2641 241.53 15.2641 242.572 15.2641 243.787C15.2641 244.482 15.2641 245.35 15.2641 246.045C15.2641 246.045 15.2641 246.045 15.4378 246.045C15.4378 246.045 15.4378 246.045 15.4378 245.871C16.1324 244.656 16.6534 243.614 17.3481 242.398C17.3481 242.398 17.348 242.224 17.5217 242.051C17.869 241.53 18.2164 241.009 18.5637 240.488C18.9111 239.967 19.2584 239.446 19.4321 238.925C19.7794 238.23 20.4741 237.535 20.8214 236.841C20.8214 236.493 21.1687 236.32 21.3424 235.972C21.8634 235.451 22.2108 234.93 22.3844 234.409C22.7317 233.715 23.2527 233.02 23.7737 232.325C23.9474 231.978 24.2947 231.631 24.4683 231.283C24.4683 231.11 24.642 230.936 24.8157 230.762C24.9893 230.589 25.163 230.241 25.3367 230.068C25.684 229.373 26.3787 228.678 26.7261 227.984C26.8997 227.636 27.247 227.289 27.4207 226.942C28.1153 226.073 28.81 225.379 29.5047 224.51C29.5047 224.51 29.852 224.163 30.0257 223.989C30.373 223.642 30.7203 223.468 31.2413 223.295C31.5887 223.295 31.7624 223.295 31.936 223.468C31.936 223.468 32.1096 223.642 32.2833 223.816C32.6306 223.989 32.978 224.337 33.3254 224.51H33.6727Z" fill="white"/>
<path d="M68.9267 223.295C68.9267 223.295 69.1004 223.989 69.2741 223.989C69.4478 223.989 69.795 223.989 69.9687 224.337C69.9687 224.337 69.9688 224.337 70.1424 224.51V224.858C70.1424 225.031 70.1424 225.379 70.1424 225.552C70.1424 225.9 70.1424 226.247 69.7951 226.421C69.4477 226.768 69.2741 227.289 68.9267 227.636C68.7531 227.984 68.5794 228.157 68.4058 228.505C67.3638 229.894 66.4954 231.457 65.627 232.846C65.1061 233.888 64.4114 234.757 63.7168 235.799C63.7168 235.799 63.5431 236.146 63.3694 236.32C63.3694 236.667 63.0221 236.841 62.8484 237.188C62.3274 237.709 62.1538 238.404 61.6328 238.925C61.2854 239.272 61.2854 239.793 60.938 240.14C60.938 240.14 60.9381 240.488 60.5908 240.661C60.0698 241.53 59.5488 242.398 59.0278 243.266C58.5068 244.135 58.1595 245.177 57.6385 246.045C57.2911 246.392 57.1174 246.913 56.9438 247.261C56.7701 247.608 56.5965 247.955 56.2492 248.476C55.7282 249.345 55.0334 250.213 54.6861 251.081C54.3388 251.776 53.8178 252.297 53.2968 252.992L52.2548 254.034C51.9074 254.034 51.7338 254.034 51.3864 254.034C50.8654 254.034 50.5181 254.034 49.9971 254.034C49.8234 254.034 49.4762 254.034 49.3025 254.034C49.3025 254.034 49.1288 254.034 48.9552 254.034C48.9552 254.034 48.7815 254.034 48.6078 254.034C48.2605 253.86 47.9131 253.513 47.7395 253.165C47.5658 252.818 47.3921 252.297 47.3921 251.95C47.3921 250.734 47.2185 249.518 47.3921 248.303C47.3921 247.608 47.3921 247.087 47.3921 246.392C47.3921 245.871 47.3921 245.177 47.3921 244.656V242.919C47.3921 242.919 47.3921 242.919 47.3921 242.745C47.3921 241.703 47.3921 240.661 47.3921 239.619C47.3921 239.446 47.3921 239.098 47.3921 238.925C47.3921 238.23 47.5659 237.362 47.5659 236.667C47.5659 235.278 47.5658 233.888 47.9131 232.673C47.9131 231.804 48.0868 229.72 48.2605 229.547C48.2605 229.373 48.2605 228.505 48.6078 228.505C48.9551 228.505 48.9552 227.463 48.9552 227.463C49.1288 227.463 49.3025 227.463 49.3025 227.115C49.3025 227.115 49.9971 226.421 50.3445 226.768C50.5181 226.768 50.6918 226.421 51.7338 226.421C52.0811 226.421 52.4285 226.768 52.7758 226.768C52.7758 226.768 53.2967 226.247 53.1231 228.505C53.1231 228.505 51.9075 235.104 51.9075 235.278C51.9075 235.278 51.9075 235.278 51.9075 235.451C51.9075 236.841 51.7338 238.23 51.7338 239.793C51.7338 240.14 51.7338 240.488 51.7338 240.835C51.7338 242.051 51.7338 243.093 51.7338 244.308C51.7338 245.003 51.7338 245.871 51.7338 246.566C51.7338 246.566 51.7338 246.566 51.9075 246.566C51.9075 246.566 52.0811 246.566 52.2548 246.566L52.6021 246.219C53.1231 245.003 53.1232 245.003 53.6442 243.787C53.6442 243.787 53.9915 242.572 54.1651 242.398C54.5125 241.877 54.8598 241.356 55.0335 240.835C55.3808 240.314 55.5545 239.793 55.9018 239.272C56.2491 238.577 56.7702 237.883 57.1175 237.014C57.1175 236.667 57.4648 236.493 57.6385 236.146C57.9858 235.625 58.3331 235.104 58.6804 234.583C59.0277 233.888 59.5488 233.02 59.8961 232.325C60.0698 231.978 60.4171 231.631 60.5908 231.283C60.5908 231.11 60.7644 230.936 60.938 230.762C60.938 230.589 61.2855 230.241 61.4591 230.068C61.8065 229.373 62.3274 228.678 62.6747 227.81C62.8484 227.463 63.0221 227.115 63.3694 226.768C64.0641 225.9 64.7588 225.031 65.4534 224.337C65.4534 224.337 65.8007 223.989 65.9744 223.816C66.3217 223.468 65.9744 223.816 66.4954 223.468C66.8427 223.468 67.0164 223.121 67.1901 223.468C67.1901 223.468 68.0584 223.642 68.232 223.816C68.232 223.816 68.2321 223.816 68.4058 223.816C68.4058 223.816 68.4058 223.816 68.4058 223.989L68.9267 223.295Z" fill="white"/>
<path d="M242.071 252.297C242.071 252.297 242.071 252.297 241.724 252.297C241.55 252.297 241.55 252.297 241.724 251.95C241.724 251.776 241.898 251.776 241.724 251.429C241.724 251.429 241.724 251.429 241.55 251.255V250.908C241.55 250.734 241.55 250.387 241.55 250.213C241.55 249.866 241.55 249.519 241.898 249.345C242.245 248.998 242.419 248.477 242.592 248.129C242.766 247.782 242.94 247.608 243.113 247.261C244.155 245.872 244.85 244.309 245.718 242.746C246.239 241.704 246.76 240.662 247.455 239.793C247.455 239.793 247.629 239.446 247.802 239.272C247.802 238.925 248.15 238.751 248.323 238.404C248.844 237.883 249.018 237.188 249.539 236.667C249.713 236.32 249.886 235.799 250.06 235.452C250.06 235.452 250.06 235.104 250.234 234.931C250.755 234.062 251.276 233.194 251.623 232.326C252.144 231.457 252.491 230.415 253.012 229.547C253.186 229.2 253.533 228.679 253.707 228.331C253.881 227.984 254.054 227.463 254.402 227.116C254.923 226.247 255.444 225.379 255.965 224.511C256.312 223.816 256.833 223.295 257.18 222.6C257.528 222.253 257.875 221.906 258.049 221.558C258.396 221.558 258.57 221.558 258.917 221.558C259.438 221.558 259.785 221.558 260.306 221.558C260.48 221.558 260.827 221.558 261.001 221.558C261.001 221.558 261.175 221.558 261.348 221.558C261.522 221.558 261.522 221.558 261.696 221.558C262.043 221.732 262.39 222.079 262.738 222.427C263.085 222.774 263.085 223.295 263.085 223.642C263.085 224.858 263.432 226.074 263.259 227.289C263.259 227.984 263.259 228.505 263.259 229.2C263.259 229.721 263.259 230.415 263.259 230.936C263.259 231.457 263.259 232.152 263.259 232.673C263.259 232.673 263.259 232.673 263.259 232.847C263.259 233.889 263.259 234.931 263.259 235.973C263.259 236.146 263.259 236.494 263.259 236.667C263.259 237.362 263.259 238.23 263.259 238.925C263.259 240.314 263.259 241.704 263.085 242.919C263.085 243.788 262.738 248.477 262.564 249.345C262.564 249.345 262.217 250.213 262.217 250.387C262.217 250.561 262.217 250.734 261.869 250.734H261.522H261.175H260.827C260.654 250.561 260.306 250.561 260.133 250.387C259.959 250.387 260.133 250.387 259.785 250.387C259.438 250.387 259.091 250.04 258.743 250.04H258.57C258.57 250.04 258.57 250.04 258.57 249.866C258.57 249.692 258.917 247.435 258.917 245.698C258.917 245.698 259.264 240.662 259.264 240.488C259.264 238.925 259.264 237.362 259.264 235.973V234.931C259.264 233.715 259.264 232.673 259.091 231.457C259.091 230.763 259.091 229.894 258.917 229.2C258.917 229.2 258.917 229.2 258.743 229.2C258.743 229.2 258.743 229.2 258.743 229.373C258.222 230.589 257.701 231.805 257.18 233.02C257.18 233.02 257.18 233.368 257.007 233.368C256.659 233.889 256.312 234.41 256.138 234.931C255.965 235.452 255.617 235.973 255.27 236.494C254.923 237.188 254.402 237.883 254.054 238.751C254.054 239.099 253.707 239.272 253.533 239.62C253.186 240.141 252.839 240.662 252.665 241.183C252.318 241.877 251.97 242.746 251.449 243.44C251.276 243.788 251.102 244.135 250.928 244.482C250.928 244.656 250.755 244.83 250.581 245.003C250.581 245.177 250.234 245.524 250.06 245.698C249.713 246.393 249.192 247.087 248.844 247.956C248.671 248.303 248.497 248.65 248.15 248.998C247.455 249.866 246.934 250.734 246.239 251.603C246.239 251.776 245.892 251.95 245.892 252.124C245.545 252.471 245.197 252.818 244.85 252.818C244.503 252.818 244.329 252.818 244.155 252.645C244.155 252.645 243.982 252.471 243.808 252.471C243.461 252.471 243.113 252.124 242.766 251.95L242.071 252.297Z" fill="white"/>
<path d="M37.1457 252.471C37.1457 252.645 37.1457 252.992 37.1457 252.992C36.972 252.992 36.7983 253.339 36.7983 253.687C36.451 253.687 36.2773 253.513 35.93 253.513C35.93 253.513 35.93 253.513 35.93 253.339C35.93 253.339 35.93 253.339 35.93 253.166C35.93 253.166 35.7563 253.166 35.5826 253.166C35.5826 253.166 35.4089 253.166 35.2353 253.166C35.2353 253.166 35.0616 253.166 34.8879 253.339C34.8879 253.339 34.7143 253.339 34.5407 253.339C34.5407 253.339 34.5406 253.166 34.3669 253.166C34.3669 253.166 34.0196 253.166 34.0196 253.339C34.0196 253.166 33.8459 252.818 34.0196 252.471C34.0196 252.297 34.0196 252.124 34.0196 251.776C34.0196 251.429 33.4986 250.908 33.846 250.561C33.846 250.04 33.846 249.692 33.846 249.171C34.0196 247.435 34.3669 245.698 34.8879 243.961C35.2352 242.572 35.7563 241.183 36.1036 239.793C36.7983 238.23 37.1456 236.667 37.4929 234.931C37.6666 234.41 37.8403 233.889 38.014 233.194C38.014 232.499 38.3612 231.978 38.3612 231.457C38.3612 230.936 38.7086 230.242 38.7086 229.721C38.7086 229.2 38.8823 228.505 39.0559 227.984C39.0559 227.116 39.4033 226.421 39.5769 225.553C39.5769 225.553 39.577 225.379 39.7506 225.206C40.098 225.206 40.4453 224.858 40.7926 224.858C40.7926 224.858 40.9663 224.858 41.14 224.858C41.3136 224.858 41.3136 224.858 41.4873 224.858C41.8346 224.858 42.0083 225.032 42.3556 225.032C42.703 225.032 42.8766 225.206 43.0502 225.553C43.0502 225.726 43.0503 225.9 43.3976 225.9C43.3976 226.247 43.3976 226.421 43.3976 226.768C43.3976 227.116 43.3976 227.637 43.3976 227.984C43.3976 228.158 43.3976 228.505 43.3976 228.679C43.3976 229.547 43.2239 230.242 43.0502 231.11C43.0502 231.978 42.7029 232.673 42.5293 233.541C42.1819 235.104 41.8346 236.494 41.3136 238.057C41.3136 238.404 41.3136 238.751 41.14 239.099C40.7926 240.141 40.4452 241.356 40.0979 242.398C39.9242 242.919 39.7506 243.44 39.7506 243.961C39.7506 244.309 39.7506 244.656 39.4033 244.83C39.4033 244.83 39.4033 245.177 39.4033 245.351C39.4033 245.698 39.4033 245.872 39.4033 246.219C39.2296 247.087 39.056 248.129 38.8823 248.998C38.8823 249.692 38.7086 250.387 38.535 250.908C38.535 251.082 38.535 251.255 38.535 251.429C38.535 251.603 38.535 251.95 38.535 252.124C38.535 252.297 38.1877 252.471 38.014 252.471H37.1457Z" fill="white"/>
<path d="M102.096 215.133L101.923 215.306L102.096 215.133Z" fill="white"/>
<path d="M262.217 239.446C262.217 238.925 262.217 238.231 262.043 237.71C261.522 237.71 260.828 237.71 260.307 237.71C259.786 237.71 259.091 237.71 258.57 237.71C256.833 237.883 255.097 237.883 253.36 237.883C251.971 237.883 250.408 237.883 249.018 237.883H248.324V238.231C248.497 238.752 248.497 239.273 248.324 239.967C248.324 240.488 248.324 241.183 248.324 241.704C248.324 242.051 248.324 242.225 248.15 242.572C248.324 242.572 248.497 242.572 248.671 242.572C248.671 242.572 249.018 242.572 249.192 242.572C249.539 242.572 249.887 242.572 250.234 242.572C250.755 242.572 251.276 242.572 251.971 242.572C253.186 242.572 254.402 242.572 255.618 242.572C255.965 242.572 256.312 242.572 256.66 242.572C258.223 242.572 259.786 242.572 261.349 242.225H262.738C262.738 241.183 262.391 240.488 262.391 239.62L262.217 239.446Z" fill="white"/>
<path d="M288.614 234.41C288.267 234.062 288.093 233.541 287.746 233.02C287.399 232.673 287.051 232.326 286.53 231.978C286.53 231.978 286.183 231.978 286.183 231.805C285.662 231.457 285.141 231.284 284.62 231.11C284.099 230.936 283.404 230.763 282.709 230.763C281.841 230.763 280.973 230.763 280.278 230.763C279.41 230.763 278.715 231.11 277.847 231.11C276.805 231.284 275.763 231.631 274.721 232.152C274.2 232.499 273.679 232.673 273.158 232.847C274.374 233.368 275.936 235.104 276.284 234.931C276.631 234.931 276.979 234.931 277.326 234.931C278.021 234.757 278.889 234.583 279.584 234.583C280.278 234.583 280.973 234.583 281.668 234.583C281.841 234.583 282.188 234.583 282.362 234.583C282.883 234.583 283.578 234.931 283.925 235.278C283.925 235.278 284.099 235.452 284.099 235.625V235.973C284.099 236.146 283.925 236.494 283.578 236.667L280.799 239.272C280.799 239.272 280.626 239.446 280.452 239.62C279.757 239.967 279.41 240.488 278.715 240.835C278.194 241.183 277.673 241.704 277.152 242.051C276.631 242.398 276.11 242.746 275.589 243.093L274.721 243.614C274.721 243.614 274.374 243.788 274.2 243.961C273.853 244.135 273.505 244.309 273.158 244.482C272.29 245.003 271.421 245.524 270.379 245.698C268.643 246.045 268.295 245.872 268.295 246.045C268.295 246.045 267.774 246.566 267.601 246.74C267.427 247.087 267.253 247.261 267.253 247.608C267.253 248.129 267.253 248.824 267.253 248.998C266.732 249.519 267.253 249.171 267.253 249.692C267.253 250.387 266.906 250.213 267.253 250.908C267.253 250.908 267.253 251.255 267.253 251.429C267.601 251.429 268.122 251.429 268.469 251.429C268.643 251.429 268.99 251.429 269.164 251.429C272.116 250.734 274.721 248.998 274.895 248.998C275.416 248.65 275.937 248.303 276.458 247.956C276.631 247.956 276.805 247.782 276.979 247.608C277.673 247.261 278.368 246.914 278.889 246.393C278.889 246.393 279.063 246.219 279.236 246.219C279.583 246.045 279.931 245.698 280.278 245.351C280.278 245.351 280.452 245.177 280.625 245.177C280.625 245.177 280.973 245.177 280.973 245.003C281.32 244.656 281.668 244.482 282.015 244.135C282.362 243.788 282.709 243.614 283.23 243.267C283.23 243.267 283.404 243.093 283.578 242.919L285.488 241.183C285.488 241.183 285.835 241.183 285.835 240.835C286.183 240.314 286.704 239.967 286.878 239.446C286.878 239.272 287.225 238.925 287.398 238.751C287.746 238.404 287.919 237.883 287.919 237.362C287.919 236.841 287.919 236.32 287.919 235.799C287.919 235.452 287.92 234.931 287.746 234.583L288.614 234.41Z" fill="white"/>
<path d="M277.847 233.889C277.847 233.368 279.757 231.11 278.542 231.11C277.5 231.11 274.721 231.11 274.2 231.11C273.853 231.11 273.679 231.11 273.505 230.936C273.505 230.936 273.331 230.763 273.158 230.589V230.242C273.158 229.721 273.679 229.2 274.026 228.679C274.2 228.679 274.373 228.331 274.547 228.331C275.068 227.81 275.589 227.463 276.284 227.116C276.805 226.595 277.5 226.421 278.194 226.074C278.368 226.074 278.541 226.074 278.715 225.9C279.062 225.726 279.41 225.553 279.931 225.553C280.625 225.553 281.146 225.379 281.841 225.205C282.015 225.205 282.188 225.205 282.362 225.205C282.362 225.205 282.536 225.205 282.709 225.205C282.709 225.205 282.883 225.205 282.883 225.032C282.883 225.032 283.23 224.684 283.23 224.511C283.23 224.163 282.883 223.469 282.883 223.121C282.883 222.774 282.883 222.774 282.536 222.427C282.362 222.079 282.188 221.906 282.188 222.079C282.188 222.079 282.015 222.079 281.841 222.079C281.32 222.079 280.973 222.079 280.452 222.253C279.757 222.427 279.063 222.6 278.542 222.6C277.5 222.774 276.284 223.121 275.415 223.642C274.721 224.163 274.026 224.337 273.332 224.858C272.637 225.379 271.942 225.726 271.421 226.247C270.9 226.595 270.553 227.116 270.205 227.637C269.858 228.158 269.511 228.679 269.337 229.2C269.337 229.2 269.337 229.547 269.164 229.547C268.99 230.068 268.816 230.589 268.816 231.11C268.816 231.631 268.99 232.152 268.816 232.673C268.816 233.02 269.163 233.541 269.337 233.889C269.684 234.236 270.032 234.236 270.553 234.757C270.9 235.104 271.074 235.278 271.595 235.452C271.942 235.452 272.29 235.625 272.637 235.799C273.331 235.973 274.026 236.146 274.721 236.146C275.589 236.146 276.631 236.146 277.499 235.973C279.236 235.625 277.847 235.625 277.847 234.757V233.889Z" fill="white"/>
<path d="M267.254 214.091C267.254 214.091 267.254 213.917 267.254 213.744C267.254 213.744 267.254 213.223 267.08 213.049H266.906C266.906 213.049 266.906 212.875 266.906 212.702C266.559 212.528 265.864 212.007 265.691 211.833C265.691 211.833 265.691 211.486 265.691 211.312C265.691 211.312 265.17 211.312 265.17 210.965C265.17 210.791 265.17 210.965 265.17 210.791C264.301 210.965 263.433 211.139 262.738 211.486C261.002 212.007 259.265 212.528 257.702 213.396C257.355 213.57 256.834 213.744 256.486 214.091C255.965 214.091 255.792 214.612 255.444 214.959C255.444 214.959 255.097 215.133 254.923 215.307C254.576 215.307 254.402 215.654 254.229 215.828C254.229 215.828 254.229 215.828 254.402 215.828C254.576 215.828 254.75 215.828 254.75 216.001C254.75 216.175 254.75 216.175 254.75 216.349C254.75 216.522 254.75 216.696 254.75 216.696C254.75 216.696 254.923 216.696 255.097 216.696C255.097 216.696 255.097 216.696 255.271 216.87C255.271 216.87 255.271 217.043 255.271 217.217C255.271 217.217 255.271 217.217 255.097 217.217H254.923C254.923 217.564 254.923 217.738 255.097 218.085C255.271 218.085 255.618 218.085 255.792 218.085C256.139 218.259 256.139 218.085 256.313 218.085C256.486 218.085 256.66 218.259 257.007 218.259C257.181 218.259 257.528 218.259 257.702 218.085C257.702 218.085 258.049 218.085 258.223 217.912C258.918 217.738 259.439 217.391 260.133 217.217C261.002 216.87 261.87 216.522 262.912 216.175C263.259 216.175 263.433 216.001 263.78 215.828C263.78 215.828 264.128 215.828 264.301 215.654C264.649 215.654 264.996 215.654 265.343 215.48C265.864 215.307 266.385 215.133 266.906 214.959C267.427 214.959 267.08 214.959 267.775 214.612L268.122 214.265C268.122 214.265 268.122 214.091 268.122 213.917L267.254 214.091Z" fill="white"/>
</svg>
